<?xml version="1.0" encoding="UTF-8"?>
<svg width="31px" height="32px" viewBox="0 0 31 32" version="1.1" xmlns="http://www.w3.org/2000/svg" xmlns:xlink="http://www.w3.org/1999/xlink">
    <title>B9497E98-77E1-435F-AF08-3B25A6E94166@3x</title>
    <g id="LP" stroke="none" stroke-width="1" fill="none" fill-rule="evenodd">
        <g id="01-1-1-LP" transform="translate(-415.000000, -8784.000000)" fill-rule="nonzero">
            <g id="Geotargetting-For-+50-" transform="translate(-228.700000, 7496.500000)">
                <g id="Rectangle" transform="translate(603.700000, 409.500000)">
                    <g id="Group-10" transform="translate(-8.000000, 859.924650)">
                        <g id="Flag/Australia" transform="translate(48.000000, 19.020452)">
                            <path d="M30.72,15.4365985 C30.72,23.9287699 23.84304,30.8131324 15.36,30.8131324 C6.87696,30.8131324 0,23.9287699 0,15.4365985 C0,15.4402024 15.36,0.0618064586 15.36,0.0600645856 C23.84304,0.0600645856 30.72,6.94442713 30.72,15.4365985 Z" id="Path" fill="#0052B4"></path>
                            <g id="Group" fill="#F0F0F0">
                                <path d="M15.38086,0.0800660926 C15.37946,0.0800660926 15.37796,0.0801662002 15.37656,0.0801662002 L15.38086,0.0800660926 L15.38086,0.0800660926 Z" id="Path"></path>
                                <path d="M15.3252,15.4703348 L15.3937,15.4703348 C15.3937,15.4471098 15.3937,15.4248859 15.3937,15.401761 C15.3709,15.4246857 15.3481,15.4475102 15.3252,15.4703348 Z" id="Path"></path>
                                <path d="M15.36006,8.08265102 C15.36006,5.37704177 15.36006,3.60411539 15.36006,0.0601246502 L15.35742,0.0601246502 C6.87552,0.0615061356 0,6.94520797 0,15.4365985 L8.0139,15.4365985 L8.0139,10.9190209 L12.52662,15.4365985 L15.31896,15.4365985 C15.3327,15.4229038 15.34638,15.409209 15.36006,15.3954543 C15.36006,14.3595203 15.36006,13.4351864 15.36006,12.6002887 L10.84728,8.08265102 L15.36006,8.08265102 Z" id="Path"></path>
                            </g>
                            <g id="Group" transform="translate(1.980000, 2.042196)" fill="#D80027">
                                <path d="M5.7909,0.023485253 C3.38856,1.39289774 1.3914,3.39220753 0.02346,5.79713348 L0.02346,13.3944026 L4.03044,13.3944026 L4.03044,4.03483854 L4.03044,4.03477847 L13.38,4.03477847 C13.38,2.76963811 13.38,1.56438213 13.38,0.023485253 L5.7909,0.023485253 Z" id="Path"></path>
                                <path d="M13.38,11.5035094 L7.92282,6.04048848 L6.03396,6.04048848 C6.03396,6.04048848 6.03396,6.04048848 6.03396,6.04048848 L13.38,13.3944026 L13.38,13.3944026 C13.38,13.3944026 13.38,12.0907008 13.38,11.5035094 Z" id="Path"></path>
                            </g>
                            <g id="Group" transform="translate(5.820000, 6.727234)" fill="#F0F0F0">
                                <polygon id="Path" points="3.4437 11.3835604 4.2867 13.1481378 6.19032 12.7076842 5.33784 14.4676967 6.86868 15.6829834 4.96266 16.1130459 4.968 18.068989 3.4437 16.8452932 1.91946 18.068989 1.9248 16.1130459 0.01872 15.6829834 1.54962 14.4676967 0.69702 12.7076842 2.60076 13.1481378"></polygon>
                                <polygon id="Path" points="17.17704 14.7262747 17.59854 15.6085634 18.55038 15.3883066 18.12408 16.2683128 18.88956 16.8759862 17.93652 17.0910174 17.93916 18.068989 17.17704 17.4571111 16.41492 18.068989 16.41756 17.0910174 15.46458 16.8759862 16.23 16.2683128 15.80376 15.3883066 16.75554 15.6085634"></polygon>
                                <polygon id="Path" points="13.25598 5.36665059 13.67742 6.24899935 14.62926 6.02868245 14.20302 6.9086887 14.96844 7.51636211 14.01546 7.73139333 14.01804 8.70936491 13.25598 8.09748698 12.49386 8.70936491 12.49644 7.73139333 11.54346 7.51636211 12.30888 6.9086887 11.88264 6.02868245 12.83448 6.24899935"></polygon>
                                <polygon id="Path" points="17.17704 0.018259634 17.59854 0.900608396 18.55038 0.680351561 18.12414 1.5603578 18.8895 2.16797115 17.93652 2.38306243 17.93916 3.36103402 17.17704 2.74915608 16.41492 3.36103402 16.41756 2.38306243 15.46458 2.16797115 16.22994 1.5603578 15.80376 0.680351561 16.75554 0.900608396"></polygon>
                                <polygon id="Path" points="20.60208 4.02955285 21.02352 4.91190161 21.97536 4.69158471 21.54912 5.57159096 22.31454 6.17926437 21.3615 6.39435565 21.36414 7.37226717 20.60208 6.7604493 19.83996 7.37226717 19.84254 6.39435565 18.88956 6.17926437 19.65498 5.57159096 19.22874 4.69158471 20.18052 4.91190161"></polygon>
                                <polygon id="Path" points="18.153 8.70936491 18.4845 9.73082325 19.55742 9.73082325 18.6894 10.3621621 19.02102 11.3835604 18.153 10.7522816 17.28504 11.3835604 17.61654 10.3621621 16.74858 9.73082325 17.82144 9.73082325"></polygon>
                            </g>
                        </g>
                    </g>
                </g>
            </g>
        </g>
    </g>
</svg>