<?xml version="1.0" encoding="UTF-8"?>
<svg width="32px" height="33px" viewBox="0 0 32 33" version="1.1" xmlns="http://www.w3.org/2000/svg" xmlns:xlink="http://www.w3.org/1999/xlink">
    <title>1F76FD77-8BFD-43A9-9B23-EF0D56D498F2@3x</title>
    <g id="LP" stroke="none" stroke-width="1" fill="none" fill-rule="evenodd">
        <g id="01-1-1-LP" transform="translate(-415.000000, -7992.000000)" fill-rule="nonzero">
            <g id="Geotargetting-For-+50-" transform="translate(-228.700000, 7496.500000)">
                <g id="Rectangle" transform="translate(603.700000, 409.500000)">
                    <g id="Group-10" transform="translate(-8.000000, 67.072121)">
                        <g id="Flag/USA" transform="translate(48.000000, 19.020452)">
                            <ellipse id="Oval" fill="#F0F0F0" cx="15.36" cy="15.3765339" rx="15.36" ry="15.3765339"></ellipse>
                            <g id="Group" transform="translate(0.480000, 3.303552)" fill="#D80027">
                                <path d="M14.2122,12.0729817 L30.24,12.0729817 C30.24,10.6851294 30.0552,9.3406437 29.71086,8.06168848 L14.2122,8.06168848 L14.2122,12.0729817 Z" id="Path"></path>
                                <path d="M14.2122,4.05045533 L27.98556,4.05045533 C27.0453,2.51448375 25.84308,1.15684392 24.44136,0.0391621098 L14.2122,0.0391621098 L14.2122,4.05045533 Z" id="Path"></path>
                                <path d="M14.88,27.4495156 C18.49494,27.4495156 21.81756,26.1987307 24.44136,24.1068013 L5.31864,24.1068013 C7.94244,26.1987307 11.26506,27.4495156 14.88,27.4495156 Z" id="Path"></path>
                                <path d="M1.77444,20.0955081 L27.98556,20.0955081 C28.74042,18.8624422 29.32584,17.5145929 29.71086,16.0842149 L0.04914,16.0842149 C0.43416,17.5145929 1.01958,18.8624422 1.77444,20.0955081 Z" id="Path"></path>
                            </g>
                            <path d="M7.11504,2.401262 L8.51478,2.401262 L7.21278,3.34818019 L7.71012,4.88036771 L6.40818,3.93344952 L5.10624,4.88036771 L5.53584,3.55672443 C4.38948,4.51265231 3.38472,5.63261658 2.55672,6.88051841 L3.00522,6.88051841 L2.17644,7.48326652 C2.04732,7.69889839 1.92348,7.91795393 1.8048,8.14025296 L2.20056,9.35962411 L1.4622,8.82258665 C1.27866,9.21186523 1.11078,9.60991324 0.95988,10.0162502 L1.3959,11.3597748 L3.00522,11.3597748 L1.70322,12.306693 L2.20056,13.8388805 L0.89862,12.8919623 L0.11874,13.4592123 C0.04068,14.0873677 0,14.7271757 0,15.3765339 L15.36,15.3765339 C15.36,6.88436254 15.36,5.88320603 15.36,0 C12.32568,0 9.4971,0.88114747 7.11504,2.401262 Z M7.71012,13.8388805 L6.40818,12.8919623 L5.10624,13.8388805 L5.60358,12.306693 L4.30158,11.3597748 L5.9109,11.3597748 L6.40818,9.8275873 L6.90546,11.3597748 L8.51478,11.3597748 L7.21278,12.306693 L7.71012,13.8388805 Z M7.21278,7.8274366 L7.71012,9.35962411 L6.40818,8.41270592 L5.10624,9.35962411 L5.60358,7.8274366 L4.30158,6.88051841 L5.9109,6.88051841 L6.40818,5.34833089 L6.90546,6.88051841 L8.51478,6.88051841 L7.21278,7.8274366 Z M13.21968,13.8388805 L11.91774,12.8919623 L10.6158,13.8388805 L11.11314,12.306693 L9.81114,11.3597748 L11.42046,11.3597748 L11.91774,9.8275873 L12.41502,11.3597748 L14.02434,11.3597748 L12.72234,12.306693 L13.21968,13.8388805 Z M12.72234,7.8274366 L13.21968,9.35962411 L11.91774,8.41270592 L10.6158,9.35962411 L11.11314,7.8274366 L9.81114,6.88051841 L11.42046,6.88051841 L11.91774,5.34833089 L12.41502,6.88051841 L14.02434,6.88051841 L12.72234,7.8274366 Z M12.72234,3.34818019 L13.21968,4.88036771 L11.91774,3.93344952 L10.6158,4.88036771 L11.11314,3.34818019 L9.81114,2.401262 L11.42046,2.401262 L11.91774,0.869074489 L12.41502,2.401262 L14.02434,2.401262 L12.72234,3.34818019 Z" id="Shape" fill="#0052B4"></path>
                        </g>
                    </g>
                </g>
            </g>
        </g>
    </g>
</svg>