<?xml version="1.0" encoding="UTF-8"?>
<svg width="31px" height="33px" viewBox="0 0 31 33" version="1.1" xmlns="http://www.w3.org/2000/svg" xmlns:xlink="http://www.w3.org/1999/xlink">
    <title>C5E7431E-915D-4F64-A6A8-2B876619A680@3x</title>
    <g id="LP" stroke="none" stroke-width="1" fill="none" fill-rule="evenodd">
        <g id="01-1-1-LP" transform="translate(-415.000000, -8137.000000)" fill-rule="nonzero">
            <g id="Geotargetting-For-+50-" transform="translate(-228.700000, 7496.500000)">
                <g id="Rectangle" transform="translate(603.700000, 409.500000)">
                    <g id="Group-10" transform="translate(-8.000000, 211.227126)">
                        <g id="Flag/United-Kindom" transform="translate(48.000000, 20.021529)">
                            <ellipse id="Oval" fill="#F0F0F0" cx="15.36" cy="15.3765339" rx="15.36" ry="15.3765339"></ellipse>
                            <g id="Group" transform="translate(0.480000, 0.480517)" fill="#0052B4">
                                <path d="M2.6952,5.53447104 C1.48866,7.1059408 0.57888,8.91718837 0.04914,10.8848441 L8.03982,10.8848441 L2.6952,5.53447104 Z" id="Path"></path>
                                <path d="M29.71086,10.8848441 C29.18112,8.91724844 28.27128,7.10600086 27.0648,5.53453111 L21.7203,10.8848441 L29.71086,10.8848441 Z" id="Path"></path>
                                <path d="M0.04914,18.9073705 C0.57894,20.8749662 1.48872,22.6862138 2.6952,24.2576235 L8.03964,18.9073705 L0.04914,18.9073705 L0.04914,18.9073705 Z" id="Path"></path>
                                <path d="M24.23148,2.69816125 C22.6617,1.4903225 20.85246,0.579563186 18.88692,0.0491928956 L18.88692,8.04841421 L24.23148,2.69816125 Z" id="Path"></path>
                                <path d="M5.52852,27.0938732 C7.0983,28.3017119 8.9076,29.2124713 10.87308,29.7428416 L10.87308,21.7436803 L5.52852,27.0938732 Z" id="Path"></path>
                                <path d="M10.87302,0.0491928956 C8.90754,0.579563186 7.09824,1.4903225 5.52852,2.69810118 L10.87302,8.04835414 L10.87302,0.0491928956 Z" id="Path"></path>
                                <path d="M18.88698,29.7428416 C20.85246,29.2124713 22.66176,28.3017119 24.23148,27.0939333 L18.88698,21.7436803 L18.88698,29.7428416 Z" id="Path"></path>
                                <path d="M21.7203,18.9073705 L27.0648,24.2576835 C28.27128,22.6862738 29.18112,20.8749662 29.71086,18.9073705 L21.7203,18.9073705 Z" id="Path"></path>
                            </g>
                            <g id="Group" fill="#D80027">
                                <path d="M30.58998,13.3709173 L17.36358,13.3709173 L17.36352,13.3709173 L17.36352,0.130159957 C16.70766,0.0446880517 16.03902,0 15.36,0 C14.68086,0 14.01234,0.0446880517 13.35654,0.130159957 L13.35654,13.3707972 L13.35654,13.3708573 L0.13002,13.3708573 C0.04464,14.0274233 0,14.696783 0,15.3765339 C0,16.056405 0.04464,16.7256446 0.13002,17.3821505 L13.35642,17.3821505 L13.35648,17.3821505 L13.35648,30.6229079 C14.01234,30.7083798 14.68086,30.7530678 15.36,30.7530678 C16.03902,30.7530678 16.70766,30.7084398 17.36346,30.6229079 L17.36346,17.3822706 L17.36346,17.3822105 L30.58998,17.3822105 C30.67536,16.7256446 30.72,16.056405 30.72,15.3765339 C30.72,14.696783 30.67536,14.0274233 30.58998,13.3709173 Z" id="Path"></path>
                                <path d="M19.36698,19.3878271 L19.36698,19.3878271 L26.22114,26.2494252 C26.53638,25.933966 26.8371,25.6041513 27.12402,25.2622637 L21.2559,19.3878271 L19.36698,19.3878271 L19.36698,19.3878271 Z" id="Path"></path>
                                <path d="M11.35302,19.3878872 L11.3529,19.3878872 L4.4988,26.2493651 C4.81392,26.5649445 5.14338,26.8659882 5.4849,27.153217 L11.35302,21.2786603 L11.35302,19.3878872 Z" id="Path"></path>
                                <path d="M11.35302,11.3653608 L11.35302,11.3652407 L4.49886,4.50364263 C4.18362,4.81910183 3.8829,5.14891647 3.59598,5.49080409 L9.46416,11.3653608 L11.35302,11.3653608 L11.35302,11.3653608 Z" id="Path"></path>
                                <path d="M19.36698,11.3653608 L19.36698,11.3653608 L26.2212,4.50370269 C25.90608,4.18812336 25.57662,3.88707966 25.2351,3.59991087 L19.36698,9.47440753 L19.36698,11.3653608 L19.36698,11.3653608 Z" id="Path"></path>
                            </g>
                        </g>
                    </g>
                </g>
            </g>
        </g>
    </g>
</svg>