<?xml version="1.0" encoding="UTF-8"?>
<svg width="31px" height="32px" viewBox="0 0 31 32" version="1.1" xmlns="http://www.w3.org/2000/svg" xmlns:xlink="http://www.w3.org/1999/xlink">
    <title>332037FB-E6F3-496F-B935-F2D28409CACD@3x</title>
    <g id="LP" stroke="none" stroke-width="1" fill="none" fill-rule="evenodd">
        <g id="01-1-1-LP" transform="translate(-415.000000, -8568.000000)" fill-rule="nonzero">
            <g id="Geotargetting-For-+50-" transform="translate(-228.700000, 7496.500000)">
                <g id="Rectangle" transform="translate(603.700000, 409.500000)">
                    <g id="Group-10" transform="translate(-8.000000, 643.692142)">
                        <g id="Flag/India" transform="translate(48.000000, 19.020452)">
                            <ellipse id="Oval" fill="#F0F0F0" cx="15.36" cy="15.3765339" rx="15.36" ry="15.3765339"></ellipse>
                            <path d="M15.36,0 C9.27036,0 4.0086,3.54771475 1.52412,8.69110527 L29.19582,8.69110527 C26.7114,3.54771475 21.44958,0 15.36,0 Z" id="Path" fill="#FF9811"></path>
                            <path d="M15.36,30.7530678 C21.44958,30.7530678 26.7114,27.2053531 29.19588,22.0619625 L1.52412,22.0619625 C4.0086,27.2053531 9.27036,30.7530678 15.36,30.7530678 Z" id="Path" fill="#6DA544"></path>
                            <ellipse id="Oval" fill="#0052B4" cx="15.36" cy="15.3765339" rx="5.34258" ry="5.34833089"></ellipse>
                            <ellipse id="Oval" fill="#F0F0F0" cx="15.36" cy="15.3765339" rx="3.33912" ry="3.34271432"></ellipse>
                            <polygon id="Path" fill="#0052B4" points="15.36 11.2516586 16.39014 13.5904534 18.92838 13.3140962 17.42022 15.3765339 18.92838 17.4389716 16.39014 17.1626144 15.36 19.5014093 14.32986 17.1626144 11.79162 17.4389115 13.29978 15.3765339 11.79162 13.3140962 14.32986 13.5904534"></polygon>
                        </g>
                    </g>
                </g>
            </g>
        </g>
    </g>
</svg>