<?xml version="1.0" encoding="UTF-8"?>
<svg width="31px" height="32px" viewBox="0 0 31 32" version="1.1" xmlns="http://www.w3.org/2000/svg" xmlns:xlink="http://www.w3.org/1999/xlink">
    <title>AD5C2FF6-9C2B-4A7D-A5CA-E3E70EC55E89@3x</title>
    <g id="LP" stroke="none" stroke-width="1" fill="none" fill-rule="evenodd">
        <g id="01-1-1-LP" transform="translate(-415.000000, -8425.000000)" fill-rule="nonzero">
            <g id="Geotargetting-For-+50-" transform="translate(-228.700000, 7496.500000)">
                <g id="Rectangle" transform="translate(603.700000, 409.500000)">
                    <g id="Group-10" transform="translate(-8.000000, 499.537137)">
                        <g id="Flag/Brazil" transform="translate(48.000000, 20.021529)">
                            <ellipse id="Oval" fill="#6DA544" cx="15.36" cy="15.3765339" rx="15.36" ry="15.3765339"></ellipse>
                            <polygon id="Path" fill="#FFDA44" points="15.36 6.0169098 28.04868 15.3765339 15.36 24.736158 2.67132 15.3765339"></polygon>
                            <ellipse id="Oval" fill="#F0F0F0" cx="15.36" cy="15.3765339" rx="5.34258" ry="5.34833089"></ellipse>
                            <g id="Group" transform="translate(9.960000, 9.970721)" fill="#0052B4">
                                <path d="M2.72868,5.07155328 C1.79964,5.07155328 0.90306,5.21300538 0.0591,5.47548762 C0.09648,8.39702906 2.47272,10.7542037 5.4,10.7542037 C7.21008,10.7542037 8.80872,9.85221378 9.77514,8.47367147 C8.12172,6.40162347 5.57766,5.07155328 2.72868,5.07155328 Z" id="Path"></path>
                                <path d="M10.64358,6.43051453 C10.7079,6.09871776 10.74264,5.75640969 10.74264,5.4058127 C10.74264,2.45195651 8.35068,0.0574818084 5.40006,0.0574818084 C3.19842,0.0574818084 1.30842,1.39097567 0.4905,3.29490291 C1.2135,3.14492164 1.96206,3.06593671 2.7288,3.06593671 C5.83182,3.06587664 8.63898,4.3571451 10.64358,6.43051453 Z" id="Path"></path>
                            </g>
                        </g>
                    </g>
                </g>
            </g>
        </g>
    </g>
</svg>