<?xml version="1.0" encoding="UTF-8"?>
<svg width="31px" height="32px" viewBox="0 0 31 32" version="1.1" xmlns="http://www.w3.org/2000/svg" xmlns:xlink="http://www.w3.org/1999/xlink">
    <title>A7FE2B33-2937-414A-9C16-D2C27CC5F2F3@3x</title>
    <g id="LP" stroke="none" stroke-width="1" fill="none" fill-rule="evenodd">
        <g id="01-1-1-LP" transform="translate(-415.000000, -8641.000000)" fill-rule="nonzero">
            <g id="Geotargetting-For-+50-" transform="translate(-228.700000, 7496.500000)">
                <g id="Rectangle" transform="translate(603.700000, 409.500000)">
                    <g id="Group-10" transform="translate(-8.000000, 715.769645)">
                        <g id="Flag/China" transform="translate(48.000000, 20.021529)">
                            <ellipse id="Oval" fill="#D80027" cx="15.36" cy="15.3765339" rx="15.36" ry="15.3765339"></ellipse>
                            <g id="Group" transform="translate(2.760000, 6.847363)" fill="#FFDA44">
                                <polygon id="Path" points="5.646 2.51069968 6.972 6.5950915 11.262 6.5950915 7.794 9.12381055 9.12 13.2082024 5.646 10.6854898 2.172 13.2082024 3.504 9.12381055 0.03 6.5950915 4.32 6.5950915"></polygon>
                                <polygon id="Path" points="15.45 16.9682454 14.436 15.718902 12.936 16.3015285 13.806 14.9500753 12.792 13.6947255 14.346 14.1091712 15.222 12.757718 15.306 14.3674489 16.866 14.7818945 15.36 15.3585145"></polygon>
                                <polygon id="Path" points="17.466 13.3043057 17.946 11.7666523 16.632 10.8356512 18.24 10.8116254 18.714 9.27397201 19.236 10.7996125 20.844 10.7815931 19.554 11.7426265 20.07 13.268267 18.756 12.3372659"></polygon>
                                <polygon id="Path" points="20.184 4.43877287 19.476 5.88632939 20.628 7.00953714 19.038 6.78129171 18.33 8.22284177 18.054 6.63713671 16.458 6.40889128 17.886 5.65808396 17.61 4.06637244 18.762 5.18958019"></polygon>
                                <polygon id="Path" points="15.492 0.054058127 15.372 1.65778256 16.866 2.26443488 15.3 2.64884822 15.186 4.25857912 14.34 2.88910657 12.774 3.27351991 13.812 2.04219591 12.96 0.678729817 14.454 1.28538213"></polygon>
                            </g>
                        </g>
                    </g>
                </g>
            </g>
        </g>
    </g>
</svg>