<?xml version="1.0" encoding="UTF-8"?>
<svg width="31px" height="32px" viewBox="0 0 31 32" version="1.1" xmlns="http://www.w3.org/2000/svg" xmlns:xlink="http://www.w3.org/1999/xlink">
    <title>AD14FD3D-E6B2-41E4-B9AB-737F714E6134@3x</title>
    <g id="LP" stroke="none" stroke-width="1" fill="none" fill-rule="evenodd">
        <g id="01-1-1-LP" transform="translate(-415.000000, -8209.000000)" fill-rule="nonzero">
            <g id="Geotargetting-For-+50-" transform="translate(-228.700000, 7496.500000)">
                <g id="Rectangle" transform="translate(603.700000, 409.500000)">
                    <g id="Group-10" transform="translate(-8.000000, 283.304629)">
                        <g id="Flag/Germany" transform="translate(48.000000, 20.021529)">
                            <path d="M0.95538,20.7248648 C3.12564,26.5802009 8.75574,30.7530678 15.36,30.7530678 C21.96426,30.7530678 27.59436,26.5802009 29.76462,20.7248648 L15.36,19.3878271 L0.95538,20.7248648 Z" id="Path" fill="#FFDA44"></path>
                            <path d="M15.36,0 C8.75574,0 3.12564,4.17280689 0.95538,10.028203 L15.36,11.3652407 L29.76462,10.0281429 C27.59436,4.17280689 21.96426,0 15.36,0 Z" id="Path" fill="#000000"></path>
                            <path d="M0.95538,10.028203 C0.33798,11.6939742 0,13.4956715 0,15.3765339 C0,17.2573963 0.33798,19.0590936 0.95538,20.7248648 L29.76468,20.7248648 C30.38208,19.0590936 30.72,17.2573963 30.72,15.3765339 C30.72,13.4956715 30.38208,11.6939742 29.76462,10.028203 L0.95538,10.028203 Z" id="Path" fill="#D80027"></path>
                        </g>
                    </g>
                </g>
            </g>
        </g>
    </g>
</svg>