<?xml version="1.0" encoding="UTF-8"?>
<svg width="31px" height="33px" viewBox="0 0 31 33" version="1.1" xmlns="http://www.w3.org/2000/svg" xmlns:xlink="http://www.w3.org/1999/xlink">
    <title>FC910DE8-C70A-4C2A-9E91-DAD39BC2CBE9@3x</title>
    <g id="LP" stroke="none" stroke-width="1" fill="none" fill-rule="evenodd">
        <g id="01-1-1-LP" transform="translate(-415.000000, -8353.000000)" fill-rule="nonzero">
            <g id="Geotargetting-For-+50-" transform="translate(-228.700000, 7496.500000)">
                <g id="Rectangle" transform="translate(603.700000, 409.500000)">
                    <g id="Group-10" transform="translate(-8.000000, 427.459634)">
                        <g id="Flag/Spain" transform="translate(48.000000, 20.021529)">
                            <path d="M0,15.3765339 C0,17.2573963 0.33798,19.0590936 0.95538,20.7248648 L15.36,22.0619625 L29.76462,20.7248648 C30.38202,19.0590936 30.72,17.2573963 30.72,15.3765339 C30.72,13.4956715 30.38202,11.6939742 29.76462,10.028203 L15.36,8.69110527 L0.95538,10.028203 C0.33798,11.6939742 0,13.4956715 0,15.3765339 Z" id="Path" fill="#FFDA44"></path>
                            <g id="Group" transform="translate(0.900000, 0.000000)" fill="#D80027">
                                <path d="M28.86462,10.028203 C26.69436,4.17286695 21.06426,0 14.46,0 C7.85574,0 2.22564,4.17286695 0.05538,10.028203 L28.86462,10.028203 Z" id="Path"></path>
                                <path d="M0.05538,20.7248648 C2.22564,26.5802009 7.85574,30.7530678 14.46,30.7530678 C21.06426,30.7530678 26.69436,26.5802009 28.86462,20.7248648 L0.05538,20.7248648 Z" id="Path"></path>
                            </g>
                        </g>
                    </g>
                </g>
            </g>
        </g>
    </g>
</svg>