<?xml version="1.0" encoding="UTF-8"?>
<svg width="31px" height="32px" viewBox="0 0 31 32" version="1.1" xmlns="http://www.w3.org/2000/svg" xmlns:xlink="http://www.w3.org/1999/xlink">
    <title>48DF6891-FFC6-48B9-845F-5ED45667DEB6@3x</title>
    <g id="LP" stroke="none" stroke-width="1" fill="none" fill-rule="evenodd">
        <g id="01-1-1-LP" transform="translate(-415.000000, -8065.000000)" fill-rule="nonzero">
            <g id="Geotargetting-For-+50-" transform="translate(-228.700000, 7496.500000)">
                <g id="Rectangle" transform="translate(603.700000, 409.500000)">
                    <g id="Group-10" transform="translate(-8.000000, 139.149623)">
                        <g id="Flag/Canada" transform="translate(48.000000, 20.021529)">
                            <ellipse id="Oval" fill="#F0F0F0" cx="15.36" cy="15.3765339" rx="15.36" ry="15.3765339"></ellipse>
                            <g id="Group" transform="translate(0.000000, 1.501615)" fill="#D80027">
                                <path d="M30.72,13.8749193 C30.72,7.77872422 27.1761,2.51130032 22.03824,0.0241459634 L22.03824,27.7256325 C27.1761,25.2385382 30.72,19.9711143 30.72,13.8749193 Z" id="Path"></path>
                                <path d="M0,13.8749193 C0,19.9711143 3.5439,25.2385382 8.68176,27.7256926 L8.68176,0.0241459634 C3.5439,2.51130032 0,7.77872422 0,13.8749193 Z" id="Path"></path>
                                <polygon id="Path" points="18.03132 15.8805358 20.70258 14.5434381 19.36698 13.8749193 19.36698 12.5378215 16.69566 13.8749193 18.03132 11.2007238 16.69566 11.2007238 15.36 9.19510721 14.02434 11.2007238 12.68868 11.2007238 14.02434 13.8749193 11.35302 12.5378215 11.35302 13.8749193 10.01742 14.5434381 12.68868 15.8805358 12.02088 17.2176336 14.6922 17.2176336 14.6922 19.2232502 16.0278 19.2232502 16.0278 17.2176336 18.69912 17.2176336"></polygon>
                            </g>
                        </g>
                    </g>
                </g>
            </g>
        </g>
    </g>
</svg>