<?xml version="1.0" encoding="UTF-8"?>
<svg width="31px" height="32px" viewBox="0 0 31 32" version="1.1" xmlns="http://www.w3.org/2000/svg" xmlns:xlink="http://www.w3.org/1999/xlink">
    <title>56A01DFB-032C-4CD5-9C7F-B8466CC9F638@3x</title>
    <g id="LP" stroke="none" stroke-width="1" fill="none" fill-rule="evenodd">
        <g id="01-1-1-LP" transform="translate(-415.000000, -8497.000000)" fill-rule="nonzero">
            <g id="Geotargetting-For-+50-" transform="translate(-228.700000, 7496.500000)">
                <g id="Rectangle" transform="translate(603.700000, 409.500000)">
                    <g id="Group-10" transform="translate(-8.000000, 571.614639)">
                        <g id="Flag/Mexico" transform="translate(48.000000, 20.021529)">
                            <ellipse id="Oval" fill="#F0F0F0" cx="15.36" cy="15.3765339" rx="15.36" ry="15.3765339"></ellipse>
                            <path d="M30.72,15.3765339 C30.72,9.28033886 27.1761,4.01291496 22.03824,1.5257606 L22.03824,29.2272471 C27.1761,26.7401529 30.72,21.472729 30.72,15.3765339 Z" id="Path" fill="#D80027"></path>
                            <g id="Group" transform="translate(0.000000, 1.501615)" fill="#6DA544">
                                <path d="M0,13.8749193 C0,19.9711143 3.5439,25.2385382 8.68176,27.7256926 L8.68176,0.0241459634 C3.5439,2.51130032 0,7.77872422 0,13.8749193 Z" id="Path"></path>
                                <path d="M11.35302,13.8749193 C11.35302,16.0902814 13.14702,17.8862125 15.36,17.8862125 C17.57298,17.8862125 19.36698,16.0902814 19.36698,13.8749193 L19.36698,12.5378215 L11.35302,12.5378215 L11.35302,13.8749193 Z" id="Path"></path>
                            </g>
                            <path d="M20.70258,12.7023384 L16.6956,12.7023384 C16.6956,11.9639044 16.09758,11.3652407 15.35994,11.3652407 C14.6223,11.3652407 14.02428,11.9639044 14.02428,12.7023384 L10.0173,12.7023384 C10.0173,13.4408325 10.65984,14.0394362 11.39742,14.0394362 L11.35296,14.0394362 C11.35296,14.7779302 11.95092,15.3765339 12.68862,15.3765339 C12.68862,16.115028 13.28658,16.7136316 14.02428,16.7136316 L16.6956,16.7136316 C17.4333,16.7136316 18.03126,16.115028 18.03126,15.3765339 C18.76896,15.3765339 19.36692,14.7779302 19.36692,14.0394362 L19.3224,14.0394362 C20.0601,14.0394362 20.70258,13.4408325 20.70258,12.7023384 Z" id="Path" fill="#FF9811"></path>
                        </g>
                    </g>
                </g>
            </g>
        </g>
    </g>
</svg>