<?xml version="1.0" encoding="UTF-8"?>
<svg width="1292px" height="327px" viewBox="0 0 1292 327" version="1.1" xmlns="http://www.w3.org/2000/svg" xmlns:xlink="http://www.w3.org/1999/xlink">
    <title>D849D755-01D7-425F-9E7B-202C89185FFB@3x</title>
    <g id="Main-Page" stroke="none" stroke-width="1" fill="none" fill-rule="evenodd">
        <g id="02-1-2-Pricing" transform="translate(-314.000000, -2546.000000)" fill="#F0E6F9">
            <g id="Shape---25" transform="translate(314.000000, 2546.000000)">
                <g id="Group">
                    <circle id="Oval-Copy-169" cx="418" cy="321" r="5.2"></circle>
                    <circle id="Oval-Copy-168" cx="383.6" cy="321" r="5.2"></circle>
                    <circle id="Oval-Copy-167" cx="349.2" cy="321" r="5.2"></circle>
                    <circle id="Oval-Copy-166" cx="314.8" cy="321" r="5.2"></circle>
                    <circle id="Oval-Copy-165" cx="280.4" cy="321" r="5.2"></circle>
                    <circle id="Oval-Copy-164" cx="246" cy="321" r="5.2"></circle>
                    <circle id="Oval-Copy-163" cx="211.6" cy="321" r="5.2"></circle>
                    <circle id="Oval-Copy-162" cx="177.2" cy="321" r="5.2"></circle>
                    <circle id="Oval-Copy-161" cx="142.8" cy="321" r="5.2"></circle>
                    <circle id="Oval-Copy-160" cx="108.4" cy="321" r="5.2"></circle>
                    <circle id="Oval-Copy-159" cx="74" cy="321" r="5.2"></circle>
                    <circle id="Oval-Copy-158" cx="39.6" cy="321" r="5.2"></circle>
                    <circle id="Oval-Copy-157" cx="5.2" cy="321" r="5.2"></circle>
                    <circle id="Oval-Copy-156" cx="418" cy="286.6" r="5.2"></circle>
                    <circle id="Oval-Copy-155" cx="383.6" cy="286.6" r="5.2"></circle>
                    <circle id="Oval-Copy-154" cx="349.2" cy="286.6" r="5.2"></circle>
                    <circle id="Oval-Copy-153" cx="314.8" cy="286.6" r="5.2"></circle>
                    <circle id="Oval-Copy-152" cx="280.4" cy="286.6" r="5.2"></circle>
                    <circle id="Oval-Copy-151" cx="246" cy="286.6" r="5.2"></circle>
                    <circle id="Oval-Copy-150" cx="211.6" cy="286.6" r="5.2"></circle>
                    <circle id="Oval-Copy-149" cx="177.2" cy="286.6" r="5.2"></circle>
                    <circle id="Oval-Copy-148" cx="142.8" cy="286.6" r="5.2"></circle>
                    <circle id="Oval-Copy-147" cx="108.4" cy="286.6" r="5.2"></circle>
                    <circle id="Oval-Copy-146" cx="74" cy="286.6" r="5.2"></circle>
                    <circle id="Oval-Copy-145" cx="39.6" cy="286.6" r="5.2"></circle>
                    <circle id="Oval-Copy-144" cx="5.2" cy="286.6" r="5.2"></circle>
                    <circle id="Oval-Copy-143" cx="418" cy="252.2" r="5.2"></circle>
                    <circle id="Oval-Copy-142" cx="383.6" cy="252.2" r="5.2"></circle>
                    <circle id="Oval-Copy-141" cx="349.2" cy="252.2" r="5.2"></circle>
                    <circle id="Oval-Copy-140" cx="314.8" cy="252.2" r="5.2"></circle>
                    <circle id="Oval-Copy-139" cx="280.4" cy="252.2" r="5.2"></circle>
                    <circle id="Oval-Copy-138" cx="246" cy="252.2" r="5.2"></circle>
                    <circle id="Oval-Copy-137" cx="211.6" cy="252.2" r="5.2"></circle>
                    <circle id="Oval-Copy-136" cx="177.2" cy="252.2" r="5.2"></circle>
                    <circle id="Oval-Copy-135" cx="142.8" cy="252.2" r="5.2"></circle>
                    <circle id="Oval-Copy-134" cx="108.4" cy="252.2" r="5.2"></circle>
                    <circle id="Oval-Copy-133" cx="74" cy="252.2" r="5.2"></circle>
                    <circle id="Oval-Copy-132" cx="39.6" cy="252.2" r="5.2"></circle>
                    <circle id="Oval-Copy-131" cx="5.2" cy="252.2" r="5.2"></circle>
                    <circle id="Oval-Copy-130" cx="418" cy="217.8" r="5.2"></circle>
                    <circle id="Oval-Copy-129" cx="383.6" cy="217.8" r="5.2"></circle>
                    <circle id="Oval-Copy-128" cx="349.2" cy="217.8" r="5.2"></circle>
                    <circle id="Oval-Copy-127" cx="314.8" cy="217.8" r="5.2"></circle>
                    <circle id="Oval-Copy-126" cx="280.4" cy="217.8" r="5.2"></circle>
                    <circle id="Oval-Copy-125" cx="246" cy="217.8" r="5.2"></circle>
                    <circle id="Oval-Copy-124" cx="211.6" cy="217.8" r="5.2"></circle>
                    <circle id="Oval-Copy-123" cx="177.2" cy="217.8" r="5.2"></circle>
                    <circle id="Oval-Copy-122" cx="142.8" cy="217.8" r="5.2"></circle>
                    <circle id="Oval-Copy-121" cx="108.4" cy="217.8" r="5.2"></circle>
                    <circle id="Oval-Copy-120" cx="74" cy="217.8" r="5.2"></circle>
                    <circle id="Oval-Copy-119" cx="39.6" cy="217.8" r="5.2"></circle>
                    <circle id="Oval-Copy-118" cx="5.2" cy="217.8" r="5.2"></circle>
                    <circle id="Oval-Copy-117" cx="418" cy="183.4" r="5.2"></circle>
                    <circle id="Oval-Copy-116" cx="383.6" cy="183.4" r="5.2"></circle>
                    <circle id="Oval-Copy-115" cx="349.2" cy="183.4" r="5.2"></circle>
                    <circle id="Oval-Copy-114" cx="314.8" cy="183.4" r="5.2"></circle>
                    <circle id="Oval-Copy-113" cx="280.4" cy="183.4" r="5.2"></circle>
                    <circle id="Oval-Copy-112" cx="246" cy="183.4" r="5.2"></circle>
                    <circle id="Oval-Copy-111" cx="211.6" cy="183.4" r="5.2"></circle>
                    <circle id="Oval-Copy-110" cx="177.2" cy="183.4" r="5.2"></circle>
                    <circle id="Oval-Copy-109" cx="142.8" cy="183.4" r="5.2"></circle>
                    <circle id="Oval-Copy-108" cx="108.4" cy="183.4" r="5.2"></circle>
                    <circle id="Oval-Copy-107" cx="74" cy="183.4" r="5.2"></circle>
                    <circle id="Oval-Copy-106" cx="39.6" cy="183.4" r="5.2"></circle>
                    <circle id="Oval-Copy-105" cx="5.2" cy="183.4" r="5.2"></circle>
                    <circle id="Oval-Copy-104" cx="418" cy="149" r="5.2"></circle>
                    <circle id="Oval-Copy-103" cx="383.6" cy="149" r="5.2"></circle>
                    <circle id="Oval-Copy-102" cx="349.2" cy="149" r="5.2"></circle>
                    <circle id="Oval-Copy-101" cx="314.8" cy="149" r="5.2"></circle>
                    <circle id="Oval-Copy-100" cx="280.4" cy="149" r="5.2"></circle>
                    <circle id="Oval-Copy-99" cx="246" cy="149" r="5.2"></circle>
                    <circle id="Oval-Copy-98" cx="211.6" cy="149" r="5.2"></circle>
                    <circle id="Oval-Copy-97" cx="177.2" cy="149" r="5.2"></circle>
                    <circle id="Oval-Copy-96" cx="142.8" cy="149" r="5.2"></circle>
                    <circle id="Oval-Copy-95" cx="108.4" cy="149" r="5.2"></circle>
                    <circle id="Oval-Copy-94" cx="74" cy="149" r="5.2"></circle>
                    <circle id="Oval-Copy-93" cx="39.6" cy="149" r="5.2"></circle>
                    <circle id="Oval-Copy-92" cx="5.2" cy="149" r="5.2"></circle>
                    <circle id="Oval-Copy-91" cx="418" cy="114.6" r="5.2"></circle>
                    <circle id="Oval-Copy-90" cx="383.6" cy="114.6" r="5.2"></circle>
                    <circle id="Oval-Copy-89" cx="349.2" cy="114.6" r="5.2"></circle>
                    <circle id="Oval-Copy-88" cx="314.8" cy="114.6" r="5.2"></circle>
                    <circle id="Oval-Copy-87" cx="280.4" cy="114.6" r="5.2"></circle>
                    <circle id="Oval-Copy-86" cx="246" cy="114.6" r="5.2"></circle>
                    <circle id="Oval-Copy-85" cx="211.6" cy="114.6" r="5.2"></circle>
                    <circle id="Oval-Copy-84" cx="177.2" cy="114.6" r="5.2"></circle>
                    <circle id="Oval-Copy-83" cx="142.8" cy="114.6" r="5.2"></circle>
                    <circle id="Oval-Copy-82" cx="108.4" cy="114.6" r="5.2"></circle>
                    <circle id="Oval-Copy-81" cx="74" cy="114.6" r="5.2"></circle>
                    <circle id="Oval-Copy-80" cx="39.6" cy="114.6" r="5.2"></circle>
                    <circle id="Oval-Copy-79" cx="5.2" cy="114.6" r="5.2"></circle>
                    <circle id="Oval-Copy-77" cx="383.6" cy="80.2" r="5.2"></circle>
                    <circle id="Oval-Copy-159" cx="523" cy="321" r="5.2"></circle>
                    <circle id="Oval-Copy-158" cx="488.6" cy="321" r="5.2"></circle>
                    <circle id="Oval-Copy-157" cx="454.2" cy="321" r="5.2"></circle>
                    <circle id="Oval-Copy-146" cx="523" cy="286.6" r="5.2"></circle>
                    <circle id="Oval-Copy-145" cx="488.6" cy="286.6" r="5.2"></circle>
                    <circle id="Oval-Copy-144" cx="454.2" cy="286.6" r="5.2"></circle>
                    <circle id="Oval-Copy-133" cx="523" cy="252.2" r="5.2"></circle>
                    <circle id="Oval-Copy-132" cx="488.6" cy="252.2" r="5.2"></circle>
                    <circle id="Oval-Copy-131" cx="454.2" cy="252.2" r="5.2"></circle>
                    <circle id="Oval-Copy-120" cx="523" cy="217.8" r="5.2"></circle>
                    <circle id="Oval-Copy-119" cx="488.6" cy="217.8" r="5.2"></circle>
                    <circle id="Oval-Copy-118" cx="454.2" cy="217.8" r="5.2"></circle>
                    <circle id="Oval-Copy-107" cx="523" cy="183.4" r="5.2"></circle>
                    <circle id="Oval-Copy-106" cx="488.6" cy="183.4" r="5.2"></circle>
                    <circle id="Oval-Copy-105" cx="454.2" cy="183.4" r="5.2"></circle>
                    <circle id="Oval-Copy-94" cx="523" cy="149" r="5.2"></circle>
                    <circle id="Oval-Copy-93" cx="488.6" cy="149" r="5.2"></circle>
                    <circle id="Oval-Copy-92" cx="454.2" cy="149" r="5.2"></circle>
                    <circle id="Oval-Copy-81" cx="523" cy="114.6" r="5.2"></circle>
                    <circle id="Oval-Copy-80" cx="488.6" cy="114.6" r="5.2"></circle>
                    <circle id="Oval-Copy-79" cx="454.2" cy="114.6" r="5.2"></circle>
                    <circle id="Oval-Copy-169" cx="418" cy="74" r="5.2"></circle>
                    <circle id="Oval-Copy-167" cx="349.2" cy="74" r="5.2"></circle>
                    <circle id="Oval-Copy-166" cx="314.8" cy="74" r="5.2"></circle>
                    <circle id="Oval-Copy-165" cx="280.4" cy="74" r="5.2"></circle>
                    <circle id="Oval-Copy-164" cx="246" cy="74" r="5.2"></circle>
                    <circle id="Oval-Copy-163" cx="211.6" cy="74" r="5.2"></circle>
                    <circle id="Oval-Copy-162" cx="177.2" cy="74" r="5.2"></circle>
                    <circle id="Oval-Copy-161" cx="142.8" cy="74" r="5.2"></circle>
                    <circle id="Oval-Copy-160" cx="108.4" cy="74" r="5.2"></circle>
                    <circle id="Oval-Copy-159" cx="74" cy="74" r="5.2"></circle>
                    <circle id="Oval-Copy-158" cx="39.6" cy="74" r="5.2"></circle>
                    <circle id="Oval-Copy-157" cx="5.2" cy="74" r="5.2"></circle>
                    <circle id="Oval-Copy-156" cx="418" cy="39.6" r="5.2"></circle>
                    <circle id="Oval-Copy-155" cx="383.6" cy="39.6" r="5.2"></circle>
                    <circle id="Oval-Copy-154" cx="349.2" cy="39.6" r="5.2"></circle>
                    <circle id="Oval-Copy-153" cx="314.8" cy="39.6" r="5.2"></circle>
                    <circle id="Oval-Copy-152" cx="280.4" cy="39.6" r="5.2"></circle>
                    <circle id="Oval-Copy-151" cx="246" cy="39.6" r="5.2"></circle>
                    <circle id="Oval-Copy-150" cx="211.6" cy="39.6" r="5.2"></circle>
                    <circle id="Oval-Copy-149" cx="177.2" cy="39.6" r="5.2"></circle>
                    <circle id="Oval-Copy-148" cx="142.8" cy="39.6" r="5.2"></circle>
                    <circle id="Oval-Copy-147" cx="108.4" cy="39.6" r="5.2"></circle>
                    <circle id="Oval-Copy-146" cx="74" cy="39.6" r="5.2"></circle>
                    <circle id="Oval-Copy-145" cx="39.6" cy="39.6" r="5.2"></circle>
                    <circle id="Oval-Copy-144" cx="5.2" cy="39.6" r="5.2"></circle>
                    <circle id="Oval-Copy-143" cx="418" cy="5.2" r="5.2"></circle>
                    <circle id="Oval-Copy-142" cx="383.6" cy="5.2" r="5.2"></circle>
                    <circle id="Oval-Copy-141" cx="349.2" cy="5.2" r="5.2"></circle>
                    <circle id="Oval-Copy-140" cx="314.8" cy="5.2" r="5.2"></circle>
                    <circle id="Oval-Copy-139" cx="280.4" cy="5.2" r="5.2"></circle>
                    <circle id="Oval-Copy-138" cx="246" cy="5.2" r="5.2"></circle>
                    <circle id="Oval-Copy-137" cx="211.6" cy="5.2" r="5.2"></circle>
                    <circle id="Oval-Copy-136" cx="177.2" cy="5.2" r="5.2"></circle>
                    <circle id="Oval-Copy-135" cx="142.8" cy="5.2" r="5.2"></circle>
                    <circle id="Oval-Copy-134" cx="108.4" cy="5.2" r="5.2"></circle>
                    <circle id="Oval-Copy-133" cx="74" cy="5.2" r="5.2"></circle>
                    <circle id="Oval-Copy-132" cx="39.6" cy="5.2" r="5.2"></circle>
                    <circle id="Oval-Copy-131" cx="5.2" cy="5.2" r="5.2"></circle>
                    <circle id="Oval-Copy-159" cx="523" cy="74" r="5.2"></circle>
                    <circle id="Oval-Copy-158" cx="488.6" cy="74" r="5.2"></circle>
                    <circle id="Oval-Copy-157" cx="454.2" cy="74" r="5.2"></circle>
                    <circle id="Oval-Copy-146" cx="523" cy="39.6" r="5.2"></circle>
                    <circle id="Oval-Copy-145" cx="488.6" cy="39.6" r="5.2"></circle>
                    <circle id="Oval-Copy-144" cx="454.2" cy="39.6" r="5.2"></circle>
                    <circle id="Oval-Copy-133" cx="523" cy="5.2" r="5.2"></circle>
                    <circle id="Oval-Copy-132" cx="488.6" cy="5.2" r="5.2"></circle>
                    <circle id="Oval-Copy-131" cx="454.2" cy="5.2" r="5.2"></circle>
                </g>
                <g id="Group-41" transform="translate(553.000000, 0.000000)">
                    <circle id="Oval-Copy-169" cx="418" cy="321" r="5.2"></circle>
                    <circle id="Oval-Copy-168" cx="383.6" cy="321" r="5.2"></circle>
                    <circle id="Oval-Copy-167" cx="349.2" cy="321" r="5.2"></circle>
                    <circle id="Oval-Copy-166" cx="314.8" cy="321" r="5.2"></circle>
                    <circle id="Oval-Copy-165" cx="280.4" cy="321" r="5.2"></circle>
                    <circle id="Oval-Copy-164" cx="246" cy="321" r="5.2"></circle>
                    <circle id="Oval-Copy-163" cx="211.6" cy="321" r="5.2"></circle>
                    <circle id="Oval-Copy-162" cx="177.2" cy="321" r="5.2"></circle>
                    <circle id="Oval-Copy-161" cx="142.8" cy="321" r="5.2"></circle>
                    <circle id="Oval-Copy-160" cx="108.4" cy="321" r="5.2"></circle>
                    <circle id="Oval-Copy-159" cx="74" cy="321" r="5.2"></circle>
                    <circle id="Oval-Copy-158" cx="39.6" cy="321" r="5.2"></circle>
                    <circle id="Oval-Copy-157" cx="5.2" cy="321" r="5.2"></circle>
                    <circle id="Oval-Copy-156" cx="418" cy="286.6" r="5.2"></circle>
                    <circle id="Oval-Copy-155" cx="383.6" cy="286.6" r="5.2"></circle>
                    <circle id="Oval-Copy-154" cx="349.2" cy="286.6" r="5.2"></circle>
                    <circle id="Oval-Copy-153" cx="314.8" cy="286.6" r="5.2"></circle>
                    <circle id="Oval-Copy-152" cx="280.4" cy="286.6" r="5.2"></circle>
                    <circle id="Oval-Copy-151" cx="246" cy="286.6" r="5.2"></circle>
                    <circle id="Oval-Copy-150" cx="211.6" cy="286.6" r="5.2"></circle>
                    <circle id="Oval-Copy-149" cx="177.2" cy="286.6" r="5.2"></circle>
                    <circle id="Oval-Copy-148" cx="142.8" cy="286.6" r="5.2"></circle>
                    <circle id="Oval-Copy-147" cx="108.4" cy="286.6" r="5.2"></circle>
                    <circle id="Oval-Copy-146" cx="74" cy="286.6" r="5.2"></circle>
                    <circle id="Oval-Copy-145" cx="39.6" cy="286.6" r="5.2"></circle>
                    <circle id="Oval-Copy-144" cx="5.2" cy="286.6" r="5.2"></circle>
                    <circle id="Oval-Copy-143" cx="418" cy="252.2" r="5.2"></circle>
                    <circle id="Oval-Copy-142" cx="383.6" cy="252.2" r="5.2"></circle>
                    <circle id="Oval-Copy-141" cx="349.2" cy="252.2" r="5.2"></circle>
                    <circle id="Oval-Copy-140" cx="314.8" cy="252.2" r="5.2"></circle>
                    <circle id="Oval-Copy-139" cx="280.4" cy="252.2" r="5.2"></circle>
                    <circle id="Oval-Copy-138" cx="246" cy="252.2" r="5.2"></circle>
                    <circle id="Oval-Copy-137" cx="211.6" cy="252.2" r="5.2"></circle>
                    <circle id="Oval-Copy-136" cx="177.2" cy="252.2" r="5.2"></circle>
                    <circle id="Oval-Copy-135" cx="142.8" cy="252.2" r="5.2"></circle>
                    <circle id="Oval-Copy-134" cx="108.4" cy="252.2" r="5.2"></circle>
                    <circle id="Oval-Copy-133" cx="74" cy="252.2" r="5.2"></circle>
                    <circle id="Oval-Copy-132" cx="39.6" cy="252.2" r="5.2"></circle>
                    <circle id="Oval-Copy-131" cx="5.2" cy="252.2" r="5.2"></circle>
                    <circle id="Oval-Copy-130" cx="418" cy="217.8" r="5.2"></circle>
                    <circle id="Oval-Copy-129" cx="383.6" cy="217.8" r="5.2"></circle>
                    <circle id="Oval-Copy-128" cx="349.2" cy="217.8" r="5.2"></circle>
                    <circle id="Oval-Copy-127" cx="314.8" cy="217.8" r="5.2"></circle>
                    <circle id="Oval-Copy-126" cx="280.4" cy="217.8" r="5.2"></circle>
                    <circle id="Oval-Copy-125" cx="246" cy="217.8" r="5.2"></circle>
                    <circle id="Oval-Copy-124" cx="211.6" cy="217.8" r="5.2"></circle>
                    <circle id="Oval-Copy-123" cx="177.2" cy="217.8" r="5.2"></circle>
                    <circle id="Oval-Copy-122" cx="142.8" cy="217.8" r="5.2"></circle>
                    <circle id="Oval-Copy-121" cx="108.4" cy="217.8" r="5.2"></circle>
                    <circle id="Oval-Copy-120" cx="74" cy="217.8" r="5.2"></circle>
                    <circle id="Oval-Copy-119" cx="39.6" cy="217.8" r="5.2"></circle>
                    <circle id="Oval-Copy-118" cx="5.2" cy="217.8" r="5.2"></circle>
                    <circle id="Oval-Copy-117" cx="418" cy="183.4" r="5.2"></circle>
                    <circle id="Oval-Copy-116" cx="383.6" cy="183.4" r="5.2"></circle>
                    <circle id="Oval-Copy-115" cx="349.2" cy="183.4" r="5.2"></circle>
                    <circle id="Oval-Copy-114" cx="314.8" cy="183.4" r="5.2"></circle>
                    <circle id="Oval-Copy-113" cx="280.4" cy="183.4" r="5.2"></circle>
                    <circle id="Oval-Copy-112" cx="246" cy="183.4" r="5.2"></circle>
                    <circle id="Oval-Copy-111" cx="211.6" cy="183.4" r="5.2"></circle>
                    <circle id="Oval-Copy-110" cx="177.2" cy="183.4" r="5.2"></circle>
                    <circle id="Oval-Copy-109" cx="142.8" cy="183.4" r="5.2"></circle>
                    <circle id="Oval-Copy-108" cx="108.4" cy="183.4" r="5.2"></circle>
                    <circle id="Oval-Copy-107" cx="74" cy="183.4" r="5.2"></circle>
                    <circle id="Oval-Copy-106" cx="39.6" cy="183.4" r="5.2"></circle>
                    <circle id="Oval-Copy-105" cx="5.2" cy="183.4" r="5.2"></circle>
                    <circle id="Oval-Copy-104" cx="418" cy="149" r="5.2"></circle>
                    <circle id="Oval-Copy-103" cx="383.6" cy="149" r="5.2"></circle>
                    <circle id="Oval-Copy-102" cx="349.2" cy="149" r="5.2"></circle>
                    <circle id="Oval-Copy-101" cx="314.8" cy="149" r="5.2"></circle>
                    <circle id="Oval-Copy-100" cx="280.4" cy="149" r="5.2"></circle>
                    <circle id="Oval-Copy-99" cx="246" cy="149" r="5.2"></circle>
                    <circle id="Oval-Copy-98" cx="211.6" cy="149" r="5.2"></circle>
                    <circle id="Oval-Copy-97" cx="177.2" cy="149" r="5.2"></circle>
                    <circle id="Oval-Copy-96" cx="142.8" cy="149" r="5.2"></circle>
                    <circle id="Oval-Copy-95" cx="108.4" cy="149" r="5.2"></circle>
                    <circle id="Oval-Copy-94" cx="74" cy="149" r="5.2"></circle>
                    <circle id="Oval-Copy-93" cx="39.6" cy="149" r="5.2"></circle>
                    <circle id="Oval-Copy-92" cx="5.2" cy="149" r="5.2"></circle>
                    <circle id="Oval-Copy-91" cx="418" cy="114.6" r="5.2"></circle>
                    <circle id="Oval-Copy-90" cx="383.6" cy="114.6" r="5.2"></circle>
                    <circle id="Oval-Copy-89" cx="349.2" cy="114.6" r="5.2"></circle>
                    <circle id="Oval-Copy-88" cx="314.8" cy="114.6" r="5.2"></circle>
                    <circle id="Oval-Copy-87" cx="280.4" cy="114.6" r="5.2"></circle>
                    <circle id="Oval-Copy-86" cx="246" cy="114.6" r="5.2"></circle>
                    <circle id="Oval-Copy-85" cx="211.6" cy="114.6" r="5.2"></circle>
                    <circle id="Oval-Copy-84" cx="177.2" cy="114.6" r="5.2"></circle>
                    <circle id="Oval-Copy-83" cx="142.8" cy="114.6" r="5.2"></circle>
                    <circle id="Oval-Copy-82" cx="108.4" cy="114.6" r="5.2"></circle>
                    <circle id="Oval-Copy-81" cx="74" cy="114.6" r="5.2"></circle>
                    <circle id="Oval-Copy-80" cx="39.6" cy="114.6" r="5.2"></circle>
                    <circle id="Oval-Copy-79" cx="5.2" cy="114.6" r="5.2"></circle>
                    <circle id="Oval-Copy-77" cx="383.6" cy="80.2" r="5.2"></circle>
                    <circle id="Oval-Copy-159" cx="523" cy="321" r="5.2"></circle>
                    <circle id="Oval-Copy-158" cx="488.6" cy="321" r="5.2"></circle>
                    <circle id="Oval-Copy-157" cx="454.2" cy="321" r="5.2"></circle>
                    <circle id="Oval-Copy-146" cx="523" cy="286.6" r="5.2"></circle>
                    <circle id="Oval-Copy-145" cx="488.6" cy="286.6" r="5.2"></circle>
                    <circle id="Oval-Copy-144" cx="454.2" cy="286.6" r="5.2"></circle>
                    <circle id="Oval-Copy-133" cx="523" cy="252.2" r="5.2"></circle>
                    <circle id="Oval-Copy-132" cx="488.6" cy="252.2" r="5.2"></circle>
                    <circle id="Oval-Copy-131" cx="454.2" cy="252.2" r="5.2"></circle>
                    <circle id="Oval-Copy-120" cx="523" cy="217.8" r="5.2"></circle>
                    <circle id="Oval-Copy-119" cx="488.6" cy="217.8" r="5.2"></circle>
                    <circle id="Oval-Copy-118" cx="454.2" cy="217.8" r="5.2"></circle>
                    <circle id="Oval-Copy-107" cx="523" cy="183.4" r="5.2"></circle>
                    <circle id="Oval-Copy-106" cx="488.6" cy="183.4" r="5.2"></circle>
                    <circle id="Oval-Copy-105" cx="454.2" cy="183.4" r="5.2"></circle>
                    <circle id="Oval-Copy-94" cx="523" cy="149" r="5.2"></circle>
                    <circle id="Oval-Copy-93" cx="488.6" cy="149" r="5.2"></circle>
                    <circle id="Oval-Copy-92" cx="454.2" cy="149" r="5.2"></circle>
                    <circle id="Oval-Copy-81" cx="523" cy="114.6" r="5.2"></circle>
                    <circle id="Oval-Copy-80" cx="488.6" cy="114.6" r="5.2"></circle>
                    <circle id="Oval-Copy-79" cx="454.2" cy="114.6" r="5.2"></circle>
                    <circle id="Oval-Copy-169" cx="418" cy="74" r="5.2"></circle>
                    <circle id="Oval-Copy-167" cx="349.2" cy="74" r="5.2"></circle>
                    <circle id="Oval-Copy-166" cx="314.8" cy="74" r="5.2"></circle>
                    <circle id="Oval-Copy-165" cx="280.4" cy="74" r="5.2"></circle>
                    <circle id="Oval-Copy-164" cx="246" cy="74" r="5.2"></circle>
                    <circle id="Oval-Copy-163" cx="211.6" cy="74" r="5.2"></circle>
                    <circle id="Oval-Copy-162" cx="177.2" cy="74" r="5.2"></circle>
                    <circle id="Oval-Copy-161" cx="142.8" cy="74" r="5.2"></circle>
                    <circle id="Oval-Copy-160" cx="108.4" cy="74" r="5.2"></circle>
                    <circle id="Oval-Copy-159" cx="74" cy="74" r="5.2"></circle>
                    <circle id="Oval-Copy-158" cx="39.6" cy="74" r="5.2"></circle>
                    <circle id="Oval-Copy-157" cx="5.2" cy="74" r="5.2"></circle>
                    <circle id="Oval-Copy-156" cx="418" cy="39.6" r="5.2"></circle>
                    <circle id="Oval-Copy-155" cx="383.6" cy="39.6" r="5.2"></circle>
                    <circle id="Oval-Copy-154" cx="349.2" cy="39.6" r="5.2"></circle>
                    <circle id="Oval-Copy-153" cx="314.8" cy="39.6" r="5.2"></circle>
                    <circle id="Oval-Copy-152" cx="280.4" cy="39.6" r="5.2"></circle>
                    <circle id="Oval-Copy-151" cx="246" cy="39.6" r="5.2"></circle>
                    <circle id="Oval-Copy-150" cx="211.6" cy="39.6" r="5.2"></circle>
                    <circle id="Oval-Copy-149" cx="177.2" cy="39.6" r="5.2"></circle>
                    <circle id="Oval-Copy-148" cx="142.8" cy="39.6" r="5.2"></circle>
                    <circle id="Oval-Copy-147" cx="108.4" cy="39.6" r="5.2"></circle>
                    <circle id="Oval-Copy-146" cx="74" cy="39.6" r="5.2"></circle>
                    <circle id="Oval-Copy-145" cx="39.6" cy="39.6" r="5.2"></circle>
                    <circle id="Oval-Copy-144" cx="5.2" cy="39.6" r="5.2"></circle>
                    <circle id="Oval-Copy-143" cx="418" cy="5.2" r="5.2"></circle>
                    <circle id="Oval-Copy-142" cx="383.6" cy="5.2" r="5.2"></circle>
                    <circle id="Oval-Copy-141" cx="349.2" cy="5.2" r="5.2"></circle>
                    <circle id="Oval-Copy-140" cx="314.8" cy="5.2" r="5.2"></circle>
                    <circle id="Oval-Copy-139" cx="280.4" cy="5.2" r="5.2"></circle>
                    <circle id="Oval-Copy-138" cx="246" cy="5.2" r="5.2"></circle>
                    <circle id="Oval-Copy-137" cx="211.6" cy="5.2" r="5.2"></circle>
                    <circle id="Oval-Copy-136" cx="177.2" cy="5.2" r="5.2"></circle>
                    <circle id="Oval-Copy-135" cx="142.8" cy="5.2" r="5.2"></circle>
                    <circle id="Oval-Copy-134" cx="108.4" cy="5.2" r="5.2"></circle>
                    <circle id="Oval-Copy-133" cx="74" cy="5.2" r="5.2"></circle>
                    <circle id="Oval-Copy-132" cx="39.6" cy="5.2" r="5.2"></circle>
                    <circle id="Oval-Copy-131" cx="5.2" cy="5.2" r="5.2"></circle>
                    <circle id="Oval-Copy-159" cx="523" cy="74" r="5.2"></circle>
                    <circle id="Oval-Copy-158" cx="488.6" cy="74" r="5.2"></circle>
                    <circle id="Oval-Copy-157" cx="454.2" cy="74" r="5.2"></circle>
                    <circle id="Oval-Copy-146" cx="523" cy="39.6" r="5.2"></circle>
                    <circle id="Oval-Copy-145" cx="488.6" cy="39.6" r="5.2"></circle>
                    <circle id="Oval-Copy-144" cx="454.2" cy="39.6" r="5.2"></circle>
                    <circle id="Oval-Copy-133" cx="523" cy="5.2" r="5.2"></circle>
                    <circle id="Oval-Copy-132" cx="488.6" cy="5.2" r="5.2"></circle>
                    <circle id="Oval-Copy-131" cx="454.2" cy="5.2" r="5.2"></circle>
                    <circle id="Oval-Copy-169" cx="628" cy="321" r="5.2"></circle>
                    <circle id="Oval-Copy-168" cx="593.6" cy="321" r="5.2"></circle>
                    <circle id="Oval-Copy-167" cx="559.2" cy="321" r="5.2"></circle>
                    <circle id="Oval-Copy-156" cx="628" cy="286.6" r="5.2"></circle>
                    <circle id="Oval-Copy-155" cx="593.6" cy="286.6" r="5.2"></circle>
                    <circle id="Oval-Copy-154" cx="559.2" cy="286.6" r="5.2"></circle>
                    <circle id="Oval-Copy-143" cx="628" cy="252.2" r="5.2"></circle>
                    <circle id="Oval-Copy-142" cx="593.6" cy="252.2" r="5.2"></circle>
                    <circle id="Oval-Copy-141" cx="559.2" cy="252.2" r="5.2"></circle>
                    <circle id="Oval-Copy-130" cx="628" cy="217.8" r="5.2"></circle>
                    <circle id="Oval-Copy-129" cx="593.6" cy="217.8" r="5.2"></circle>
                    <circle id="Oval-Copy-128" cx="559.2" cy="217.8" r="5.2"></circle>
                    <circle id="Oval-Copy-117" cx="628" cy="183.4" r="5.2"></circle>
                    <circle id="Oval-Copy-116" cx="593.6" cy="183.4" r="5.2"></circle>
                    <circle id="Oval-Copy-115" cx="559.2" cy="183.4" r="5.2"></circle>
                    <circle id="Oval-Copy-104" cx="628" cy="149" r="5.2"></circle>
                    <circle id="Oval-Copy-103" cx="593.6" cy="149" r="5.2"></circle>
                    <circle id="Oval-Copy-102" cx="559.2" cy="149" r="5.2"></circle>
                    <circle id="Oval-Copy-91" cx="628" cy="114.6" r="5.2"></circle>
                    <circle id="Oval-Copy-90" cx="593.6" cy="114.6" r="5.2"></circle>
                    <circle id="Oval-Copy-89" cx="559.2" cy="114.6" r="5.2"></circle>
                    <circle id="Oval-Copy-77" cx="593.6" cy="80.2" r="5.2"></circle>
                    <circle id="Oval-Copy-159" cx="733" cy="321" r="5.2"></circle>
                    <circle id="Oval-Copy-158" cx="698.6" cy="321" r="5.2"></circle>
                    <circle id="Oval-Copy-157" cx="664.2" cy="321" r="5.2"></circle>
                    <circle id="Oval-Copy-146" cx="733" cy="286.6" r="5.2"></circle>
                    <circle id="Oval-Copy-145" cx="698.6" cy="286.6" r="5.2"></circle>
                    <circle id="Oval-Copy-144" cx="664.2" cy="286.6" r="5.2"></circle>
                    <circle id="Oval-Copy-133" cx="733" cy="252.2" r="5.2"></circle>
                    <circle id="Oval-Copy-132" cx="698.6" cy="252.2" r="5.2"></circle>
                    <circle id="Oval-Copy-131" cx="664.2" cy="252.2" r="5.2"></circle>
                    <circle id="Oval-Copy-120" cx="733" cy="217.8" r="5.2"></circle>
                    <circle id="Oval-Copy-119" cx="698.6" cy="217.8" r="5.2"></circle>
                    <circle id="Oval-Copy-118" cx="664.2" cy="217.8" r="5.2"></circle>
                    <circle id="Oval-Copy-107" cx="733" cy="183.4" r="5.2"></circle>
                    <circle id="Oval-Copy-106" cx="698.6" cy="183.4" r="5.2"></circle>
                    <circle id="Oval-Copy-105" cx="664.2" cy="183.4" r="5.2"></circle>
                    <circle id="Oval-Copy-94" cx="733" cy="149" r="5.2"></circle>
                    <circle id="Oval-Copy-93" cx="698.6" cy="149" r="5.2"></circle>
                    <circle id="Oval-Copy-92" cx="664.2" cy="149" r="5.2"></circle>
                    <circle id="Oval-Copy-81" cx="733" cy="114.6" r="5.2"></circle>
                    <circle id="Oval-Copy-80" cx="698.6" cy="114.6" r="5.2"></circle>
                    <circle id="Oval-Copy-79" cx="664.2" cy="114.6" r="5.2"></circle>
                    <circle id="Oval-Copy-169" cx="628" cy="74" r="5.2"></circle>
                    <circle id="Oval-Copy-167" cx="559.2" cy="74" r="5.2"></circle>
                    <circle id="Oval-Copy-156" cx="628" cy="39.6" r="5.2"></circle>
                    <circle id="Oval-Copy-155" cx="593.6" cy="39.6" r="5.2"></circle>
                    <circle id="Oval-Copy-154" cx="559.2" cy="39.6" r="5.2"></circle>
                    <circle id="Oval-Copy-143" cx="628" cy="5.2" r="5.2"></circle>
                    <circle id="Oval-Copy-142" cx="593.6" cy="5.2" r="5.2"></circle>
                    <circle id="Oval-Copy-141" cx="559.2" cy="5.2" r="5.2"></circle>
                    <circle id="Oval-Copy-159" cx="733" cy="74" r="5.2"></circle>
                    <circle id="Oval-Copy-158" cx="698.6" cy="74" r="5.2"></circle>
                    <circle id="Oval-Copy-157" cx="664.2" cy="74" r="5.2"></circle>
                    <circle id="Oval-Copy-146" cx="733" cy="39.6" r="5.2"></circle>
                    <circle id="Oval-Copy-145" cx="698.6" cy="39.6" r="5.2"></circle>
                    <circle id="Oval-Copy-144" cx="664.2" cy="39.6" r="5.2"></circle>
                    <circle id="Oval-Copy-133" cx="733" cy="5.2" r="5.2"></circle>
                    <circle id="Oval-Copy-132" cx="698.6" cy="5.2" r="5.2"></circle>
                    <circle id="Oval-Copy-131" cx="664.2" cy="5.2" r="5.2"></circle>
                </g>
            </g>
        </g>
    </g>
</svg>