<svg xmlns="http://www.w3.org/2000/svg" width="216.8" height="423.2" viewBox="0 0 216.8 423.2">
  <g id="Shape_-_33" data-name="Shape - 33" transform="translate(-0.4)">
    <circle id="Oval_Copy_169" data-name="Oval Copy 169" cx="5.2" cy="5.2" r="5.2" transform="translate(206.8 412.8)" fill="#f5f5fc"/>
    <circle id="Oval_Copy_168" data-name="Oval Copy 168" cx="5.2" cy="5.2" r="5.2" transform="translate(172.4 412.8)" fill="#f5f5fc"/>
    <circle id="Oval_Copy_167" data-name="Oval Copy 167" cx="5.2" cy="5.2" r="5.2" transform="translate(138 412.8)" fill="#f5f5fc"/>
    <circle id="Oval_Copy_166" data-name="Oval Copy 166" cx="5.2" cy="5.2" r="5.2" transform="translate(103.6 412.8)" fill="#f5f5fc"/>
    <circle id="Oval_Copy_165" data-name="Oval Copy 165" cx="5.2" cy="5.2" r="5.2" transform="translate(69.2 412.8)" fill="#f5f5fc"/>
    <circle id="Oval_Copy_164" data-name="Oval Copy 164" cx="5.2" cy="5.2" r="5.2" transform="translate(34.8 412.8)" fill="#f5f5fc"/>
    <circle id="Oval_Copy_163" data-name="Oval Copy 163" cx="5.2" cy="5.2" r="5.2" transform="translate(0.4 412.8)" fill="#f5f5fc"/>
    <circle id="Oval_Copy_156" data-name="Oval Copy 156" cx="5.2" cy="5.2" r="5.2" transform="translate(206.8 378.4)" fill="#f5f5fc"/>
    <circle id="Oval_Copy_155" data-name="Oval Copy 155" cx="5.2" cy="5.2" r="5.2" transform="translate(172.4 378.4)" fill="#f5f5fc"/>
    <circle id="Oval_Copy_154" data-name="Oval Copy 154" cx="5.2" cy="5.2" r="5.2" transform="translate(138 378.4)" fill="#f5f5fc"/>
    <circle id="Oval_Copy_153" data-name="Oval Copy 153" cx="5.2" cy="5.2" r="5.2" transform="translate(103.6 378.4)" fill="#f5f5fc"/>
    <circle id="Oval_Copy_152" data-name="Oval Copy 152" cx="5.2" cy="5.2" r="5.2" transform="translate(69.2 378.4)" fill="#f5f5fc"/>
    <circle id="Oval_Copy_151" data-name="Oval Copy 151" cx="5.2" cy="5.2" r="5.2" transform="translate(34.8 378.4)" fill="#f5f5fc"/>
    <circle id="Oval_Copy_150" data-name="Oval Copy 150" cx="5.2" cy="5.2" r="5.2" transform="translate(0.4 378.4)" fill="#f5f5fc"/>
    <circle id="Oval_Copy_143" data-name="Oval Copy 143" cx="5.2" cy="5.2" r="5.2" transform="translate(206.8 344)" fill="#f5f5fc"/>
    <circle id="Oval_Copy_142" data-name="Oval Copy 142" cx="5.2" cy="5.2" r="5.2" transform="translate(172.4 344)" fill="#f5f5fc"/>
    <circle id="Oval_Copy_141" data-name="Oval Copy 141" cx="5.2" cy="5.2" r="5.2" transform="translate(138 344)" fill="#f5f5fc"/>
    <circle id="Oval_Copy_140" data-name="Oval Copy 140" cx="5.2" cy="5.2" r="5.2" transform="translate(103.6 344)" fill="#f5f5fc"/>
    <circle id="Oval_Copy_139" data-name="Oval Copy 139" cx="5.2" cy="5.2" r="5.2" transform="translate(69.2 344)" fill="#f5f5fc"/>
    <circle id="Oval_Copy_138" data-name="Oval Copy 138" cx="5.2" cy="5.2" r="5.2" transform="translate(34.8 344)" fill="#f5f5fc"/>
    <circle id="Oval_Copy_137" data-name="Oval Copy 137" cx="5.2" cy="5.2" r="5.2" transform="translate(0.4 344)" fill="#f5f5fc"/>
    <circle id="Oval_Copy_130" data-name="Oval Copy 130" cx="5.2" cy="5.2" r="5.2" transform="translate(206.8 309.6)" fill="#f5f5fc"/>
    <circle id="Oval_Copy_129" data-name="Oval Copy 129" cx="5.2" cy="5.2" r="5.2" transform="translate(172.4 309.6)" fill="#f5f5fc"/>
    <circle id="Oval_Copy_128" data-name="Oval Copy 128" cx="5.2" cy="5.2" r="5.2" transform="translate(138 309.6)" fill="#f5f5fc"/>
    <circle id="Oval_Copy_127" data-name="Oval Copy 127" cx="5.2" cy="5.2" r="5.2" transform="translate(103.6 309.6)" fill="#f5f5fc"/>
    <circle id="Oval_Copy_126" data-name="Oval Copy 126" cx="5.2" cy="5.2" r="5.2" transform="translate(69.2 309.6)" fill="#f5f5fc"/>
    <circle id="Oval_Copy_125" data-name="Oval Copy 125" cx="5.2" cy="5.2" r="5.2" transform="translate(34.8 309.6)" fill="#f5f5fc"/>
    <circle id="Oval_Copy_124" data-name="Oval Copy 124" cx="5.2" cy="5.2" r="5.2" transform="translate(0.4 309.6)" fill="#f5f5fc"/>
    <circle id="Oval_Copy_117" data-name="Oval Copy 117" cx="5.2" cy="5.2" r="5.2" transform="translate(206.8 275.2)" fill="#f5f5fc"/>
    <circle id="Oval_Copy_116" data-name="Oval Copy 116" cx="5.2" cy="5.2" r="5.2" transform="translate(172.4 275.2)" fill="#f5f5fc"/>
    <circle id="Oval_Copy_115" data-name="Oval Copy 115" cx="5.2" cy="5.2" r="5.2" transform="translate(138 275.2)" fill="#f5f5fc"/>
    <circle id="Oval_Copy_114" data-name="Oval Copy 114" cx="5.2" cy="5.2" r="5.2" transform="translate(103.6 275.2)" fill="#f5f5fc"/>
    <circle id="Oval_Copy_113" data-name="Oval Copy 113" cx="5.2" cy="5.2" r="5.2" transform="translate(69.2 275.2)" fill="#f5f5fc"/>
    <circle id="Oval_Copy_112" data-name="Oval Copy 112" cx="5.2" cy="5.2" r="5.2" transform="translate(34.8 275.2)" fill="#f5f5fc"/>
    <circle id="Oval_Copy_111" data-name="Oval Copy 111" cx="5.2" cy="5.2" r="5.2" transform="translate(0.4 275.2)" fill="#f5f5fc"/>
    <circle id="Oval_Copy_104" data-name="Oval Copy 104" cx="5.2" cy="5.2" r="5.2" transform="translate(206.8 240.8)" fill="#f5f5fc"/>
    <circle id="Oval_Copy_103" data-name="Oval Copy 103" cx="5.2" cy="5.2" r="5.2" transform="translate(172.4 240.8)" fill="#f5f5fc"/>
    <circle id="Oval_Copy_102" data-name="Oval Copy 102" cx="5.2" cy="5.2" r="5.2" transform="translate(138 240.8)" fill="#f5f5fc"/>
    <circle id="Oval_Copy_101" data-name="Oval Copy 101" cx="5.2" cy="5.2" r="5.2" transform="translate(103.6 240.8)" fill="#f5f5fc"/>
    <circle id="Oval_Copy_100" data-name="Oval Copy 100" cx="5.2" cy="5.2" r="5.2" transform="translate(69.2 240.8)" fill="#f5f5fc"/>
    <circle id="Oval_Copy_99" data-name="Oval Copy 99" cx="5.2" cy="5.2" r="5.2" transform="translate(34.8 240.8)" fill="#f5f5fc"/>
    <circle id="Oval_Copy_98" data-name="Oval Copy 98" cx="5.2" cy="5.2" r="5.2" transform="translate(0.4 240.8)" fill="#f5f5fc"/>
    <circle id="Oval_Copy_91" data-name="Oval Copy 91" cx="5.2" cy="5.2" r="5.2" transform="translate(206.8 206.4)" fill="#f5f5fc"/>
    <circle id="Oval_Copy_90" data-name="Oval Copy 90" cx="5.2" cy="5.2" r="5.2" transform="translate(172.4 206.4)" fill="#f5f5fc"/>
    <circle id="Oval_Copy_89" data-name="Oval Copy 89" cx="5.2" cy="5.2" r="5.2" transform="translate(138 206.4)" fill="#f5f5fc"/>
    <circle id="Oval_Copy_88" data-name="Oval Copy 88" cx="5.2" cy="5.2" r="5.2" transform="translate(103.6 206.4)" fill="#f5f5fc"/>
    <circle id="Oval_Copy_87" data-name="Oval Copy 87" cx="5.2" cy="5.2" r="5.2" transform="translate(69.2 206.4)" fill="#f5f5fc"/>
    <circle id="Oval_Copy_86" data-name="Oval Copy 86" cx="5.2" cy="5.2" r="5.2" transform="translate(34.8 206.4)" fill="#f5f5fc"/>
    <circle id="Oval_Copy_85" data-name="Oval Copy 85" cx="5.2" cy="5.2" r="5.2" transform="translate(0.4 206.4)" fill="#f5f5fc"/>
    <circle id="Oval_Copy_78" data-name="Oval Copy 78" cx="5.2" cy="5.2" r="5.2" transform="translate(206.8 172)" fill="#f5f5fc"/>
    <circle id="Oval_Copy_77" data-name="Oval Copy 77" cx="5.2" cy="5.2" r="5.2" transform="translate(172.4 172)" fill="#f5f5fc"/>
    <circle id="Oval_Copy_76" data-name="Oval Copy 76" cx="5.2" cy="5.2" r="5.2" transform="translate(138 172)" fill="#f5f5fc"/>
    <circle id="Oval_Copy_75" data-name="Oval Copy 75" cx="5.2" cy="5.2" r="5.2" transform="translate(103.6 172)" fill="#f5f5fc"/>
    <circle id="Oval_Copy_74" data-name="Oval Copy 74" cx="5.2" cy="5.2" r="5.2" transform="translate(69.2 172)" fill="#f5f5fc"/>
    <circle id="Oval_Copy_73" data-name="Oval Copy 73" cx="5.2" cy="5.2" r="5.2" transform="translate(34.8 172)" fill="#f5f5fc"/>
    <circle id="Oval_Copy_72" data-name="Oval Copy 72" cx="5.2" cy="5.2" r="5.2" transform="translate(0.4 172)" fill="#f5f5fc"/>
    <circle id="Oval_Copy_65" data-name="Oval Copy 65" cx="5.2" cy="5.2" r="5.2" transform="translate(206.8 137.6)" fill="#f5f5fc"/>
    <circle id="Oval_Copy_64" data-name="Oval Copy 64" cx="5.2" cy="5.2" r="5.2" transform="translate(172.4 137.6)" fill="#f5f5fc"/>
    <circle id="Oval_Copy_63" data-name="Oval Copy 63" cx="5.2" cy="5.2" r="5.2" transform="translate(138 137.6)" fill="#f5f5fc"/>
    <circle id="Oval_Copy_62" data-name="Oval Copy 62" cx="5.2" cy="5.2" r="5.2" transform="translate(103.6 137.6)" fill="#f5f5fc"/>
    <circle id="Oval_Copy_61" data-name="Oval Copy 61" cx="5.2" cy="5.2" r="5.2" transform="translate(69.2 137.6)" fill="#f5f5fc"/>
    <circle id="Oval_Copy_60" data-name="Oval Copy 60" cx="5.2" cy="5.2" r="5.2" transform="translate(34.8 137.6)" fill="#f5f5fc"/>
    <circle id="Oval_Copy_59" data-name="Oval Copy 59" cx="5.2" cy="5.2" r="5.2" transform="translate(0.4 137.6)" fill="#f5f5fc"/>
    <circle id="Oval_Copy_52" data-name="Oval Copy 52" cx="5.2" cy="5.2" r="5.2" transform="translate(206.8 103.2)" fill="#f5f5fc"/>
    <circle id="Oval_Copy_51" data-name="Oval Copy 51" cx="5.2" cy="5.2" r="5.2" transform="translate(172.4 103.2)" fill="#f5f5fc"/>
    <circle id="Oval_Copy_50" data-name="Oval Copy 50" cx="5.2" cy="5.2" r="5.2" transform="translate(138 103.2)" fill="#f5f5fc"/>
    <circle id="Oval_Copy_49" data-name="Oval Copy 49" cx="5.2" cy="5.2" r="5.2" transform="translate(103.6 103.2)" fill="#f5f5fc"/>
    <circle id="Oval_Copy_48" data-name="Oval Copy 48" cx="5.2" cy="5.2" r="5.2" transform="translate(69.2 103.2)" fill="#f5f5fc"/>
    <circle id="Oval_Copy_47" data-name="Oval Copy 47" cx="5.2" cy="5.2" r="5.2" transform="translate(34.8 103.2)" fill="#f5f5fc"/>
    <circle id="Oval_Copy_46" data-name="Oval Copy 46" cx="5.2" cy="5.2" r="5.2" transform="translate(0.4 103.2)" fill="#f5f5fc"/>
    <circle id="Oval_Copy_39" data-name="Oval Copy 39" cx="5.2" cy="5.2" r="5.2" transform="translate(206.8 68.8)" fill="#f5f5fc"/>
    <circle id="Oval_Copy_38" data-name="Oval Copy 38" cx="5.2" cy="5.2" r="5.2" transform="translate(172.4 68.8)" fill="#f5f5fc"/>
    <circle id="Oval_Copy_37" data-name="Oval Copy 37" cx="5.2" cy="5.2" r="5.2" transform="translate(138 68.8)" fill="#f5f5fc"/>
    <circle id="Oval_Copy_36" data-name="Oval Copy 36" cx="5.2" cy="5.2" r="5.2" transform="translate(103.6 68.8)" fill="#f5f5fc"/>
    <circle id="Oval_Copy_35" data-name="Oval Copy 35" cx="5.2" cy="5.2" r="5.2" transform="translate(69.2 68.8)" fill="#f5f5fc"/>
    <circle id="Oval_Copy_34" data-name="Oval Copy 34" cx="5.2" cy="5.2" r="5.2" transform="translate(34.8 68.8)" fill="#f5f5fc"/>
    <circle id="Oval_Copy_33" data-name="Oval Copy 33" cx="5.2" cy="5.2" r="5.2" transform="translate(0.4 68.8)" fill="#f5f5fc"/>
    <circle id="Oval_Copy_26" data-name="Oval Copy 26" cx="5.2" cy="5.2" r="5.2" transform="translate(206.8 34.4)" fill="#f5f5fc"/>
    <circle id="Oval_Copy_25" data-name="Oval Copy 25" cx="5.2" cy="5.2" r="5.2" transform="translate(172.4 34.4)" fill="#f5f5fc"/>
    <circle id="Oval_Copy_24" data-name="Oval Copy 24" cx="5.2" cy="5.2" r="5.2" transform="translate(138 34.4)" fill="#f5f5fc"/>
    <circle id="Oval_Copy_23" data-name="Oval Copy 23" cx="5.2" cy="5.2" r="5.2" transform="translate(103.6 34.4)" fill="#f5f5fc"/>
    <circle id="Oval_Copy_22" data-name="Oval Copy 22" cx="5.2" cy="5.2" r="5.2" transform="translate(69.2 34.4)" fill="#f5f5fc"/>
    <circle id="Oval_Copy_21" data-name="Oval Copy 21" cx="5.2" cy="5.2" r="5.2" transform="translate(34.8 34.4)" fill="#f5f5fc"/>
    <circle id="Oval_Copy_20" data-name="Oval Copy 20" cx="5.2" cy="5.2" r="5.2" transform="translate(0.4 34.4)" fill="#f5f5fc"/>
    <circle id="Oval_Copy_13" data-name="Oval Copy 13" cx="5.2" cy="5.2" r="5.2" transform="translate(206.8 0)" fill="#f5f5fc"/>
    <circle id="Oval_Copy_12" data-name="Oval Copy 12" cx="5.2" cy="5.2" r="5.2" transform="translate(172.4 0)" fill="#f5f5fc"/>
    <circle id="Oval_Copy_11" data-name="Oval Copy 11" cx="5.2" cy="5.2" r="5.2" transform="translate(138 0)" fill="#f5f5fc"/>
    <circle id="Oval_Copy_10" data-name="Oval Copy 10" cx="5.2" cy="5.2" r="5.2" transform="translate(103.6 0)" fill="#f5f5fc"/>
    <circle id="Oval_Copy_9" data-name="Oval Copy 9" cx="5.2" cy="5.2" r="5.2" transform="translate(69.2 0)" fill="#f5f5fc"/>
    <circle id="Oval_Copy_8" data-name="Oval Copy 8" cx="5.2" cy="5.2" r="5.2" transform="translate(34.8 0)" fill="#f5f5fc"/>
    <circle id="Oval_Copy_7" data-name="Oval Copy 7" cx="5.2" cy="5.2" r="5.2" transform="translate(0.4 0)" fill="#f5f5fc"/>
  </g>
</svg>
