<?xml version="1.0" encoding="UTF-8"?>
<svg width="23px" height="23px" viewBox="0 0 23 23" version="1.1" xmlns="http://www.w3.org/2000/svg" xmlns:xlink="http://www.w3.org/1999/xlink">
    <title>E1F2B2D0-B7B3-45D0-8B1A-41CF9D361F0F@3x</title>
    <g id="Main-Page" stroke="none" stroke-width="1" fill="none" fill-rule="evenodd">
        <g id="06-2-1-Blog" transform="translate(-375.000000, -191.000000)">
            <g id="Hero">
                <g id="Group-7" transform="translate(375.000000, 191.000000)">
                    <g id="Group-14">
                        <g id="Ico-left">
                            <rect id="Rectangle" x="0" y="0" width="23" height="23"></rect>
                            <path d="M12.8398438,17.3203125 C13.0611979,17.3203125 13.2532552,17.2389323 13.4160156,17.0761719 C13.578776,16.9134115 13.6601562,16.7213542 13.6601562,16.5 C13.6601562,16.2786458 13.5820312,16.0833333 13.4257812,15.9140625 L9.01171875,11.5 L13.4257812,7.0859375 C13.5429688,6.98177083 13.6210938,6.85807292 13.6601562,6.71484375 C13.6992188,6.57161458 13.6992188,6.42513021 13.6601562,6.27539062 C13.6210938,6.12565104 13.5494792,5.99869792 13.4453125,5.89453125 C13.3411458,5.79036458 13.2141927,5.71875 13.0644531,5.6796875 C12.9147135,5.640625 12.7682292,5.640625 12.625,5.6796875 C12.5175781,5.70898438 12.4211426,5.76025391 12.3356934,5.83349609 L7.25390625,10.9140625 C7.08463542,11.0833333 7,11.2786458 7,11.5 C7,11.7213542 7.08463542,11.9166667 7.25390625,12.0859375 L12.2539062,17.0859375 C12.4231771,17.2421875 12.6184896,17.3203125 12.8398438,17.3203125 Z" id="" fill="#8D92A1" fill-rule="nonzero"></path>
                        </g>
                    </g>
                </g>
            </g>
        </g>
    </g>
</svg>