<svg xmlns="http://www.w3.org/2000/svg" width="423.2" height="423.2" viewBox="0 0 423.2 423.2">
  <g id="Shape_3" data-name="Shape 3" opacity="0.15">
    <circle id="Oval_Copy_169" data-name="Oval Copy 169" cx="5.2" cy="5.2" r="5.2" transform="translate(412.8 412.8)" fill="#fff"/>
    <circle id="Oval_Copy_168" data-name="Oval Copy 168" cx="5.2" cy="5.2" r="5.2" transform="translate(378.4 412.8)" fill="#fff"/>
    <circle id="Oval_Copy_167" data-name="Oval Copy 167" cx="5.2" cy="5.2" r="5.2" transform="translate(344 412.8)" fill="#fff"/>
    <circle id="Oval_Copy_166" data-name="Oval Copy 166" cx="5.2" cy="5.2" r="5.2" transform="translate(309.6 412.8)" fill="#fff"/>
    <circle id="Oval_Copy_165" data-name="Oval Copy 165" cx="5.2" cy="5.2" r="5.2" transform="translate(275.2 412.8)" fill="#fff"/>
    <circle id="Oval_Copy_164" data-name="Oval Copy 164" cx="5.2" cy="5.2" r="5.2" transform="translate(240.8 412.8)" fill="#fff"/>
    <circle id="Oval_Copy_163" data-name="Oval Copy 163" cx="5.2" cy="5.2" r="5.2" transform="translate(206.4 412.8)" fill="#fff"/>
    <circle id="Oval_Copy_162" data-name="Oval Copy 162" cx="5.2" cy="5.2" r="5.2" transform="translate(172 412.8)" fill="#fff"/>
    <circle id="Oval_Copy_161" data-name="Oval Copy 161" cx="5.2" cy="5.2" r="5.2" transform="translate(137.6 412.8)" fill="#fff"/>
    <circle id="Oval_Copy_160" data-name="Oval Copy 160" cx="5.2" cy="5.2" r="5.2" transform="translate(103.2 412.8)" fill="#fff"/>
    <circle id="Oval_Copy_159" data-name="Oval Copy 159" cx="5.2" cy="5.2" r="5.2" transform="translate(68.8 412.8)" fill="#fff"/>
    <circle id="Oval_Copy_158" data-name="Oval Copy 158" cx="5.2" cy="5.2" r="5.2" transform="translate(34.4 412.8)" fill="#fff"/>
    <circle id="Oval_Copy_157" data-name="Oval Copy 157" cx="5.2" cy="5.2" r="5.2" transform="translate(0 412.8)" fill="#fff"/>
    <circle id="Oval_Copy_156" data-name="Oval Copy 156" cx="5.2" cy="5.2" r="5.2" transform="translate(412.8 378.4)" fill="#fff"/>
    <circle id="Oval_Copy_155" data-name="Oval Copy 155" cx="5.2" cy="5.2" r="5.2" transform="translate(378.4 378.4)" fill="#fff"/>
    <circle id="Oval_Copy_154" data-name="Oval Copy 154" cx="5.2" cy="5.2" r="5.2" transform="translate(344 378.4)" fill="#fff"/>
    <circle id="Oval_Copy_153" data-name="Oval Copy 153" cx="5.2" cy="5.2" r="5.2" transform="translate(309.6 378.4)" fill="#fff"/>
    <circle id="Oval_Copy_152" data-name="Oval Copy 152" cx="5.2" cy="5.2" r="5.2" transform="translate(275.2 378.4)" fill="#fff"/>
    <circle id="Oval_Copy_151" data-name="Oval Copy 151" cx="5.2" cy="5.2" r="5.2" transform="translate(240.8 378.4)" fill="#fff"/>
    <circle id="Oval_Copy_150" data-name="Oval Copy 150" cx="5.2" cy="5.2" r="5.2" transform="translate(206.4 378.4)" fill="#fff"/>
    <circle id="Oval_Copy_149" data-name="Oval Copy 149" cx="5.2" cy="5.2" r="5.2" transform="translate(172 378.4)" fill="#fff"/>
    <circle id="Oval_Copy_148" data-name="Oval Copy 148" cx="5.2" cy="5.2" r="5.2" transform="translate(137.6 378.4)" fill="#fff"/>
    <circle id="Oval_Copy_147" data-name="Oval Copy 147" cx="5.2" cy="5.2" r="5.2" transform="translate(103.2 378.4)" fill="#fff"/>
    <circle id="Oval_Copy_146" data-name="Oval Copy 146" cx="5.2" cy="5.2" r="5.2" transform="translate(68.8 378.4)" fill="#fff"/>
    <circle id="Oval_Copy_145" data-name="Oval Copy 145" cx="5.2" cy="5.2" r="5.2" transform="translate(34.4 378.4)" fill="#fff"/>
    <circle id="Oval_Copy_144" data-name="Oval Copy 144" cx="5.2" cy="5.2" r="5.2" transform="translate(0 378.4)" fill="#fff"/>
    <circle id="Oval_Copy_143" data-name="Oval Copy 143" cx="5.2" cy="5.2" r="5.2" transform="translate(412.8 344)" fill="#fff"/>
    <circle id="Oval_Copy_142" data-name="Oval Copy 142" cx="5.2" cy="5.2" r="5.2" transform="translate(378.4 344)" fill="#fff"/>
    <circle id="Oval_Copy_141" data-name="Oval Copy 141" cx="5.2" cy="5.2" r="5.2" transform="translate(344 344)" fill="#fff"/>
    <circle id="Oval_Copy_140" data-name="Oval Copy 140" cx="5.2" cy="5.2" r="5.2" transform="translate(309.6 344)" fill="#fff"/>
    <circle id="Oval_Copy_139" data-name="Oval Copy 139" cx="5.2" cy="5.2" r="5.2" transform="translate(275.2 344)" fill="#fff"/>
    <circle id="Oval_Copy_138" data-name="Oval Copy 138" cx="5.2" cy="5.2" r="5.2" transform="translate(240.8 344)" fill="#fff"/>
    <circle id="Oval_Copy_137" data-name="Oval Copy 137" cx="5.2" cy="5.2" r="5.2" transform="translate(206.4 344)" fill="#fff"/>
    <circle id="Oval_Copy_136" data-name="Oval Copy 136" cx="5.2" cy="5.2" r="5.2" transform="translate(172 344)" fill="#fff"/>
    <circle id="Oval_Copy_135" data-name="Oval Copy 135" cx="5.2" cy="5.2" r="5.2" transform="translate(137.6 344)" fill="#fff"/>
    <circle id="Oval_Copy_134" data-name="Oval Copy 134" cx="5.2" cy="5.2" r="5.2" transform="translate(103.2 344)" fill="#fff"/>
    <circle id="Oval_Copy_133" data-name="Oval Copy 133" cx="5.2" cy="5.2" r="5.2" transform="translate(68.8 344)" fill="#fff"/>
    <circle id="Oval_Copy_132" data-name="Oval Copy 132" cx="5.2" cy="5.2" r="5.2" transform="translate(34.4 344)" fill="#fff"/>
    <circle id="Oval_Copy_131" data-name="Oval Copy 131" cx="5.2" cy="5.2" r="5.2" transform="translate(0 344)" fill="#fff"/>
    <circle id="Oval_Copy_130" data-name="Oval Copy 130" cx="5.2" cy="5.2" r="5.2" transform="translate(412.8 309.6)" fill="#fff"/>
    <circle id="Oval_Copy_129" data-name="Oval Copy 129" cx="5.2" cy="5.2" r="5.2" transform="translate(378.4 309.6)" fill="#fff"/>
    <circle id="Oval_Copy_128" data-name="Oval Copy 128" cx="5.2" cy="5.2" r="5.2" transform="translate(344 309.6)" fill="#fff"/>
    <circle id="Oval_Copy_127" data-name="Oval Copy 127" cx="5.2" cy="5.2" r="5.2" transform="translate(309.6 309.6)" fill="#fff"/>
    <circle id="Oval_Copy_126" data-name="Oval Copy 126" cx="5.2" cy="5.2" r="5.2" transform="translate(275.2 309.6)" fill="#fff"/>
    <circle id="Oval_Copy_125" data-name="Oval Copy 125" cx="5.2" cy="5.2" r="5.2" transform="translate(240.8 309.6)" fill="#fff"/>
    <circle id="Oval_Copy_124" data-name="Oval Copy 124" cx="5.2" cy="5.2" r="5.2" transform="translate(206.4 309.6)" fill="#fff"/>
    <circle id="Oval_Copy_123" data-name="Oval Copy 123" cx="5.2" cy="5.2" r="5.2" transform="translate(172 309.6)" fill="#fff"/>
    <circle id="Oval_Copy_122" data-name="Oval Copy 122" cx="5.2" cy="5.2" r="5.2" transform="translate(137.6 309.6)" fill="#fff"/>
    <circle id="Oval_Copy_121" data-name="Oval Copy 121" cx="5.2" cy="5.2" r="5.2" transform="translate(103.2 309.6)" fill="#fff"/>
    <circle id="Oval_Copy_120" data-name="Oval Copy 120" cx="5.2" cy="5.2" r="5.2" transform="translate(68.8 309.6)" fill="#fff"/>
    <circle id="Oval_Copy_119" data-name="Oval Copy 119" cx="5.2" cy="5.2" r="5.2" transform="translate(34.4 309.6)" fill="#fff"/>
    <circle id="Oval_Copy_118" data-name="Oval Copy 118" cx="5.2" cy="5.2" r="5.2" transform="translate(0 309.6)" fill="#fff"/>
    <circle id="Oval_Copy_117" data-name="Oval Copy 117" cx="5.2" cy="5.2" r="5.2" transform="translate(412.8 275.2)" fill="#fff"/>
    <circle id="Oval_Copy_116" data-name="Oval Copy 116" cx="5.2" cy="5.2" r="5.2" transform="translate(378.4 275.2)" fill="#fff"/>
    <circle id="Oval_Copy_115" data-name="Oval Copy 115" cx="5.2" cy="5.2" r="5.2" transform="translate(344 275.2)" fill="#fff"/>
    <circle id="Oval_Copy_114" data-name="Oval Copy 114" cx="5.2" cy="5.2" r="5.2" transform="translate(309.6 275.2)" fill="#fff"/>
    <circle id="Oval_Copy_113" data-name="Oval Copy 113" cx="5.2" cy="5.2" r="5.2" transform="translate(275.2 275.2)" fill="#fff"/>
    <circle id="Oval_Copy_112" data-name="Oval Copy 112" cx="5.2" cy="5.2" r="5.2" transform="translate(240.8 275.2)" fill="#fff"/>
    <circle id="Oval_Copy_111" data-name="Oval Copy 111" cx="5.2" cy="5.2" r="5.2" transform="translate(206.4 275.2)" fill="#fff"/>
    <circle id="Oval_Copy_110" data-name="Oval Copy 110" cx="5.2" cy="5.2" r="5.2" transform="translate(172 275.2)" fill="#fff"/>
    <circle id="Oval_Copy_109" data-name="Oval Copy 109" cx="5.2" cy="5.2" r="5.2" transform="translate(137.6 275.2)" fill="#fff"/>
    <circle id="Oval_Copy_108" data-name="Oval Copy 108" cx="5.2" cy="5.2" r="5.2" transform="translate(103.2 275.2)" fill="#fff"/>
    <circle id="Oval_Copy_107" data-name="Oval Copy 107" cx="5.2" cy="5.2" r="5.2" transform="translate(68.8 275.2)" fill="#fff"/>
    <circle id="Oval_Copy_106" data-name="Oval Copy 106" cx="5.2" cy="5.2" r="5.2" transform="translate(34.4 275.2)" fill="#fff"/>
    <circle id="Oval_Copy_105" data-name="Oval Copy 105" cx="5.2" cy="5.2" r="5.2" transform="translate(0 275.2)" fill="#fff"/>
    <circle id="Oval_Copy_104" data-name="Oval Copy 104" cx="5.2" cy="5.2" r="5.2" transform="translate(412.8 240.8)" fill="#fff"/>
    <circle id="Oval_Copy_103" data-name="Oval Copy 103" cx="5.2" cy="5.2" r="5.2" transform="translate(378.4 240.8)" fill="#fff"/>
    <circle id="Oval_Copy_102" data-name="Oval Copy 102" cx="5.2" cy="5.2" r="5.2" transform="translate(344 240.8)" fill="#fff"/>
    <circle id="Oval_Copy_101" data-name="Oval Copy 101" cx="5.2" cy="5.2" r="5.2" transform="translate(309.6 240.8)" fill="#fff"/>
    <circle id="Oval_Copy_100" data-name="Oval Copy 100" cx="5.2" cy="5.2" r="5.2" transform="translate(275.2 240.8)" fill="#fff"/>
    <circle id="Oval_Copy_99" data-name="Oval Copy 99" cx="5.2" cy="5.2" r="5.2" transform="translate(240.8 240.8)" fill="#fff"/>
    <circle id="Oval_Copy_98" data-name="Oval Copy 98" cx="5.2" cy="5.2" r="5.2" transform="translate(206.4 240.8)" fill="#fff"/>
    <circle id="Oval_Copy_97" data-name="Oval Copy 97" cx="5.2" cy="5.2" r="5.2" transform="translate(172 240.8)" fill="#fff"/>
    <circle id="Oval_Copy_96" data-name="Oval Copy 96" cx="5.2" cy="5.2" r="5.2" transform="translate(137.6 240.8)" fill="#fff"/>
    <circle id="Oval_Copy_95" data-name="Oval Copy 95" cx="5.2" cy="5.2" r="5.2" transform="translate(103.2 240.8)" fill="#fff"/>
    <circle id="Oval_Copy_94" data-name="Oval Copy 94" cx="5.2" cy="5.2" r="5.2" transform="translate(68.8 240.8)" fill="#fff"/>
    <circle id="Oval_Copy_93" data-name="Oval Copy 93" cx="5.2" cy="5.2" r="5.2" transform="translate(34.4 240.8)" fill="#fff"/>
    <circle id="Oval_Copy_92" data-name="Oval Copy 92" cx="5.2" cy="5.2" r="5.2" transform="translate(0 240.8)" fill="#fff"/>
    <circle id="Oval_Copy_91" data-name="Oval Copy 91" cx="5.2" cy="5.2" r="5.2" transform="translate(412.8 206.4)" fill="#fff"/>
    <circle id="Oval_Copy_90" data-name="Oval Copy 90" cx="5.2" cy="5.2" r="5.2" transform="translate(378.4 206.4)" fill="#fff"/>
    <circle id="Oval_Copy_89" data-name="Oval Copy 89" cx="5.2" cy="5.2" r="5.2" transform="translate(344 206.4)" fill="#fff"/>
    <circle id="Oval_Copy_88" data-name="Oval Copy 88" cx="5.2" cy="5.2" r="5.2" transform="translate(309.6 206.4)" fill="#fff"/>
    <circle id="Oval_Copy_87" data-name="Oval Copy 87" cx="5.2" cy="5.2" r="5.2" transform="translate(275.2 206.4)" fill="#fff"/>
    <circle id="Oval_Copy_86" data-name="Oval Copy 86" cx="5.2" cy="5.2" r="5.2" transform="translate(240.8 206.4)" fill="#fff"/>
    <circle id="Oval_Copy_85" data-name="Oval Copy 85" cx="5.2" cy="5.2" r="5.2" transform="translate(206.4 206.4)" fill="#fff"/>
    <circle id="Oval_Copy_84" data-name="Oval Copy 84" cx="5.2" cy="5.2" r="5.2" transform="translate(172 206.4)" fill="#fff"/>
    <circle id="Oval_Copy_83" data-name="Oval Copy 83" cx="5.2" cy="5.2" r="5.2" transform="translate(137.6 206.4)" fill="#fff"/>
    <circle id="Oval_Copy_82" data-name="Oval Copy 82" cx="5.2" cy="5.2" r="5.2" transform="translate(103.2 206.4)" fill="#fff"/>
    <circle id="Oval_Copy_81" data-name="Oval Copy 81" cx="5.2" cy="5.2" r="5.2" transform="translate(68.8 206.4)" fill="#fff"/>
    <circle id="Oval_Copy_80" data-name="Oval Copy 80" cx="5.2" cy="5.2" r="5.2" transform="translate(34.4 206.4)" fill="#fff"/>
    <circle id="Oval_Copy_79" data-name="Oval Copy 79" cx="5.2" cy="5.2" r="5.2" transform="translate(0 206.4)" fill="#fff"/>
    <circle id="Oval_Copy_78" data-name="Oval Copy 78" cx="5.2" cy="5.2" r="5.2" transform="translate(412.8 172)" fill="#fff"/>
    <circle id="Oval_Copy_77" data-name="Oval Copy 77" cx="5.2" cy="5.2" r="5.2" transform="translate(378.4 172)" fill="#fff"/>
    <circle id="Oval_Copy_76" data-name="Oval Copy 76" cx="5.2" cy="5.2" r="5.2" transform="translate(344 172)" fill="#fff"/>
    <circle id="Oval_Copy_75" data-name="Oval Copy 75" cx="5.2" cy="5.2" r="5.2" transform="translate(309.6 172)" fill="#fff"/>
    <circle id="Oval_Copy_74" data-name="Oval Copy 74" cx="5.2" cy="5.2" r="5.2" transform="translate(275.2 172)" fill="#fff"/>
    <circle id="Oval_Copy_73" data-name="Oval Copy 73" cx="5.2" cy="5.2" r="5.2" transform="translate(240.8 172)" fill="#fff"/>
    <circle id="Oval_Copy_72" data-name="Oval Copy 72" cx="5.2" cy="5.2" r="5.2" transform="translate(206.4 172)" fill="#fff"/>
    <circle id="Oval_Copy_71" data-name="Oval Copy 71" cx="5.2" cy="5.2" r="5.2" transform="translate(172 172)" fill="#fff"/>
    <circle id="Oval_Copy_70" data-name="Oval Copy 70" cx="5.2" cy="5.2" r="5.2" transform="translate(137.6 172)" fill="#fff"/>
    <circle id="Oval_Copy_69" data-name="Oval Copy 69" cx="5.2" cy="5.2" r="5.2" transform="translate(103.2 172)" fill="#fff"/>
    <circle id="Oval_Copy_68" data-name="Oval Copy 68" cx="5.2" cy="5.2" r="5.2" transform="translate(68.8 172)" fill="#fff"/>
    <circle id="Oval_Copy_67" data-name="Oval Copy 67" cx="5.2" cy="5.2" r="5.2" transform="translate(34.4 172)" fill="#fff"/>
    <circle id="Oval_Copy_66" data-name="Oval Copy 66" cx="5.2" cy="5.2" r="5.2" transform="translate(0 172)" fill="#fff"/>
    <circle id="Oval_Copy_65" data-name="Oval Copy 65" cx="5.2" cy="5.2" r="5.2" transform="translate(412.8 137.6)" fill="#fff"/>
    <circle id="Oval_Copy_64" data-name="Oval Copy 64" cx="5.2" cy="5.2" r="5.2" transform="translate(378.4 137.6)" fill="#fff"/>
    <circle id="Oval_Copy_63" data-name="Oval Copy 63" cx="5.2" cy="5.2" r="5.2" transform="translate(344 137.6)" fill="#fff"/>
    <circle id="Oval_Copy_62" data-name="Oval Copy 62" cx="5.2" cy="5.2" r="5.2" transform="translate(309.6 137.6)" fill="#fff"/>
    <circle id="Oval_Copy_61" data-name="Oval Copy 61" cx="5.2" cy="5.2" r="5.2" transform="translate(275.2 137.6)" fill="#fff"/>
    <circle id="Oval_Copy_60" data-name="Oval Copy 60" cx="5.2" cy="5.2" r="5.2" transform="translate(240.8 137.6)" fill="#fff"/>
    <circle id="Oval_Copy_59" data-name="Oval Copy 59" cx="5.2" cy="5.2" r="5.2" transform="translate(206.4 137.6)" fill="#fff"/>
    <circle id="Oval_Copy_58" data-name="Oval Copy 58" cx="5.2" cy="5.2" r="5.2" transform="translate(172 137.6)" fill="#fff"/>
    <circle id="Oval_Copy_57" data-name="Oval Copy 57" cx="5.2" cy="5.2" r="5.2" transform="translate(137.6 137.6)" fill="#fff"/>
    <circle id="Oval_Copy_56" data-name="Oval Copy 56" cx="5.2" cy="5.2" r="5.2" transform="translate(103.2 137.6)" fill="#fff"/>
    <circle id="Oval_Copy_55" data-name="Oval Copy 55" cx="5.2" cy="5.2" r="5.2" transform="translate(68.8 137.6)" fill="#fff"/>
    <circle id="Oval_Copy_54" data-name="Oval Copy 54" cx="5.2" cy="5.2" r="5.2" transform="translate(34.4 137.6)" fill="#fff"/>
    <circle id="Oval_Copy_53" data-name="Oval Copy 53" cx="5.2" cy="5.2" r="5.2" transform="translate(0 137.6)" fill="#fff"/>
    <circle id="Oval_Copy_52" data-name="Oval Copy 52" cx="5.2" cy="5.2" r="5.2" transform="translate(412.8 103.2)" fill="#fff"/>
    <circle id="Oval_Copy_51" data-name="Oval Copy 51" cx="5.2" cy="5.2" r="5.2" transform="translate(378.4 103.2)" fill="#fff"/>
    <circle id="Oval_Copy_50" data-name="Oval Copy 50" cx="5.2" cy="5.2" r="5.2" transform="translate(344 103.2)" fill="#fff"/>
    <circle id="Oval_Copy_49" data-name="Oval Copy 49" cx="5.2" cy="5.2" r="5.2" transform="translate(309.6 103.2)" fill="#fff"/>
    <circle id="Oval_Copy_48" data-name="Oval Copy 48" cx="5.2" cy="5.2" r="5.2" transform="translate(275.2 103.2)" fill="#fff"/>
    <circle id="Oval_Copy_47" data-name="Oval Copy 47" cx="5.2" cy="5.2" r="5.2" transform="translate(240.8 103.2)" fill="#fff"/>
    <circle id="Oval_Copy_46" data-name="Oval Copy 46" cx="5.2" cy="5.2" r="5.2" transform="translate(206.4 103.2)" fill="#fff"/>
    <circle id="Oval_Copy_45" data-name="Oval Copy 45" cx="5.2" cy="5.2" r="5.2" transform="translate(172 103.2)" fill="#fff"/>
    <circle id="Oval_Copy_44" data-name="Oval Copy 44" cx="5.2" cy="5.2" r="5.2" transform="translate(137.6 103.2)" fill="#fff"/>
    <circle id="Oval_Copy_43" data-name="Oval Copy 43" cx="5.2" cy="5.2" r="5.2" transform="translate(103.2 103.2)" fill="#fff"/>
    <circle id="Oval_Copy_42" data-name="Oval Copy 42" cx="5.2" cy="5.2" r="5.2" transform="translate(68.8 103.2)" fill="#fff"/>
    <circle id="Oval_Copy_41" data-name="Oval Copy 41" cx="5.2" cy="5.2" r="5.2" transform="translate(34.4 103.2)" fill="#fff"/>
    <circle id="Oval_Copy_40" data-name="Oval Copy 40" cx="5.2" cy="5.2" r="5.2" transform="translate(0 103.2)" fill="#fff"/>
    <circle id="Oval_Copy_39" data-name="Oval Copy 39" cx="5.2" cy="5.2" r="5.2" transform="translate(412.8 68.8)" fill="#fff"/>
    <circle id="Oval_Copy_38" data-name="Oval Copy 38" cx="5.2" cy="5.2" r="5.2" transform="translate(378.4 68.8)" fill="#fff"/>
    <circle id="Oval_Copy_37" data-name="Oval Copy 37" cx="5.2" cy="5.2" r="5.2" transform="translate(344 68.8)" fill="#fff"/>
    <circle id="Oval_Copy_36" data-name="Oval Copy 36" cx="5.2" cy="5.2" r="5.2" transform="translate(309.6 68.8)" fill="#fff"/>
    <circle id="Oval_Copy_35" data-name="Oval Copy 35" cx="5.2" cy="5.2" r="5.2" transform="translate(275.2 68.8)" fill="#fff"/>
    <circle id="Oval_Copy_34" data-name="Oval Copy 34" cx="5.2" cy="5.2" r="5.2" transform="translate(240.8 68.8)" fill="#fff"/>
    <circle id="Oval_Copy_33" data-name="Oval Copy 33" cx="5.2" cy="5.2" r="5.2" transform="translate(206.4 68.8)" fill="#fff"/>
    <circle id="Oval_Copy_32" data-name="Oval Copy 32" cx="5.2" cy="5.2" r="5.2" transform="translate(172 68.8)" fill="#fff"/>
    <circle id="Oval_Copy_31" data-name="Oval Copy 31" cx="5.2" cy="5.2" r="5.2" transform="translate(137.6 68.8)" fill="#fff"/>
    <circle id="Oval_Copy_30" data-name="Oval Copy 30" cx="5.2" cy="5.2" r="5.2" transform="translate(103.2 68.8)" fill="#fff"/>
    <circle id="Oval_Copy_29" data-name="Oval Copy 29" cx="5.2" cy="5.2" r="5.2" transform="translate(68.8 68.8)" fill="#fff"/>
    <circle id="Oval_Copy_28" data-name="Oval Copy 28" cx="5.2" cy="5.2" r="5.2" transform="translate(34.4 68.8)" fill="#fff"/>
    <circle id="Oval_Copy_27" data-name="Oval Copy 27" cx="5.2" cy="5.2" r="5.2" transform="translate(0 68.8)" fill="#fff"/>
    <circle id="Oval_Copy_26" data-name="Oval Copy 26" cx="5.2" cy="5.2" r="5.2" transform="translate(412.8 34.4)" fill="#fff"/>
    <circle id="Oval_Copy_25" data-name="Oval Copy 25" cx="5.2" cy="5.2" r="5.2" transform="translate(378.4 34.4)" fill="#fff"/>
    <circle id="Oval_Copy_24" data-name="Oval Copy 24" cx="5.2" cy="5.2" r="5.2" transform="translate(344 34.4)" fill="#fff"/>
    <circle id="Oval_Copy_23" data-name="Oval Copy 23" cx="5.2" cy="5.2" r="5.2" transform="translate(309.6 34.4)" fill="#fff"/>
    <circle id="Oval_Copy_22" data-name="Oval Copy 22" cx="5.2" cy="5.2" r="5.2" transform="translate(275.2 34.4)" fill="#fff"/>
    <circle id="Oval_Copy_21" data-name="Oval Copy 21" cx="5.2" cy="5.2" r="5.2" transform="translate(240.8 34.4)" fill="#fff"/>
    <circle id="Oval_Copy_20" data-name="Oval Copy 20" cx="5.2" cy="5.2" r="5.2" transform="translate(206.4 34.4)" fill="#fff"/>
    <circle id="Oval_Copy_19" data-name="Oval Copy 19" cx="5.2" cy="5.2" r="5.2" transform="translate(172 34.4)" fill="#fff"/>
    <circle id="Oval_Copy_18" data-name="Oval Copy 18" cx="5.2" cy="5.2" r="5.2" transform="translate(137.6 34.4)" fill="#fff"/>
    <circle id="Oval_Copy_17" data-name="Oval Copy 17" cx="5.2" cy="5.2" r="5.2" transform="translate(103.2 34.4)" fill="#fff"/>
    <circle id="Oval_Copy_16" data-name="Oval Copy 16" cx="5.2" cy="5.2" r="5.2" transform="translate(68.8 34.4)" fill="#fff"/>
    <circle id="Oval_Copy_15" data-name="Oval Copy 15" cx="5.2" cy="5.2" r="5.2" transform="translate(34.4 34.4)" fill="#fff"/>
    <circle id="Oval_Copy_14" data-name="Oval Copy 14" cx="5.2" cy="5.2" r="5.2" transform="translate(0 34.4)" fill="#fff"/>
    <circle id="Oval_Copy_13" data-name="Oval Copy 13" cx="5.2" cy="5.2" r="5.2" transform="translate(412.8 0)" fill="#fff"/>
    <circle id="Oval_Copy_12" data-name="Oval Copy 12" cx="5.2" cy="5.2" r="5.2" transform="translate(378.4 0)" fill="#fff"/>
    <circle id="Oval_Copy_11" data-name="Oval Copy 11" cx="5.2" cy="5.2" r="5.2" transform="translate(344 0)" fill="#fff"/>
    <circle id="Oval_Copy_10" data-name="Oval Copy 10" cx="5.2" cy="5.2" r="5.2" transform="translate(309.6 0)" fill="#fff"/>
    <circle id="Oval_Copy_9" data-name="Oval Copy 9" cx="5.2" cy="5.2" r="5.2" transform="translate(275.2 0)" fill="#fff"/>
    <circle id="Oval_Copy_8" data-name="Oval Copy 8" cx="5.2" cy="5.2" r="5.2" transform="translate(240.8 0)" fill="#fff"/>
    <circle id="Oval_Copy_7" data-name="Oval Copy 7" cx="5.2" cy="5.2" r="5.2" transform="translate(206.4 0)" fill="#fff"/>
    <circle id="Oval_Copy_6" data-name="Oval Copy 6" cx="5.2" cy="5.2" r="5.2" transform="translate(172 0)" fill="#fff"/>
    <circle id="Oval_Copy_5" data-name="Oval Copy 5" cx="5.2" cy="5.2" r="5.2" transform="translate(137.6 0)" fill="#fff"/>
    <circle id="Oval_Copy_4" data-name="Oval Copy 4" cx="5.2" cy="5.2" r="5.2" transform="translate(103.2 0)" fill="#fff"/>
    <circle id="Oval_Copy_3" data-name="Oval Copy 3" cx="5.2" cy="5.2" r="5.2" transform="translate(68.8 0)" fill="#fff"/>
    <circle id="Oval_Copy_2" data-name="Oval Copy 2" cx="5.2" cy="5.2" r="5.2" transform="translate(34.4 0)" fill="#fff"/>
    <circle id="Oval_Copy" data-name="Oval Copy" cx="5.2" cy="5.2" r="5.2" transform="translate(0 0)" fill="#fff"/>
  </g>
</svg>
