<svg xmlns="http://www.w3.org/2000/svg" width="50" height="44" viewBox="0 0 50 44">
  <path id="Combined_Shape" data-name="Combined Shape" d="M32.253,44A2.347,2.347,0,0,1,30,41.583V29.213q0-9.065,1.464-14.143A21.758,21.758,0,0,1,36.947,5.8,27.072,27.072,0,0,1,45.021.2a2.183,2.183,0,0,1,2.929,1.168l1.84,4.109A2.476,2.476,0,0,1,48.663,8.7a14.4,14.4,0,0,0-6.121,4.836,17.9,17.9,0,0,0-2.629,9.791h7.1a2.346,2.346,0,0,1,2.253,2.417V41.583A2.346,2.346,0,0,1,47.011,44ZM2.474,44A2.453,2.453,0,0,1,0,41.584V29.227a49.426,49.426,0,0,1,1.649-14.17A20.968,20.968,0,0,1,7.628,5.839,28.47,28.47,0,0,1,16.533.2,2.491,2.491,0,0,1,19.749,1.37l2.02,4.146a2.377,2.377,0,0,1-1.237,3.221,15.65,15.65,0,0,0-6.72,4.829,16.7,16.7,0,0,0-2.886,9.783h7.752a2.452,2.452,0,0,1,2.473,2.415v15.82A2.452,2.452,0,0,1,18.677,44Z" transform="translate(0 0)" fill="#5502af"/>
</svg>
