<?xml version="1.0" encoding="UTF-8"?>
<svg width="184px" height="254px" viewBox="0 0 184 254" version="1.1" xmlns="http://www.w3.org/2000/svg" xmlns:xlink="http://www.w3.org/1999/xlink">
    <title>7FB79B37-9283-4E1B-A996-58AC83EFB623@3x</title>
    <g id="Main-Page" stroke="none" stroke-width="1" fill="none" fill-rule="evenodd" opacity="0.15">
        <g id="05-1-1-Documentation" transform="translate(-1719.000000, -361.000000)" fill="#FFFFFF">
            <g id="Hero">
                <g id="Bg---31">
                    <g id="Shape---2" transform="translate(1719.287748, 361.500000)">
                        <circle id="Oval-Copy-112" transform="translate(5.200000, 109.000000) rotate(90.000000) translate(-5.200000, -109.000000) " cx="5.2" cy="109" r="5.2"></circle>
                        <circle id="Oval-Copy-111" transform="translate(5.200000, 74.600000) rotate(90.000000) translate(-5.200000, -74.600000) " cx="5.2" cy="74.6" r="5.2"></circle>
                        <circle id="Oval-Copy-110" transform="translate(5.200000, 40.200000) rotate(90.000000) translate(-5.200000, -40.200000) " cx="5.2" cy="40.2" r="5.2"></circle>
                        <circle id="Oval-Copy-109" transform="translate(5.200000, 5.800000) rotate(90.000000) translate(-5.200000, -5.800000) " cx="5.2" cy="5.8" r="5.2"></circle>
                        <circle id="Oval-Copy-99" transform="translate(39.600000, 109.000000) rotate(90.000000) translate(-39.600000, -109.000000) " cx="39.6" cy="109" r="5.2"></circle>
                        <circle id="Oval-Copy-98" transform="translate(39.600000, 74.600000) rotate(90.000000) translate(-39.600000, -74.600000) " cx="39.6" cy="74.6" r="5.2"></circle>
                        <circle id="Oval-Copy-97" transform="translate(39.600000, 40.200000) rotate(90.000000) translate(-39.600000, -40.200000) " cx="39.6" cy="40.2" r="5.2"></circle>
                        <circle id="Oval-Copy-96" transform="translate(39.600000, 5.800000) rotate(90.000000) translate(-39.600000, -5.800000) " cx="39.6" cy="5.8" r="5.2"></circle>
                        <circle id="Oval-Copy-86" transform="translate(74.000000, 109.000000) rotate(90.000000) translate(-74.000000, -109.000000) " cx="74" cy="109" r="5.2"></circle>
                        <circle id="Oval-Copy-85" transform="translate(74.000000, 74.600000) rotate(90.000000) translate(-74.000000, -74.600000) " cx="74" cy="74.6" r="5.2"></circle>
                        <circle id="Oval-Copy-84" transform="translate(74.000000, 40.200000) rotate(90.000000) translate(-74.000000, -40.200000) " cx="74" cy="40.2" r="5.2"></circle>
                        <circle id="Oval-Copy-83" transform="translate(74.000000, 5.800000) rotate(90.000000) translate(-74.000000, -5.800000) " cx="74" cy="5.8" r="5.2"></circle>
                        <circle id="Oval-Copy-164" transform="translate(108.600000, 109.000000) rotate(90.000000) translate(-108.600000, -109.000000) " cx="108.6" cy="109" r="5.2"></circle>
                        <circle id="Oval-Copy-163" transform="translate(108.600000, 74.600000) rotate(90.000000) translate(-108.600000, -74.600000) " cx="108.6" cy="74.6" r="5.2"></circle>
                        <circle id="Oval-Copy-162" transform="translate(108.600000, 40.200000) rotate(90.000000) translate(-108.600000, -40.200000) " cx="108.6" cy="40.2" r="5.2"></circle>
                        <circle id="Oval-Copy-161" transform="translate(108.600000, 5.800000) rotate(90.000000) translate(-108.600000, -5.800000) " cx="108.6" cy="5.8" r="5.2"></circle>
                        <circle id="Oval-Copy-151" transform="translate(143.000000, 109.000000) rotate(90.000000) translate(-143.000000, -109.000000) " cx="143" cy="109" r="5.2"></circle>
                        <circle id="Oval-Copy-150" transform="translate(143.000000, 74.600000) rotate(90.000000) translate(-143.000000, -74.600000) " cx="143" cy="74.6" r="5.2"></circle>
                        <circle id="Oval-Copy-149" transform="translate(143.000000, 40.200000) rotate(90.000000) translate(-143.000000, -40.200000) " cx="143" cy="40.2" r="5.2"></circle>
                        <circle id="Oval-Copy-148" transform="translate(143.000000, 5.800000) rotate(90.000000) translate(-143.000000, -5.800000) " cx="143" cy="5.8" r="5.2"></circle>
                        <circle id="Oval-Copy-138" transform="translate(177.400000, 109.000000) rotate(90.000000) translate(-177.400000, -109.000000) " cx="177.4" cy="109" r="5.2"></circle>
                        <circle id="Oval-Copy-137" transform="translate(177.400000, 74.600000) rotate(90.000000) translate(-177.400000, -74.600000) " cx="177.4" cy="74.6" r="5.2"></circle>
                        <circle id="Oval-Copy-136" transform="translate(177.400000, 40.200000) rotate(90.000000) translate(-177.400000, -40.200000) " cx="177.4" cy="40.2" r="5.2"></circle>
                        <circle id="Oval-Copy-135" transform="translate(177.400000, 5.800000) rotate(90.000000) translate(-177.400000, -5.800000) " cx="177.4" cy="5.8" r="5.2"></circle>
                        <circle id="Oval-Copy-112" transform="translate(5.200000, 246.900000) rotate(90.000000) translate(-5.200000, -246.900000) " cx="5.2" cy="246.9" r="5.2"></circle>
                        <circle id="Oval-Copy-111" transform="translate(5.200000, 212.500000) rotate(90.000000) translate(-5.200000, -212.500000) " cx="5.2" cy="212.5" r="5.2"></circle>
                        <circle id="Oval-Copy-110" transform="translate(5.200000, 178.100000) rotate(90.000000) translate(-5.200000, -178.100000) " cx="5.2" cy="178.1" r="5.2"></circle>
                        <circle id="Oval-Copy-109" transform="translate(5.200000, 143.700000) rotate(90.000000) translate(-5.200000, -143.700000) " cx="5.2" cy="143.7" r="5.2"></circle>
                        <circle id="Oval-Copy-99" transform="translate(39.600000, 246.900000) rotate(90.000000) translate(-39.600000, -246.900000) " cx="39.6" cy="246.9" r="5.2"></circle>
                        <circle id="Oval-Copy-98" transform="translate(39.600000, 212.500000) rotate(90.000000) translate(-39.600000, -212.500000) " cx="39.6" cy="212.5" r="5.2"></circle>
                        <circle id="Oval-Copy-97" transform="translate(39.600000, 178.100000) rotate(90.000000) translate(-39.600000, -178.100000) " cx="39.6" cy="178.1" r="5.2"></circle>
                        <circle id="Oval-Copy-96" transform="translate(39.600000, 143.700000) rotate(90.000000) translate(-39.600000, -143.700000) " cx="39.6" cy="143.7" r="5.2"></circle>
                        <circle id="Oval-Copy-86" transform="translate(74.000000, 246.900000) rotate(90.000000) translate(-74.000000, -246.900000) " cx="74" cy="246.9" r="5.2"></circle>
                        <circle id="Oval-Copy-85" transform="translate(74.000000, 212.500000) rotate(90.000000) translate(-74.000000, -212.500000) " cx="74" cy="212.5" r="5.2"></circle>
                        <circle id="Oval-Copy-84" transform="translate(74.000000, 178.100000) rotate(90.000000) translate(-74.000000, -178.100000) " cx="74" cy="178.1" r="5.2"></circle>
                        <circle id="Oval-Copy-83" transform="translate(74.000000, 143.700000) rotate(90.000000) translate(-74.000000, -143.700000) " cx="74" cy="143.7" r="5.2"></circle>
                        <circle id="Oval-Copy-164" transform="translate(108.600000, 246.900000) rotate(90.000000) translate(-108.600000, -246.900000) " cx="108.6" cy="246.9" r="5.2"></circle>
                        <circle id="Oval-Copy-163" transform="translate(108.600000, 212.500000) rotate(90.000000) translate(-108.600000, -212.500000) " cx="108.6" cy="212.5" r="5.2"></circle>
                        <circle id="Oval-Copy-162" transform="translate(108.600000, 178.100000) rotate(90.000000) translate(-108.600000, -178.100000) " cx="108.6" cy="178.1" r="5.2"></circle>
                        <circle id="Oval-Copy-161" transform="translate(108.600000, 143.700000) rotate(90.000000) translate(-108.600000, -143.700000) " cx="108.6" cy="143.7" r="5.2"></circle>
                        <circle id="Oval-Copy-151" transform="translate(143.000000, 246.900000) rotate(90.000000) translate(-143.000000, -246.900000) " cx="143" cy="246.9" r="5.2"></circle>
                        <circle id="Oval-Copy-150" transform="translate(143.000000, 212.500000) rotate(90.000000) translate(-143.000000, -212.500000) " cx="143" cy="212.5" r="5.2"></circle>
                        <circle id="Oval-Copy-149" transform="translate(143.000000, 178.100000) rotate(90.000000) translate(-143.000000, -178.100000) " cx="143" cy="178.1" r="5.2"></circle>
                        <circle id="Oval-Copy-148" transform="translate(143.000000, 143.700000) rotate(90.000000) translate(-143.000000, -143.700000) " cx="143" cy="143.7" r="5.2"></circle>
                        <circle id="Oval-Copy-138" transform="translate(177.400000, 246.900000) rotate(90.000000) translate(-177.400000, -246.900000) " cx="177.4" cy="246.9" r="5.2"></circle>
                        <circle id="Oval-Copy-137" transform="translate(177.400000, 212.500000) rotate(90.000000) translate(-177.400000, -212.500000) " cx="177.4" cy="212.5" r="5.2"></circle>
                        <circle id="Oval-Copy-136" transform="translate(177.400000, 178.100000) rotate(90.000000) translate(-177.400000, -178.100000) " cx="177.4" cy="178.1" r="5.2"></circle>
                        <circle id="Oval-Copy-135" transform="translate(177.400000, 143.700000) rotate(90.000000) translate(-177.400000, -143.700000) " cx="177.4" cy="143.7" r="5.2"></circle>
                    </g>
                </g>
            </g>
        </g>
    </g>
</svg>