<?xml version="1.0" encoding="UTF-8"?>
<svg width="322px" height="457px" viewBox="0 0 322 457" version="1.1" xmlns="http://www.w3.org/2000/svg" xmlns:xlink="http://www.w3.org/1999/xlink">
    <title>22286B35-E8E9-463D-A8F0-96D5D1E930A8@3x</title>
    <g id="Main-Page" stroke="none" stroke-width="1" fill="none" fill-rule="evenodd" opacity="0.15">
        <g id="05-1-1-Documentation" transform="translate(-19.000000, -15.000000)" fill="#FFFFFF">
            <g id="Hero">
                <g id="Bg---31">
                    <g id="Shape---1" transform="translate(19.287748, 15.000000)">
                        <circle id="Oval-Copy-164" transform="translate(5.200000, 246.000000) rotate(90.000000) translate(-5.200000, -246.000000) " cx="5.2" cy="246" r="5.2"></circle>
                        <circle id="Oval-Copy-163" transform="translate(5.200000, 211.600000) rotate(90.000000) translate(-5.200000, -211.600000) " cx="5.2" cy="211.6" r="5.2"></circle>
                        <circle id="Oval-Copy-162" transform="translate(5.200000, 177.200000) rotate(90.000000) translate(-5.200000, -177.200000) " cx="5.2" cy="177.2" r="5.2"></circle>
                        <circle id="Oval-Copy-161" transform="translate(5.200000, 142.800000) rotate(90.000000) translate(-5.200000, -142.800000) " cx="5.2" cy="142.8" r="5.2"></circle>
                        <circle id="Oval-Copy-160" transform="translate(5.200000, 108.400000) rotate(90.000000) translate(-5.200000, -108.400000) " cx="5.2" cy="108.4" r="5.2"></circle>
                        <circle id="Oval-Copy-159" transform="translate(5.200000, 74.000000) rotate(90.000000) translate(-5.200000, -74.000000) " cx="5.2" cy="74" r="5.2"></circle>
                        <circle id="Oval-Copy-158" transform="translate(5.200000, 39.600000) rotate(90.000000) translate(-5.200000, -39.600000) " cx="5.2" cy="39.6" r="5.2"></circle>
                        <circle id="Oval-Copy-157" transform="translate(5.200000, 5.200000) rotate(90.000000) translate(-5.200000, -5.200000) " cx="5.2" cy="5.2" r="5.2"></circle>
                        <circle id="Oval-Copy-151" transform="translate(39.600000, 246.000000) rotate(90.000000) translate(-39.600000, -246.000000) " cx="39.6" cy="246" r="5.2"></circle>
                        <circle id="Oval-Copy-150" transform="translate(39.600000, 211.600000) rotate(90.000000) translate(-39.600000, -211.600000) " cx="39.6" cy="211.6" r="5.2"></circle>
                        <circle id="Oval-Copy-149" transform="translate(39.600000, 177.200000) rotate(90.000000) translate(-39.600000, -177.200000) " cx="39.6" cy="177.2" r="5.2"></circle>
                        <circle id="Oval-Copy-148" transform="translate(39.600000, 142.800000) rotate(90.000000) translate(-39.600000, -142.800000) " cx="39.6" cy="142.8" r="5.2"></circle>
                        <circle id="Oval-Copy-147" transform="translate(39.600000, 108.400000) rotate(90.000000) translate(-39.600000, -108.400000) " cx="39.6" cy="108.4" r="5.2"></circle>
                        <circle id="Oval-Copy-146" transform="translate(39.600000, 74.000000) rotate(90.000000) translate(-39.600000, -74.000000) " cx="39.6" cy="74" r="5.2"></circle>
                        <circle id="Oval-Copy-145" transform="translate(39.600000, 39.600000) rotate(90.000000) translate(-39.600000, -39.600000) " cx="39.6" cy="39.6" r="5.2"></circle>
                        <circle id="Oval-Copy-144" transform="translate(39.600000, 5.200000) rotate(90.000000) translate(-39.600000, -5.200000) " cx="39.6" cy="5.2" r="5.2"></circle>
                        <circle id="Oval-Copy-138" transform="translate(74.000000, 246.000000) rotate(90.000000) translate(-74.000000, -246.000000) " cx="74" cy="246" r="5.2"></circle>
                        <circle id="Oval-Copy-137" transform="translate(74.000000, 211.600000) rotate(90.000000) translate(-74.000000, -211.600000) " cx="74" cy="211.6" r="5.2"></circle>
                        <circle id="Oval-Copy-136" transform="translate(74.000000, 177.200000) rotate(90.000000) translate(-74.000000, -177.200000) " cx="74" cy="177.2" r="5.2"></circle>
                        <circle id="Oval-Copy-135" transform="translate(74.000000, 142.800000) rotate(90.000000) translate(-74.000000, -142.800000) " cx="74" cy="142.8" r="5.2"></circle>
                        <circle id="Oval-Copy-134" transform="translate(74.000000, 108.400000) rotate(90.000000) translate(-74.000000, -108.400000) " cx="74" cy="108.4" r="5.2"></circle>
                        <circle id="Oval-Copy-133" transform="translate(74.000000, 74.000000) rotate(90.000000) translate(-74.000000, -74.000000) " cx="74" cy="74" r="5.2"></circle>
                        <circle id="Oval-Copy-132" transform="translate(74.000000, 39.600000) rotate(90.000000) translate(-74.000000, -39.600000) " cx="74" cy="39.6" r="5.2"></circle>
                        <circle id="Oval-Copy-131" transform="translate(74.000000, 5.200000) rotate(90.000000) translate(-74.000000, -5.200000) " cx="74" cy="5.2" r="5.2"></circle>
                        <circle id="Oval-Copy-125" transform="translate(108.400000, 246.000000) rotate(90.000000) translate(-108.400000, -246.000000) " cx="108.4" cy="246" r="5.2"></circle>
                        <circle id="Oval-Copy-124" transform="translate(108.400000, 211.600000) rotate(90.000000) translate(-108.400000, -211.600000) " cx="108.4" cy="211.6" r="5.2"></circle>
                        <circle id="Oval-Copy-123" transform="translate(108.400000, 177.200000) rotate(90.000000) translate(-108.400000, -177.200000) " cx="108.4" cy="177.2" r="5.2"></circle>
                        <circle id="Oval-Copy-122" transform="translate(108.400000, 142.800000) rotate(90.000000) translate(-108.400000, -142.800000) " cx="108.4" cy="142.8" r="5.2"></circle>
                        <circle id="Oval-Copy-121" transform="translate(108.400000, 108.400000) rotate(90.000000) translate(-108.400000, -108.400000) " cx="108.4" cy="108.4" r="5.2"></circle>
                        <circle id="Oval-Copy-120" transform="translate(108.400000, 74.000000) rotate(90.000000) translate(-108.400000, -74.000000) " cx="108.4" cy="74" r="5.2"></circle>
                        <circle id="Oval-Copy-119" transform="translate(108.400000, 39.600000) rotate(90.000000) translate(-108.400000, -39.600000) " cx="108.4" cy="39.6" r="5.2"></circle>
                        <circle id="Oval-Copy-118" transform="translate(108.400000, 5.200000) rotate(90.000000) translate(-108.400000, -5.200000) " cx="108.4" cy="5.2" r="5.2"></circle>
                        <circle id="Oval-Copy-112" transform="translate(142.800000, 246.000000) rotate(90.000000) translate(-142.800000, -246.000000) " cx="142.8" cy="246" r="5.2"></circle>
                        <circle id="Oval-Copy-111" transform="translate(142.800000, 211.600000) rotate(90.000000) translate(-142.800000, -211.600000) " cx="142.8" cy="211.6" r="5.2"></circle>
                        <circle id="Oval-Copy-110" transform="translate(142.800000, 177.200000) rotate(90.000000) translate(-142.800000, -177.200000) " cx="142.8" cy="177.2" r="5.2"></circle>
                        <circle id="Oval-Copy-109" transform="translate(142.800000, 142.800000) rotate(90.000000) translate(-142.800000, -142.800000) " cx="142.8" cy="142.8" r="5.2"></circle>
                        <circle id="Oval-Copy-108" transform="translate(142.800000, 108.400000) rotate(90.000000) translate(-142.800000, -108.400000) " cx="142.8" cy="108.4" r="5.2"></circle>
                        <circle id="Oval-Copy-107" transform="translate(142.800000, 74.000000) rotate(90.000000) translate(-142.800000, -74.000000) " cx="142.8" cy="74" r="5.2"></circle>
                        <circle id="Oval-Copy-106" transform="translate(142.800000, 39.600000) rotate(90.000000) translate(-142.800000, -39.600000) " cx="142.8" cy="39.6" r="5.2"></circle>
                        <circle id="Oval-Copy-105" transform="translate(142.800000, 5.200000) rotate(90.000000) translate(-142.800000, -5.200000) " cx="142.8" cy="5.2" r="5.2"></circle>
                        <circle id="Oval-Copy-99" transform="translate(177.200000, 246.000000) rotate(90.000000) translate(-177.200000, -246.000000) " cx="177.2" cy="246" r="5.2"></circle>
                        <circle id="Oval-Copy-98" transform="translate(177.200000, 211.600000) rotate(90.000000) translate(-177.200000, -211.600000) " cx="177.2" cy="211.6" r="5.2"></circle>
                        <circle id="Oval-Copy-97" transform="translate(177.200000, 177.200000) rotate(90.000000) translate(-177.200000, -177.200000) " cx="177.2" cy="177.2" r="5.2"></circle>
                        <circle id="Oval-Copy-96" transform="translate(177.200000, 142.800000) rotate(90.000000) translate(-177.200000, -142.800000) " cx="177.2" cy="142.8" r="5.2"></circle>
                        <circle id="Oval-Copy-95" transform="translate(177.200000, 108.400000) rotate(90.000000) translate(-177.200000, -108.400000) " cx="177.2" cy="108.4" r="5.2"></circle>
                        <circle id="Oval-Copy-94" transform="translate(177.200000, 74.000000) rotate(90.000000) translate(-177.200000, -74.000000) " cx="177.2" cy="74" r="5.2"></circle>
                        <circle id="Oval-Copy-93" transform="translate(177.200000, 39.600000) rotate(90.000000) translate(-177.200000, -39.600000) " cx="177.2" cy="39.6" r="5.2"></circle>
                        <circle id="Oval-Copy-92" transform="translate(177.200000, 5.200000) rotate(90.000000) translate(-177.200000, -5.200000) " cx="177.2" cy="5.2" r="5.2"></circle>
                        <circle id="Oval-Copy-86" transform="translate(211.600000, 246.000000) rotate(90.000000) translate(-211.600000, -246.000000) " cx="211.6" cy="246" r="5.2"></circle>
                        <circle id="Oval-Copy-85" transform="translate(211.600000, 211.600000) rotate(90.000000) translate(-211.600000, -211.600000) " cx="211.6" cy="211.6" r="5.2"></circle>
                        <circle id="Oval-Copy-84" transform="translate(211.600000, 177.200000) rotate(90.000000) translate(-211.600000, -177.200000) " cx="211.6" cy="177.2" r="5.2"></circle>
                        <circle id="Oval-Copy-83" transform="translate(211.600000, 142.800000) rotate(90.000000) translate(-211.600000, -142.800000) " cx="211.6" cy="142.8" r="5.2"></circle>
                        <circle id="Oval-Copy-82" transform="translate(211.600000, 108.400000) rotate(90.000000) translate(-211.600000, -108.400000) " cx="211.6" cy="108.4" r="5.2"></circle>
                        <circle id="Oval-Copy-81" transform="translate(211.600000, 74.000000) rotate(90.000000) translate(-211.600000, -74.000000) " cx="211.6" cy="74" r="5.2"></circle>
                        <circle id="Oval-Copy-80" transform="translate(211.600000, 39.600000) rotate(90.000000) translate(-211.600000, -39.600000) " cx="211.6" cy="39.6" r="5.2"></circle>
                        <circle id="Oval-Copy-79" transform="translate(211.600000, 5.200000) rotate(90.000000) translate(-211.600000, -5.200000) " cx="211.6" cy="5.2" r="5.2"></circle>
                        <circle id="Oval-Copy-164" transform="translate(246.200000, 246.000000) rotate(90.000000) translate(-246.200000, -246.000000) " cx="246.2" cy="246" r="5.2"></circle>
                        <circle id="Oval-Copy-163" transform="translate(246.200000, 211.600000) rotate(90.000000) translate(-246.200000, -211.600000) " cx="246.2" cy="211.6" r="5.2"></circle>
                        <circle id="Oval-Copy-162" transform="translate(246.200000, 177.200000) rotate(90.000000) translate(-246.200000, -177.200000) " cx="246.2" cy="177.2" r="5.2"></circle>
                        <circle id="Oval-Copy-161" transform="translate(246.200000, 142.800000) rotate(90.000000) translate(-246.200000, -142.800000) " cx="246.2" cy="142.8" r="5.2"></circle>
                        <circle id="Oval-Copy-160" transform="translate(246.200000, 108.400000) rotate(90.000000) translate(-246.200000, -108.400000) " cx="246.2" cy="108.4" r="5.2"></circle>
                        <circle id="Oval-Copy-159" transform="translate(246.200000, 74.000000) rotate(90.000000) translate(-246.200000, -74.000000) " cx="246.2" cy="74" r="5.2"></circle>
                        <circle id="Oval-Copy-158" transform="translate(246.200000, 39.600000) rotate(90.000000) translate(-246.200000, -39.600000) " cx="246.2" cy="39.6" r="5.2"></circle>
                        <circle id="Oval-Copy-157" transform="translate(246.200000, 5.200000) rotate(90.000000) translate(-246.200000, -5.200000) " cx="246.2" cy="5.2" r="5.2"></circle>
                        <circle id="Oval-Copy-151" transform="translate(280.600000, 246.000000) rotate(90.000000) translate(-280.600000, -246.000000) " cx="280.6" cy="246" r="5.2"></circle>
                        <circle id="Oval-Copy-150" transform="translate(280.600000, 211.600000) rotate(90.000000) translate(-280.600000, -211.600000) " cx="280.6" cy="211.6" r="5.2"></circle>
                        <circle id="Oval-Copy-149" transform="translate(280.600000, 177.200000) rotate(90.000000) translate(-280.600000, -177.200000) " cx="280.6" cy="177.2" r="5.2"></circle>
                        <circle id="Oval-Copy-148" transform="translate(280.600000, 142.800000) rotate(90.000000) translate(-280.600000, -142.800000) " cx="280.6" cy="142.8" r="5.2"></circle>
                        <circle id="Oval-Copy-147" transform="translate(280.600000, 108.400000) rotate(90.000000) translate(-280.600000, -108.400000) " cx="280.6" cy="108.4" r="5.2"></circle>
                        <circle id="Oval-Copy-146" transform="translate(280.600000, 74.000000) rotate(90.000000) translate(-280.600000, -74.000000) " cx="280.6" cy="74" r="5.2"></circle>
                        <circle id="Oval-Copy-145" transform="translate(280.600000, 39.600000) rotate(90.000000) translate(-280.600000, -39.600000) " cx="280.6" cy="39.6" r="5.2"></circle>
                        <circle id="Oval-Copy-144" transform="translate(280.600000, 5.200000) rotate(90.000000) translate(-280.600000, -5.200000) " cx="280.6" cy="5.2" r="5.2"></circle>
                        <circle id="Oval-Copy-138" transform="translate(315.000000, 246.000000) rotate(90.000000) translate(-315.000000, -246.000000) " cx="315" cy="246" r="5.2"></circle>
                        <circle id="Oval-Copy-137" transform="translate(315.000000, 211.600000) rotate(90.000000) translate(-315.000000, -211.600000) " cx="315" cy="211.6" r="5.2"></circle>
                        <circle id="Oval-Copy-136" transform="translate(315.000000, 177.200000) rotate(90.000000) translate(-315.000000, -177.200000) " cx="315" cy="177.2" r="5.2"></circle>
                        <circle id="Oval-Copy-135" transform="translate(315.000000, 142.800000) rotate(90.000000) translate(-315.000000, -142.800000) " cx="315" cy="142.8" r="5.2"></circle>
                        <circle id="Oval-Copy-134" transform="translate(315.000000, 108.400000) rotate(90.000000) translate(-315.000000, -108.400000) " cx="315" cy="108.4" r="5.2"></circle>
                        <circle id="Oval-Copy-133" transform="translate(315.000000, 74.000000) rotate(90.000000) translate(-315.000000, -74.000000) " cx="315" cy="74" r="5.2"></circle>
                        <circle id="Oval-Copy-132" transform="translate(315.000000, 39.600000) rotate(90.000000) translate(-315.000000, -39.600000) " cx="315" cy="39.6" r="5.2"></circle>
                        <circle id="Oval-Copy-131" transform="translate(315.000000, 5.200000) rotate(90.000000) translate(-315.000000, -5.200000) " cx="315" cy="5.2" r="5.2"></circle>
                        <circle id="Oval-Copy-162" transform="translate(5.200000, 451.200000) rotate(90.000000) translate(-5.200000, -451.200000) " cx="5.2" cy="451.2" r="5.2"></circle>
                        <circle id="Oval-Copy-161" transform="translate(5.200000, 416.800000) rotate(90.000000) translate(-5.200000, -416.800000) " cx="5.2" cy="416.8" r="5.2"></circle>
                        <circle id="Oval-Copy-160" transform="translate(5.200000, 382.400000) rotate(90.000000) translate(-5.200000, -382.400000) " cx="5.2" cy="382.4" r="5.2"></circle>
                        <circle id="Oval-Copy-159" transform="translate(5.200000, 348.000000) rotate(90.000000) translate(-5.200000, -348.000000) " cx="5.2" cy="348" r="5.2"></circle>
                        <circle id="Oval-Copy-158" transform="translate(5.200000, 313.600000) rotate(90.000000) translate(-5.200000, -313.600000) " cx="5.2" cy="313.6" r="5.2"></circle>
                        <circle id="Oval-Copy-157" transform="translate(5.200000, 279.200000) rotate(90.000000) translate(-5.200000, -279.200000) " cx="5.2" cy="279.2" r="5.2"></circle>
                        <circle id="Oval-Copy-149" transform="translate(39.600000, 451.200000) rotate(90.000000) translate(-39.600000, -451.200000) " cx="39.6" cy="451.2" r="5.2"></circle>
                        <circle id="Oval-Copy-148" transform="translate(39.600000, 416.800000) rotate(90.000000) translate(-39.600000, -416.800000) " cx="39.6" cy="416.8" r="5.2"></circle>
                        <circle id="Oval-Copy-147" transform="translate(39.600000, 382.400000) rotate(90.000000) translate(-39.600000, -382.400000) " cx="39.6" cy="382.4" r="5.2"></circle>
                        <circle id="Oval-Copy-146" transform="translate(39.600000, 348.000000) rotate(90.000000) translate(-39.600000, -348.000000) " cx="39.6" cy="348" r="5.2"></circle>
                        <circle id="Oval-Copy-145" transform="translate(39.600000, 313.600000) rotate(90.000000) translate(-39.600000, -313.600000) " cx="39.6" cy="313.6" r="5.2"></circle>
                        <circle id="Oval-Copy-144" transform="translate(39.600000, 279.200000) rotate(90.000000) translate(-39.600000, -279.200000) " cx="39.6" cy="279.2" r="5.2"></circle>
                        <circle id="Oval-Copy-136" transform="translate(74.000000, 451.200000) rotate(90.000000) translate(-74.000000, -451.200000) " cx="74" cy="451.2" r="5.2"></circle>
                        <circle id="Oval-Copy-135" transform="translate(74.000000, 416.800000) rotate(90.000000) translate(-74.000000, -416.800000) " cx="74" cy="416.8" r="5.2"></circle>
                        <circle id="Oval-Copy-134" transform="translate(74.000000, 382.400000) rotate(90.000000) translate(-74.000000, -382.400000) " cx="74" cy="382.4" r="5.2"></circle>
                        <circle id="Oval-Copy-133" transform="translate(74.000000, 348.000000) rotate(90.000000) translate(-74.000000, -348.000000) " cx="74" cy="348" r="5.2"></circle>
                        <circle id="Oval-Copy-132" transform="translate(74.000000, 313.600000) rotate(90.000000) translate(-74.000000, -313.600000) " cx="74" cy="313.6" r="5.2"></circle>
                        <circle id="Oval-Copy-131" transform="translate(74.000000, 279.200000) rotate(90.000000) translate(-74.000000, -279.200000) " cx="74" cy="279.2" r="5.2"></circle>
                        <circle id="Oval-Copy-123" transform="translate(108.400000, 451.200000) rotate(90.000000) translate(-108.400000, -451.200000) " cx="108.4" cy="451.2" r="5.2"></circle>
                        <circle id="Oval-Copy-122" transform="translate(108.400000, 416.800000) rotate(90.000000) translate(-108.400000, -416.800000) " cx="108.4" cy="416.8" r="5.2"></circle>
                        <circle id="Oval-Copy-121" transform="translate(108.400000, 382.400000) rotate(90.000000) translate(-108.400000, -382.400000) " cx="108.4" cy="382.4" r="5.2"></circle>
                        <circle id="Oval-Copy-120" transform="translate(108.400000, 348.000000) rotate(90.000000) translate(-108.400000, -348.000000) " cx="108.4" cy="348" r="5.2"></circle>
                        <circle id="Oval-Copy-119" transform="translate(108.400000, 313.600000) rotate(90.000000) translate(-108.400000, -313.600000) " cx="108.4" cy="313.6" r="5.2"></circle>
                        <circle id="Oval-Copy-118" transform="translate(108.400000, 279.200000) rotate(90.000000) translate(-108.400000, -279.200000) " cx="108.4" cy="279.2" r="5.2"></circle>
                        <circle id="Oval-Copy-110" transform="translate(142.800000, 451.200000) rotate(90.000000) translate(-142.800000, -451.200000) " cx="142.8" cy="451.2" r="5.2"></circle>
                        <circle id="Oval-Copy-109" transform="translate(142.800000, 416.800000) rotate(90.000000) translate(-142.800000, -416.800000) " cx="142.8" cy="416.8" r="5.2"></circle>
                        <circle id="Oval-Copy-108" transform="translate(142.800000, 382.400000) rotate(90.000000) translate(-142.800000, -382.400000) " cx="142.8" cy="382.4" r="5.2"></circle>
                        <circle id="Oval-Copy-107" transform="translate(142.800000, 348.000000) rotate(90.000000) translate(-142.800000, -348.000000) " cx="142.8" cy="348" r="5.2"></circle>
                        <circle id="Oval-Copy-106" transform="translate(142.800000, 313.600000) rotate(90.000000) translate(-142.800000, -313.600000) " cx="142.8" cy="313.6" r="5.2"></circle>
                        <circle id="Oval-Copy-105" transform="translate(142.800000, 279.200000) rotate(90.000000) translate(-142.800000, -279.200000) " cx="142.8" cy="279.2" r="5.2"></circle>
                        <circle id="Oval-Copy-97" transform="translate(177.200000, 451.200000) rotate(90.000000) translate(-177.200000, -451.200000) " cx="177.2" cy="451.2" r="5.2"></circle>
                        <circle id="Oval-Copy-96" transform="translate(177.200000, 416.800000) rotate(90.000000) translate(-177.200000, -416.800000) " cx="177.2" cy="416.8" r="5.2"></circle>
                        <circle id="Oval-Copy-95" transform="translate(177.200000, 382.400000) rotate(90.000000) translate(-177.200000, -382.400000) " cx="177.2" cy="382.4" r="5.2"></circle>
                        <circle id="Oval-Copy-94" transform="translate(177.200000, 348.000000) rotate(90.000000) translate(-177.200000, -348.000000) " cx="177.2" cy="348" r="5.2"></circle>
                        <circle id="Oval-Copy-93" transform="translate(177.200000, 313.600000) rotate(90.000000) translate(-177.200000, -313.600000) " cx="177.2" cy="313.6" r="5.2"></circle>
                        <circle id="Oval-Copy-92" transform="translate(177.200000, 279.200000) rotate(90.000000) translate(-177.200000, -279.200000) " cx="177.2" cy="279.2" r="5.2"></circle>
                        <circle id="Oval-Copy-84" transform="translate(211.600000, 451.200000) rotate(90.000000) translate(-211.600000, -451.200000) " cx="211.6" cy="451.2" r="5.2"></circle>
                        <circle id="Oval-Copy-83" transform="translate(211.600000, 416.800000) rotate(90.000000) translate(-211.600000, -416.800000) " cx="211.6" cy="416.8" r="5.2"></circle>
                        <circle id="Oval-Copy-82" transform="translate(211.600000, 382.400000) rotate(90.000000) translate(-211.600000, -382.400000) " cx="211.6" cy="382.4" r="5.2"></circle>
                        <circle id="Oval-Copy-81" transform="translate(211.600000, 348.000000) rotate(90.000000) translate(-211.600000, -348.000000) " cx="211.6" cy="348" r="5.2"></circle>
                        <circle id="Oval-Copy-80" transform="translate(211.600000, 313.600000) rotate(90.000000) translate(-211.600000, -313.600000) " cx="211.6" cy="313.6" r="5.2"></circle>
                        <circle id="Oval-Copy-79" transform="translate(211.600000, 279.200000) rotate(90.000000) translate(-211.600000, -279.200000) " cx="211.6" cy="279.2" r="5.2"></circle>
                        <circle id="Oval-Copy-162" transform="translate(246.200000, 451.200000) rotate(90.000000) translate(-246.200000, -451.200000) " cx="246.2" cy="451.2" r="5.2"></circle>
                        <circle id="Oval-Copy-161" transform="translate(246.200000, 416.800000) rotate(90.000000) translate(-246.200000, -416.800000) " cx="246.2" cy="416.8" r="5.2"></circle>
                        <circle id="Oval-Copy-160" transform="translate(246.200000, 382.400000) rotate(90.000000) translate(-246.200000, -382.400000) " cx="246.2" cy="382.4" r="5.2"></circle>
                        <circle id="Oval-Copy-159" transform="translate(246.200000, 348.000000) rotate(90.000000) translate(-246.200000, -348.000000) " cx="246.2" cy="348" r="5.2"></circle>
                        <circle id="Oval-Copy-158" transform="translate(246.200000, 313.600000) rotate(90.000000) translate(-246.200000, -313.600000) " cx="246.2" cy="313.6" r="5.2"></circle>
                        <circle id="Oval-Copy-157" transform="translate(246.200000, 279.200000) rotate(90.000000) translate(-246.200000, -279.200000) " cx="246.2" cy="279.2" r="5.2"></circle>
                        <circle id="Oval-Copy-149" transform="translate(280.600000, 451.200000) rotate(90.000000) translate(-280.600000, -451.200000) " cx="280.6" cy="451.2" r="5.2"></circle>
                        <circle id="Oval-Copy-148" transform="translate(280.600000, 416.800000) rotate(90.000000) translate(-280.600000, -416.800000) " cx="280.6" cy="416.8" r="5.2"></circle>
                        <circle id="Oval-Copy-147" transform="translate(280.600000, 382.400000) rotate(90.000000) translate(-280.600000, -382.400000) " cx="280.6" cy="382.4" r="5.2"></circle>
                        <circle id="Oval-Copy-146" transform="translate(280.600000, 348.000000) rotate(90.000000) translate(-280.600000, -348.000000) " cx="280.6" cy="348" r="5.2"></circle>
                        <circle id="Oval-Copy-145" transform="translate(280.600000, 313.600000) rotate(90.000000) translate(-280.600000, -313.600000) " cx="280.6" cy="313.6" r="5.2"></circle>
                        <circle id="Oval-Copy-144" transform="translate(280.600000, 279.200000) rotate(90.000000) translate(-280.600000, -279.200000) " cx="280.6" cy="279.2" r="5.2"></circle>
                        <circle id="Oval-Copy-136" transform="translate(315.000000, 451.200000) rotate(90.000000) translate(-315.000000, -451.200000) " cx="315" cy="451.2" r="5.2"></circle>
                        <circle id="Oval-Copy-135" transform="translate(315.000000, 416.800000) rotate(90.000000) translate(-315.000000, -416.800000) " cx="315" cy="416.8" r="5.2"></circle>
                        <circle id="Oval-Copy-134" transform="translate(315.000000, 382.400000) rotate(90.000000) translate(-315.000000, -382.400000) " cx="315" cy="382.4" r="5.2"></circle>
                        <circle id="Oval-Copy-133" transform="translate(315.000000, 348.000000) rotate(90.000000) translate(-315.000000, -348.000000) " cx="315" cy="348" r="5.2"></circle>
                        <circle id="Oval-Copy-132" transform="translate(315.000000, 313.600000) rotate(90.000000) translate(-315.000000, -313.600000) " cx="315" cy="313.6" r="5.2"></circle>
                        <circle id="Oval-Copy-131" transform="translate(315.000000, 279.200000) rotate(90.000000) translate(-315.000000, -279.200000) " cx="315" cy="279.2" r="5.2"></circle>
                    </g>
                </g>
            </g>
        </g>
    </g>
</svg>