<?xml version="1.0" encoding="UTF-8"?>
<svg width="44px" height="44px" viewBox="0 0 44 44" version="1.1" xmlns="http://www.w3.org/2000/svg" xmlns:xlink="http://www.w3.org/1999/xlink">
    <title>41C52FD4-4D03-43FB-AB70-D5DF3B3E0C37@1x</title>
    <g id="Main-Page" stroke="none" stroke-width="1" fill="none" fill-rule="evenodd">
        <g id="03-1-2-Affiliates" transform="translate(-767.000000, -3071.000000)">
            <g id="Group-1" transform="translate(366.000000, 3071.000000)">
                <g id="2" transform="translate(401.000000, 0.000000)">
                    <g id="Ico-32">
                        <rect id="Rectangle" x="0" y="0" width="44" height="44"></rect>
                        <path d="M21.9277344,39 C22.3261719,39 22.6582031,38.8616536 22.9238281,38.5849609 C23.1894531,38.3082682 23.3333333,37.9707031 23.3554688,37.5722656 L23.3554688,37.5722656 L23.3554688,33.3222656 L25.4804688,33.3222656 C27.2734375,33.2779948 28.773112,32.6582031 29.9794922,31.4628906 C31.1858724,30.2675781 31.8111979,28.7623698 31.8554688,26.9472656 C31.8111979,25.1542969 31.1858724,23.6546224 29.9794922,22.4482422 C28.773112,21.241862 27.2734375,20.6165365 25.4804688,20.5722656 L25.4804688,20.5722656 L23.3554688,20.5722656 L23.3554688,13.5 L29,13.5 C29.3984375,13.5 29.7360026,13.3616536 30.0126953,13.0849609 C30.289388,12.8082682 30.4277344,12.4707031 30.4277344,12.0722656 C30.4277344,11.6738281 30.289388,11.3417969 30.0126953,11.0761719 C29.7360026,10.8105469 29.3984375,10.6777344 29,10.6777344 L29,10.6777344 L23.3554688,10.6777344 L23.3554688,6.42773438 C23.3333333,6.02929688 23.1894531,5.69173177 22.9238281,5.41503906 C22.6582031,5.13834635 22.3261719,5 21.9277344,5 C21.5292969,5 21.1972656,5.13834635 20.9316406,5.41503906 C20.6660156,5.69173177 20.5221354,6.02929688 20.5,6.42773438 L20.5,6.42773438 L20.5,10.6777344 L18.375,10.6777344 C17.2239583,10.6777344 16.1669922,10.9599609 15.2041016,11.5244141 C14.2412109,12.0888672 13.4664714,12.8691406 12.8798828,13.8652344 C12.2932943,14.8613281 12,15.9182943 12,17.0361328 C12,18.1539714 12.2932943,19.2164714 12.8798828,20.2236328 C13.4664714,21.2307943 14.2412109,22.0110677 15.2041016,22.5644531 C16.1669922,23.1178385 17.2239583,23.405599 18.375,23.4277344 L18.375,23.4277344 L20.5,23.4277344 L20.5,30.5 L13.4277344,30.5 C13.0292969,30.5 12.6972656,30.6383464 12.4316406,30.9150391 C12.1660156,31.1917318 12.0332031,31.5292969 12.0332031,31.9277344 C12.0332031,32.3261719 12.1660156,32.6582031 12.4316406,32.9238281 C12.6972656,33.1894531 13.0292969,33.3222656 13.4277344,33.3222656 L13.4277344,33.3222656 L20.5,33.3222656 L20.5,37.5722656 C20.5221354,37.9707031 20.6660156,38.3082682 20.9316406,38.5849609 C21.1972656,38.8616536 21.5292969,39 21.9277344,39 Z M20.5,20.5722656 L18.375,20.5722656 C17.7330729,20.5722656 17.1464844,20.4173177 16.6152344,20.1074219 C16.0839844,19.797526 15.6578776,19.3658854 15.3369141,18.8125 C15.0159505,18.2591146 14.8554688,17.672526 14.8554688,17.0527344 C14.8554688,16.4329427 15.0159505,15.8408203 15.3369141,15.2763672 C15.6578776,14.7119141 16.0839844,14.2747396 16.6152344,13.9648438 C17.1464844,13.6549479 17.7330729,13.5 18.375,13.5 L18.375,13.5 L20.5,13.5 L20.5,20.5722656 Z M25.4804688,30.5 L23.3554688,30.5 L23.3554688,23.4277344 L25.4804688,23.4277344 C26.4765625,23.4498698 27.3066406,23.7929688 27.9707031,24.4570312 C28.6347656,25.1210938 28.9778646,25.9511719 29,26.9472656 C28.9778646,27.9654948 28.6347656,28.8066406 27.9707031,29.4707031 C27.3066406,30.1347656 26.4765625,30.4778646 25.4804688,30.5 L25.4804688,30.5 Z" id="" fill="#5702AF" fill-rule="nonzero"></path>
                    </g>
                </g>
            </g>
        </g>
    </g>
</svg>