<?xml version="1.0" encoding="UTF-8"?>
<svg width="44px" height="44px" viewBox="0 0 44 44" version="1.1" xmlns="http://www.w3.org/2000/svg" xmlns:xlink="http://www.w3.org/1999/xlink">
    <title>98B1A047-805D-42A9-AE7C-C70291432DC2@1x</title>
    <g id="Main-Page" stroke="none" stroke-width="1" fill="none" fill-rule="evenodd">
        <g id="03-1-2-Affiliates" transform="translate(-1173.000000, -3071.000000)">
            <g id="Group-1" transform="translate(366.000000, 3071.000000)">
                <g id="3" transform="translate(807.000000, 0.000000)">
                    <g id="Ico-33">
                        <rect id="Rectangle" x="0" y="0" width="44" height="44"></rect>
                        <path d="M32.8945312,34.5 C34.1119792,34.4778646 35.1191406,34.0628255 35.9160156,33.2548828 C36.7128906,32.4469401 37.1223958,31.4453125 37.1445312,30.25 L37.1445312,30.25 L37.1445312,13.25 C37.1223958,12.0546875 36.7128906,11.0530599 35.9160156,10.2451172 C35.1191406,9.43717448 34.1119792,9.02213542 32.8945312,9 L32.8945312,9 L10.25,9 C9.03255208,9.02213542 8.02539062,9.43717448 7.22851562,10.2451172 C6.43164062,11.0530599 6.02213542,12.0546875 6,13.25 L6,13.25 L6,30.25 C6.02213542,31.4453125 6.43164062,32.4469401 7.22851562,33.2548828 C8.02539062,34.0628255 9.03255208,34.4778646 10.25,34.5 L10.25,34.5 L32.8945312,34.5 Z M21.5722656,21.4511719 L8.98828125,12.6191406 C9.09895833,12.375651 9.26497396,12.1875 9.48632812,12.0546875 C9.70768229,11.921875 9.96223958,11.844401 10.25,11.8222656 L10.25,11.8222656 L32.8945312,11.8222656 C33.1822917,11.844401 33.436849,11.921875 33.6582031,12.0546875 C33.8795573,12.1875 34.0455729,12.375651 34.15625,12.6191406 L34.15625,12.6191406 L21.5722656,21.4511719 Z M32.8945312,31.6777344 L10.25,31.6777344 C9.8515625,31.655599 9.5139974,31.5117188 9.23730469,31.2460938 C8.96061198,30.9804688 8.82226562,30.6484375 8.82226562,30.25 L8.82226562,30.25 L8.82226562,15.9726562 L20.7753906,24.3398438 C21.0188802,24.4947917 21.2845052,24.5722656 21.5722656,24.5722656 C21.860026,24.5722656 22.125651,24.4947917 22.3691406,24.3398438 L22.3691406,24.3398438 L34.3222656,15.9726562 L34.3222656,30.25 C34.3222656,30.6484375 34.1839193,30.9804688 33.9072266,31.2460938 C33.6305339,31.5117188 33.2929688,31.655599 32.8945312,31.6777344 L32.8945312,31.6777344 Z" id="" fill="#5702AF" fill-rule="nonzero"></path>
                    </g>
                </g>
            </g>
        </g>
    </g>
</svg>