<?xml version="1.0" encoding="UTF-8"?>
<svg width="1932px" height="2141px" viewBox="0 0 1932 2141" version="1.1" xmlns="http://www.w3.org/2000/svg" xmlns:xlink="http://www.w3.org/1999/xlink">
    <title>19958CB1-8F63-418E-A37F-0B0FF39C4B91@3x</title>
    <defs>
        <linearGradient x1="50%" y1="0%" x2="50%" y2="122.679957%" id="linearGradient-1">
            <stop stop-color="#4F00AF" offset="0%"></stop>
            <stop stop-color="#AE1BB4" offset="100%"></stop>
        </linearGradient>
        <path d="M1119.31115,2076.71929 C1125.4229,2076.71929 1130.38689,2081.6781 1130.38689,2087.7943 L1130.38689,2097.85236 C1130.38689,2103.9734 1125.4229,2108.92737 1119.31115,2108.92737 C1113.19455,2108.92737 1108.23541,2103.9734 1108.23541,2097.85236 L1108.23541,2087.7943 C1108.23541,2081.6781 1113.19455,2076.71929 1119.31115,2076.71929 Z M1386.11336,2076.71929 C1392.13286,2076.71929 1397.03137,2081.52193 1397.18536,2087.50394 L1397.18909,2087.7943 L1397.18909,2097.85236 C1397.18909,2103.9734 1392.22995,2108.92737 1386.11336,2108.92737 C1380.09861,2108.92737 1375.19549,2104.12942 1375.04135,2098.14294 L1375.03762,2097.85236 L1375.03762,2087.7943 C1375.03762,2081.6781 1380.0016,2076.71929 1386.11336,2076.71929 Z M498.541861,2076.60306 C504.658459,2076.60306 509.6176,2081.56188 509.6176,2087.67807 L509.6176,2097.74098 C509.6176,2103.85233 504.658459,2108.81599 498.541861,2108.81599 C492.425263,2108.81599 487.466121,2103.85233 487.466121,2097.74098 L487.466121,2087.67807 C487.466121,2081.56188 492.425263,2076.60306 498.541861,2076.60306 Z M808.914397,2080.47714 C815.035838,2080.47714 819.990137,2085.43595 819.990137,2091.55215 C819.990137,2097.66834 815.035838,2102.62716 808.914397,2102.62716 C802.7978,2102.62716 797.843501,2097.66834 797.843501,2091.55215 C797.843501,2085.43595 802.7978,2080.47714 808.914397,2080.47714 Z M1696.51011,2080.47714 C1702.6267,2080.47714 1707.581,2085.43595 1707.581,2091.55215 C1707.581,2097.66834 1702.6267,2102.62716 1696.51011,2102.62716 C1690.38867,2102.62716 1685.43437,2097.66834 1685.43437,2091.55215 C1685.43437,2085.43595 1690.38867,2080.47714 1696.51011,2080.47714 Z M188.14511,2080.36576 C194.26655,2080.36576 199.220849,2085.31973 199.220849,2091.43593 C199.220849,2097.55696 194.26655,2102.51094 188.14511,2102.51094 C182.028512,2102.51094 177.074213,2097.55696 177.074213,2091.43593 C177.074213,2085.31973 182.028512,2080.36576 188.14511,2080.36576 Z M675.903822,2063.407 C682.025263,2063.407 686.979562,2068.36581 686.979562,2074.48201 C686.979562,2080.5982 682.025263,2085.55702 675.903822,2085.55702 C669.787225,2085.55702 664.832926,2080.5982 664.832926,2074.48201 C664.832926,2068.36581 669.787225,2063.407 675.903822,2063.407 Z M1829.52068,2063.407 C1835.63728,2063.407 1840.59158,2068.36581 1840.59158,2074.48201 C1840.59158,2080.5982 1835.63728,2085.55702 1829.52068,2085.55702 C1823.39924,2085.55702 1818.44494,2080.5982 1818.44494,2074.48201 C1818.44494,2068.36581 1823.39924,2063.407 1829.52068,2063.407 Z M55.1345351,2063.29078 C61.2559758,2063.29078 66.2102746,2068.25444 66.2102746,2074.37063 C66.2102746,2080.48198 61.2559758,2085.44564 55.1345351,2085.44564 C49.0227804,2085.44564 44.0636386,2080.48198 44.0636386,2074.37063 C44.0636386,2068.25444 49.0227804,2063.29078 55.1345351,2063.29078 Z M764.592068,1991.67368 C770.713508,1991.67368 775.67265,1996.63249 775.67265,2002.74384 L775.67265,2069.40213 C775.67265,2075.52317 770.713508,2080.47714 764.592068,2080.47714 C758.460941,2080.47714 753.496957,2075.52317 753.496957,2069.40213 L753.496957,2002.74384 C753.496957,1996.63249 758.460941,1991.67368 764.577539,1991.67368 L764.592068,1991.67368 Z M1740.84696,1991.67368 C1746.86647,1991.67368 1751.76967,1996.47632 1751.92381,2002.45371 L1751.92755,2002.74384 L1751.92755,2069.40213 C1751.92755,2075.52317 1746.96356,2080.47714 1740.83244,2080.47714 C1734.80816,2080.47714 1729.90958,2075.67919 1729.75559,2069.69271 L1729.75185,2069.40213 L1729.75185,2002.74384 C1729.75185,1996.7295 1734.55481,1991.83139 1740.54183,1991.67741 L1740.83244,1991.67368 L1740.84696,1991.67368 Z M143.827623,1991.5623 C149.944221,1991.5623 154.903363,1996.51627 154.903363,2002.63246 L154.903363,2069.29075 C154.903363,2075.4021 149.944221,2080.36576 143.827623,2080.36576 L143.808252,2080.36576 C137.691654,2080.36576 132.732512,2075.4021 132.732512,2069.29075 L132.732512,2002.63246 C132.732512,1996.51627 137.691654,1991.5623 143.808252,1991.5623 L143.827623,1991.5623 Z M1252.79768,2025.0004 C1258.81719,2025.0004 1263.711,2029.80773 1263.86484,2035.78527 L1263.86857,2036.07541 L1263.86857,2056.80655 C1263.86857,2062.9179 1258.91427,2067.88156 1252.79768,2067.88156 L1252.62683,2067.88156 C1246.51023,2067.88156 1241.55593,2062.9179 1241.55593,2056.80655 L1241.55593,2036.07541 C1241.55593,2029.96406 1246.51023,2025.0004 1252.62683,2025.0004 L1252.712,2025.001 L1252.79768,2025.0004 Z M1873.86238,2024.88902 C1879.88189,2024.88902 1884.77571,2029.68697 1884.92955,2035.67345 L1884.93328,2035.96403 L1884.93328,2056.69032 C1884.93328,2062.80652 1879.97898,2067.76533 1873.86238,2067.76533 C1867.84764,2067.76533 1862.94452,2062.96269 1862.79038,2056.98068 L1862.78664,2056.69032 L1862.78664,2035.96403 C1862.78664,2029.84299 1867.75063,2024.88902 1873.86238,2024.88902 Z M631.562121,2024.88902 C637.673876,2024.88902 642.637861,2029.84299 642.637861,2035.96403 L642.637861,2056.69032 C642.637861,2062.80652 637.673876,2067.76533 631.562121,2067.76533 C625.445524,2067.76533 620.491225,2062.80652 620.491225,2056.69032 L620.491225,2035.96403 C620.491225,2029.84299 625.445524,2024.88902 631.562121,2024.88902 Z M986.286045,1973.4849 C992.407485,1973.4849 997.361784,1978.44856 997.361784,1984.56475 L997.361784,2052.33683 C997.361784,2058.44819 992.407485,2063.407 986.286045,2063.407 C980.169447,2063.407 975.215148,2058.44819 975.215148,2052.33683 L975.215148,1984.56475 C975.215148,1978.44856 980.169447,1973.4849 986.286045,1973.4849 Z M808.938612,2026.93259 C815.050367,2026.93259 820.014351,2031.89141 820.014351,2038.0076 L820.014351,2052.33683 C820.014351,2058.44819 815.050367,2063.407 808.938612,2063.407 C802.7978,2063.407 797.843501,2058.44819 797.843501,2052.33683 L797.843501,2038.0076 C797.843501,2031.89141 802.7978,2026.93259 808.914397,2026.93259 L808.938612,2026.93259 Z M1519.13846,1973.4849 C1525.15797,1973.4849 1530.05178,1978.29223 1530.20563,1984.27439 L1530.20936,1984.56475 L1530.20936,2052.33683 C1530.20936,2058.44819 1525.25506,2063.407 1519.13846,2063.407 C1513.11418,2063.407 1508.22029,2058.60436 1508.06645,2052.62696 L1508.06272,2052.33683 L1508.06272,1984.56475 C1508.06272,1978.44856 1513.01702,1973.4849 1519.13846,1973.4849 Z M1696.51011,2026.93259 C1702.52961,2026.93259 1707.42343,2031.73523 1707.57727,2037.71724 L1707.581,2038.0076 L1707.581,2052.33683 C1707.581,2058.44819 1702.6267,2063.407 1696.48589,2063.407 C1690.47115,2063.407 1685.56803,2058.60436 1685.41389,2052.62696 L1685.41015,2052.33683 L1685.41015,2038.0076 C1685.41015,2031.98849 1690.2178,2027.09031 1696.19574,2026.93633 L1696.48589,2026.93259 L1696.51011,2026.93259 Z M188.169324,2026.81637 C194.285922,2026.81637 199.245064,2031.77519 199.245064,2037.89138 L199.245064,2052.22061 C199.245064,2058.33681 194.285922,2063.29078 188.169324,2063.29078 C182.028512,2063.29078 177.074213,2058.33681 177.074213,2052.22061 L177.074213,2037.89138 C177.074213,2031.77519 182.028512,2026.81637 188.14511,2026.81637 L188.169324,2026.81637 Z M365.5216,1973.37352 C371.638198,1973.37352 376.592497,1978.32749 376.592497,1984.44853 L376.592497,2052.22061 C376.592497,2058.33681 371.638198,2063.29078 365.5216,2063.29078 C359.40016,2063.29078 354.445861,2058.33681 354.445861,2052.22061 L354.445861,1984.44853 C354.445861,1978.32749 359.40016,1973.37352 365.5216,1973.37352 Z M1119.31115,1979.68342 C1125.4229,1979.68342 1130.38689,1984.64223 1130.38689,1990.75843 L1130.38689,2049.89617 C1130.38689,2056.00752 1125.4229,2060.97118 1119.31115,2060.97118 C1113.19455,2060.97118 1108.23541,2056.00752 1108.23541,2049.89617 L1108.23541,1990.75843 C1108.23541,1984.64223 1113.19455,1979.68342 1119.31115,1979.68342 Z M1386.11336,1979.68342 C1392.13286,1979.68342 1397.03137,1984.48606 1397.18536,1990.46807 L1397.18909,1990.75843 L1397.18909,2049.89617 C1397.18909,2056.00752 1392.22995,2060.97118 1386.11336,2060.97118 C1380.09861,2060.97118 1375.19549,2056.16384 1375.04135,2050.1863 L1375.03762,2049.89617 L1375.03762,1990.75843 C1375.03762,1984.64223 1380.0016,1979.68342 1386.11336,1979.68342 Z M498.541861,1979.56719 C504.658459,1979.56719 509.6176,1984.53085 509.6176,1990.6422 L509.6176,2049.77994 C509.6176,2055.89614 504.658459,2060.85495 498.541861,2060.85495 C492.425263,2060.85495 487.466121,2055.89614 487.466121,2049.77994 L487.466121,1990.6422 C487.466121,1984.53085 492.425263,1979.56719 498.541861,1979.56719 Z M10.8073627,2009.23776 C16.9239604,2009.23776 21.8831022,2014.19657 21.8831022,2020.31277 L21.8831022,2042.56448 C21.8831022,2048.68552 16.9239604,2053.63949 10.8073627,2053.63949 C5.53410157,2053.63949 1.13997397,2049.9902 -4.85670171e-10,2045.08586 L-4.85670171e-10,2017.79291 C1.13997397,2012.89061 5.53410157,2009.23776 10.7879911,2009.23776 L10.8073627,2009.23776 Z M1030.62775,2025.0004 C1036.74434,2025.0004 1041.70349,2029.96406 1041.70349,2036.07541 C1041.70349,2042.1916 1036.74434,2047.15042 1030.62775,2047.15042 C1024.51115,2047.15042 1019.55201,2042.1916 1019.55201,2036.07541 C1019.55201,2029.96406 1024.51115,2025.0004 1030.62775,2025.0004 Z M1929.27982,-1.09139364e-11 C1929.28409,842.53346 1929.28695,1407.4174 1929.2884,1694.65183 L1929.71225,1826 L1929.289,1826 L1929.28951,1973.36383 C1929.28951,1979.48487 1924.32552,1984.44853 1918.20408,1984.44853 C1912.17981,1984.44853 1907.27185,1979.6412 1907.11756,1973.65442 L1907.11381,1973.36383 L1907.11381,1961.79488 C1907.11381,1955.67869 1902.15467,1950.71503 1896.03323,1950.71503 C1890.00896,1950.71503 1885.10569,1955.52236 1884.95154,1961.50452 L1884.94781,1961.79488 L1884.94781,1999.78018 C1884.94781,2005.90121 1879.98382,2010.86487 1873.86238,2010.86487 C1867.83811,2010.86487 1862.93484,2006.05754 1862.78069,2000.07076 L1862.77696,1999.78018 L1862.77696,1980.62288 L1862.77211,1980.58898 L1862.77211,1936.71509 C1862.77211,1922.22712 1841.08044,1922.04902 1840.61371,1936.24657 L1840.60611,1936.68119 L1840.60611,1985.96426 L1840.59158,1986.09501 L1840.59158,2024.85996 L1840.59642,2024.88902 L1840.59158,2024.91807 L1840.59158,2036.07541 C1840.59158,2042.1916 1835.63728,2047.15042 1829.52068,2047.15042 C1823.49641,2047.15042 1818.60251,2042.34778 1818.44867,2036.36576 L1818.44494,2036.07541 L1818.44494,1986.0369 L1818.43526,1985.96426 L1818.43526,1952.65206 C1818.43526,1946.53103 1813.47611,1941.57221 1807.35467,1941.57221 C1801.32563,1941.57221 1796.42697,1946.37485 1796.27298,1952.36148 L1796.26925,1952.65206 L1796.26925,1963.60601 C1796.26925,1969.73189 1791.30042,1974.6907 1785.18382,1974.6907 C1779.15478,1974.6907 1774.25612,1969.88806 1774.10213,1963.89682 L1774.0984,1963.60601 L1774.0984,1942.61821 L1774.09355,1942.58916 L1774.09355,1936.71509 C1774.09355,1922.21753 1752.36865,1922.04408 1751.93415,1936.27931 L1751.92755,1936.71509 L1751.92755,1963.72223 C1751.92755,1978.21979 1730.19315,1978.3885 1729.75846,1964.15787 L1729.75185,1963.72223 L1729.75185,1900.54093 C1729.75185,1886.04337 1708.0222,1885.87941 1707.58761,1900.10543 L1707.581,1900.54093 L1707.581,1998.26929 C1707.581,2004.39032 1702.62186,2009.35398 1696.49558,2009.35398 C1690.47607,2009.35398 1685.56818,2004.54665 1685.41389,1998.55987 L1685.41015,1998.26929 L1685.41015,1970.85537 C1685.41015,1956.35781 1663.68525,1956.18436 1663.25075,1970.41959 L1663.24414,1970.85537 L1663.24414,1980.58898 C1663.24414,1995.08654 1641.51449,1995.25525 1641.0799,1981.02462 L1641.07329,1980.58898 L1641.07329,1914.56023 C1641.07329,1900.06747 1619.34364,1899.89881 1618.90905,1914.12474 L1618.90244,1914.56023 L1618.90244,1920.23575 C1618.90244,1926.35679 1613.93846,1931.32044 1607.81702,1931.32044 C1601.79274,1931.32044 1596.89416,1926.5178 1596.74017,1920.52656 L1596.73644,1920.23575 L1596.73644,1900.54093 C1596.73644,1886.04337 1575.00204,1885.87941 1574.56735,1900.10543 L1574.56074,1900.54093 L1574.56074,1968.60356 C1574.56074,1983.09633 1552.83109,1983.26499 1552.3965,1969.03906 L1552.38989,1968.60356 L1552.38989,1930.21149 C1552.38989,1915.71393 1530.66024,1915.54522 1530.22565,1929.77585 L1530.21904,1930.21149 L1530.21904,1942.58916 C1530.21904,1948.71019 1525.2599,1953.67385 1519.13846,1953.67385 C1513.11418,1953.67385 1508.21091,1948.87121 1508.05677,1942.87997 L1508.05303,1942.58916 L1508.05303,1908.26486 C1508.05303,1902.14382 1503.08905,1897.18017 1496.96761,1897.18017 C1490.94333,1897.18017 1486.04006,1901.9875 1485.88592,1907.97427 L1485.88218,1908.26486 L1485.88218,1930.5989 C1485.88218,1936.71994 1480.92304,1941.68359 1474.79676,1941.68359 C1468.77248,1941.68359 1463.86921,1936.88095 1463.71507,1930.88971 L1463.71133,1930.5989 L1463.71133,1920.76359 C1463.71133,1914.64256 1458.74735,1909.6789 1452.62591,1909.6789 C1446.50447,1909.6789 1441.54048,1914.63771 1441.54048,1920.76359 C1441.54048,1928.32772 1436.04378,1932.54078 1430.4599,1932.54078 C1424.43562,1932.54078 1419.53235,1927.73345 1419.37821,1921.74667 L1419.37447,1921.45608 L1419.37447,1897.29155 C1419.37447,1891.17051 1414.40565,1886.20685 1408.28905,1886.20685 C1402.26001,1886.20685 1397.35666,1891.01418 1397.20252,1897.00096 L1397.19878,1897.29155 L1397.19878,1952.85061 C1397.19878,1958.97165 1392.23964,1963.93531 1386.11336,1963.93531 C1380.09385,1963.93531 1375.18596,1959.12797 1375.03167,1953.1412 L1375.02793,1952.85061 L1375.02793,1943.62063 C1375.02793,1937.49959 1370.06879,1932.54078 1363.9425,1932.54078 C1357.923,1932.54078 1353.0198,1937.34342 1352.86566,1943.33005 L1352.86192,1943.62063 L1352.86192,1949.19445 C1352.86192,1955.31549 1347.89794,1960.27915 1341.7765,1960.27915 C1335.74746,1960.27915 1330.8488,1955.47182 1330.6948,1949.48504 L1330.69107,1949.19445 L1330.69107,1917.61106 C1330.69107,1911.49003 1325.72709,1906.52637 1319.60565,1906.52637 C1313.57661,1906.52637 1308.67795,1911.3337 1308.52395,1917.32048 L1308.52022,1917.61106 L1308.52022,1973.48006 C1308.52022,1979.59625 1303.56108,1984.56475 1297.4348,1984.56475 C1291.41052,1984.56475 1286.50725,1979.75273 1286.35311,1973.77042 L1286.34937,1973.48006 L1286.34937,1961.9111 C1286.34937,1955.79006 1281.38539,1950.82641 1275.26395,1950.82641 C1269.23967,1950.82641 1264.34109,1955.63374 1264.1871,1961.62051 L1264.18336,1961.9111 L1264.18336,1999.8964 C1264.18336,2005.66463 1259.77082,2010.40505 1254.14343,2010.93235 L1253.85626,2010.95552 L1253.09794,2010.98109 C1252.96892,2010.98109 1252.84027,2010.9789 1252.71204,2010.97454 C1252.58423,2010.9789 1252.45558,2010.98109 1252.32657,2010.98109 L1251.56825,2010.95552 C1245.80453,2010.56545 1241.24114,2005.76239 1241.24114,1999.8964 L1241.24114,1961.9111 C1241.24114,1955.79006 1236.282,1950.82641 1230.16056,1950.82641 C1224.03912,1950.82641 1219.07513,1955.79006 1219.07513,1961.9111 L1219.07513,1973.48006 C1219.07513,1979.59625 1214.11115,1984.56475 1207.98971,1984.56475 C1201.86342,1984.56475 1196.90428,1979.59625 1196.90428,1973.48006 L1196.90428,1917.61106 C1196.90428,1911.49003 1191.94514,1906.52637 1185.81886,1906.52637 C1179.69742,1906.52637 1174.73343,1911.49003 1174.73343,1917.61106 L1174.73343,1949.19445 C1174.73343,1955.31549 1169.77429,1960.27915 1163.64801,1960.27915 C1157.52657,1960.27915 1152.56258,1955.31549 1152.56258,1949.19445 L1152.56258,1943.62063 C1152.56258,1937.49959 1147.5986,1932.54078 1141.482,1932.54078 C1135.35572,1932.54078 1130.39657,1937.49959 1130.39657,1943.62063 L1130.39657,1952.85061 C1130.39657,1958.97165 1125.42775,1963.93531 1119.31115,1963.93531 C1113.18486,1963.93531 1108.22572,1958.97165 1108.22572,1952.85061 L1108.22572,1897.29155 C1108.22572,1891.17051 1103.26174,1886.20685 1097.13545,1886.20685 C1091.01886,1886.20685 1086.05003,1891.17051 1086.05003,1897.29155 L1086.05003,1921.45608 C1086.05003,1927.57712 1081.08604,1932.54078 1074.9646,1932.54078 C1069.38073,1932.54078 1063.88402,1928.32772 1063.88402,1920.76359 C1063.88402,1914.63771 1058.92004,1909.6789 1052.7986,1909.6789 C1046.67716,1909.6789 1041.71317,1914.64256 1041.71317,1920.76359 L1041.71317,1930.5989 C1041.71317,1936.72478 1036.74919,1941.68359 1030.62775,1941.68359 C1024.50146,1941.68359 1019.54232,1936.71994 1019.54232,1930.5989 L1019.54232,1908.26486 C1019.54232,1902.14382 1014.57834,1897.18017 1008.4569,1897.18017 C1002.33545,1897.18017 997.37147,1902.14382 997.37147,1908.26486 L997.37147,1942.58916 C997.37147,1948.71504 992.407485,1953.67385 986.286045,1953.67385 C980.164604,1953.67385 975.205462,1948.71019 975.205462,1942.58916 L975.205462,1930.21149 C975.205462,1915.54328 953.034612,1915.56749 953.034612,1930.21149 L953.034612,1968.60356 C953.034612,1983.26694 930.863761,1983.24272 930.863761,1968.60356 L930.863761,1900.54093 C930.863761,1885.87756 908.688068,1885.89693 908.688068,1900.54093 L908.688068,1920.23575 C908.688068,1926.36163 903.728926,1931.32044 897.607485,1931.32044 C891.486045,1931.32044 886.52206,1926.35679 886.52206,1920.23575 L886.52206,1914.56023 C886.52206,1899.89686 864.351209,1899.92107 864.351209,1914.56023 L864.351209,1980.58898 C864.351209,1995.25719 842.180359,1995.23298 842.180359,1980.58898 L842.180359,1970.85537 C842.180359,1956.18231 820.014351,1956.21137 820.014351,1970.85537 L820.014351,1998.26929 C820.014351,2004.39032 815.045524,2009.35398 808.928926,2009.35398 C802.802642,2009.35398 797.843501,2004.39032 797.843501,1998.26929 L797.843501,1900.54093 C797.843501,1885.87756 775.67265,1885.89693 775.67265,1900.54093 L775.67265,1963.72223 C775.67265,1978.39044 753.496957,1978.36623 753.496957,1963.72223 L753.496957,1936.71509 C753.496957,1922.04204 731.330949,1922.07109 731.330949,1936.71509 L731.330949,1942.58916 L731.326106,1942.61821 L731.326106,1963.60601 C731.326106,1969.73189 726.366964,1974.6907 720.240681,1974.6907 C714.124083,1974.6907 709.155255,1969.73189 709.155255,1963.60601 L709.155255,1952.65206 C709.155255,1946.53103 704.196114,1941.57221 698.06983,1941.57221 C691.94839,1941.57221 686.989248,1946.53103 686.989248,1952.65206 L686.989248,1985.96426 L686.979562,1986.0369 L686.979562,2036.07541 C686.979562,2042.1916 682.025263,2047.15042 675.903822,2047.15042 C669.787225,2047.15042 664.832926,2042.1916 664.832926,2036.07541 L664.832926,2024.91807 L664.828083,2024.88902 L664.832926,2024.85996 L664.832926,1986.09501 L664.818397,1985.96426 L664.818397,1936.68119 C664.784497,1922.04688 642.65239,1922.08078 642.65239,1936.71509 L642.65239,1980.58898 L642.647547,1980.62288 L642.647547,1999.78018 C642.647547,2005.90121 637.683562,2010.86487 631.562121,2010.86487 C625.440681,2010.86487 620.476696,2005.90121 620.476696,1999.78018 L620.476696,1961.79488 C620.476696,1955.67869 615.512711,1950.71503 609.391271,1950.71503 C603.26983,1950.71503 598.310688,1955.67869 598.310688,1961.79488 L598.310688,1973.36383 C598.310688,1979.48487 593.341861,1984.44853 587.22042,1984.44853 C581.09898,1984.44853 576.134995,1979.48487 576.134995,1973.36383 L576.134995,1917.49484 C576.134995,1911.37381 571.175853,1906.41499 565.04957,1906.41499 C558.932972,1906.41499 553.964144,1911.37381 553.964144,1917.49484 L553.964144,1949.07823 C553.964144,1955.19927 549.005003,1960.16293 542.878719,1960.16293 C536.762121,1960.16293 531.793294,1955.19927 531.793294,1949.07823 L531.793294,1943.50925 C531.793294,1937.38821 526.834152,1932.42456 520.712711,1932.42456 C514.586428,1932.42456 509.627286,1937.38821 509.627286,1943.50925 L509.627286,1952.73439 C509.627286,1958.86027 504.663301,1963.81908 498.541861,1963.81908 C492.415577,1963.81908 487.456436,1958.86027 487.456436,1952.73439 L487.456436,1897.17532 C487.456436,1891.05429 482.492451,1886.09063 476.37101,1886.09063 C470.24957,1886.09063 465.285585,1891.05429 465.285585,1897.17532 L465.285585,1921.33986 C465.285585,1927.46574 460.316757,1932.42456 454.20016,1932.42456 C448.611439,1932.42456 443.119577,1928.2115 443.119577,1920.64737 C443.119577,1914.52633 438.15075,1909.56268 432.034152,1909.56268 C425.907868,1909.56268 420.943884,1914.52633 420.943884,1920.64737 L420.943884,1930.48752 C420.943884,1936.60856 415.979899,1941.57221 409.858459,1941.57221 C403.737018,1941.57221 398.773033,1936.60856 398.773033,1930.48752 L398.773033,1908.14864 C398.773033,1902.0276 393.809049,1897.06394 387.687608,1897.06394 C381.57101,1897.06394 376.602183,1902.0276 376.602183,1908.14864 L376.602183,1942.47294 C376.602183,1948.59881 371.643041,1953.55763 365.5216,1953.55763 C359.395317,1953.55763 354.436175,1948.59397 354.436175,1942.47294 L354.436175,1930.10011 C354.436175,1915.4319 332.265324,1915.45127 332.265324,1930.10011 L332.265324,1968.4825 C332.265324,1983.15556 310.094474,1983.13134 310.094474,1968.4825 L310.094474,1900.42955 C310.094474,1885.76133 287.923623,1885.78555 287.923623,1900.42955 L287.923623,1920.11953 C287.923623,1926.24541 282.959639,1931.20422 276.843041,1931.20422 C270.716757,1931.20422 265.757616,1926.24541 265.757616,1920.11953 L265.757616,1914.44885 C265.757616,1899.78064 243.581922,1899.80485 243.581922,1914.44885 L243.581922,1980.4776 C243.581922,1995.14097 221.411072,1995.11676 221.411072,1980.4776 L221.411072,1970.73915 C221.411072,1956.07094 199.245064,1956.09999 199.245064,1970.73915 L199.245064,1998.15306 C199.245064,2004.27894 194.281079,2009.23776 188.159639,2009.23776 C182.033355,2009.23776 177.074213,2004.27894 177.074213,1998.15306 L177.074213,1900.42955 C177.074213,1885.76133 154.903363,1885.78555 154.903363,1900.42955 L154.903363,1963.60601 C154.903363,1978.27906 132.732512,1978.25485 132.732512,1963.60601 L132.732512,1936.59887 C132.732512,1921.92581 110.566504,1921.95487 110.566504,1936.59887 L110.566504,1942.47294 C110.566504,1948.59881 105.597677,1953.55763 99.4810792,1953.55763 C93.3547957,1953.55763 88.390811,1948.59397 88.390811,1942.47294 L88.390811,1893.92594 C88.390811,1879.25773 66.2199604,1879.28194 66.2199604,1893.92594 L66.2199604,1942.47294 C66.2199604,1957.14115 44.0491099,1957.12178 44.0491099,1942.47294 L44.0491099,1936.59887 C44.0491099,1921.92581 21.8831022,1921.95487 21.8831022,1936.59887 L21.8831022,1980.4776 C21.8831022,1982.3719 20.0247211,1986.51296 16.3688047,1989.17006 C13.2286353,1991.45231 8.59048703,1992.23454 4.63384556,1994.20151 L0,-2.27373675e-13 L1929.27982,-1.09139364e-11 Z M1474.79676,2025.0004 C1480.91336,2025.0004 1485.8725,2029.96406 1485.8725,2036.07541 C1485.8725,2042.1916 1480.91336,2047.15042 1474.79676,2047.15042 C1468.68016,2047.15042 1463.72102,2042.1916 1463.72102,2036.07541 C1463.72102,2029.96406 1468.68016,2025.0004 1474.79676,2025.0004 Z M55.1345351,1974.6907 C61.2559758,1974.6907 66.2102746,1979.64952 66.2102746,1985.77056 L66.2102746,2035.96403 C66.2102746,2042.08022 61.2559758,2047.03419 55.1345351,2047.03419 C49.0227804,2047.03419 44.0636386,2042.08022 44.0636386,2035.96403 L44.0636386,1985.77056 C44.0636386,1979.64952 49.0227804,1974.6907 55.1345351,1974.6907 Z M409.858459,2024.88902 C415.975056,2024.88902 420.934198,2029.84299 420.934198,2035.96403 C420.934198,2042.08022 415.975056,2047.03419 409.858459,2047.03419 C403.746704,2047.03419 398.782719,2042.08022 398.782719,2035.96403 C398.782719,2029.84299 403.746704,2024.88902 409.858459,2024.88902 Z M853.27547,2008.69539 C859.396911,2008.69539 864.351209,2013.64936 864.351209,2019.76556 L864.351209,2034.09479 C864.351209,2040.21582 859.396911,2045.1698 853.27547,2045.1698 C847.139501,2045.1698 842.180359,2040.21582 842.180359,2034.09479 L842.180359,2019.76556 C842.180359,2013.64936 847.139501,2008.69539 853.256098,2008.69539 L853.27547,2008.69539 Z M1652.1684,2008.69539 C1658.18791,2008.69539 1663.08642,2013.49334 1663.24041,2019.4752 L1663.24414,2019.76556 L1663.24414,2034.09479 C1663.24414,2040.21582 1658.285,2045.1698 1652.14903,2045.1698 C1646.12476,2045.1698 1641.23087,2040.37184 1641.07702,2034.38537 L1641.07329,2034.09479 L1641.07329,2019.76556 C1641.07329,2013.74644 1645.87156,2008.85295 1651.85843,2008.69912 L1652.14903,2008.69539 L1652.1684,2008.69539 Z M232.506183,2008.57917 C238.627623,2008.57917 243.581922,2013.53798 243.581922,2019.65418 L243.581922,2033.98341 C243.581922,2040.09476 238.627623,2045.05842 232.506183,2045.05842 C226.375056,2045.05842 221.411072,2040.09476 221.411072,2033.98341 L221.411072,2019.65418 C221.411072,2013.53798 226.375056,2008.57917 232.486811,2008.57917 L232.506183,2008.57917 Z M1163.64801,2020.12391 C1169.76945,2020.12391 1174.72375,2025.08272 1174.72375,2031.19892 C1174.72375,2037.31511 1169.76945,2042.27393 1163.64801,2042.27393 C1157.53141,2042.27393 1152.57711,2037.31511 1152.57711,2031.19892 C1152.57711,2025.08272 1157.53141,2020.12391 1163.64801,2020.12391 Z M1341.7765,2020.12391 C1347.89309,2020.12391 1352.84739,2025.08272 1352.84739,2031.19892 C1352.84739,2037.31511 1347.89309,2042.27393 1341.7765,2042.27393 C1335.65506,2042.27393 1330.70076,2037.31511 1330.70076,2031.19892 C1330.70076,2025.08272 1335.65506,2020.12391 1341.7765,2020.12391 Z M542.878719,2020.01253 C549.00016,2020.01253 553.954459,2024.9665 553.954459,2031.08269 C553.954459,2037.20373 549.00016,2042.1577 542.878719,2042.1577 C536.766964,2042.1577 531.807822,2037.20373 531.807822,2031.08269 C531.807822,2024.9665 536.766964,2020.01253 542.878719,2020.01253 Z M1785.18382,1986.34198 C1791.19857,1986.34198 1796.10169,1991.13993 1796.25583,1997.12641 L1796.25956,1997.41699 L1796.25956,2012.14816 C1796.25956,2018.26435 1791.29558,2023.21832 1785.18382,2023.21832 C1779.16431,2023.21832 1774.26581,2018.42037 1774.11182,2012.43851 L1774.10808,2012.14816 L1774.10808,1997.41699 C1774.10808,1991.29595 1779.06722,1986.34198 1785.18382,1986.34198 Z M720.240681,1986.34198 C726.357278,1986.34198 731.31642,1991.29595 731.31642,1997.41699 L731.31642,2012.14816 C731.31642,2018.26435 726.357278,2023.21832 720.240681,2023.21832 C714.128926,2023.21832 709.164941,2018.26435 709.164941,2012.14816 L709.164941,1997.41699 C709.164941,1991.29595 714.128926,1986.34198 720.240681,1986.34198 Z M1297.4348,1999.90608 C1303.55139,1999.90608 1308.51054,2004.8649 1308.51054,2010.98109 C1308.51054,2017.09244 1303.55139,2022.0561 1297.4348,2022.0561 C1291.3182,2022.0561 1286.3639,2017.09244 1286.3639,2010.98109 C1286.3639,2004.8649 1291.3182,1999.90608 1297.4348,1999.90608 Z M1207.98971,1999.90608 C1214.10631,1999.90608 1219.0606,2004.8649 1219.0606,2010.98109 C1219.0606,2017.09244 1214.10631,2022.0561 1207.98971,2022.0561 C1201.87311,2022.0561 1196.91397,2017.09244 1196.91397,2010.98109 C1196.91397,2004.8649 1201.87311,1999.90608 1207.98971,1999.90608 Z M1918.20408,1999.78986 C1924.31584,1999.78986 1929.27982,2004.74868 1929.27982,2010.86487 C1929.27982,2016.98106 1924.31584,2021.93504 1918.20408,2021.93504 C1912.08749,2021.93504 1907.12834,2016.98106 1907.12834,2010.86487 C1907.12834,2004.74868 1912.08749,1999.78986 1918.20408,1999.78986 Z M587.22042,1999.78986 C593.337018,1999.78986 598.29616,2004.74868 598.29616,2010.86487 C598.29616,2016.98106 593.337018,2021.93504 587.22042,2021.93504 C581.108665,2021.93504 576.144681,2016.98106 576.144681,2010.86487 C576.144681,2004.74868 581.108665,1999.78986 587.22042,1999.78986 Z M941.949186,1997.62038 C948.060941,1997.62038 953.024926,2002.57435 953.024926,2008.69539 C953.024926,2014.81158 948.060941,2019.76556 941.949186,2019.76556 C935.832589,2019.76556 930.868604,2014.81158 930.868604,2008.69539 C930.868604,2002.57435 935.832589,1997.62038 941.949186,1997.62038 Z M1563.47532,1997.62038 C1569.59191,1997.62038 1574.5559,2002.57435 1574.5559,2008.69539 C1574.5559,2014.81158 1569.59191,2019.76556 1563.47532,2019.76556 C1557.36356,2019.76556 1552.39958,2014.81158 1552.39958,2008.69539 C1552.39958,2002.57435 1557.36356,1997.62038 1563.47532,1997.62038 Z M321.179899,1997.50416 C327.296497,1997.50416 332.255639,2002.46297 332.255639,2008.57917 C332.255639,2014.69536 327.296497,2019.65418 321.179899,2019.65418 C315.063301,2019.65418 310.10416,2014.69536 310.10416,2008.57917 C310.10416,2002.46297 315.063301,1997.50416 321.179899,1997.50416 Z M1474.79676,1956.11452 C1480.81627,1956.11452 1485.71477,1960.91247 1485.86876,1966.89895 L1485.8725,1967.18953 L1485.8725,2001.4315 C1485.8725,2007.54769 1480.91336,2012.50167 1474.79676,2012.50167 C1468.77725,2012.50167 1463.87874,2007.70372 1463.72475,2001.72185 L1463.72102,2001.4315 L1463.72102,1967.18953 C1463.72102,1961.06849 1468.68016,1956.11452 1474.79676,1956.11452 Z M1030.62775,1956.11452 C1036.74434,1956.11452 1041.70349,1961.06849 1041.70349,1967.18953 L1041.70349,2001.4315 C1041.70349,2007.54769 1036.74434,2012.50167 1030.62775,2012.50167 C1024.51115,2012.50167 1019.55201,2007.54769 1019.55201,2001.4315 L1019.55201,1967.18953 C1019.55201,1961.06849 1024.51115,1956.11452 1030.62775,1956.11452 Z M409.858459,1955.9983 C415.975056,1955.9983 420.934198,1960.95711 420.934198,1967.06846 L420.934198,2001.31528 C420.934198,2007.43147 415.975056,2012.39029 409.858459,2012.39029 C403.746704,2012.39029 398.782719,2007.43147 398.782719,2001.31528 L398.782719,1967.06846 C398.782719,1960.95711 403.746704,1955.9983 409.858459,1955.9983 Z M99.4859221,1967.98856 C105.60252,1967.98856 110.566504,1972.94253 110.566504,1979.06356 L110.566504,2001.31528 C110.566504,2007.43147 105.60252,2012.39029 99.4859221,2012.39029 C93.3499528,2012.39029 88.390811,2007.43147 88.390811,2001.31528 L88.390811,1979.06356 C88.390811,1972.94253 93.3499528,1967.98856 99.4713934,1967.98856 L99.4859221,1967.98856 Z M1341.7765,1978.21127 C1347.79601,1978.21127 1352.68982,1983.00922 1352.84366,1988.9957 L1352.84739,1989.28628 L1352.84739,1999.34434 C1352.84739,2005.46054 1347.89309,2010.41935 1341.7765,2010.41935 C1335.75222,2010.41935 1330.85833,2005.61671 1330.70449,1999.6347 L1330.70076,1999.34434 L1330.70076,1989.28628 C1330.70076,1983.16524 1335.65506,1978.21127 1341.7765,1978.21127 Z M1163.64801,1978.21127 C1169.76945,1978.21127 1174.72375,1983.16524 1174.72375,1989.28628 L1174.72375,1999.34434 C1174.72375,2005.46054 1169.76945,2010.41935 1163.64801,2010.41935 C1157.53141,2010.41935 1152.57711,2005.46054 1152.57711,1999.34434 L1152.57711,1989.28628 C1152.57711,1983.16524 1157.53141,1978.21127 1163.64801,1978.21127 Z M542.878719,1978.09989 C549.00016,1978.09989 553.954459,1983.05386 553.954459,1989.17006 L553.954459,1999.23296 C553.954459,2005.34916 549.00016,2010.30797 542.878719,2010.30797 C536.766964,2010.30797 531.807822,2005.34916 531.807822,1999.23296 L531.807822,1989.17006 C531.807822,1983.05386 536.766964,1978.09989 542.878719,1978.09989 Z M1430.4599,1950.49711 C1436.47464,1950.49711 1441.37307,1955.29975 1441.52706,1961.28638 L1441.5308,1961.57696 L1441.5308,1983.24272 C1441.5308,1989.35892 1436.57165,1994.31289 1430.4599,1994.31289 C1424.43562,1994.31289 1419.54173,1989.51494 1419.38789,1983.53308 L1419.38416,1983.24272 L1419.38416,1961.57696 C1419.38416,1955.45593 1424.33846,1950.49711 1430.4599,1950.49711 Z M1074.9646,1950.49711 C1081.08604,1950.49711 1086.04034,1955.45593 1086.04034,1961.57696 L1086.04034,1983.24272 C1086.04034,1989.35892 1081.08604,1994.31289 1074.9646,1994.31289 C1068.85285,1994.31289 1063.89371,1989.35892 1063.89371,1983.24272 L1063.89371,1961.57696 C1063.89371,1955.45593 1068.85285,1950.49711 1074.9646,1950.49711 Z M454.20016,1950.38089 C460.316757,1950.38089 465.275899,1955.3397 465.275899,1961.4559 L465.275899,1983.1265 C465.275899,1989.24269 460.316757,1994.20151 454.20016,1994.20151 C448.083562,1994.20151 443.129263,1989.24269 443.129263,1983.1265 L443.129263,1961.4559 C443.129263,1955.3397 448.083562,1950.38089 454.20016,1950.38089 Z M1607.81702,1949.86273 C1613.84129,1949.86273 1618.74456,1954.67006 1618.89871,1960.65684 L1618.90244,1960.94743 L1618.90244,1975.25729 C1618.90244,1981.37348 1613.93846,1986.34198 1607.81702,1986.34198 C1601.79274,1986.34198 1596.89416,1981.52996 1596.74017,1975.54765 L1596.73644,1975.25729 L1596.73644,1960.94743 C1596.73644,1954.82639 1601.69558,1949.86273 1607.81702,1949.86273 Z M897.607485,1949.86273 C903.728926,1949.86273 908.688068,1954.82639 908.688068,1960.94743 L908.688068,1975.25729 C908.688068,1981.37348 903.728926,1986.34198 897.607485,1986.34198 C891.486045,1986.34198 886.52206,1981.37348 886.52206,1975.25729 L886.52206,1960.94743 C886.52206,1954.82639 891.486045,1949.86273 897.607485,1949.86273 Z M276.843041,1949.75135 C282.959639,1949.75135 287.923623,1954.71017 287.923623,1960.8312 L287.923623,1975.14106 C287.923623,1981.2621 282.959639,1986.22576 276.843041,1986.22576 C270.716757,1986.22576 265.757616,1981.2621 265.757616,1975.14106 L265.757616,1960.8312 C265.757616,1954.71017 270.716757,1949.75135 276.843041,1949.75135 Z" id="path-2"></path>
    </defs>
    <g id="Main-Page" stroke="none" stroke-width="1" fill="none" fill-rule="evenodd">
        <g id="02-1-2-Pricing" transform="translate(10.000000, -3790.000000)">
            <g id="Bg---22" transform="translate(956.000000, 4860.500000) scale(1, -1) translate(-956.000000, -4860.500000) translate(-10.000000, 3790.000000)">
                <mask id="mask-3" fill="white">
                    <use xlink:href="#path-2"></use>
                </mask>
                <use id="Mask" fill="url(#linearGradient-1)" xlink:href="#path-2"></use>
                <g id="Shape---27" opacity="0.173874628" transform="translate(301.000000, 509.000000)" fill="#F5F5FC">
                    <circle id="Oval-Copy-169" cx="418" cy="418" r="5.2"></circle>
                    <circle id="Oval-Copy-168" cx="383.6" cy="418" r="5.2"></circle>
                    <circle id="Oval-Copy-167" cx="349.2" cy="418" r="5.2"></circle>
                    <circle id="Oval-Copy-166" cx="314.8" cy="418" r="5.2"></circle>
                    <circle id="Oval-Copy-165" cx="280.4" cy="418" r="5.2"></circle>
                    <circle id="Oval-Copy-164" cx="246" cy="418" r="5.2"></circle>
                    <circle id="Oval-Copy-163" cx="211.6" cy="418" r="5.2"></circle>
                    <circle id="Oval-Copy-162" cx="177.2" cy="418" r="5.2"></circle>
                    <circle id="Oval-Copy-161" cx="142.8" cy="418" r="5.2"></circle>
                    <circle id="Oval-Copy-160" cx="108.4" cy="418" r="5.2"></circle>
                    <circle id="Oval-Copy-159" cx="74" cy="418" r="5.2"></circle>
                    <circle id="Oval-Copy-158" cx="39.6" cy="418" r="5.2"></circle>
                    <circle id="Oval-Copy-157" cx="5.2" cy="418" r="5.2"></circle>
                    <circle id="Oval-Copy-156" cx="418" cy="383.6" r="5.2"></circle>
                    <circle id="Oval-Copy-155" cx="383.6" cy="383.6" r="5.2"></circle>
                    <circle id="Oval-Copy-154" cx="349.2" cy="383.6" r="5.2"></circle>
                    <circle id="Oval-Copy-153" cx="314.8" cy="383.6" r="5.2"></circle>
                    <circle id="Oval-Copy-152" cx="280.4" cy="383.6" r="5.2"></circle>
                    <circle id="Oval-Copy-151" cx="246" cy="383.6" r="5.2"></circle>
                    <circle id="Oval-Copy-150" cx="211.6" cy="383.6" r="5.2"></circle>
                    <circle id="Oval-Copy-149" cx="177.2" cy="383.6" r="5.2"></circle>
                    <circle id="Oval-Copy-148" cx="142.8" cy="383.6" r="5.2"></circle>
                    <circle id="Oval-Copy-147" cx="108.4" cy="383.6" r="5.2"></circle>
                    <circle id="Oval-Copy-146" cx="74" cy="383.6" r="5.2"></circle>
                    <circle id="Oval-Copy-145" cx="39.6" cy="383.6" r="5.2"></circle>
                    <circle id="Oval-Copy-144" cx="5.2" cy="383.6" r="5.2"></circle>
                    <circle id="Oval-Copy-143" cx="418" cy="349.2" r="5.2"></circle>
                    <circle id="Oval-Copy-142" cx="383.6" cy="349.2" r="5.2"></circle>
                    <circle id="Oval-Copy-141" cx="349.2" cy="349.2" r="5.2"></circle>
                    <circle id="Oval-Copy-140" cx="314.8" cy="349.2" r="5.2"></circle>
                    <circle id="Oval-Copy-139" cx="280.4" cy="349.2" r="5.2"></circle>
                    <circle id="Oval-Copy-138" cx="246" cy="349.2" r="5.2"></circle>
                    <circle id="Oval-Copy-137" cx="211.6" cy="349.2" r="5.2"></circle>
                    <circle id="Oval-Copy-136" cx="177.2" cy="349.2" r="5.2"></circle>
                    <circle id="Oval-Copy-135" cx="142.8" cy="349.2" r="5.2"></circle>
                    <circle id="Oval-Copy-134" cx="108.4" cy="349.2" r="5.2"></circle>
                    <circle id="Oval-Copy-133" cx="74" cy="349.2" r="5.2"></circle>
                    <circle id="Oval-Copy-132" cx="39.6" cy="349.2" r="5.2"></circle>
                    <circle id="Oval-Copy-131" cx="5.2" cy="349.2" r="5.2"></circle>
                    <circle id="Oval-Copy-130" cx="418" cy="314.8" r="5.2"></circle>
                    <circle id="Oval-Copy-129" cx="383.6" cy="314.8" r="5.2"></circle>
                    <circle id="Oval-Copy-128" cx="349.2" cy="314.8" r="5.2"></circle>
                    <circle id="Oval-Copy-127" cx="314.8" cy="314.8" r="5.2"></circle>
                    <circle id="Oval-Copy-126" cx="280.4" cy="314.8" r="5.2"></circle>
                    <circle id="Oval-Copy-125" cx="246" cy="314.8" r="5.2"></circle>
                    <circle id="Oval-Copy-124" cx="211.6" cy="314.8" r="5.2"></circle>
                    <circle id="Oval-Copy-123" cx="177.2" cy="314.8" r="5.2"></circle>
                    <circle id="Oval-Copy-122" cx="142.8" cy="314.8" r="5.2"></circle>
                    <circle id="Oval-Copy-121" cx="108.4" cy="314.8" r="5.2"></circle>
                    <circle id="Oval-Copy-120" cx="74" cy="314.8" r="5.2"></circle>
                    <circle id="Oval-Copy-119" cx="39.6" cy="314.8" r="5.2"></circle>
                    <circle id="Oval-Copy-118" cx="5.2" cy="314.8" r="5.2"></circle>
                    <circle id="Oval-Copy-117" cx="418" cy="280.4" r="5.2"></circle>
                    <circle id="Oval-Copy-116" cx="383.6" cy="280.4" r="5.2"></circle>
                    <circle id="Oval-Copy-115" cx="349.2" cy="280.4" r="5.2"></circle>
                    <circle id="Oval-Copy-114" cx="314.8" cy="280.4" r="5.2"></circle>
                    <circle id="Oval-Copy-113" cx="280.4" cy="280.4" r="5.2"></circle>
                    <circle id="Oval-Copy-112" cx="246" cy="280.4" r="5.2"></circle>
                    <circle id="Oval-Copy-111" cx="211.6" cy="280.4" r="5.2"></circle>
                    <circle id="Oval-Copy-110" cx="177.2" cy="280.4" r="5.2"></circle>
                    <circle id="Oval-Copy-109" cx="142.8" cy="280.4" r="5.2"></circle>
                    <circle id="Oval-Copy-108" cx="108.4" cy="280.4" r="5.2"></circle>
                    <circle id="Oval-Copy-107" cx="74" cy="280.4" r="5.2"></circle>
                    <circle id="Oval-Copy-106" cx="39.6" cy="280.4" r="5.2"></circle>
                    <circle id="Oval-Copy-105" cx="5.2" cy="280.4" r="5.2"></circle>
                    <circle id="Oval-Copy-104" cx="418" cy="246" r="5.2"></circle>
                    <circle id="Oval-Copy-103" cx="383.6" cy="246" r="5.2"></circle>
                    <circle id="Oval-Copy-102" cx="349.2" cy="246" r="5.2"></circle>
                    <circle id="Oval-Copy-101" cx="314.8" cy="246" r="5.2"></circle>
                    <circle id="Oval-Copy-100" cx="280.4" cy="246" r="5.2"></circle>
                    <circle id="Oval-Copy-99" cx="246" cy="246" r="5.2"></circle>
                    <circle id="Oval-Copy-98" cx="211.6" cy="246" r="5.2"></circle>
                    <circle id="Oval-Copy-97" cx="177.2" cy="246" r="5.2"></circle>
                    <circle id="Oval-Copy-96" cx="142.8" cy="246" r="5.2"></circle>
                    <circle id="Oval-Copy-95" cx="108.4" cy="246" r="5.2"></circle>
                    <circle id="Oval-Copy-94" cx="74" cy="246" r="5.2"></circle>
                    <circle id="Oval-Copy-93" cx="39.6" cy="246" r="5.2"></circle>
                    <circle id="Oval-Copy-92" cx="5.2" cy="246" r="5.2"></circle>
                    <circle id="Oval-Copy-91" cx="418" cy="211.6" r="5.2"></circle>
                    <circle id="Oval-Copy-90" cx="383.6" cy="211.6" r="5.2"></circle>
                    <circle id="Oval-Copy-89" cx="349.2" cy="211.6" r="5.2"></circle>
                    <circle id="Oval-Copy-88" cx="314.8" cy="211.6" r="5.2"></circle>
                    <circle id="Oval-Copy-87" cx="280.4" cy="211.6" r="5.2"></circle>
                    <circle id="Oval-Copy-86" cx="246" cy="211.6" r="5.2"></circle>
                    <circle id="Oval-Copy-85" cx="211.6" cy="211.6" r="5.2"></circle>
                    <circle id="Oval-Copy-84" cx="177.2" cy="211.6" r="5.2"></circle>
                    <circle id="Oval-Copy-83" cx="142.8" cy="211.6" r="5.2"></circle>
                    <circle id="Oval-Copy-82" cx="108.4" cy="211.6" r="5.2"></circle>
                    <circle id="Oval-Copy-81" cx="74" cy="211.6" r="5.2"></circle>
                    <circle id="Oval-Copy-80" cx="39.6" cy="211.6" r="5.2"></circle>
                    <circle id="Oval-Copy-79" cx="5.2" cy="211.6" r="5.2"></circle>
                    <circle id="Oval-Copy-78" cx="418" cy="177.2" r="5.2"></circle>
                    <circle id="Oval-Copy-77" cx="383.6" cy="177.2" r="5.2"></circle>
                    <circle id="Oval-Copy-76" cx="349.2" cy="177.2" r="5.2"></circle>
                    <circle id="Oval-Copy-75" cx="314.8" cy="177.2" r="5.2"></circle>
                    <circle id="Oval-Copy-74" cx="280.4" cy="177.2" r="5.2"></circle>
                    <circle id="Oval-Copy-73" cx="246" cy="177.2" r="5.2"></circle>
                    <circle id="Oval-Copy-72" cx="211.6" cy="177.2" r="5.2"></circle>
                    <circle id="Oval-Copy-71" cx="177.2" cy="177.2" r="5.2"></circle>
                    <circle id="Oval-Copy-70" cx="142.8" cy="177.2" r="5.2"></circle>
                    <circle id="Oval-Copy-69" cx="108.4" cy="177.2" r="5.2"></circle>
                    <circle id="Oval-Copy-68" cx="74" cy="177.2" r="5.2"></circle>
                    <circle id="Oval-Copy-67" cx="39.6" cy="177.2" r="5.2"></circle>
                    <circle id="Oval-Copy-66" cx="5.2" cy="177.2" r="5.2"></circle>
                    <circle id="Oval-Copy-65" cx="418" cy="142.8" r="5.2"></circle>
                    <circle id="Oval-Copy-64" cx="383.6" cy="142.8" r="5.2"></circle>
                    <circle id="Oval-Copy-63" cx="349.2" cy="142.8" r="5.2"></circle>
                    <circle id="Oval-Copy-62" cx="314.8" cy="142.8" r="5.2"></circle>
                    <circle id="Oval-Copy-61" cx="280.4" cy="142.8" r="5.2"></circle>
                    <circle id="Oval-Copy-60" cx="246" cy="142.8" r="5.2"></circle>
                    <circle id="Oval-Copy-59" cx="211.6" cy="142.8" r="5.2"></circle>
                    <circle id="Oval-Copy-58" cx="177.2" cy="142.8" r="5.2"></circle>
                    <circle id="Oval-Copy-57" cx="142.8" cy="142.8" r="5.2"></circle>
                    <circle id="Oval-Copy-56" cx="108.4" cy="142.8" r="5.2"></circle>
                    <circle id="Oval-Copy-55" cx="74" cy="142.8" r="5.2"></circle>
                    <circle id="Oval-Copy-54" cx="39.6" cy="142.8" r="5.2"></circle>
                    <circle id="Oval-Copy-53" cx="5.2" cy="142.8" r="5.2"></circle>
                    <circle id="Oval-Copy-52" cx="418" cy="108.4" r="5.2"></circle>
                    <circle id="Oval-Copy-51" cx="383.6" cy="108.4" r="5.2"></circle>
                    <circle id="Oval-Copy-50" cx="349.2" cy="108.4" r="5.2"></circle>
                    <circle id="Oval-Copy-49" cx="314.8" cy="108.4" r="5.2"></circle>
                    <circle id="Oval-Copy-48" cx="280.4" cy="108.4" r="5.2"></circle>
                    <circle id="Oval-Copy-47" cx="246" cy="108.4" r="5.2"></circle>
                    <circle id="Oval-Copy-46" cx="211.6" cy="108.4" r="5.2"></circle>
                    <circle id="Oval-Copy-45" cx="177.2" cy="108.4" r="5.2"></circle>
                    <circle id="Oval-Copy-44" cx="142.8" cy="108.4" r="5.2"></circle>
                    <circle id="Oval-Copy-43" cx="108.4" cy="108.4" r="5.2"></circle>
                    <circle id="Oval-Copy-42" cx="74" cy="108.4" r="5.2"></circle>
                    <circle id="Oval-Copy-41" cx="39.6" cy="108.4" r="5.2"></circle>
                    <circle id="Oval-Copy-40" cx="5.2" cy="108.4" r="5.2"></circle>
                    <circle id="Oval-Copy-39" cx="418" cy="74" r="5.2"></circle>
                    <circle id="Oval-Copy-38" cx="383.6" cy="74" r="5.2"></circle>
                    <circle id="Oval-Copy-37" cx="349.2" cy="74" r="5.2"></circle>
                    <circle id="Oval-Copy-36" cx="314.8" cy="74" r="5.2"></circle>
                    <circle id="Oval-Copy-35" cx="280.4" cy="74" r="5.2"></circle>
                    <circle id="Oval-Copy-34" cx="246" cy="74" r="5.2"></circle>
                    <circle id="Oval-Copy-33" cx="211.6" cy="74" r="5.2"></circle>
                    <circle id="Oval-Copy-32" cx="177.2" cy="74" r="5.2"></circle>
                    <circle id="Oval-Copy-31" cx="142.8" cy="74" r="5.2"></circle>
                    <circle id="Oval-Copy-30" cx="108.4" cy="74" r="5.2"></circle>
                    <circle id="Oval-Copy-29" cx="74" cy="74" r="5.2"></circle>
                    <circle id="Oval-Copy-28" cx="39.6" cy="74" r="5.2"></circle>
                    <circle id="Oval-Copy-27" cx="5.2" cy="74" r="5.2"></circle>
                    <circle id="Oval-Copy-26" cx="418" cy="39.6" r="5.2"></circle>
                    <circle id="Oval-Copy-25" cx="383.6" cy="39.6" r="5.2"></circle>
                    <circle id="Oval-Copy-24" cx="349.2" cy="39.6" r="5.2"></circle>
                    <circle id="Oval-Copy-23" cx="314.8" cy="39.6" r="5.2"></circle>
                    <circle id="Oval-Copy-22" cx="280.4" cy="39.6" r="5.2"></circle>
                    <circle id="Oval-Copy-21" cx="246" cy="39.6" r="5.2"></circle>
                    <circle id="Oval-Copy-20" cx="211.6" cy="39.6" r="5.2"></circle>
                    <circle id="Oval-Copy-19" cx="177.2" cy="39.6" r="5.2"></circle>
                    <circle id="Oval-Copy-18" cx="142.8" cy="39.6" r="5.2"></circle>
                    <circle id="Oval-Copy-17" cx="108.4" cy="39.6" r="5.2"></circle>
                    <circle id="Oval-Copy-16" cx="74" cy="39.6" r="5.2"></circle>
                    <circle id="Oval-Copy-15" cx="39.6" cy="39.6" r="5.2"></circle>
                    <circle id="Oval-Copy-14" cx="5.2" cy="39.6" r="5.2"></circle>
                    <circle id="Oval-Copy-13" cx="418" cy="5.2" r="5.2"></circle>
                    <circle id="Oval-Copy-12" cx="383.6" cy="5.2" r="5.2"></circle>
                    <circle id="Oval-Copy-11" cx="349.2" cy="5.2" r="5.2"></circle>
                    <circle id="Oval-Copy-10" cx="314.8" cy="5.2" r="5.2"></circle>
                    <circle id="Oval-Copy-9" cx="280.4" cy="5.2" r="5.2"></circle>
                    <circle id="Oval-Copy-8" cx="246" cy="5.2" r="5.2"></circle>
                    <circle id="Oval-Copy-7" cx="211.6" cy="5.2" r="5.2"></circle>
                    <circle id="Oval-Copy-6" cx="177.2" cy="5.2" r="5.2"></circle>
                    <circle id="Oval-Copy-5" cx="142.8" cy="5.2" r="5.2"></circle>
                    <circle id="Oval-Copy-4" cx="108.4" cy="5.2" r="5.2"></circle>
                    <circle id="Oval-Copy-3" cx="74" cy="5.2" r="5.2"></circle>
                    <circle id="Oval-Copy-2" cx="39.6" cy="5.2" r="5.2"></circle>
                    <circle id="Oval-Copy" cx="5.2" cy="5.2" r="5.2"></circle>
                </g>
                <g id="Shape---26" opacity="0.173874628" transform="translate(1224.000000, 910.000000)" fill="#F5F5FC">
                    <circle id="Oval-Copy-169" cx="418" cy="418" r="5.2"></circle>
                    <circle id="Oval-Copy-168" cx="383.6" cy="418" r="5.2"></circle>
                    <circle id="Oval-Copy-167" cx="349.2" cy="418" r="5.2"></circle>
                    <circle id="Oval-Copy-166" cx="314.8" cy="418" r="5.2"></circle>
                    <circle id="Oval-Copy-165" cx="280.4" cy="418" r="5.2"></circle>
                    <circle id="Oval-Copy-164" cx="246" cy="418" r="5.2"></circle>
                    <circle id="Oval-Copy-163" cx="211.6" cy="418" r="5.2"></circle>
                    <circle id="Oval-Copy-162" cx="177.2" cy="418" r="5.2"></circle>
                    <circle id="Oval-Copy-161" cx="142.8" cy="418" r="5.2"></circle>
                    <circle id="Oval-Copy-160" cx="108.4" cy="418" r="5.2"></circle>
                    <circle id="Oval-Copy-159" cx="74" cy="418" r="5.2"></circle>
                    <circle id="Oval-Copy-158" cx="39.6" cy="418" r="5.2"></circle>
                    <circle id="Oval-Copy-157" cx="5.2" cy="418" r="5.2"></circle>
                    <circle id="Oval-Copy-156" cx="418" cy="383.6" r="5.2"></circle>
                    <circle id="Oval-Copy-155" cx="383.6" cy="383.6" r="5.2"></circle>
                    <circle id="Oval-Copy-154" cx="349.2" cy="383.6" r="5.2"></circle>
                    <circle id="Oval-Copy-153" cx="314.8" cy="383.6" r="5.2"></circle>
                    <circle id="Oval-Copy-152" cx="280.4" cy="383.6" r="5.2"></circle>
                    <circle id="Oval-Copy-151" cx="246" cy="383.6" r="5.2"></circle>
                    <circle id="Oval-Copy-150" cx="211.6" cy="383.6" r="5.2"></circle>
                    <circle id="Oval-Copy-149" cx="177.2" cy="383.6" r="5.2"></circle>
                    <circle id="Oval-Copy-148" cx="142.8" cy="383.6" r="5.2"></circle>
                    <circle id="Oval-Copy-147" cx="108.4" cy="383.6" r="5.2"></circle>
                    <circle id="Oval-Copy-146" cx="74" cy="383.6" r="5.2"></circle>
                    <circle id="Oval-Copy-145" cx="39.6" cy="383.6" r="5.2"></circle>
                    <circle id="Oval-Copy-144" cx="5.2" cy="383.6" r="5.2"></circle>
                    <circle id="Oval-Copy-143" cx="418" cy="349.2" r="5.2"></circle>
                    <circle id="Oval-Copy-142" cx="383.6" cy="349.2" r="5.2"></circle>
                    <circle id="Oval-Copy-141" cx="349.2" cy="349.2" r="5.2"></circle>
                    <circle id="Oval-Copy-140" cx="314.8" cy="349.2" r="5.2"></circle>
                    <circle id="Oval-Copy-139" cx="280.4" cy="349.2" r="5.2"></circle>
                    <circle id="Oval-Copy-138" cx="246" cy="349.2" r="5.2"></circle>
                    <circle id="Oval-Copy-137" cx="211.6" cy="349.2" r="5.2"></circle>
                    <circle id="Oval-Copy-136" cx="177.2" cy="349.2" r="5.2"></circle>
                    <circle id="Oval-Copy-135" cx="142.8" cy="349.2" r="5.2"></circle>
                    <circle id="Oval-Copy-134" cx="108.4" cy="349.2" r="5.2"></circle>
                    <circle id="Oval-Copy-133" cx="74" cy="349.2" r="5.2"></circle>
                    <circle id="Oval-Copy-132" cx="39.6" cy="349.2" r="5.2"></circle>
                    <circle id="Oval-Copy-131" cx="5.2" cy="349.2" r="5.2"></circle>
                    <circle id="Oval-Copy-130" cx="418" cy="314.8" r="5.2"></circle>
                    <circle id="Oval-Copy-129" cx="383.6" cy="314.8" r="5.2"></circle>
                    <circle id="Oval-Copy-128" cx="349.2" cy="314.8" r="5.2"></circle>
                    <circle id="Oval-Copy-127" cx="314.8" cy="314.8" r="5.2"></circle>
                    <circle id="Oval-Copy-126" cx="280.4" cy="314.8" r="5.2"></circle>
                    <circle id="Oval-Copy-125" cx="246" cy="314.8" r="5.2"></circle>
                    <circle id="Oval-Copy-124" cx="211.6" cy="314.8" r="5.2"></circle>
                    <circle id="Oval-Copy-123" cx="177.2" cy="314.8" r="5.2"></circle>
                    <circle id="Oval-Copy-122" cx="142.8" cy="314.8" r="5.2"></circle>
                    <circle id="Oval-Copy-121" cx="108.4" cy="314.8" r="5.2"></circle>
                    <circle id="Oval-Copy-120" cx="74" cy="314.8" r="5.2"></circle>
                    <circle id="Oval-Copy-119" cx="39.6" cy="314.8" r="5.2"></circle>
                    <circle id="Oval-Copy-118" cx="5.2" cy="314.8" r="5.2"></circle>
                    <circle id="Oval-Copy-117" cx="418" cy="280.4" r="5.2"></circle>
                    <circle id="Oval-Copy-116" cx="383.6" cy="280.4" r="5.2"></circle>
                    <circle id="Oval-Copy-115" cx="349.2" cy="280.4" r="5.2"></circle>
                    <circle id="Oval-Copy-114" cx="314.8" cy="280.4" r="5.2"></circle>
                    <circle id="Oval-Copy-113" cx="280.4" cy="280.4" r="5.2"></circle>
                    <circle id="Oval-Copy-112" cx="246" cy="280.4" r="5.2"></circle>
                    <circle id="Oval-Copy-111" cx="211.6" cy="280.4" r="5.2"></circle>
                    <circle id="Oval-Copy-110" cx="177.2" cy="280.4" r="5.2"></circle>
                    <circle id="Oval-Copy-109" cx="142.8" cy="280.4" r="5.2"></circle>
                    <circle id="Oval-Copy-108" cx="108.4" cy="280.4" r="5.2"></circle>
                    <circle id="Oval-Copy-107" cx="74" cy="280.4" r="5.2"></circle>
                    <circle id="Oval-Copy-106" cx="39.6" cy="280.4" r="5.2"></circle>
                    <circle id="Oval-Copy-105" cx="5.2" cy="280.4" r="5.2"></circle>
                    <circle id="Oval-Copy-104" cx="418" cy="246" r="5.2"></circle>
                    <circle id="Oval-Copy-103" cx="383.6" cy="246" r="5.2"></circle>
                    <circle id="Oval-Copy-102" cx="349.2" cy="246" r="5.2"></circle>
                    <circle id="Oval-Copy-101" cx="314.8" cy="246" r="5.2"></circle>
                    <circle id="Oval-Copy-100" cx="280.4" cy="246" r="5.2"></circle>
                    <circle id="Oval-Copy-99" cx="246" cy="246" r="5.2"></circle>
                    <circle id="Oval-Copy-98" cx="211.6" cy="246" r="5.2"></circle>
                    <circle id="Oval-Copy-97" cx="177.2" cy="246" r="5.2"></circle>
                    <circle id="Oval-Copy-96" cx="142.8" cy="246" r="5.2"></circle>
                    <circle id="Oval-Copy-95" cx="108.4" cy="246" r="5.2"></circle>
                    <circle id="Oval-Copy-94" cx="74" cy="246" r="5.2"></circle>
                    <circle id="Oval-Copy-93" cx="39.6" cy="246" r="5.2"></circle>
                    <circle id="Oval-Copy-92" cx="5.2" cy="246" r="5.2"></circle>
                    <circle id="Oval-Copy-91" cx="418" cy="211.6" r="5.2"></circle>
                    <circle id="Oval-Copy-90" cx="383.6" cy="211.6" r="5.2"></circle>
                    <circle id="Oval-Copy-89" cx="349.2" cy="211.6" r="5.2"></circle>
                    <circle id="Oval-Copy-88" cx="314.8" cy="211.6" r="5.2"></circle>
                    <circle id="Oval-Copy-87" cx="280.4" cy="211.6" r="5.2"></circle>
                    <circle id="Oval-Copy-86" cx="246" cy="211.6" r="5.2"></circle>
                    <circle id="Oval-Copy-85" cx="211.6" cy="211.6" r="5.2"></circle>
                    <circle id="Oval-Copy-84" cx="177.2" cy="211.6" r="5.2"></circle>
                    <circle id="Oval-Copy-83" cx="142.8" cy="211.6" r="5.2"></circle>
                    <circle id="Oval-Copy-82" cx="108.4" cy="211.6" r="5.2"></circle>
                    <circle id="Oval-Copy-81" cx="74" cy="211.6" r="5.2"></circle>
                    <circle id="Oval-Copy-80" cx="39.6" cy="211.6" r="5.2"></circle>
                    <circle id="Oval-Copy-79" cx="5.2" cy="211.6" r="5.2"></circle>
                    <circle id="Oval-Copy-78" cx="418" cy="177.2" r="5.2"></circle>
                    <circle id="Oval-Copy-77" cx="383.6" cy="177.2" r="5.2"></circle>
                    <circle id="Oval-Copy-76" cx="349.2" cy="177.2" r="5.2"></circle>
                    <circle id="Oval-Copy-75" cx="314.8" cy="177.2" r="5.2"></circle>
                    <circle id="Oval-Copy-74" cx="280.4" cy="177.2" r="5.2"></circle>
                    <circle id="Oval-Copy-73" cx="246" cy="177.2" r="5.2"></circle>
                    <circle id="Oval-Copy-72" cx="211.6" cy="177.2" r="5.2"></circle>
                    <circle id="Oval-Copy-71" cx="177.2" cy="177.2" r="5.2"></circle>
                    <circle id="Oval-Copy-70" cx="142.8" cy="177.2" r="5.2"></circle>
                    <circle id="Oval-Copy-69" cx="108.4" cy="177.2" r="5.2"></circle>
                    <circle id="Oval-Copy-68" cx="74" cy="177.2" r="5.2"></circle>
                    <circle id="Oval-Copy-67" cx="39.6" cy="177.2" r="5.2"></circle>
                    <circle id="Oval-Copy-66" cx="5.2" cy="177.2" r="5.2"></circle>
                    <circle id="Oval-Copy-65" cx="418" cy="142.8" r="5.2"></circle>
                    <circle id="Oval-Copy-64" cx="383.6" cy="142.8" r="5.2"></circle>
                    <circle id="Oval-Copy-63" cx="349.2" cy="142.8" r="5.2"></circle>
                    <circle id="Oval-Copy-62" cx="314.8" cy="142.8" r="5.2"></circle>
                    <circle id="Oval-Copy-61" cx="280.4" cy="142.8" r="5.2"></circle>
                    <circle id="Oval-Copy-60" cx="246" cy="142.8" r="5.2"></circle>
                    <circle id="Oval-Copy-59" cx="211.6" cy="142.8" r="5.2"></circle>
                    <circle id="Oval-Copy-58" cx="177.2" cy="142.8" r="5.2"></circle>
                    <circle id="Oval-Copy-57" cx="142.8" cy="142.8" r="5.2"></circle>
                    <circle id="Oval-Copy-56" cx="108.4" cy="142.8" r="5.2"></circle>
                    <circle id="Oval-Copy-55" cx="74" cy="142.8" r="5.2"></circle>
                    <circle id="Oval-Copy-54" cx="39.6" cy="142.8" r="5.2"></circle>
                    <circle id="Oval-Copy-53" cx="5.2" cy="142.8" r="5.2"></circle>
                    <circle id="Oval-Copy-52" cx="418" cy="108.4" r="5.2"></circle>
                    <circle id="Oval-Copy-51" cx="383.6" cy="108.4" r="5.2"></circle>
                    <circle id="Oval-Copy-50" cx="349.2" cy="108.4" r="5.2"></circle>
                    <circle id="Oval-Copy-49" cx="314.8" cy="108.4" r="5.2"></circle>
                    <circle id="Oval-Copy-48" cx="280.4" cy="108.4" r="5.2"></circle>
                    <circle id="Oval-Copy-47" cx="246" cy="108.4" r="5.2"></circle>
                    <circle id="Oval-Copy-46" cx="211.6" cy="108.4" r="5.2"></circle>
                    <circle id="Oval-Copy-45" cx="177.2" cy="108.4" r="5.2"></circle>
                    <circle id="Oval-Copy-44" cx="142.8" cy="108.4" r="5.2"></circle>
                    <circle id="Oval-Copy-43" cx="108.4" cy="108.4" r="5.2"></circle>
                    <circle id="Oval-Copy-42" cx="74" cy="108.4" r="5.2"></circle>
                    <circle id="Oval-Copy-41" cx="39.6" cy="108.4" r="5.2"></circle>
                    <circle id="Oval-Copy-40" cx="5.2" cy="108.4" r="5.2"></circle>
                    <circle id="Oval-Copy-39" cx="418" cy="74" r="5.2"></circle>
                    <circle id="Oval-Copy-38" cx="383.6" cy="74" r="5.2"></circle>
                    <circle id="Oval-Copy-37" cx="349.2" cy="74" r="5.2"></circle>
                    <circle id="Oval-Copy-36" cx="314.8" cy="74" r="5.2"></circle>
                    <circle id="Oval-Copy-35" cx="280.4" cy="74" r="5.2"></circle>
                    <circle id="Oval-Copy-34" cx="246" cy="74" r="5.2"></circle>
                    <circle id="Oval-Copy-33" cx="211.6" cy="74" r="5.2"></circle>
                    <circle id="Oval-Copy-32" cx="177.2" cy="74" r="5.2"></circle>
                    <circle id="Oval-Copy-31" cx="142.8" cy="74" r="5.2"></circle>
                    <circle id="Oval-Copy-30" cx="108.4" cy="74" r="5.2"></circle>
                    <circle id="Oval-Copy-29" cx="74" cy="74" r="5.2"></circle>
                    <circle id="Oval-Copy-28" cx="39.6" cy="74" r="5.2"></circle>
                    <circle id="Oval-Copy-27" cx="5.2" cy="74" r="5.2"></circle>
                    <circle id="Oval-Copy-26" cx="418" cy="39.6" r="5.2"></circle>
                    <circle id="Oval-Copy-25" cx="383.6" cy="39.6" r="5.2"></circle>
                    <circle id="Oval-Copy-24" cx="349.2" cy="39.6" r="5.2"></circle>
                    <circle id="Oval-Copy-23" cx="314.8" cy="39.6" r="5.2"></circle>
                    <circle id="Oval-Copy-22" cx="280.4" cy="39.6" r="5.2"></circle>
                    <circle id="Oval-Copy-21" cx="246" cy="39.6" r="5.2"></circle>
                    <circle id="Oval-Copy-20" cx="211.6" cy="39.6" r="5.2"></circle>
                    <circle id="Oval-Copy-19" cx="177.2" cy="39.6" r="5.2"></circle>
                    <circle id="Oval-Copy-18" cx="142.8" cy="39.6" r="5.2"></circle>
                    <circle id="Oval-Copy-17" cx="108.4" cy="39.6" r="5.2"></circle>
                    <circle id="Oval-Copy-16" cx="74" cy="39.6" r="5.2"></circle>
                    <circle id="Oval-Copy-15" cx="39.6" cy="39.6" r="5.2"></circle>
                    <circle id="Oval-Copy-14" cx="5.2" cy="39.6" r="5.2"></circle>
                    <circle id="Oval-Copy-13" cx="418" cy="5.2" r="5.2"></circle>
                    <circle id="Oval-Copy-12" cx="383.6" cy="5.2" r="5.2"></circle>
                    <circle id="Oval-Copy-11" cx="349.2" cy="5.2" r="5.2"></circle>
                    <circle id="Oval-Copy-10" cx="314.8" cy="5.2" r="5.2"></circle>
                    <circle id="Oval-Copy-9" cx="280.4" cy="5.2" r="5.2"></circle>
                    <circle id="Oval-Copy-8" cx="246" cy="5.2" r="5.2"></circle>
                    <circle id="Oval-Copy-7" cx="211.6" cy="5.2" r="5.2"></circle>
                    <circle id="Oval-Copy-6" cx="177.2" cy="5.2" r="5.2"></circle>
                    <circle id="Oval-Copy-5" cx="142.8" cy="5.2" r="5.2"></circle>
                    <circle id="Oval-Copy-4" cx="108.4" cy="5.2" r="5.2"></circle>
                    <circle id="Oval-Copy-3" cx="74" cy="5.2" r="5.2"></circle>
                    <circle id="Oval-Copy-2" cx="39.6" cy="5.2" r="5.2"></circle>
                    <circle id="Oval-Copy" cx="5.2" cy="5.2" r="5.2"></circle>
                </g>
                <g id="Group-2" transform="translate(21.712252, 1817.000000)" fill="#B559C8">
                    <path d="M187.014518,89 L186.990321,89 C180.921689,89 176,93.8953069 176,99.9314079 L176,114.073406 C176,120.109507 180.921689,125 186.990321,125 L187.014518,125 C193.08315,125 198,120.109507 198,114.073406 L198,99.9314079 C198,93.8953069 193.08315,89 187.014518,89" id="Fill-262"></path>
                    <path d="M627.997578,24 C621.922264,24 617,28.9222638 617,35.0024224 C617,41.0777362 621.922264,46 627.997578,46 C634.072891,46 639,41.0777362 639,35.0024224 C639,28.9222638 634.072891,24 627.997578,24" id="Fill-263"></path>
                    <path d="M721.002422,67 C714.927109,67 710,71.9222638 710,77.9975776 C710,84.0728914 714.927109,89 721.002422,89 C727.077736,89 732,84.0728914 732,77.9975776 C732,71.9222638 727.077736,67 721.002422,67" id="Fill-264"></path>
                    <path d="M99.0072607,45 L98.9878988,45 C92.9179318,45 88,49.9103691 88,55.9710018 L88,78.0241652 C88,84.0847979 92.9179318,89 98.9878988,89 L99.0072607,89 C105.082068,89 110,84.0847979 110,78.0241652 L110,55.9710018 C110,49.9103691 105.082068,45 99.0072607,45" id="Fill-265"></path>
                    <path d="M11.0121012,41 L10.9927393,41 C4.92277228,41 0,45.9103691 0,51.9710018 L0,74.0241652 C0,80.0847979 4.92277228,85 10.9927393,85 L11.0121012,85 C17.0772277,85 22,80.0847979 22,74.0241652 L22,51.9710018 C22,45.9103691 17.0772277,41 11.0121012,41" id="Fill-266"></path>
                    <path d="M231.014518,33 L230.990321,33 C224.921689,33 220,37.8953069 220,43.9314079 L220,58.0734055 C220,64.1095066 224.921689,69 230.990321,69 L231.014518,69 C237.078311,69 242,64.1095066 242,58.0734055 L242,43.9314079 C242,37.8953069 237.078311,33 231.014518,33" id="Fill-267"></path>
                    <path d="M142.997578,18 C136.922264,18 132,22.9222638 132,28.9975776 C132,35.0777362 136.922264,40 142.997578,40 C149.072891,40 154,35.0777362 154,28.9975776 C154,22.9222638 149.072891,18 142.997578,18" id="Fill-268"></path>
                    <path d="M362.997578,45 C356.922264,45 352,49.9271086 352,56.0024224 C352,62.0777362 356.922264,67 362.997578,67 C369.072891,67 374,62.0777362 374,56.0024224 C374,49.9271086 369.072891,45 362.997578,45" id="Fill-269"></path>
                    <path d="M495.002422,85 C488.927109,85 484,89.9271086 484,96.0024224 C484,102.077736 488.927109,107 495.002422,107 C501.072891,107 506,102.077736 506,96.0024224 C506,89.9271086 501.072891,85 495.002422,85" id="Fill-270"></path>
                    <path d="M583.997578,96 C577.922264,96 573,100.927109 573,106.997578 C573,113.077736 577.922264,118 583.997578,118 C590.072891,118 595,113.077736 595,106.997578 C595,100.927109 590.072891,96 583.997578,96" id="Fill-271"></path>
                    <path d="M672.002422,45 C665.927109,45 661,49.9253654 661,55.9985298 L661,90.0014702 C661,96.0746346 665.927109,101 672.002422,101 C678.077736,101 683,96.0746346 683,90.0014702 L683,55.9985298 C683,49.9253654 678.077736,45 672.002422,45" id="Fill-272"></path>
                    <path d="M318.997578,35 C312.922264,35 308,39.9209479 308,45.9946376 L308,80.0005189 C308,86.0790521 312.922264,91 318.997578,91 C325.072891,91 330,86.0790521 330,80.0005189 L330,45.9946376 C330,39.9209479 325.072891,35 318.997578,35" id="Fill-273"></path>
                    <path d="M451.002422,7 C444.927109,7 440,11.9765112 440,18.1187799 L440,39.8812201 C440,46.0234888 444.927109,51 451.002422,51 C457.077736,51 462,46.0234888 462,39.8812201 L462,18.1187799 C462,11.9765112 457.077736,7 451.002422,7" id="Fill-274"></path>
                    <path d="M538.997578,35 C532.927109,35 528,39.9230769 528,45.9993943 L528,55.9957601 C528,62.0720775 532.927109,67 538.997578,67 C545.072891,67 550,62.0720775 550,55.9957601 L550,45.9993943 C550,39.9230769 545.072891,35 538.997578,35" id="Fill-275"></path>
                    <path d="M898.012101,0 L897.992739,0 C891.922772,0 887,4.91466227 887,10.9746293 L887,33.0253707 C887,39.0853377 891.922772,44 897.992739,44 L898.012101,44 C904.082068,44 909,39.0853377 909,33.0253707 L909,10.9746293 C909,4.91466227 904.082068,0 898.012101,0" id="Fill-276"></path>
                    <path d="M809.007261,41 L808.987899,41 C802.917932,41 798,45.9103691 798,51.9710018 L798,74.0241652 C798,80.0847979 802.917932,85 808.987899,85 L809.007261,85 C815.077228,85 820,80.0847979 820,74.0241652 L820,51.9710018 C820,45.9103691 815.077228,41 809.007261,41" id="Fill-277"></path>
                    <path d="M1031.00968,33 L1030.99516,33 C1024.92169,33 1020,37.8953069 1020,43.9314079 L1020,58.0734055 C1020,64.1095066 1024.92169,69 1030.99516,69 L1031.00968,69 C1037.07831,69 1042,64.1095066 1042,58.0734055 L1042,43.9314079 C1042,37.8953069 1037.07831,33 1031.00968,33" id="Fill-278"></path>
                    <path d="M941.997578,51 C935.922264,51 931,55.9260238 931,62 C931,68.0739762 935.922264,73 941.997578,73 C948.072891,73 953,68.0739762 953,62 C953,55.9260238 948.072891,51 941.997578,51" id="Fill-279"></path>
                    <path d="M1163.99758,22 C1157.92226,22 1153,26.9260238 1153,33 C1153,39.0739762 1157.92226,44 1163.99758,44 C1170.07289,44 1175,39.0739762 1175,33 C1175,26.9260238 1170.07289,22 1163.99758,22" id="Fill-280"></path>
                    <path d="M1118.99758,8 C1112.92226,8 1108,12.9253654 1108,18.9985298 L1108,53.0014702 C1108,59.0746346 1112.92226,64 1118.99758,64 C1125.07289,64 1130,59.0746346 1130,53.0014702 L1130,18.9985298 C1130,12.9253654 1125.07289,8 1118.99758,8" id="Fill-281"></path>
                    <path d="M1207.99758,51 C1201.92226,51 1197,55.9759573 1197,62.1175423 L1197,83.8775601 C1197,90.0191451 1201.92226,95 1207.99758,95 C1214.07289,95 1219,90.0191451 1219,83.8775601 L1219,62.1175423 C1219,55.9759573 1214.07289,51 1207.99758,51" id="Fill-282"></path>
                    <path d="M1742.00242,47 C1735.92711,47 1731,51.9222638 1731,57.9975776 C1731,64.0728914 1735.92711,69 1742.00242,69 C1748.07774,69 1753,64.0728914 1753,57.9975776 C1753,51.9222638 1748.07774,47 1742.00242,47" id="Fill-264"></path>
                    <path d="M1742.00242,47 C1735.92711,47 1731,51.9222638 1731,57.9975776 C1731,64.0728914 1735.92711,69 1742.00242,69 C1748.07774,69 1753,64.0728914 1753,57.9975776 C1753,51.9222638 1748.07774,47 1742.00242,47" id="Fill-264"></path>
                    <path d="M1652.00242,95 C1645.92711,95 1641,99.9222638 1641,105.997578 C1641,112.072891 1645.92711,117 1652.00242,117 C1658.07774,117 1663,112.072891 1663,105.997578 C1663,99.9222638 1658.07774,95 1652.00242,95" id="Fill-264"></path>
                    <path d="M1872.99758,76 C1866.92226,76 1862,80.9271086 1862,86.9975776 C1862,93.0777362 1866.92226,98 1872.99758,98 C1879.07289,98 1884,93.0777362 1884,86.9975776 C1884,80.9271086 1879.07289,76 1872.99758,76" id="Fill-271"></path>
                    <path d="M1808.00242,25 C1801.92711,25 1797,29.9253654 1797,35.9985298 L1797,70.0014702 C1797,76.0746346 1801.92711,81 1808.00242,81 C1814.07774,81 1819,76.0746346 1819,70.0014702 L1819,35.9985298 C1819,29.9253654 1814.07774,25 1808.00242,25" id="Fill-272"></path>
                    <path d="M1564.0121,0 L1563.99274,0 C1557.92277,0 1553,4.91466227 1553,10.9746293 L1553,33.0253707 C1553,39.0853377 1557.92277,44 1563.99274,44 L1564.0121,44 C1570.08207,44 1575,39.0853377 1575,33.0253707 L1575,10.9746293 C1575,4.91466227 1570.08207,0 1564.0121,0" id="Fill-276"></path>
                    <path d="M1652.00726,21 L1651.9879,21 C1645.91793,21 1641,25.9103691 1641,31.9710018 L1641,54.0241652 C1641,60.0847979 1645.91793,65 1651.9879,65 L1652.00726,65 C1658.07723,65 1663,60.0847979 1663,54.0241652 L1663,31.9710018 C1663,25.9103691 1658.07723,21 1652.00726,21" id="Fill-277"></path>
                    <path d="M1431.00968,33 L1430.99516,33 C1424.92169,33 1420,37.8953069 1420,43.9314079 L1420,58.0734055 C1420,64.1095066 1424.92169,69 1430.99516,69 L1431.00968,69 C1437.07831,69 1442,64.1095066 1442,58.0734055 L1442,43.9314079 C1442,37.8953069 1437.07831,33 1431.00968,33" id="Fill-278"></path>
                    <path d="M1519.99758,51 C1513.92226,51 1509,55.9260238 1509,62 C1509,68.0739762 1513.92226,73 1519.99758,73 C1526.07289,73 1531,68.0739762 1531,62 C1531,55.9260238 1526.07289,51 1519.99758,51" id="Fill-279"></path>
                    <path d="M1297.99758,22 C1291.92226,22 1287,26.9260238 1287,33 C1287,39.0739762 1291.92226,44 1297.99758,44 C1304.07289,44 1309,39.0739762 1309,33 C1309,26.9260238 1304.07289,22 1297.99758,22" id="Fill-280"></path>
                    <path d="M1342.99758,8 C1336.92226,8 1332,12.9253654 1332,18.9985298 L1332,53.0014702 C1332,59.0746346 1336.92226,64 1342.99758,64 C1349.07289,64 1354,59.0746346 1354,53.0014702 L1354,18.9985298 C1354,12.9253654 1349.07289,8 1342.99758,8" id="Fill-281"></path>
                </g>
                <path d="M1932,1986.34198 L1890.1877,2018.33215 L1862.78664,2012.50167 L1840.59158,2052.48828 L1818.44494,2052.48828 L1803.55704,1984.19429 L1772.71225,1979.68342 L1740.8397,1984.30809 L1707.581,2012.50167 L1682.71225,2018.33215 L1641.07329,1997.50416 L1618.90244,1941.44141 L1586.7141,1942 L1578.50628,1986.34198 L1543.31574,1979.68342 L1530.20936,1962.6506 L1500.44451,1968.10236 C1489.28967,1954.34132 1483.71225,1948.26145 1483.71225,1949.86273 C1483.71225,1951.46402 1473.71225,1948.8431 1453.71225,1942 L1441.5308,1935 L1414.30811,1942 L1392.71225,1973.4849 L1347.01409,1968.10236 L1320.37493,1978.09989 L1286.3639,1997.50416 L1264.50628,2012.50167 L1241.72194,2018.33215 C1232.45622,2005.29587 1224.90244,1997.25233 1219.0606,1994.20151 C1213.21877,1991.15069 1203.75695,1990.30808 1190.67517,1991.67368 L1152.57711,1962.6506 L1108.23541,1978.09989 L1086.04034,1941.44141 C1059.83353,1943.80945 1039.72662,1946.82802 1025.71962,1950.49711 C1011.71262,1954.1662 991.0435,1961.8288 963.712252,1973.4849 L941.946765,1986.34198 C936.519031,1989.13048 931.631772,1986.91095 927.284989,1979.68342 C922.938207,1972.45588 918.824104,1959.70854 914.942681,1941.44141 L877.75235,1942 L869.926703,1999.90608 L819.712252,2018.33215 C808.752053,2017.36215 801.462469,2015.41865 797.843501,2012.50167 C780.773505,1998.74279 772.481864,1982.92301 764.584803,1984.19429 C753.776444,1985.93424 729.524581,1977.39621 716.521054,1979.68342 C700.97209,1982.41834 707.850522,2047.27462 682.712252,2052.48828 C674.630892,2054.16435 661.078876,2045.1734 649.712252,2047.15042 C638.08852,2049.17215 660.086914,2015.11365 638.712252,2018.44595 C626.552007,2020.34173 608.181226,1990.12192 585.712252,1994.20151 C574.156049,1996.29972 547.454495,1963.50167 527.712252,1967.98856 C522.469159,1969.18017 508.788944,1978.26718 498.541861,1972.2912 C482.888812,1963.16252 468.774765,1937.61083 454.202581,1942 C436.445711,1947.3484 409.125465,1947.76429 373.712252,1962.6506 C369.623199,1964.36947 359.022694,1965.91418 351.712252,1972.2912 C341.27954,1981.39183 333.008765,1995.25858 321.179899,1990.18942 C301.740588,1981.85886 284.833332,1932.81095 265.757616,1942 C258.095365,1945.69102 262.996483,1956.10703 252.712252,1962.6506 C245.294705,1967.37018 254.430541,1990.82322 241.712252,1999.78986 C238.825014,2001.82542 208.60366,2021.16799 188.147531,2018.33215 C171.019005,2015.95762 165.364777,1992.14801 143.817937,1986.22576 C128.269456,1981.95219 129.957971,1965.06223 109.712252,1962.6506 C95.4186946,1960.94797 78.4842224,1968.63389 61.9242416,1967.98856 C50.9882044,1967.56239 30.3467905,1980.25882 0,2006.07786 L9.71225162,2140.61675 L1929.27982,2140.61675 L1932,1986.34198 Z" id="Path-2" fill="#F9F5FC"></path>
            </g>
        </g>
    </g>
</svg>