<svg xmlns="http://www.w3.org/2000/svg" width="216.8" height="216.8" viewBox="0 0 216.8 216.8">
  <g id="Shape_-_7" data-name="Shape - 7" transform="translate(0 0)" opacity="0.544">
    <circle id="Oval_Copy_113" data-name="Oval Copy 113" cx="5.2" cy="5.2" r="5.2" transform="translate(206.4 206.4)" fill="#f0e6f9"/>
    <circle id="Oval_Copy_112" data-name="Oval Copy 112" cx="5.2" cy="5.2" r="5.2" transform="translate(172 206.4)" fill="#f0e6f9"/>
    <circle id="Oval_Copy_111" data-name="Oval Copy 111" cx="5.2" cy="5.2" r="5.2" transform="translate(137.6 206.4)" fill="#f0e6f9"/>
    <circle id="Oval_Copy_110" data-name="Oval Copy 110" cx="5.2" cy="5.2" r="5.2" transform="translate(103.2 206.4)" fill="#f0e6f9"/>
    <circle id="Oval_Copy_109" data-name="Oval Copy 109" cx="5.2" cy="5.2" r="5.2" transform="translate(68.8 206.4)" fill="#f0e6f9"/>
    <circle id="Oval_Copy_108" data-name="Oval Copy 108" cx="5.2" cy="5.2" r="5.2" transform="translate(34.4 206.4)" fill="#f0e6f9"/>
    <circle id="Oval_Copy_107" data-name="Oval Copy 107" cx="5.2" cy="5.2" r="5.2" transform="translate(0 206.4)" fill="#f0e6f9"/>
    <circle id="Oval_Copy_100" data-name="Oval Copy 100" cx="5.2" cy="5.2" r="5.2" transform="translate(206.4 172)" fill="#f0e6f9"/>
    <circle id="Oval_Copy_99" data-name="Oval Copy 99" cx="5.2" cy="5.2" r="5.2" transform="translate(172 172)" fill="#f0e6f9"/>
    <circle id="Oval_Copy_98" data-name="Oval Copy 98" cx="5.2" cy="5.2" r="5.2" transform="translate(137.6 172)" fill="#f0e6f9"/>
    <circle id="Oval_Copy_97" data-name="Oval Copy 97" cx="5.2" cy="5.2" r="5.2" transform="translate(103.2 172)" fill="#f0e6f9"/>
    <circle id="Oval_Copy_96" data-name="Oval Copy 96" cx="5.2" cy="5.2" r="5.2" transform="translate(68.8 172)" fill="#f0e6f9"/>
    <circle id="Oval_Copy_95" data-name="Oval Copy 95" cx="5.2" cy="5.2" r="5.2" transform="translate(34.4 172)" fill="#f0e6f9"/>
    <circle id="Oval_Copy_94" data-name="Oval Copy 94" cx="5.2" cy="5.2" r="5.2" transform="translate(0 172)" fill="#f0e6f9"/>
    <circle id="Oval_Copy_87" data-name="Oval Copy 87" cx="5.2" cy="5.2" r="5.2" transform="translate(206.4 137.6)" fill="#f0e6f9"/>
    <circle id="Oval_Copy_86" data-name="Oval Copy 86" cx="5.2" cy="5.2" r="5.2" transform="translate(172 137.6)" fill="#f0e6f9"/>
    <circle id="Oval_Copy_85" data-name="Oval Copy 85" cx="5.2" cy="5.2" r="5.2" transform="translate(137.6 137.6)" fill="#f0e6f9"/>
    <circle id="Oval_Copy_84" data-name="Oval Copy 84" cx="5.2" cy="5.2" r="5.2" transform="translate(103.2 137.6)" fill="#f0e6f9"/>
    <circle id="Oval_Copy_83" data-name="Oval Copy 83" cx="5.2" cy="5.2" r="5.2" transform="translate(68.8 137.6)" fill="#f0e6f9"/>
    <circle id="Oval_Copy_82" data-name="Oval Copy 82" cx="5.2" cy="5.2" r="5.2" transform="translate(34.4 137.6)" fill="#f0e6f9"/>
    <circle id="Oval_Copy_81" data-name="Oval Copy 81" cx="5.2" cy="5.2" r="5.2" transform="translate(0 137.6)" fill="#f0e6f9"/>
    <circle id="Oval_Copy_74" data-name="Oval Copy 74" cx="5.2" cy="5.2" r="5.2" transform="translate(206.4 103.2)" fill="#f0e6f9"/>
    <circle id="Oval_Copy_73" data-name="Oval Copy 73" cx="5.2" cy="5.2" r="5.2" transform="translate(172 103.2)" fill="#f0e6f9"/>
    <circle id="Oval_Copy_72" data-name="Oval Copy 72" cx="5.2" cy="5.2" r="5.2" transform="translate(137.6 103.2)" fill="#f0e6f9"/>
    <circle id="Oval_Copy_71" data-name="Oval Copy 71" cx="5.2" cy="5.2" r="5.2" transform="translate(103.2 103.2)" fill="#f0e6f9"/>
    <circle id="Oval_Copy_70" data-name="Oval Copy 70" cx="5.2" cy="5.2" r="5.2" transform="translate(68.8 103.2)" fill="#f0e6f9"/>
    <circle id="Oval_Copy_69" data-name="Oval Copy 69" cx="5.2" cy="5.2" r="5.2" transform="translate(34.4 103.2)" fill="#f0e6f9"/>
    <circle id="Oval_Copy_68" data-name="Oval Copy 68" cx="5.2" cy="5.2" r="5.2" transform="translate(0 103.2)" fill="#f0e6f9"/>
    <circle id="Oval_Copy_61" data-name="Oval Copy 61" cx="5.2" cy="5.2" r="5.2" transform="translate(206.4 68.8)" fill="#f0e6f9"/>
    <circle id="Oval_Copy_60" data-name="Oval Copy 60" cx="5.2" cy="5.2" r="5.2" transform="translate(172 68.8)" fill="#f0e6f9"/>
    <circle id="Oval_Copy_59" data-name="Oval Copy 59" cx="5.2" cy="5.2" r="5.2" transform="translate(137.6 68.8)" fill="#f0e6f9"/>
    <circle id="Oval_Copy_58" data-name="Oval Copy 58" cx="5.2" cy="5.2" r="5.2" transform="translate(103.2 68.8)" fill="#f0e6f9"/>
    <circle id="Oval_Copy_57" data-name="Oval Copy 57" cx="5.2" cy="5.2" r="5.2" transform="translate(68.8 68.8)" fill="#f0e6f9"/>
    <circle id="Oval_Copy_56" data-name="Oval Copy 56" cx="5.2" cy="5.2" r="5.2" transform="translate(34.4 68.8)" fill="#f0e6f9"/>
    <circle id="Oval_Copy_55" data-name="Oval Copy 55" cx="5.2" cy="5.2" r="5.2" transform="translate(0 68.8)" fill="#f0e6f9"/>
    <circle id="Oval_Copy_48" data-name="Oval Copy 48" cx="5.2" cy="5.2" r="5.2" transform="translate(206.4 34.4)" fill="#f0e6f9"/>
    <circle id="Oval_Copy_47" data-name="Oval Copy 47" cx="5.2" cy="5.2" r="5.2" transform="translate(172 34.4)" fill="#f0e6f9"/>
    <circle id="Oval_Copy_46" data-name="Oval Copy 46" cx="5.2" cy="5.2" r="5.2" transform="translate(137.6 34.4)" fill="#f0e6f9"/>
    <circle id="Oval_Copy_45" data-name="Oval Copy 45" cx="5.2" cy="5.2" r="5.2" transform="translate(103.2 34.4)" fill="#f0e6f9"/>
    <circle id="Oval_Copy_44" data-name="Oval Copy 44" cx="5.2" cy="5.2" r="5.2" transform="translate(68.8 34.4)" fill="#f0e6f9"/>
    <circle id="Oval_Copy_43" data-name="Oval Copy 43" cx="5.2" cy="5.2" r="5.2" transform="translate(34.4 34.4)" fill="#f0e6f9"/>
    <circle id="Oval_Copy_42" data-name="Oval Copy 42" cx="5.2" cy="5.2" r="5.2" transform="translate(0 34.4)" fill="#f0e6f9"/>
    <circle id="Oval_Copy_35" data-name="Oval Copy 35" cx="5.2" cy="5.2" r="5.2" transform="translate(206.4 0)" fill="#f0e6f9"/>
    <circle id="Oval_Copy_34" data-name="Oval Copy 34" cx="5.2" cy="5.2" r="5.2" transform="translate(172 0)" fill="#f0e6f9"/>
    <circle id="Oval_Copy_33" data-name="Oval Copy 33" cx="5.2" cy="5.2" r="5.2" transform="translate(137.6 0)" fill="#f0e6f9"/>
    <circle id="Oval_Copy_32" data-name="Oval Copy 32" cx="5.2" cy="5.2" r="5.2" transform="translate(103.2 0)" fill="#f0e6f9"/>
    <circle id="Oval_Copy_31" data-name="Oval Copy 31" cx="5.2" cy="5.2" r="5.2" transform="translate(68.8 0)" fill="#f0e6f9"/>
    <circle id="Oval_Copy_30" data-name="Oval Copy 30" cx="5.2" cy="5.2" r="5.2" transform="translate(34.4 0)" fill="#f0e6f9"/>
    <circle id="Oval_Copy_29" data-name="Oval Copy 29" cx="5.2" cy="5.2" r="5.2" transform="translate(0 0)" fill="#f0e6f9"/>
  </g>
</svg>
