<?xml version="1.0" encoding="utf-8"?>
<!-- Generator: Adobe Illustrator 24.1.1, SVG Export Plug-In . SVG Version: 6.00 Build 0)  -->
<svg version="1.1" xmlns="http://www.w3.org/2000/svg" xmlns:xlink="http://www.w3.org/1999/xlink" x="0px" y="0px"
	 viewBox="0 0 48 48" style="enable-background:new 0 0 48 48;" xml:space="preserve">
<style type="text/css">
	.st0{display:none;}
	.st1{display:inline;}
	.st2{fill:none;}
	.st3{fill:#5702AF;}
	.st4{fill:#6B3EFE;}
	.st5{fill:#00CCCC;}
	.st6{fill:#FF6813;}
</style>
<g id="Layer_1" class="st0">
	<g id="Main-Page" class="st1">
		<g id="_x30_2-1-2-Pricing" transform="translate(-364.000000, -3129.000000)">
			<g id="Additional-Functionality" transform="translate(364.000000, 3007.000000)">
				<g id="Geotargeting" transform="translate(0.000000, 122.000000)">
					<g id="Ico-1">
						<rect id="Rectangle" y="0" class="st2" width="48" height="48"/>
						<path id="_xE88E_" class="st3" d="M24,40c0.3,0,0.5-0.1,0.8-0.2l0,0l0.5-0.4c2-1.5,3.9-3.1,5.7-5c2-2.1,3.6-4.2,4.7-6.4
							s1.7-4.4,1.7-6.7c-0.1-3.8-1.4-6.9-3.9-9.4S27.8,8.1,24,8c-3.8,0.1-6.9,1.4-9.4,3.9s-3.8,5.6-3.9,9.4c0,2.3,0.6,4.5,1.7,6.7
							s2.7,4.3,4.7,6.4c1.8,1.8,3.6,3.5,5.7,5l0,0l0.5,0.4C23.5,39.9,23.7,40,24,40z M24,37c-1.8-1.3-3.5-2.8-5-4.4
							c-1.8-1.9-3.2-3.8-4.2-5.7s-1.5-3.8-1.5-5.6c0.1-3,1.1-5.5,3.1-7.5s4.5-3.1,7.5-3.1c3,0.1,5.5,1.1,7.5,3.1s3,4.5,3.1,7.5
							c0,1.8-0.5,3.7-1.5,5.6s-2.4,3.8-4.2,5.7c-1.3,1.3-2.6,2.5-4,3.6C24.7,36.5,24.3,36.8,24,37z M24,26.7c1.5,0,2.8-0.6,3.8-1.6
							s1.5-2.3,1.6-3.8c0-1.5-0.6-2.8-1.6-3.8S25.5,16,24,16c-1,0-1.8,0.2-2.7,0.7s-1.5,1.1-2,2s-0.7,1.7-0.7,2.7s0.2,1.8,0.7,2.7
							s1.1,1.5,2,2S23,26.7,24,26.7z M24,24c-0.8,0-1.4-0.3-1.9-0.8s-0.8-1.1-0.8-1.9s0.3-1.4,0.8-1.9s1.1-0.8,1.9-0.8
							s1.4,0.3,1.9,0.8s0.8,1.1,0.8,1.9s-0.3,1.4-0.8,1.9S24.8,24,24,24z"/>
					</g>
				</g>
			</g>
		</g>
	</g>
</g>
<g id="Layer_2">
	<g id="Layer_8">
		<path class="st4" d="M11.9,21.6L25.2,8.3C25.2,8.3,12.1,7.8,11.9,21.6z"/>
		<path class="st5" d="M14.5,29.2c1.2,2.9,2.4,3.8,2.4,3.8s18.3-18.3,18.3-18.3c-0.1,0.1-1.1-2.4-2.7-3.5
			C31.9,11.5,14.5,29.2,14.5,29.2z"/>
		<path class="st6" d="M24.1,40.5c1.3,0.7,10.6-8.9,12-17.2l-15,15C21.1,38.3,23.4,40.9,24.1,40.5z"/>
		<circle class="st5" cx="24.8" cy="22.1" r="4.4"/>
	</g>
</g>
</svg>
