<svg xmlns="http://www.w3.org/2000/svg" width="216.8" height="423.2" viewBox="0 0 216.8 423.2">
  <g id="Shape_-_12" data-name="Shape - 12" transform="translate(217.2) rotate(90)" opacity="0.2">
    <circle id="Oval_Copy_169" data-name="Oval Copy 169" cx="5.2" cy="5.2" r="5.2" transform="translate(412.8 206.8)" fill="#fff"/>
    <circle id="Oval_Copy_168" data-name="Oval Copy 168" cx="5.2" cy="5.2" r="5.2" transform="translate(378.4 206.8)" fill="#fff"/>
    <circle id="Oval_Copy_167" data-name="Oval Copy 167" cx="5.2" cy="5.2" r="5.2" transform="translate(344 206.8)" fill="#fff"/>
    <circle id="Oval_Copy_166" data-name="Oval Copy 166" cx="5.2" cy="5.2" r="5.2" transform="translate(309.6 206.8)" fill="#fff"/>
    <circle id="Oval_Copy_165" data-name="Oval Copy 165" cx="5.2" cy="5.2" r="5.2" transform="translate(275.2 206.8)" fill="#fff"/>
    <circle id="Oval_Copy_164" data-name="Oval Copy 164" cx="5.2" cy="5.2" r="5.2" transform="translate(240.8 206.8)" fill="#fff"/>
    <circle id="Oval_Copy_163" data-name="Oval Copy 163" cx="5.2" cy="5.2" r="5.2" transform="translate(206.4 206.8)" fill="#fff"/>
    <circle id="Oval_Copy_162" data-name="Oval Copy 162" cx="5.2" cy="5.2" r="5.2" transform="translate(172 206.8)" fill="#fff"/>
    <circle id="Oval_Copy_161" data-name="Oval Copy 161" cx="5.2" cy="5.2" r="5.2" transform="translate(137.6 206.8)" fill="#fff"/>
    <circle id="Oval_Copy_160" data-name="Oval Copy 160" cx="5.2" cy="5.2" r="5.2" transform="translate(103.2 206.8)" fill="#fff"/>
    <circle id="Oval_Copy_159" data-name="Oval Copy 159" cx="5.2" cy="5.2" r="5.2" transform="translate(68.8 206.8)" fill="#fff"/>
    <circle id="Oval_Copy_158" data-name="Oval Copy 158" cx="5.2" cy="5.2" r="5.2" transform="translate(34.4 206.8)" fill="#fff"/>
    <circle id="Oval_Copy_157" data-name="Oval Copy 157" cx="5.2" cy="5.2" r="5.2" transform="translate(0 206.8)" fill="#fff"/>
    <circle id="Oval_Copy_156" data-name="Oval Copy 156" cx="5.2" cy="5.2" r="5.2" transform="translate(412.8 172.4)" fill="#fff"/>
    <circle id="Oval_Copy_155" data-name="Oval Copy 155" cx="5.2" cy="5.2" r="5.2" transform="translate(378.4 172.4)" fill="#fff"/>
    <circle id="Oval_Copy_154" data-name="Oval Copy 154" cx="5.2" cy="5.2" r="5.2" transform="translate(344 172.4)" fill="#fff"/>
    <circle id="Oval_Copy_153" data-name="Oval Copy 153" cx="5.2" cy="5.2" r="5.2" transform="translate(309.6 172.4)" fill="#fff"/>
    <circle id="Oval_Copy_152" data-name="Oval Copy 152" cx="5.2" cy="5.2" r="5.2" transform="translate(275.2 172.4)" fill="#fff"/>
    <circle id="Oval_Copy_151" data-name="Oval Copy 151" cx="5.2" cy="5.2" r="5.2" transform="translate(240.8 172.4)" fill="#fff"/>
    <circle id="Oval_Copy_150" data-name="Oval Copy 150" cx="5.2" cy="5.2" r="5.2" transform="translate(206.4 172.4)" fill="#fff"/>
    <circle id="Oval_Copy_149" data-name="Oval Copy 149" cx="5.2" cy="5.2" r="5.2" transform="translate(172 172.4)" fill="#fff"/>
    <circle id="Oval_Copy_148" data-name="Oval Copy 148" cx="5.2" cy="5.2" r="5.2" transform="translate(137.6 172.4)" fill="#fff"/>
    <circle id="Oval_Copy_147" data-name="Oval Copy 147" cx="5.2" cy="5.2" r="5.2" transform="translate(103.2 172.4)" fill="#fff"/>
    <circle id="Oval_Copy_146" data-name="Oval Copy 146" cx="5.2" cy="5.2" r="5.2" transform="translate(68.8 172.4)" fill="#fff"/>
    <circle id="Oval_Copy_145" data-name="Oval Copy 145" cx="5.2" cy="5.2" r="5.2" transform="translate(34.4 172.4)" fill="#fff"/>
    <circle id="Oval_Copy_144" data-name="Oval Copy 144" cx="5.2" cy="5.2" r="5.2" transform="translate(0 172.4)" fill="#fff"/>
    <circle id="Oval_Copy_143" data-name="Oval Copy 143" cx="5.2" cy="5.2" r="5.2" transform="translate(412.8 138)" fill="#fff"/>
    <circle id="Oval_Copy_142" data-name="Oval Copy 142" cx="5.2" cy="5.2" r="5.2" transform="translate(378.4 138)" fill="#fff"/>
    <circle id="Oval_Copy_141" data-name="Oval Copy 141" cx="5.2" cy="5.2" r="5.2" transform="translate(344 138)" fill="#fff"/>
    <circle id="Oval_Copy_140" data-name="Oval Copy 140" cx="5.2" cy="5.2" r="5.2" transform="translate(309.6 138)" fill="#fff"/>
    <circle id="Oval_Copy_139" data-name="Oval Copy 139" cx="5.2" cy="5.2" r="5.2" transform="translate(275.2 138)" fill="#fff"/>
    <circle id="Oval_Copy_138" data-name="Oval Copy 138" cx="5.2" cy="5.2" r="5.2" transform="translate(240.8 138)" fill="#fff"/>
    <circle id="Oval_Copy_137" data-name="Oval Copy 137" cx="5.2" cy="5.2" r="5.2" transform="translate(206.4 138)" fill="#fff"/>
    <circle id="Oval_Copy_136" data-name="Oval Copy 136" cx="5.2" cy="5.2" r="5.2" transform="translate(172 138)" fill="#fff"/>
    <circle id="Oval_Copy_135" data-name="Oval Copy 135" cx="5.2" cy="5.2" r="5.2" transform="translate(137.6 138)" fill="#fff"/>
    <circle id="Oval_Copy_134" data-name="Oval Copy 134" cx="5.2" cy="5.2" r="5.2" transform="translate(103.2 138)" fill="#fff"/>
    <circle id="Oval_Copy_133" data-name="Oval Copy 133" cx="5.2" cy="5.2" r="5.2" transform="translate(68.8 138)" fill="#fff"/>
    <circle id="Oval_Copy_132" data-name="Oval Copy 132" cx="5.2" cy="5.2" r="5.2" transform="translate(34.4 138)" fill="#fff"/>
    <circle id="Oval_Copy_131" data-name="Oval Copy 131" cx="5.2" cy="5.2" r="5.2" transform="translate(0 138)" fill="#fff"/>
    <circle id="Oval_Copy_130" data-name="Oval Copy 130" cx="5.2" cy="5.2" r="5.2" transform="translate(412.8 103.6)" fill="#fff"/>
    <circle id="Oval_Copy_129" data-name="Oval Copy 129" cx="5.2" cy="5.2" r="5.2" transform="translate(378.4 103.6)" fill="#fff"/>
    <circle id="Oval_Copy_128" data-name="Oval Copy 128" cx="5.2" cy="5.2" r="5.2" transform="translate(344 103.6)" fill="#fff"/>
    <circle id="Oval_Copy_127" data-name="Oval Copy 127" cx="5.2" cy="5.2" r="5.2" transform="translate(309.6 103.6)" fill="#fff"/>
    <circle id="Oval_Copy_126" data-name="Oval Copy 126" cx="5.2" cy="5.2" r="5.2" transform="translate(275.2 103.6)" fill="#fff"/>
    <circle id="Oval_Copy_125" data-name="Oval Copy 125" cx="5.2" cy="5.2" r="5.2" transform="translate(240.8 103.6)" fill="#fff"/>
    <circle id="Oval_Copy_124" data-name="Oval Copy 124" cx="5.2" cy="5.2" r="5.2" transform="translate(206.4 103.6)" fill="#fff"/>
    <circle id="Oval_Copy_123" data-name="Oval Copy 123" cx="5.2" cy="5.2" r="5.2" transform="translate(172 103.6)" fill="#fff"/>
    <circle id="Oval_Copy_122" data-name="Oval Copy 122" cx="5.2" cy="5.2" r="5.2" transform="translate(137.6 103.6)" fill="#fff"/>
    <circle id="Oval_Copy_121" data-name="Oval Copy 121" cx="5.2" cy="5.2" r="5.2" transform="translate(103.2 103.6)" fill="#fff"/>
    <circle id="Oval_Copy_120" data-name="Oval Copy 120" cx="5.2" cy="5.2" r="5.2" transform="translate(68.8 103.6)" fill="#fff"/>
    <circle id="Oval_Copy_119" data-name="Oval Copy 119" cx="5.2" cy="5.2" r="5.2" transform="translate(34.4 103.6)" fill="#fff"/>
    <circle id="Oval_Copy_118" data-name="Oval Copy 118" cx="5.2" cy="5.2" r="5.2" transform="translate(0 103.6)" fill="#fff"/>
    <circle id="Oval_Copy_117" data-name="Oval Copy 117" cx="5.2" cy="5.2" r="5.2" transform="translate(412.8 69.2)" fill="#fff"/>
    <circle id="Oval_Copy_116" data-name="Oval Copy 116" cx="5.2" cy="5.2" r="5.2" transform="translate(378.4 69.2)" fill="#fff"/>
    <circle id="Oval_Copy_115" data-name="Oval Copy 115" cx="5.2" cy="5.2" r="5.2" transform="translate(344 69.2)" fill="#fff"/>
    <circle id="Oval_Copy_114" data-name="Oval Copy 114" cx="5.2" cy="5.2" r="5.2" transform="translate(309.6 69.2)" fill="#fff"/>
    <circle id="Oval_Copy_113" data-name="Oval Copy 113" cx="5.2" cy="5.2" r="5.2" transform="translate(275.2 69.2)" fill="#fff"/>
    <circle id="Oval_Copy_112" data-name="Oval Copy 112" cx="5.2" cy="5.2" r="5.2" transform="translate(240.8 69.2)" fill="#fff"/>
    <circle id="Oval_Copy_111" data-name="Oval Copy 111" cx="5.2" cy="5.2" r="5.2" transform="translate(206.4 69.2)" fill="#fff"/>
    <circle id="Oval_Copy_110" data-name="Oval Copy 110" cx="5.2" cy="5.2" r="5.2" transform="translate(172 69.2)" fill="#fff"/>
    <circle id="Oval_Copy_109" data-name="Oval Copy 109" cx="5.2" cy="5.2" r="5.2" transform="translate(137.6 69.2)" fill="#fff"/>
    <circle id="Oval_Copy_108" data-name="Oval Copy 108" cx="5.2" cy="5.2" r="5.2" transform="translate(103.2 69.2)" fill="#fff"/>
    <circle id="Oval_Copy_107" data-name="Oval Copy 107" cx="5.2" cy="5.2" r="5.2" transform="translate(68.8 69.2)" fill="#fff"/>
    <circle id="Oval_Copy_106" data-name="Oval Copy 106" cx="5.2" cy="5.2" r="5.2" transform="translate(34.4 69.2)" fill="#fff"/>
    <circle id="Oval_Copy_105" data-name="Oval Copy 105" cx="5.2" cy="5.2" r="5.2" transform="translate(0 69.2)" fill="#fff"/>
    <circle id="Oval_Copy_104" data-name="Oval Copy 104" cx="5.2" cy="5.2" r="5.2" transform="translate(412.8 34.8)" fill="#fff"/>
    <circle id="Oval_Copy_103" data-name="Oval Copy 103" cx="5.2" cy="5.2" r="5.2" transform="translate(378.4 34.8)" fill="#fff"/>
    <circle id="Oval_Copy_102" data-name="Oval Copy 102" cx="5.2" cy="5.2" r="5.2" transform="translate(344 34.8)" fill="#fff"/>
    <circle id="Oval_Copy_101" data-name="Oval Copy 101" cx="5.2" cy="5.2" r="5.2" transform="translate(309.6 34.8)" fill="#fff"/>
    <circle id="Oval_Copy_100" data-name="Oval Copy 100" cx="5.2" cy="5.2" r="5.2" transform="translate(275.2 34.8)" fill="#fff"/>
    <circle id="Oval_Copy_99" data-name="Oval Copy 99" cx="5.2" cy="5.2" r="5.2" transform="translate(240.8 34.8)" fill="#fff"/>
    <circle id="Oval_Copy_98" data-name="Oval Copy 98" cx="5.2" cy="5.2" r="5.2" transform="translate(206.4 34.8)" fill="#fff"/>
    <circle id="Oval_Copy_97" data-name="Oval Copy 97" cx="5.2" cy="5.2" r="5.2" transform="translate(172 34.8)" fill="#fff"/>
    <circle id="Oval_Copy_96" data-name="Oval Copy 96" cx="5.2" cy="5.2" r="5.2" transform="translate(137.6 34.8)" fill="#fff"/>
    <circle id="Oval_Copy_95" data-name="Oval Copy 95" cx="5.2" cy="5.2" r="5.2" transform="translate(103.2 34.8)" fill="#fff"/>
    <circle id="Oval_Copy_94" data-name="Oval Copy 94" cx="5.2" cy="5.2" r="5.2" transform="translate(68.8 34.8)" fill="#fff"/>
    <circle id="Oval_Copy_93" data-name="Oval Copy 93" cx="5.2" cy="5.2" r="5.2" transform="translate(34.4 34.8)" fill="#fff"/>
    <circle id="Oval_Copy_92" data-name="Oval Copy 92" cx="5.2" cy="5.2" r="5.2" transform="translate(0 34.8)" fill="#fff"/>
    <circle id="Oval_Copy_91" data-name="Oval Copy 91" cx="5.2" cy="5.2" r="5.2" transform="translate(412.8 0.4)" fill="#fff"/>
    <circle id="Oval_Copy_90" data-name="Oval Copy 90" cx="5.2" cy="5.2" r="5.2" transform="translate(378.4 0.4)" fill="#fff"/>
    <circle id="Oval_Copy_89" data-name="Oval Copy 89" cx="5.2" cy="5.2" r="5.2" transform="translate(344 0.4)" fill="#fff"/>
    <circle id="Oval_Copy_88" data-name="Oval Copy 88" cx="5.2" cy="5.2" r="5.2" transform="translate(309.6 0.4)" fill="#fff"/>
    <circle id="Oval_Copy_87" data-name="Oval Copy 87" cx="5.2" cy="5.2" r="5.2" transform="translate(275.2 0.4)" fill="#fff"/>
    <circle id="Oval_Copy_86" data-name="Oval Copy 86" cx="5.2" cy="5.2" r="5.2" transform="translate(240.8 0.4)" fill="#fff"/>
    <circle id="Oval_Copy_85" data-name="Oval Copy 85" cx="5.2" cy="5.2" r="5.2" transform="translate(206.4 0.4)" fill="#fff"/>
    <circle id="Oval_Copy_84" data-name="Oval Copy 84" cx="5.2" cy="5.2" r="5.2" transform="translate(172 0.4)" fill="#fff"/>
    <circle id="Oval_Copy_83" data-name="Oval Copy 83" cx="5.2" cy="5.2" r="5.2" transform="translate(137.6 0.4)" fill="#fff"/>
    <circle id="Oval_Copy_82" data-name="Oval Copy 82" cx="5.2" cy="5.2" r="5.2" transform="translate(103.2 0.4)" fill="#fff"/>
    <circle id="Oval_Copy_81" data-name="Oval Copy 81" cx="5.2" cy="5.2" r="5.2" transform="translate(68.8 0.4)" fill="#fff"/>
    <circle id="Oval_Copy_80" data-name="Oval Copy 80" cx="5.2" cy="5.2" r="5.2" transform="translate(34.4 0.4)" fill="#fff"/>
    <circle id="Oval_Copy_79" data-name="Oval Copy 79" cx="5.2" cy="5.2" r="5.2" transform="translate(0 0.4)" fill="#fff"/>
  </g>
</svg>
