<svg xmlns="http://www.w3.org/2000/svg" width="354.4" height="665.8" viewBox="0 0 354.4 665.8">
  <g id="Shape_1" data-name="Shape 1" opacity="0.15">
    <circle id="Oval_Copy_167" data-name="Oval Copy 167" cx="5.2" cy="5.2" r="5.2" transform="translate(344 655.4)" fill="#fff"/>
    <circle id="Oval_Copy_166" data-name="Oval Copy 166" cx="5.2" cy="5.2" r="5.2" transform="translate(309.6 655.4)" fill="#fff"/>
    <circle id="Oval_Copy_165" data-name="Oval Copy 165" cx="5.2" cy="5.2" r="5.2" transform="translate(275.2 655.4)" fill="#fff"/>
    <circle id="Oval_Copy_164" data-name="Oval Copy 164" cx="5.2" cy="5.2" r="5.2" transform="translate(240.8 655.4)" fill="#fff"/>
    <circle id="Oval_Copy_163" data-name="Oval Copy 163" cx="5.2" cy="5.2" r="5.2" transform="translate(206.4 655.4)" fill="#fff"/>
    <circle id="Oval_Copy_162" data-name="Oval Copy 162" cx="5.2" cy="5.2" r="5.2" transform="translate(172 655.4)" fill="#fff"/>
    <circle id="Oval_Copy_161" data-name="Oval Copy 161" cx="5.2" cy="5.2" r="5.2" transform="translate(137.6 655.4)" fill="#fff"/>
    <circle id="Oval_Copy_160" data-name="Oval Copy 160" cx="5.2" cy="5.2" r="5.2" transform="translate(103.2 655.4)" fill="#fff"/>
    <circle id="Oval_Copy_159" data-name="Oval Copy 159" cx="5.2" cy="5.2" r="5.2" transform="translate(68.8 655.4)" fill="#fff"/>
    <circle id="Oval_Copy_158" data-name="Oval Copy 158" cx="5.2" cy="5.2" r="5.2" transform="translate(34.4 655.4)" fill="#fff"/>
    <circle id="Oval_Copy_157" data-name="Oval Copy 157" cx="5.2" cy="5.2" r="5.2" transform="translate(0 655.4)" fill="#fff"/>
    <circle id="Oval_Copy_154" data-name="Oval Copy 154" cx="5.2" cy="5.2" r="5.2" transform="translate(344 621)" fill="#fff"/>
    <circle id="Oval_Copy_153" data-name="Oval Copy 153" cx="5.2" cy="5.2" r="5.2" transform="translate(309.6 621)" fill="#fff"/>
    <circle id="Oval_Copy_152" data-name="Oval Copy 152" cx="5.2" cy="5.2" r="5.2" transform="translate(275.2 621)" fill="#fff"/>
    <circle id="Oval_Copy_151" data-name="Oval Copy 151" cx="5.2" cy="5.2" r="5.2" transform="translate(240.8 621)" fill="#fff"/>
    <circle id="Oval_Copy_150" data-name="Oval Copy 150" cx="5.2" cy="5.2" r="5.2" transform="translate(206.4 621)" fill="#fff"/>
    <circle id="Oval_Copy_149" data-name="Oval Copy 149" cx="5.2" cy="5.2" r="5.2" transform="translate(172 621)" fill="#fff"/>
    <circle id="Oval_Copy_148" data-name="Oval Copy 148" cx="5.2" cy="5.2" r="5.2" transform="translate(137.6 621)" fill="#fff"/>
    <circle id="Oval_Copy_147" data-name="Oval Copy 147" cx="5.2" cy="5.2" r="5.2" transform="translate(103.2 621)" fill="#fff"/>
    <circle id="Oval_Copy_146" data-name="Oval Copy 146" cx="5.2" cy="5.2" r="5.2" transform="translate(68.8 621)" fill="#fff"/>
    <circle id="Oval_Copy_145" data-name="Oval Copy 145" cx="5.2" cy="5.2" r="5.2" transform="translate(34.4 621)" fill="#fff"/>
    <circle id="Oval_Copy_144" data-name="Oval Copy 144" cx="5.2" cy="5.2" r="5.2" transform="translate(0 621)" fill="#fff"/>
    <circle id="Oval_Copy_141" data-name="Oval Copy 141" cx="5.2" cy="5.2" r="5.2" transform="translate(344 586.6)" fill="#fff"/>
    <circle id="Oval_Copy_140" data-name="Oval Copy 140" cx="5.2" cy="5.2" r="5.2" transform="translate(309.6 586.6)" fill="#fff"/>
    <circle id="Oval_Copy_139" data-name="Oval Copy 139" cx="5.2" cy="5.2" r="5.2" transform="translate(275.2 586.6)" fill="#fff"/>
    <circle id="Oval_Copy_138" data-name="Oval Copy 138" cx="5.2" cy="5.2" r="5.2" transform="translate(240.8 586.6)" fill="#fff"/>
    <circle id="Oval_Copy_137" data-name="Oval Copy 137" cx="5.2" cy="5.2" r="5.2" transform="translate(206.4 586.6)" fill="#fff"/>
    <circle id="Oval_Copy_136" data-name="Oval Copy 136" cx="5.2" cy="5.2" r="5.2" transform="translate(172 586.6)" fill="#fff"/>
    <circle id="Oval_Copy_135" data-name="Oval Copy 135" cx="5.2" cy="5.2" r="5.2" transform="translate(137.6 586.6)" fill="#fff"/>
    <circle id="Oval_Copy_134" data-name="Oval Copy 134" cx="5.2" cy="5.2" r="5.2" transform="translate(103.2 586.6)" fill="#fff"/>
    <circle id="Oval_Copy_133" data-name="Oval Copy 133" cx="5.2" cy="5.2" r="5.2" transform="translate(68.8 586.6)" fill="#fff"/>
    <circle id="Oval_Copy_132" data-name="Oval Copy 132" cx="5.2" cy="5.2" r="5.2" transform="translate(34.4 586.6)" fill="#fff"/>
    <circle id="Oval_Copy_131" data-name="Oval Copy 131" cx="5.2" cy="5.2" r="5.2" transform="translate(0 586.6)" fill="#fff"/>
    <circle id="Oval_Copy_128" data-name="Oval Copy 128" cx="5.2" cy="5.2" r="5.2" transform="translate(344 552.2)" fill="#fff"/>
    <circle id="Oval_Copy_127" data-name="Oval Copy 127" cx="5.2" cy="5.2" r="5.2" transform="translate(309.6 552.2)" fill="#fff"/>
    <circle id="Oval_Copy_126" data-name="Oval Copy 126" cx="5.2" cy="5.2" r="5.2" transform="translate(275.2 552.2)" fill="#fff"/>
    <circle id="Oval_Copy_125" data-name="Oval Copy 125" cx="5.2" cy="5.2" r="5.2" transform="translate(240.8 552.2)" fill="#fff"/>
    <circle id="Oval_Copy_124" data-name="Oval Copy 124" cx="5.2" cy="5.2" r="5.2" transform="translate(206.4 552.2)" fill="#fff"/>
    <circle id="Oval_Copy_123" data-name="Oval Copy 123" cx="5.2" cy="5.2" r="5.2" transform="translate(172 552.2)" fill="#fff"/>
    <circle id="Oval_Copy_122" data-name="Oval Copy 122" cx="5.2" cy="5.2" r="5.2" transform="translate(137.6 552.2)" fill="#fff"/>
    <circle id="Oval_Copy_121" data-name="Oval Copy 121" cx="5.2" cy="5.2" r="5.2" transform="translate(103.2 552.2)" fill="#fff"/>
    <circle id="Oval_Copy_120" data-name="Oval Copy 120" cx="5.2" cy="5.2" r="5.2" transform="translate(68.8 552.2)" fill="#fff"/>
    <circle id="Oval_Copy_119" data-name="Oval Copy 119" cx="5.2" cy="5.2" r="5.2" transform="translate(34.4 552.2)" fill="#fff"/>
    <circle id="Oval_Copy_118" data-name="Oval Copy 118" cx="5.2" cy="5.2" r="5.2" transform="translate(0 552.2)" fill="#fff"/>
    <circle id="Oval_Copy_115" data-name="Oval Copy 115" cx="5.2" cy="5.2" r="5.2" transform="translate(344 517.8)" fill="#fff"/>
    <circle id="Oval_Copy_114" data-name="Oval Copy 114" cx="5.2" cy="5.2" r="5.2" transform="translate(309.6 517.8)" fill="#fff"/>
    <circle id="Oval_Copy_113" data-name="Oval Copy 113" cx="5.2" cy="5.2" r="5.2" transform="translate(275.2 517.8)" fill="#fff"/>
    <circle id="Oval_Copy_112" data-name="Oval Copy 112" cx="5.2" cy="5.2" r="5.2" transform="translate(240.8 517.8)" fill="#fff"/>
    <circle id="Oval_Copy_111" data-name="Oval Copy 111" cx="5.2" cy="5.2" r="5.2" transform="translate(206.4 517.8)" fill="#fff"/>
    <circle id="Oval_Copy_110" data-name="Oval Copy 110" cx="5.2" cy="5.2" r="5.2" transform="translate(172 517.8)" fill="#fff"/>
    <circle id="Oval_Copy_109" data-name="Oval Copy 109" cx="5.2" cy="5.2" r="5.2" transform="translate(137.6 517.8)" fill="#fff"/>
    <circle id="Oval_Copy_108" data-name="Oval Copy 108" cx="5.2" cy="5.2" r="5.2" transform="translate(103.2 517.8)" fill="#fff"/>
    <circle id="Oval_Copy_107" data-name="Oval Copy 107" cx="5.2" cy="5.2" r="5.2" transform="translate(68.8 517.8)" fill="#fff"/>
    <circle id="Oval_Copy_106" data-name="Oval Copy 106" cx="5.2" cy="5.2" r="5.2" transform="translate(34.4 517.8)" fill="#fff"/>
    <circle id="Oval_Copy_105" data-name="Oval Copy 105" cx="5.2" cy="5.2" r="5.2" transform="translate(0 517.8)" fill="#fff"/>
    <circle id="Oval_Copy_102" data-name="Oval Copy 102" cx="5.2" cy="5.2" r="5.2" transform="translate(344 483.4)" fill="#fff"/>
    <circle id="Oval_Copy_101" data-name="Oval Copy 101" cx="5.2" cy="5.2" r="5.2" transform="translate(309.6 483.4)" fill="#fff"/>
    <circle id="Oval_Copy_100" data-name="Oval Copy 100" cx="5.2" cy="5.2" r="5.2" transform="translate(275.2 483.4)" fill="#fff"/>
    <circle id="Oval_Copy_99" data-name="Oval Copy 99" cx="5.2" cy="5.2" r="5.2" transform="translate(240.8 483.4)" fill="#fff"/>
    <circle id="Oval_Copy_98" data-name="Oval Copy 98" cx="5.2" cy="5.2" r="5.2" transform="translate(206.4 483.4)" fill="#fff"/>
    <circle id="Oval_Copy_97" data-name="Oval Copy 97" cx="5.2" cy="5.2" r="5.2" transform="translate(172 483.4)" fill="#fff"/>
    <circle id="Oval_Copy_96" data-name="Oval Copy 96" cx="5.2" cy="5.2" r="5.2" transform="translate(137.6 483.4)" fill="#fff"/>
    <circle id="Oval_Copy_95" data-name="Oval Copy 95" cx="5.2" cy="5.2" r="5.2" transform="translate(103.2 483.4)" fill="#fff"/>
    <circle id="Oval_Copy_94" data-name="Oval Copy 94" cx="5.2" cy="5.2" r="5.2" transform="translate(68.8 483.4)" fill="#fff"/>
    <circle id="Oval_Copy_93" data-name="Oval Copy 93" cx="5.2" cy="5.2" r="5.2" transform="translate(34.4 483.4)" fill="#fff"/>
    <circle id="Oval_Copy_92" data-name="Oval Copy 92" cx="5.2" cy="5.2" r="5.2" transform="translate(0 483.4)" fill="#fff"/>
    <circle id="Oval_Copy_89" data-name="Oval Copy 89" cx="5.2" cy="5.2" r="5.2" transform="translate(344 449)" fill="#fff"/>
    <circle id="Oval_Copy_88" data-name="Oval Copy 88" cx="5.2" cy="5.2" r="5.2" transform="translate(309.6 449)" fill="#fff"/>
    <circle id="Oval_Copy_87" data-name="Oval Copy 87" cx="5.2" cy="5.2" r="5.2" transform="translate(275.2 449)" fill="#fff"/>
    <circle id="Oval_Copy_86" data-name="Oval Copy 86" cx="5.2" cy="5.2" r="5.2" transform="translate(240.8 449)" fill="#fff"/>
    <circle id="Oval_Copy_85" data-name="Oval Copy 85" cx="5.2" cy="5.2" r="5.2" transform="translate(206.4 449)" fill="#fff"/>
    <circle id="Oval_Copy_84" data-name="Oval Copy 84" cx="5.2" cy="5.2" r="5.2" transform="translate(172 449)" fill="#fff"/>
    <circle id="Oval_Copy_83" data-name="Oval Copy 83" cx="5.2" cy="5.2" r="5.2" transform="translate(137.6 449)" fill="#fff"/>
    <circle id="Oval_Copy_82" data-name="Oval Copy 82" cx="5.2" cy="5.2" r="5.2" transform="translate(103.2 449)" fill="#fff"/>
    <circle id="Oval_Copy_81" data-name="Oval Copy 81" cx="5.2" cy="5.2" r="5.2" transform="translate(68.8 449)" fill="#fff"/>
    <circle id="Oval_Copy_80" data-name="Oval Copy 80" cx="5.2" cy="5.2" r="5.2" transform="translate(34.4 449)" fill="#fff"/>
    <circle id="Oval_Copy_79" data-name="Oval Copy 79" cx="5.2" cy="5.2" r="5.2" transform="translate(0 449)" fill="#fff"/>
    <circle id="Oval_Copy_76" data-name="Oval Copy 76" cx="5.2" cy="5.2" r="5.2" transform="translate(344 414.6)" fill="#fff"/>
    <circle id="Oval_Copy_75" data-name="Oval Copy 75" cx="5.2" cy="5.2" r="5.2" transform="translate(309.6 414.6)" fill="#fff"/>
    <circle id="Oval_Copy_74" data-name="Oval Copy 74" cx="5.2" cy="5.2" r="5.2" transform="translate(275.2 414.6)" fill="#fff"/>
    <circle id="Oval_Copy_73" data-name="Oval Copy 73" cx="5.2" cy="5.2" r="5.2" transform="translate(240.8 414.6)" fill="#fff"/>
    <circle id="Oval_Copy_72" data-name="Oval Copy 72" cx="5.2" cy="5.2" r="5.2" transform="translate(206.4 414.6)" fill="#fff"/>
    <circle id="Oval_Copy_71" data-name="Oval Copy 71" cx="5.2" cy="5.2" r="5.2" transform="translate(172 414.6)" fill="#fff"/>
    <circle id="Oval_Copy_70" data-name="Oval Copy 70" cx="5.2" cy="5.2" r="5.2" transform="translate(137.6 414.6)" fill="#fff"/>
    <circle id="Oval_Copy_69" data-name="Oval Copy 69" cx="5.2" cy="5.2" r="5.2" transform="translate(103.2 414.6)" fill="#fff"/>
    <circle id="Oval_Copy_68" data-name="Oval Copy 68" cx="5.2" cy="5.2" r="5.2" transform="translate(68.8 414.6)" fill="#fff"/>
    <circle id="Oval_Copy_67" data-name="Oval Copy 67" cx="5.2" cy="5.2" r="5.2" transform="translate(34.4 414.6)" fill="#fff"/>
    <circle id="Oval_Copy_66" data-name="Oval Copy 66" cx="5.2" cy="5.2" r="5.2" transform="translate(0 414.6)" fill="#fff"/>
    <circle id="Oval_Copy_63" data-name="Oval Copy 63" cx="5.2" cy="5.2" r="5.2" transform="translate(344 380.2)" fill="#fff"/>
    <circle id="Oval_Copy_62" data-name="Oval Copy 62" cx="5.2" cy="5.2" r="5.2" transform="translate(309.6 380.2)" fill="#fff"/>
    <circle id="Oval_Copy_61" data-name="Oval Copy 61" cx="5.2" cy="5.2" r="5.2" transform="translate(275.2 380.2)" fill="#fff"/>
    <circle id="Oval_Copy_60" data-name="Oval Copy 60" cx="5.2" cy="5.2" r="5.2" transform="translate(240.8 380.2)" fill="#fff"/>
    <circle id="Oval_Copy_59" data-name="Oval Copy 59" cx="5.2" cy="5.2" r="5.2" transform="translate(206.4 380.2)" fill="#fff"/>
    <circle id="Oval_Copy_58" data-name="Oval Copy 58" cx="5.2" cy="5.2" r="5.2" transform="translate(172 380.2)" fill="#fff"/>
    <circle id="Oval_Copy_57" data-name="Oval Copy 57" cx="5.2" cy="5.2" r="5.2" transform="translate(137.6 380.2)" fill="#fff"/>
    <circle id="Oval_Copy_56" data-name="Oval Copy 56" cx="5.2" cy="5.2" r="5.2" transform="translate(103.2 380.2)" fill="#fff"/>
    <circle id="Oval_Copy_55" data-name="Oval Copy 55" cx="5.2" cy="5.2" r="5.2" transform="translate(68.8 380.2)" fill="#fff"/>
    <circle id="Oval_Copy_54" data-name="Oval Copy 54" cx="5.2" cy="5.2" r="5.2" transform="translate(34.4 380.2)" fill="#fff"/>
    <circle id="Oval_Copy_53" data-name="Oval Copy 53" cx="5.2" cy="5.2" r="5.2" transform="translate(0 380.2)" fill="#fff"/>
    <circle id="Oval_Copy_50" data-name="Oval Copy 50" cx="5.2" cy="5.2" r="5.2" transform="translate(344 345.8)" fill="#fff"/>
    <circle id="Oval_Copy_49" data-name="Oval Copy 49" cx="5.2" cy="5.2" r="5.2" transform="translate(309.6 345.8)" fill="#fff"/>
    <circle id="Oval_Copy_48" data-name="Oval Copy 48" cx="5.2" cy="5.2" r="5.2" transform="translate(275.2 345.8)" fill="#fff"/>
    <circle id="Oval_Copy_47" data-name="Oval Copy 47" cx="5.2" cy="5.2" r="5.2" transform="translate(240.8 345.8)" fill="#fff"/>
    <circle id="Oval_Copy_46" data-name="Oval Copy 46" cx="5.2" cy="5.2" r="5.2" transform="translate(206.4 345.8)" fill="#fff"/>
    <circle id="Oval_Copy_45" data-name="Oval Copy 45" cx="5.2" cy="5.2" r="5.2" transform="translate(172 345.8)" fill="#fff"/>
    <circle id="Oval_Copy_44" data-name="Oval Copy 44" cx="5.2" cy="5.2" r="5.2" transform="translate(137.6 345.8)" fill="#fff"/>
    <circle id="Oval_Copy_43" data-name="Oval Copy 43" cx="5.2" cy="5.2" r="5.2" transform="translate(103.2 345.8)" fill="#fff"/>
    <circle id="Oval_Copy_42" data-name="Oval Copy 42" cx="5.2" cy="5.2" r="5.2" transform="translate(68.8 345.8)" fill="#fff"/>
    <circle id="Oval_Copy_41" data-name="Oval Copy 41" cx="5.2" cy="5.2" r="5.2" transform="translate(34.4 345.8)" fill="#fff"/>
    <circle id="Oval_Copy_40" data-name="Oval Copy 40" cx="5.2" cy="5.2" r="5.2" transform="translate(0 345.8)" fill="#fff"/>
    <circle id="Oval_Copy_37" data-name="Oval Copy 37" cx="5.2" cy="5.2" r="5.2" transform="translate(344 311.4)" fill="#fff"/>
    <circle id="Oval_Copy_36" data-name="Oval Copy 36" cx="5.2" cy="5.2" r="5.2" transform="translate(309.6 311.4)" fill="#fff"/>
    <circle id="Oval_Copy_35" data-name="Oval Copy 35" cx="5.2" cy="5.2" r="5.2" transform="translate(275.2 311.4)" fill="#fff"/>
    <circle id="Oval_Copy_34" data-name="Oval Copy 34" cx="5.2" cy="5.2" r="5.2" transform="translate(240.8 311.4)" fill="#fff"/>
    <circle id="Oval_Copy_33" data-name="Oval Copy 33" cx="5.2" cy="5.2" r="5.2" transform="translate(206.4 311.4)" fill="#fff"/>
    <circle id="Oval_Copy_32" data-name="Oval Copy 32" cx="5.2" cy="5.2" r="5.2" transform="translate(172 311.4)" fill="#fff"/>
    <circle id="Oval_Copy_31" data-name="Oval Copy 31" cx="5.2" cy="5.2" r="5.2" transform="translate(137.6 311.4)" fill="#fff"/>
    <circle id="Oval_Copy_30" data-name="Oval Copy 30" cx="5.2" cy="5.2" r="5.2" transform="translate(103.2 311.4)" fill="#fff"/>
    <circle id="Oval_Copy_29" data-name="Oval Copy 29" cx="5.2" cy="5.2" r="5.2" transform="translate(68.8 311.4)" fill="#fff"/>
    <circle id="Oval_Copy_28" data-name="Oval Copy 28" cx="5.2" cy="5.2" r="5.2" transform="translate(34.4 311.4)" fill="#fff"/>
    <circle id="Oval_Copy_27" data-name="Oval Copy 27" cx="5.2" cy="5.2" r="5.2" transform="translate(0 311.4)" fill="#fff"/>
    <circle id="Oval_Copy_24" data-name="Oval Copy 24" cx="5.2" cy="5.2" r="5.2" transform="translate(344 277)" fill="#fff"/>
    <circle id="Oval_Copy_23" data-name="Oval Copy 23" cx="5.2" cy="5.2" r="5.2" transform="translate(309.6 277)" fill="#fff"/>
    <circle id="Oval_Copy_22" data-name="Oval Copy 22" cx="5.2" cy="5.2" r="5.2" transform="translate(275.2 277)" fill="#fff"/>
    <circle id="Oval_Copy_21" data-name="Oval Copy 21" cx="5.2" cy="5.2" r="5.2" transform="translate(240.8 277)" fill="#fff"/>
    <circle id="Oval_Copy_20" data-name="Oval Copy 20" cx="5.2" cy="5.2" r="5.2" transform="translate(206.4 277)" fill="#fff"/>
    <circle id="Oval_Copy_19" data-name="Oval Copy 19" cx="5.2" cy="5.2" r="5.2" transform="translate(172 277)" fill="#fff"/>
    <circle id="Oval_Copy_18" data-name="Oval Copy 18" cx="5.2" cy="5.2" r="5.2" transform="translate(137.6 277)" fill="#fff"/>
    <circle id="Oval_Copy_17" data-name="Oval Copy 17" cx="5.2" cy="5.2" r="5.2" transform="translate(103.2 277)" fill="#fff"/>
    <circle id="Oval_Copy_16" data-name="Oval Copy 16" cx="5.2" cy="5.2" r="5.2" transform="translate(68.8 277)" fill="#fff"/>
    <circle id="Oval_Copy_15" data-name="Oval Copy 15" cx="5.2" cy="5.2" r="5.2" transform="translate(34.4 277)" fill="#fff"/>
    <circle id="Oval_Copy_14" data-name="Oval Copy 14" cx="5.2" cy="5.2" r="5.2" transform="translate(0 277)" fill="#fff"/>
    <circle id="Oval_Copy_11" data-name="Oval Copy 11" cx="5.2" cy="5.2" r="5.2" transform="translate(344 242.6)" fill="#fff"/>
    <circle id="Oval_Copy_10" data-name="Oval Copy 10" cx="5.2" cy="5.2" r="5.2" transform="translate(309.6 242.6)" fill="#fff"/>
    <circle id="Oval_Copy_9" data-name="Oval Copy 9" cx="5.2" cy="5.2" r="5.2" transform="translate(275.2 242.6)" fill="#fff"/>
    <circle id="Oval_Copy_8" data-name="Oval Copy 8" cx="5.2" cy="5.2" r="5.2" transform="translate(240.8 242.6)" fill="#fff"/>
    <circle id="Oval_Copy_7" data-name="Oval Copy 7" cx="5.2" cy="5.2" r="5.2" transform="translate(206.4 242.6)" fill="#fff"/>
    <circle id="Oval_Copy_6" data-name="Oval Copy 6" cx="5.2" cy="5.2" r="5.2" transform="translate(172 242.6)" fill="#fff"/>
    <circle id="Oval_Copy_5" data-name="Oval Copy 5" cx="5.2" cy="5.2" r="5.2" transform="translate(137.6 242.6)" fill="#fff"/>
    <circle id="Oval_Copy_4" data-name="Oval Copy 4" cx="5.2" cy="5.2" r="5.2" transform="translate(103.2 242.6)" fill="#fff"/>
    <circle id="Oval_Copy_3" data-name="Oval Copy 3" cx="5.2" cy="5.2" r="5.2" transform="translate(68.8 242.6)" fill="#fff"/>
    <circle id="Oval_Copy_2" data-name="Oval Copy 2" cx="5.2" cy="5.2" r="5.2" transform="translate(34.4 242.6)" fill="#fff"/>
    <circle id="Oval_Copy" data-name="Oval Copy" cx="5.2" cy="5.2" r="5.2" transform="translate(0 242.6)" fill="#fff"/>
    <circle id="Oval_Copy_167-2" data-name="Oval Copy 167" cx="5.2" cy="5.2" r="5.2" transform="translate(344 206.4)" fill="#fff"/>
    <circle id="Oval_Copy_166-2" data-name="Oval Copy 166" cx="5.2" cy="5.2" r="5.2" transform="translate(309.6 206.4)" fill="#fff"/>
    <circle id="Oval_Copy_165-2" data-name="Oval Copy 165" cx="5.2" cy="5.2" r="5.2" transform="translate(275.2 206.4)" fill="#fff"/>
    <circle id="Oval_Copy_164-2" data-name="Oval Copy 164" cx="5.2" cy="5.2" r="5.2" transform="translate(240.8 206.4)" fill="#fff"/>
    <circle id="Oval_Copy_163-2" data-name="Oval Copy 163" cx="5.2" cy="5.2" r="5.2" transform="translate(206.4 206.4)" fill="#fff"/>
    <circle id="Oval_Copy_162-2" data-name="Oval Copy 162" cx="5.2" cy="5.2" r="5.2" transform="translate(172 206.4)" fill="#fff"/>
    <circle id="Oval_Copy_161-2" data-name="Oval Copy 161" cx="5.2" cy="5.2" r="5.2" transform="translate(137.6 206.4)" fill="#fff"/>
    <circle id="Oval_Copy_160-2" data-name="Oval Copy 160" cx="5.2" cy="5.2" r="5.2" transform="translate(103.2 206.4)" fill="#fff"/>
    <circle id="Oval_Copy_159-2" data-name="Oval Copy 159" cx="5.2" cy="5.2" r="5.2" transform="translate(68.8 206.4)" fill="#fff"/>
    <circle id="Oval_Copy_158-2" data-name="Oval Copy 158" cx="5.2" cy="5.2" r="5.2" transform="translate(34.4 206.4)" fill="#fff"/>
    <circle id="Oval_Copy_157-2" data-name="Oval Copy 157" cx="5.2" cy="5.2" r="5.2" transform="translate(0 206.4)" fill="#fff"/>
    <circle id="Oval_Copy_154-2" data-name="Oval Copy 154" cx="5.2" cy="5.2" r="5.2" transform="translate(344 172)" fill="#fff"/>
    <circle id="Oval_Copy_153-2" data-name="Oval Copy 153" cx="5.2" cy="5.2" r="5.2" transform="translate(309.6 172)" fill="#fff"/>
    <circle id="Oval_Copy_152-2" data-name="Oval Copy 152" cx="5.2" cy="5.2" r="5.2" transform="translate(275.2 172)" fill="#fff"/>
    <circle id="Oval_Copy_151-2" data-name="Oval Copy 151" cx="5.2" cy="5.2" r="5.2" transform="translate(240.8 172)" fill="#fff"/>
    <circle id="Oval_Copy_150-2" data-name="Oval Copy 150" cx="5.2" cy="5.2" r="5.2" transform="translate(206.4 172)" fill="#fff"/>
    <circle id="Oval_Copy_149-2" data-name="Oval Copy 149" cx="5.2" cy="5.2" r="5.2" transform="translate(172 172)" fill="#fff"/>
    <circle id="Oval_Copy_148-2" data-name="Oval Copy 148" cx="5.2" cy="5.2" r="5.2" transform="translate(137.6 172)" fill="#fff"/>
    <circle id="Oval_Copy_147-2" data-name="Oval Copy 147" cx="5.2" cy="5.2" r="5.2" transform="translate(103.2 172)" fill="#fff"/>
    <circle id="Oval_Copy_146-2" data-name="Oval Copy 146" cx="5.2" cy="5.2" r="5.2" transform="translate(68.8 172)" fill="#fff"/>
    <circle id="Oval_Copy_145-2" data-name="Oval Copy 145" cx="5.2" cy="5.2" r="5.2" transform="translate(34.4 172)" fill="#fff"/>
    <circle id="Oval_Copy_144-2" data-name="Oval Copy 144" cx="5.2" cy="5.2" r="5.2" transform="translate(0 172)" fill="#fff"/>
    <circle id="Oval_Copy_141-2" data-name="Oval Copy 141" cx="5.2" cy="5.2" r="5.2" transform="translate(344 137.6)" fill="#fff"/>
    <circle id="Oval_Copy_140-2" data-name="Oval Copy 140" cx="5.2" cy="5.2" r="5.2" transform="translate(309.6 137.6)" fill="#fff"/>
    <circle id="Oval_Copy_139-2" data-name="Oval Copy 139" cx="5.2" cy="5.2" r="5.2" transform="translate(275.2 137.6)" fill="#fff"/>
    <circle id="Oval_Copy_138-2" data-name="Oval Copy 138" cx="5.2" cy="5.2" r="5.2" transform="translate(240.8 137.6)" fill="#fff"/>
    <circle id="Oval_Copy_137-2" data-name="Oval Copy 137" cx="5.2" cy="5.2" r="5.2" transform="translate(206.4 137.6)" fill="#fff"/>
    <circle id="Oval_Copy_136-2" data-name="Oval Copy 136" cx="5.2" cy="5.2" r="5.2" transform="translate(172 137.6)" fill="#fff"/>
    <circle id="Oval_Copy_135-2" data-name="Oval Copy 135" cx="5.2" cy="5.2" r="5.2" transform="translate(137.6 137.6)" fill="#fff"/>
    <circle id="Oval_Copy_134-2" data-name="Oval Copy 134" cx="5.2" cy="5.2" r="5.2" transform="translate(103.2 137.6)" fill="#fff"/>
    <circle id="Oval_Copy_133-2" data-name="Oval Copy 133" cx="5.2" cy="5.2" r="5.2" transform="translate(68.8 137.6)" fill="#fff"/>
    <circle id="Oval_Copy_132-2" data-name="Oval Copy 132" cx="5.2" cy="5.2" r="5.2" transform="translate(34.4 137.6)" fill="#fff"/>
    <circle id="Oval_Copy_131-2" data-name="Oval Copy 131" cx="5.2" cy="5.2" r="5.2" transform="translate(0 137.6)" fill="#fff"/>
    <circle id="Oval_Copy_128-2" data-name="Oval Copy 128" cx="5.2" cy="5.2" r="5.2" transform="translate(344 103.2)" fill="#fff"/>
    <circle id="Oval_Copy_127-2" data-name="Oval Copy 127" cx="5.2" cy="5.2" r="5.2" transform="translate(309.6 103.2)" fill="#fff"/>
    <circle id="Oval_Copy_126-2" data-name="Oval Copy 126" cx="5.2" cy="5.2" r="5.2" transform="translate(275.2 103.2)" fill="#fff"/>
    <circle id="Oval_Copy_125-2" data-name="Oval Copy 125" cx="5.2" cy="5.2" r="5.2" transform="translate(240.8 103.2)" fill="#fff"/>
    <circle id="Oval_Copy_124-2" data-name="Oval Copy 124" cx="5.2" cy="5.2" r="5.2" transform="translate(206.4 103.2)" fill="#fff"/>
    <circle id="Oval_Copy_123-2" data-name="Oval Copy 123" cx="5.2" cy="5.2" r="5.2" transform="translate(172 103.2)" fill="#fff"/>
    <circle id="Oval_Copy_122-2" data-name="Oval Copy 122" cx="5.2" cy="5.2" r="5.2" transform="translate(137.6 103.2)" fill="#fff"/>
    <circle id="Oval_Copy_121-2" data-name="Oval Copy 121" cx="5.2" cy="5.2" r="5.2" transform="translate(103.2 103.2)" fill="#fff"/>
    <circle id="Oval_Copy_120-2" data-name="Oval Copy 120" cx="5.2" cy="5.2" r="5.2" transform="translate(68.8 103.2)" fill="#fff"/>
    <circle id="Oval_Copy_119-2" data-name="Oval Copy 119" cx="5.2" cy="5.2" r="5.2" transform="translate(34.4 103.2)" fill="#fff"/>
    <circle id="Oval_Copy_118-2" data-name="Oval Copy 118" cx="5.2" cy="5.2" r="5.2" transform="translate(0 103.2)" fill="#fff"/>
    <circle id="Oval_Copy_115-2" data-name="Oval Copy 115" cx="5.2" cy="5.2" r="5.2" transform="translate(344 68.8)" fill="#fff"/>
    <circle id="Oval_Copy_114-2" data-name="Oval Copy 114" cx="5.2" cy="5.2" r="5.2" transform="translate(309.6 68.8)" fill="#fff"/>
    <circle id="Oval_Copy_113-2" data-name="Oval Copy 113" cx="5.2" cy="5.2" r="5.2" transform="translate(275.2 68.8)" fill="#fff"/>
    <circle id="Oval_Copy_112-2" data-name="Oval Copy 112" cx="5.2" cy="5.2" r="5.2" transform="translate(240.8 68.8)" fill="#fff"/>
    <circle id="Oval_Copy_111-2" data-name="Oval Copy 111" cx="5.2" cy="5.2" r="5.2" transform="translate(206.4 68.8)" fill="#fff"/>
    <circle id="Oval_Copy_110-2" data-name="Oval Copy 110" cx="5.2" cy="5.2" r="5.2" transform="translate(172 68.8)" fill="#fff"/>
    <circle id="Oval_Copy_109-2" data-name="Oval Copy 109" cx="5.2" cy="5.2" r="5.2" transform="translate(137.6 68.8)" fill="#fff"/>
    <circle id="Oval_Copy_108-2" data-name="Oval Copy 108" cx="5.2" cy="5.2" r="5.2" transform="translate(103.2 68.8)" fill="#fff"/>
    <circle id="Oval_Copy_107-2" data-name="Oval Copy 107" cx="5.2" cy="5.2" r="5.2" transform="translate(68.8 68.8)" fill="#fff"/>
    <circle id="Oval_Copy_106-2" data-name="Oval Copy 106" cx="5.2" cy="5.2" r="5.2" transform="translate(34.4 68.8)" fill="#fff"/>
    <circle id="Oval_Copy_105-2" data-name="Oval Copy 105" cx="5.2" cy="5.2" r="5.2" transform="translate(0 68.8)" fill="#fff"/>
    <circle id="Oval_Copy_102-2" data-name="Oval Copy 102" cx="5.2" cy="5.2" r="5.2" transform="translate(344 34.4)" fill="#fff"/>
    <circle id="Oval_Copy_101-2" data-name="Oval Copy 101" cx="5.2" cy="5.2" r="5.2" transform="translate(309.6 34.4)" fill="#fff"/>
    <circle id="Oval_Copy_100-2" data-name="Oval Copy 100" cx="5.2" cy="5.2" r="5.2" transform="translate(275.2 34.4)" fill="#fff"/>
    <circle id="Oval_Copy_99-2" data-name="Oval Copy 99" cx="5.2" cy="5.2" r="5.2" transform="translate(240.8 34.4)" fill="#fff"/>
    <circle id="Oval_Copy_98-2" data-name="Oval Copy 98" cx="5.2" cy="5.2" r="5.2" transform="translate(206.4 34.4)" fill="#fff"/>
    <circle id="Oval_Copy_97-2" data-name="Oval Copy 97" cx="5.2" cy="5.2" r="5.2" transform="translate(172 34.4)" fill="#fff"/>
    <circle id="Oval_Copy_96-2" data-name="Oval Copy 96" cx="5.2" cy="5.2" r="5.2" transform="translate(137.6 34.4)" fill="#fff"/>
    <circle id="Oval_Copy_95-2" data-name="Oval Copy 95" cx="5.2" cy="5.2" r="5.2" transform="translate(103.2 34.4)" fill="#fff"/>
    <circle id="Oval_Copy_94-2" data-name="Oval Copy 94" cx="5.2" cy="5.2" r="5.2" transform="translate(68.8 34.4)" fill="#fff"/>
    <circle id="Oval_Copy_93-2" data-name="Oval Copy 93" cx="5.2" cy="5.2" r="5.2" transform="translate(34.4 34.4)" fill="#fff"/>
    <circle id="Oval_Copy_92-2" data-name="Oval Copy 92" cx="5.2" cy="5.2" r="5.2" transform="translate(0 34.4)" fill="#fff"/>
    <circle id="Oval_Copy_89-2" data-name="Oval Copy 89" cx="5.2" cy="5.2" r="5.2" transform="translate(344 0)" fill="#fff"/>
    <circle id="Oval_Copy_88-2" data-name="Oval Copy 88" cx="5.2" cy="5.2" r="5.2" transform="translate(309.6 0)" fill="#fff"/>
    <circle id="Oval_Copy_87-2" data-name="Oval Copy 87" cx="5.2" cy="5.2" r="5.2" transform="translate(275.2 0)" fill="#fff"/>
    <circle id="Oval_Copy_86-2" data-name="Oval Copy 86" cx="5.2" cy="5.2" r="5.2" transform="translate(240.8 0)" fill="#fff"/>
    <circle id="Oval_Copy_85-2" data-name="Oval Copy 85" cx="5.2" cy="5.2" r="5.2" transform="translate(206.4 0)" fill="#fff"/>
    <circle id="Oval_Copy_84-2" data-name="Oval Copy 84" cx="5.2" cy="5.2" r="5.2" transform="translate(172 0)" fill="#fff"/>
    <circle id="Oval_Copy_83-2" data-name="Oval Copy 83" cx="5.2" cy="5.2" r="5.2" transform="translate(137.6 0)" fill="#fff"/>
    <circle id="Oval_Copy_82-2" data-name="Oval Copy 82" cx="5.2" cy="5.2" r="5.2" transform="translate(103.2 0)" fill="#fff"/>
    <circle id="Oval_Copy_81-2" data-name="Oval Copy 81" cx="5.2" cy="5.2" r="5.2" transform="translate(68.8 0)" fill="#fff"/>
    <circle id="Oval_Copy_80-2" data-name="Oval Copy 80" cx="5.2" cy="5.2" r="5.2" transform="translate(34.4 0)" fill="#fff"/>
    <circle id="Oval_Copy_79-2" data-name="Oval Copy 79" cx="5.2" cy="5.2" r="5.2" transform="translate(0 0)" fill="#fff"/>
  </g>
</svg>
