<?xml version="1.0" encoding="UTF-8"?>
<svg width="149px" height="424px" viewBox="0 0 149 424" version="1.1" xmlns="http://www.w3.org/2000/svg" xmlns:xlink="http://www.w3.org/1999/xlink">
    <title>03C05248-15FC-4C17-8374-E51768A3BFD2@3x</title>
    <g id="Main-Page" stroke="none" stroke-width="1" fill="none" fill-rule="evenodd" opacity="0.2">
        <g id="01-1-1-Main-page" transform="translate(-16.000000, -8306.000000)" fill="#FFFFFF">
            <g id="Shape---13" transform="translate(16.000000, 8306.000000)">
                <circle id="Oval-Copy-169" cx="143" cy="418" r="5.2"></circle>
                <circle id="Oval-Copy-168" cx="108.6" cy="418" r="5.2"></circle>
                <circle id="Oval-Copy-167" cx="74.2" cy="418" r="5.2"></circle>
                <circle id="Oval-Copy-166" cx="39.8" cy="418" r="5.2"></circle>
                <circle id="Oval-Copy-165" cx="5.4" cy="418" r="5.2"></circle>
                <circle id="Oval-Copy-156" cx="143" cy="383.6" r="5.2"></circle>
                <circle id="Oval-Copy-155" cx="108.6" cy="383.6" r="5.2"></circle>
                <circle id="Oval-Copy-154" cx="74.2" cy="383.6" r="5.2"></circle>
                <circle id="Oval-Copy-153" cx="39.8" cy="383.6" r="5.2"></circle>
                <circle id="Oval-Copy-152" cx="5.4" cy="383.6" r="5.2"></circle>
                <circle id="Oval-Copy-143" cx="143" cy="349.2" r="5.2"></circle>
                <circle id="Oval-Copy-142" cx="108.6" cy="349.2" r="5.2"></circle>
                <circle id="Oval-Copy-141" cx="74.2" cy="349.2" r="5.2"></circle>
                <circle id="Oval-Copy-140" cx="39.8" cy="349.2" r="5.2"></circle>
                <circle id="Oval-Copy-139" cx="5.4" cy="349.2" r="5.2"></circle>
                <circle id="Oval-Copy-130" cx="143" cy="314.8" r="5.2"></circle>
                <circle id="Oval-Copy-129" cx="108.6" cy="314.8" r="5.2"></circle>
                <circle id="Oval-Copy-128" cx="74.2" cy="314.8" r="5.2"></circle>
                <circle id="Oval-Copy-127" cx="39.8" cy="314.8" r="5.2"></circle>
                <circle id="Oval-Copy-126" cx="5.4" cy="314.8" r="5.2"></circle>
                <circle id="Oval-Copy-117" cx="143" cy="280.4" r="5.2"></circle>
                <circle id="Oval-Copy-116" cx="108.6" cy="280.4" r="5.2"></circle>
                <circle id="Oval-Copy-115" cx="74.2" cy="280.4" r="5.2"></circle>
                <circle id="Oval-Copy-114" cx="39.8" cy="280.4" r="5.2"></circle>
                <circle id="Oval-Copy-113" cx="5.4" cy="280.4" r="5.2"></circle>
                <circle id="Oval-Copy-104" cx="143" cy="246" r="5.2"></circle>
                <circle id="Oval-Copy-103" cx="108.6" cy="246" r="5.2"></circle>
                <circle id="Oval-Copy-102" cx="74.2" cy="246" r="5.2"></circle>
                <circle id="Oval-Copy-101" cx="39.8" cy="246" r="5.2"></circle>
                <circle id="Oval-Copy-100" cx="5.4" cy="246" r="5.2"></circle>
                <circle id="Oval-Copy-91" cx="143" cy="211.6" r="5.2"></circle>
                <circle id="Oval-Copy-90" cx="108.6" cy="211.6" r="5.2"></circle>
                <circle id="Oval-Copy-89" cx="74.2" cy="211.6" r="5.2"></circle>
                <circle id="Oval-Copy-88" cx="39.8" cy="211.6" r="5.2"></circle>
                <circle id="Oval-Copy-87" cx="5.4" cy="211.6" r="5.2"></circle>
                <circle id="Oval-Copy-78" cx="143" cy="177.2" r="5.2"></circle>
                <circle id="Oval-Copy-77" cx="108.6" cy="177.2" r="5.2"></circle>
                <circle id="Oval-Copy-76" cx="74.2" cy="177.2" r="5.2"></circle>
                <circle id="Oval-Copy-75" cx="39.8" cy="177.2" r="5.2"></circle>
                <circle id="Oval-Copy-74" cx="5.4" cy="177.2" r="5.2"></circle>
                <circle id="Oval-Copy-65" cx="143" cy="142.8" r="5.2"></circle>
                <circle id="Oval-Copy-64" cx="108.6" cy="142.8" r="5.2"></circle>
                <circle id="Oval-Copy-63" cx="74.2" cy="142.8" r="5.2"></circle>
                <circle id="Oval-Copy-62" cx="39.8" cy="142.8" r="5.2"></circle>
                <circle id="Oval-Copy-61" cx="5.4" cy="142.8" r="5.2"></circle>
                <circle id="Oval-Copy-52" cx="143" cy="108.4" r="5.2"></circle>
                <circle id="Oval-Copy-51" cx="108.6" cy="108.4" r="5.2"></circle>
                <circle id="Oval-Copy-50" cx="74.2" cy="108.4" r="5.2"></circle>
                <circle id="Oval-Copy-49" cx="39.8" cy="108.4" r="5.2"></circle>
                <circle id="Oval-Copy-48" cx="5.4" cy="108.4" r="5.2"></circle>
                <circle id="Oval-Copy-39" cx="143" cy="74" r="5.2"></circle>
                <circle id="Oval-Copy-38" cx="108.6" cy="74" r="5.2"></circle>
                <circle id="Oval-Copy-37" cx="74.2" cy="74" r="5.2"></circle>
                <circle id="Oval-Copy-36" cx="39.8" cy="74" r="5.2"></circle>
                <circle id="Oval-Copy-35" cx="5.4" cy="74" r="5.2"></circle>
                <circle id="Oval-Copy-26" cx="143" cy="39.6" r="5.2"></circle>
                <circle id="Oval-Copy-25" cx="108.6" cy="39.6" r="5.2"></circle>
                <circle id="Oval-Copy-24" cx="74.2" cy="39.6" r="5.2"></circle>
                <circle id="Oval-Copy-23" cx="39.8" cy="39.6" r="5.2"></circle>
                <circle id="Oval-Copy-22" cx="5.4" cy="39.6" r="5.2"></circle>
                <circle id="Oval-Copy-13" cx="143" cy="5.2" r="5.2"></circle>
                <circle id="Oval-Copy-12" cx="108.6" cy="5.2" r="5.2"></circle>
                <circle id="Oval-Copy-11" cx="74.2" cy="5.2" r="5.2"></circle>
                <circle id="Oval-Copy-10" cx="39.8" cy="5.2" r="5.2"></circle>
                <circle id="Oval-Copy-9" cx="5.4" cy="5.2" r="5.2"></circle>
            </g>
        </g>
    </g>
</svg>