<?xml version="1.0" encoding="UTF-8"?>
<svg width="70px" height="70px" viewBox="0 0 70 70" version="1.1" xmlns="http://www.w3.org/2000/svg" xmlns:xlink="http://www.w3.org/1999/xlink">
    <title>429592FB-53EC-4814-BBE1-6EDB02777A1B@3x</title>
    <g id="LP" stroke="none" stroke-width="1" fill="none" fill-rule="evenodd">
        <g id="01-1-1-LP" transform="translate(-692.000000, -2367.000000)">
            <g id="Ico" transform="translate(428.500000, 2366.000000)">
                <g id="Ico/Residential-IPs" transform="translate(263.500000, 1.000000)">
                    <rect id="Rectangle" x="4.05009359e-13" y="-4.97379915e-14" width="69.12" height="69.12"></rect>
                    <path d="M34.0121831,20.8496725 L55.8970464,32.716907 C55.9765071,32.7609716 56.0408861,32.8248577 56.0853999,32.9004427 C56.1299136,32.9760278 56.1545622,33.063312 56.1545622,33.1541728 L56.1545622,33.1541728 L56.1545622,58 C56.1545622,58.1380712 56.0985978,58.2630712 56.0081156,58.3535534 C55.9176334,58.4440356 55.7926334,58.5 55.6545622,58.5 L55.6545622,58.5 L41.2546673,58.5 C41.1165961,58.5 40.9915961,58.4440356 40.9011139,58.3535534 C40.8106317,58.2630712 40.7546673,58.1380712 40.7546673,58 L40.7546673,58 L40.7546673,45.7257326 C40.7546673,45.0353767 40.4748453,44.4103767 40.0224343,43.9579656 C39.5700232,43.5055546 38.9450232,43.2257326 38.2546673,43.2257326 L38.2546673,43.2257326 L30.56,43.2257326 C29.8696441,43.2257326 29.2446441,43.5055546 28.792233,43.9579656 C28.339822,44.4103767 28.06,45.0353767 28.06,45.7257326 L28.06,45.7257326 L28.06,58 C28.06,58.1380712 28.0040356,58.2630712 27.9135534,58.3535534 C27.8230712,58.4440356 27.6980712,58.5 27.56,58.5 L27.56,58.5 L12.8547724,58.5 C12.7167012,58.5 12.5917012,58.4440356 12.501219,58.3535534 C12.4107368,58.2630712 12.3547724,58.1380712 12.3547724,58 L12.3547724,58 L12.3547724,33.1541728 C12.3547724,33.063312 12.379421,32.9760278 12.4239348,32.9004427 C12.4684485,32.8248577 12.5328275,32.7609716 12.6122882,32.716907 L12.6122882,32.716907 L34.0121831,20.8496725 Z" id="Rectangle" stroke="#6B3EFE" stroke-width="3"></path>
                    <polyline id="Path-16" stroke="#6B3EFE" stroke-width="3" stroke-linecap="round" stroke-linejoin="round" points="8.02536336 29.1806579 34.5 14 60.4488317 29.1806579"></polyline>
                    <path d="M47.7524991,2 C46.7654594,2 46,2.75538752 46,3.75249905 C46,4.74961059 46.7553875,5.50499811 47.7524991,5.50499811 C55.44738,5.50499811 61.6919168,11.749535 61.6919168,19.4444159 C61.6919168,20.4314556 62.4473043,21.1969149 63.4444159,21.1969149 C64.4314556,21.1969149 65.1969149,20.4415274 65.1969149,19.4444159 C65.1969149,9.87617391 57.381172,2 47.7524991,2 Z" id="Path" fill="#FF6813" fill-rule="nonzero"></path>
                    <path d="M47.7524991,9.11071456 C46.7654594,9.11071456 46,9.86610208 46,10.8632136 C46,11.8502533 46.7553875,12.6157127 47.7524991,12.6157127 C51.5395085,12.6157127 54.6315614,15.7077656 54.6315614,19.494775 C54.6315614,20.4818147 55.386949,21.2472741 56.3840605,21.2472741 C57.3711002,21.2472741 58.1365595,20.4918866 58.1365595,19.494775 C58.1365595,13.7840454 53.4733006,9.11071456 47.7524991,9.11071456 Z" id="Path" fill="#00CCCC" fill-rule="nonzero"></path>
                </g>
            </g>
        </g>
    </g>
</svg>