<?xml version="1.0" encoding="UTF-8"?>
<svg width="70px" height="70px" viewBox="0 0 70 70" version="1.1" xmlns="http://www.w3.org/2000/svg" xmlns:xlink="http://www.w3.org/1999/xlink">
    <title>094206E5-2F6A-44A8-AB27-EABE2655AE87@3x</title>
    <g id="LP" stroke="none" stroke-width="1" fill="none" fill-rule="evenodd">
        <g id="01-1-1-LP" transform="translate(-926.000000, -2367.000000)">
            <g id="Ico" transform="translate(428.500000, 2366.000000)">
                <g id="Ico/Mobile-IPs" transform="translate(497.500000, 1.000000)">
                    <rect id="Rectangle" x="-9.09494702e-13" y="0" width="69.12" height="69.12"></rect>
                    <g id="Group-35" transform="translate(13.000000, 10.000000)">
                        <g id="Group-32">
                            <rect id="Rectangle" stroke="#6B3EFE" stroke-width="3" x="1.5" y="1.5" width="27" height="47" rx="4"></rect>
                            <line x1="1.53591248" y1="37.7774821" x2="28.3848329" y2="37.7774821" id="Path-5" stroke="#6B3EFE" stroke-width="3"></line>
                            <circle id="Oval" fill="#00CCCC" cx="15" cy="43.5" r="2"></circle>
                            <line x1="12.5" y1="6.5" x2="18.5" y2="6.5" id="Path-15" stroke="#6B3EFE" stroke-width="3" stroke-linecap="round" stroke-linejoin="round"></line>
                        </g>
                        <g id="Group-6" transform="translate(41.000000, 25.500000) rotate(46.000000) translate(-41.000000, -25.500000) translate(31.000000, 15.000000)" fill-rule="nonzero">
                            <path d="M1.75249905,1.77635684e-15 C0.765459357,1.77635684e-15 -4.42312853e-13,0.755387524 -4.42312853e-13,1.75249905 C-4.42312853e-13,2.74961059 0.755387524,3.50499811 1.75249905,3.50499811 C9.44737996,3.50499811 15.6919168,9.74953497 15.6919168,17.4444159 C15.6919168,18.4314556 16.4473043,19.1969149 17.4444159,19.1969149 C18.4314556,19.1969149 19.1969149,18.4415274 19.1969149,17.4444159 C19.1969149,7.87617391 11.381172,1.77635684e-15 1.75249905,1.77635684e-15 Z" id="Path" fill="#FF6813"></path>
                            <path d="M1.75249905,8.06035539 C0.765459357,8.06035539 7.37188088e-14,8.81574291 7.37188088e-14,9.81285444 C7.37188088e-14,10.7998941 0.755387524,11.5653535 1.75249905,11.5653535 C5.53950851,11.5653535 8.63156144,14.6574064 8.63156144,18.4444159 C8.63156144,19.4314556 9.38694896,20.1969149 10.3840605,20.1969149 C11.3711002,20.1969149 12.1365595,19.4415274 12.1365595,18.4444159 C12.1365595,12.7336862 7.47330057,8.06035539 1.75249905,8.06035539 Z" id="Path" fill="#00CCCC"></path>
                        </g>
                    </g>
                </g>
            </g>
        </g>
    </g>
</svg>