<?xml version="1.0" encoding="UTF-8"?>
<svg width="70px" height="70px" viewBox="0 0 70 70" version="1.1" xmlns="http://www.w3.org/2000/svg" xmlns:xlink="http://www.w3.org/1999/xlink">
    <title>5BC72C36-7F87-4B47-92A8-D9E151B59697@3x</title>
    <g id="LP" stroke="none" stroke-width="1" fill="none" fill-rule="evenodd">
        <g id="01-1-1-LP" transform="translate(-1158.000000, -2366.000000)">
            <g id="Ico" transform="translate(428.500000, 2366.000000)">
                <g id="Ico/Uptime-Guarantee" transform="translate(729.500000, 0.000000)">
                    <rect id="Rectangle" x="0" y="0" width="69.12" height="69.12"></rect>
                    <g id="Layer_5-2" transform="translate(8.640000, 6.200000)" fill-rule="nonzero">
                        <g id="Layer_5">
                            <path d="M33.8010737,14.4056106 C30.5377996,14.4056106 27.84862,16.9739282 27.6169679,20.1767713 L21.2012098,21.8688393 C19.3379206,20.4688544 17.4645595,19.2400907 15.6617013,18.373913 C10.293414,15.6343743 7.61430624,16.621414 6.33518336,17.8501777 C2.30644991,21.8789112 0.0906465028,27.2371267 0.0906465028,32.8974972 C0.0906465028,38.6082268 2.30644991,43.9765142 6.33518336,48.0052476 C10.535138,52.1447713 16.0142155,54.2497845 21.493293,54.2497845 C26.9723705,54.2497845 32.4615198,52.2052023 36.6010435,48.0656786 C39.4010132,45.2052779 37.0643478,39.202465 32.57231,33.2500113 L34.2643781,26.7738223 C37.4672212,26.5421701 40.0355388,23.8529905 40.0355388,20.5897164 C39.9751078,17.1451493 37.235569,14.4056106 33.8010737,14.4056106 Z M28.3119244,23.6213384 L25.9853308,25.8975728 C25.5220265,25.4342684 24.9982911,25.0213233 24.5249149,24.5580189 L28.3119244,23.6213384 Z M8.78263894,45.6081512 C5.39850284,42.2240151 3.52514178,37.7924083 3.52514178,33.0082873 C3.52514178,29.9766654 4.2805293,27.0558336 5.68051418,24.4975879 C7.14093006,28.8687637 10.9883705,34.237051 15.5911985,38.7895198 C20.1940265,43.3923478 25.5623138,47.2498601 29.9334896,48.7002042 C23.1853611,52.2555614 14.5537996,51.3188809 8.78263894,45.6081512 Z M32.9248242,40.3607259 C34.4960302,43.5132098 34.4960302,45.2052779 34.0931569,45.6081512 C32.9248242,46.7764839 25.9853308,44.1477353 18.1091569,36.3319924 C10.293414,28.5162495 7.67473724,21.5163251 8.83299811,20.3479924 C9.24594329,19.9350473 10.9883705,19.9350473 14.0804234,21.5163251 C14.956673,21.9292703 15.8329225,22.4530057 16.709172,23.037172 L13.4458979,23.8529905 C12.5092174,24.0846427 11.925051,25.0817543 12.166775,26.0083629 C12.3984272,26.8241815 13.1034556,27.2874858 13.8588431,27.2874858 C13.9797051,27.2874858 14.1509263,27.2874858 14.3221474,27.2270548 L20.3249603,25.6558488 C21.372431,26.4716673 22.4199017,27.4083478 23.4774442,28.3953875 L18.9854064,32.8874253 C18.2904499,33.5823819 18.2904499,34.7003554 18.9854064,35.3348809 C19.3379206,35.6873951 19.801225,35.8586163 20.2141701,35.8586163 C20.6774745,35.8586163 21.0904197,35.6873951 21.4429338,35.3348809 L25.9954026,30.7824121 C26.9824423,31.8298828 27.8586919,32.8773535 28.7349414,33.934896 L27.1637353,39.9981399 C26.9320832,40.9348204 27.4558185,41.8614291 28.4428582,42.1535123 C28.6140794,42.2139433 28.7349414,42.2139433 28.9061626,42.2139433 C29.6615501,42.2139433 30.4270095,41.6902079 30.5982306,40.9348204 L31.4140491,37.6715463 C31.9881437,38.6082268 32.511879,39.4240454 32.9248242,40.3607259 Z M28.4932174,28.3450284 L30.7694518,26.068794 L29.7824121,29.8054442 C29.3694669,29.3924991 28.9565217,28.8687637 28.4932174,28.3450284 Z M33.8010737,23.2688242 C32.3406578,23.2688242 31.121966,22.0400605 31.121966,20.5897164 C31.121966,19.1293006 32.3507297,17.9106087 33.8010737,17.9106087 C35.2514178,17.9106087 36.4801815,19.1393724 36.4801815,20.5897164 C36.4801815,22.1004915 35.3118488,23.2688242 33.8010737,23.2688242 Z" id="Shape" fill="#6B3EFE"></path>
                            <path d="M37.8355841,0.0503591682 C36.8485444,0.0503591682 36.0830851,0.805746692 36.0830851,1.80285822 C36.0830851,2.79996975 36.8384726,3.55535728 37.8355841,3.55535728 C45.530465,3.55535728 51.7750019,9.79989414 51.7750019,17.494775 C51.7750019,18.4818147 52.5303894,19.2472741 53.5275009,19.2472741 C54.5145406,19.2472741 55.28,18.4918866 55.28,17.494775 C55.28,7.92653308 47.4642571,0.0503591682 37.8355841,0.0503591682 Z" id="Path" fill="#FF6813"></path>
                            <path d="M37.8355841,7.16107372 C36.8485444,7.16107372 36.0830851,7.91646125 36.0830851,8.91357278 C36.0830851,9.90061248 36.8384726,10.6660718 37.8355841,10.6660718 C41.6225936,10.6660718 44.7146465,13.7581248 44.7146465,17.5451342 C44.7146465,18.5321739 45.470034,19.2976333 46.4671456,19.2976333 C47.4541853,19.2976333 48.2196446,18.5422457 48.2196446,17.5451342 C48.2196446,11.8344045 43.5563856,7.16107372 37.8355841,7.16107372 Z" id="Path" fill="#00CCCC"></path>
                        </g>
                    </g>
                </g>
            </g>
        </g>
    </g>
</svg>