<?xml version="1.0" encoding="UTF-8"?>
<svg width="70px" height="70px" viewBox="0 0 70 70" version="1.1" xmlns="http://www.w3.org/2000/svg" xmlns:xlink="http://www.w3.org/1999/xlink">
    <title>BDFA2F1D-AEBE-4464-B71B-AA08A3E78405@3x</title>
    <g id="LP" stroke="none" stroke-width="1" fill="none" fill-rule="evenodd">
        <g id="01-1-1-LP" transform="translate(-1390.000000, -2366.000000)">
            <g id="Ico" transform="translate(428.500000, 2366.000000)">
                <g id="Ico/Unlimited-Bandwidth" transform="translate(961.500000, 0.000000)">
                    <rect id="Rectangle" x="0" y="0" width="69.12" height="69.12"></rect>
                    <g id="Layer_4" transform="translate(13.000000, 12.000000)">
                        <polygon id="Path" fill="#6B3EFE" fill-rule="nonzero" points="20.1226291 1.25055934 23.6609311 1.25055934 23.6609311 9.83830705 19.6609311 9.83830705 19.6609311 1.25055934"></polygon>
                        <path d="M3.15455677,12.1477364 C1.99502477,10.9882044 1.99502477,9.08538266 3.15455677,7.92585066 C4.31408877,6.76631866 6.21691052,6.76631866 7.37644252,7.92585066 L8.61525876,9.1646669 C9.25006078,9.79946892 10.6056533,11.0359059 10.4523076,12.1477364 C10.3255514,13.0667801 8.79683687,13.877064 8.27210688,14.401794 C7.11257488,15.561326 5.55290501,14.5460847 4.39337301,13.3865527 L3.15455677,12.1477364 Z" id="Path" fill="#FF6813" fill-rule="nonzero"></path>
                        <path d="M38.2204911,13.3975767 C37.0609591,14.5571087 35.1581373,16.3077406 33.9986053,15.1482086 C33.6327519,14.7823552 32.0096863,13.3531124 31.983386,12.8057438 C31.9263303,11.6182882 33.2049267,9.96936954 33.9986053,9.17569097 L35.2374216,7.93687473 C36.3969536,6.77734273 38.2997753,6.77734273 39.4593073,7.93687473 C40.6188393,9.09640673 40.6188393,10.9992285 39.4593073,12.1587605 L38.2204911,13.3975767 Z" id="Path" fill="#FF6813" fill-rule="nonzero"></path>
                        <circle id="Oval" stroke="#6B3EFE" stroke-width="3.24" cx="21.384" cy="27.864" r="19.116"></circle>
                        <path d="M16.8461165,2.37708903 C16.8461165,1.09872692 17.9438003,0.270580768 19.3033169,0.270580768 L24.3889161,0.270580768 C25.7484327,0.270580768 26.8461165,1.09872692 26.8461165,2.37708903 C26.8461165,3.65545113 25.7383622,4.27058077 24.3788456,4.27058077 L19.2932464,4.27058077 C17.9438003,4.27058077 16.8461165,3.65545113 16.8461165,2.37708903 Z" id="Path" fill="#6B3EFE" fill-rule="nonzero"></path>
                        <path d="M15.6628353,30.1301994 C17.785366,30.1301994 19.5012435,31.8469528 19.5012435,33.9705669 L19.5012435,35.7667078 C19.5012435,36.8880554 20.4137333,37.8109344 21.5444272,37.8109344 C22.6751211,37.8109344 23.5876109,36.8979789 23.5876109,35.7667078 L23.5876109,33.9705669 C23.5876109,31.8469528 25.3034884,30.1301994 27.426019,30.1301994 L29.2212435,30.1301994 C30.342019,30.1301994 31.2644272,29.2172438 31.2644272,28.0859727 C31.2644272,26.9547017 30.3519374,26.0417461 29.2212435,26.0417461 L27.426019,26.0417461 C25.3034884,26.0417461 23.5876109,24.3249926 23.5876109,22.2013785 L23.5876109,20.4151611 C23.5876109,19.2938135 22.6751211,18.3709344 21.5444272,18.3709344 C20.4137333,18.3709344 19.5012435,19.28389 19.5012435,20.4151611 L19.5012435,22.211302 C19.5012435,24.3349161 17.785366,26.0516695 15.6628353,26.0516695 L13.8676109,26.0516695 C12.7468353,26.0516695 11.8244272,26.9646251 11.8244272,28.0958962 C11.8244272,29.2271672 12.736917,30.1401228 13.8676109,30.1401228 L15.6628353,30.1401228 L15.6628353,30.1301994 Z" id="Path" fill="#00CCCC"></path>
                    </g>
                </g>
            </g>
        </g>
    </g>
</svg>