<?xml version="1.0" encoding="UTF-8"?>
<svg width="328px" height="391px" viewBox="0 0 328 391" version="1.1" xmlns="http://www.w3.org/2000/svg" xmlns:xlink="http://www.w3.org/1999/xlink">
    <title>4CDD1464-8274-4AC2-A475-970CF3E19BC2@3x</title>
    <g id="LP" stroke="none" stroke-width="1" fill="none" fill-rule="evenodd">
        <g id="01-1-1-LP" transform="translate(-307.000000, -8513.000000)" fill="#F0E6F9">
            <g id="Geotargetting-For-+50-" transform="translate(-228.700000, 7496.500000)">
                <g id="Shape---16" transform="translate(536.000000, 1017.000000)">
                    <ellipse id="Oval-Copy-168" transform="translate(5.200000, 384.586118) rotate(90.000000) translate(-5.200000, -384.586118) " cx="5.2" cy="384.586118" rx="5.21336761" ry="5.2"></ellipse>
                    <ellipse id="Oval-Copy-167" transform="translate(5.200000, 350.097686) rotate(90.000000) translate(-5.200000, -350.097686) " cx="5.2" cy="350.097686" rx="5.21336761" ry="5.2"></ellipse>
                    <ellipse id="Oval-Copy-166" transform="translate(5.200000, 315.609254) rotate(90.000000) translate(-5.200000, -315.609254) " cx="5.2" cy="315.609254" rx="5.21336761" ry="5.2"></ellipse>
                    <ellipse id="Oval-Copy-165" transform="translate(5.200000, 281.120823) rotate(90.000000) translate(-5.200000, -281.120823) " cx="5.2" cy="281.120823" rx="5.21336761" ry="5.2"></ellipse>
                    <ellipse id="Oval-Copy-164" transform="translate(5.200000, 246.632391) rotate(90.000000) translate(-5.200000, -246.632391) " cx="5.2" cy="246.632391" rx="5.21336761" ry="5.2"></ellipse>
                    <ellipse id="Oval-Copy-163" transform="translate(5.200000, 212.143959) rotate(90.000000) translate(-5.200000, -212.143959) " cx="5.2" cy="212.143959" rx="5.21336761" ry="5.2"></ellipse>
                    <ellipse id="Oval-Copy-162" transform="translate(5.200000, 177.655527) rotate(90.000000) translate(-5.200000, -177.655527) " cx="5.2" cy="177.655527" rx="5.21336761" ry="5.2"></ellipse>
                    <ellipse id="Oval-Copy-161" transform="translate(5.200000, 143.167095) rotate(90.000000) translate(-5.200000, -143.167095) " cx="5.2" cy="143.167095" rx="5.21336761" ry="5.2"></ellipse>
                    <ellipse id="Oval-Copy-160" transform="translate(5.200000, 108.678663) rotate(90.000000) translate(-5.200000, -108.678663) " cx="5.2" cy="108.678663" rx="5.21336761" ry="5.2"></ellipse>
                    <ellipse id="Oval-Copy-159" transform="translate(5.200000, 74.190231) rotate(90.000000) translate(-5.200000, -74.190231) " cx="5.2" cy="74.1902314" rx="5.21336761" ry="5.2"></ellipse>
                    <ellipse id="Oval-Copy-158" transform="translate(5.200000, 39.701799) rotate(90.000000) translate(-5.200000, -39.701799) " cx="5.2" cy="39.7017995" rx="5.21336761" ry="5.2"></ellipse>
                    <ellipse id="Oval-Copy-157" transform="translate(5.200000, 5.213368) rotate(90.000000) translate(-5.200000, -5.213368) " cx="5.2" cy="5.21336761" rx="5.21336761" ry="5.2"></ellipse>
                    <ellipse id="Oval-Copy-155" transform="translate(39.600000, 384.586118) rotate(90.000000) translate(-39.600000, -384.586118) " cx="39.6" cy="384.586118" rx="5.21336761" ry="5.2"></ellipse>
                    <ellipse id="Oval-Copy-154" transform="translate(39.600000, 350.097686) rotate(90.000000) translate(-39.600000, -350.097686) " cx="39.6" cy="350.097686" rx="5.21336761" ry="5.2"></ellipse>
                    <ellipse id="Oval-Copy-153" transform="translate(39.600000, 315.609254) rotate(90.000000) translate(-39.600000, -315.609254) " cx="39.6" cy="315.609254" rx="5.21336761" ry="5.2"></ellipse>
                    <ellipse id="Oval-Copy-152" transform="translate(39.600000, 281.120823) rotate(90.000000) translate(-39.600000, -281.120823) " cx="39.6" cy="281.120823" rx="5.21336761" ry="5.2"></ellipse>
                    <ellipse id="Oval-Copy-151" transform="translate(39.600000, 246.632391) rotate(90.000000) translate(-39.600000, -246.632391) " cx="39.6" cy="246.632391" rx="5.21336761" ry="5.2"></ellipse>
                    <ellipse id="Oval-Copy-150" transform="translate(39.600000, 212.143959) rotate(90.000000) translate(-39.600000, -212.143959) " cx="39.6" cy="212.143959" rx="5.21336761" ry="5.2"></ellipse>
                    <ellipse id="Oval-Copy-149" transform="translate(39.600000, 177.655527) rotate(90.000000) translate(-39.600000, -177.655527) " cx="39.6" cy="177.655527" rx="5.21336761" ry="5.2"></ellipse>
                    <ellipse id="Oval-Copy-148" transform="translate(39.600000, 143.167095) rotate(90.000000) translate(-39.600000, -143.167095) " cx="39.6" cy="143.167095" rx="5.21336761" ry="5.2"></ellipse>
                    <ellipse id="Oval-Copy-147" transform="translate(39.600000, 108.678663) rotate(90.000000) translate(-39.600000, -108.678663) " cx="39.6" cy="108.678663" rx="5.21336761" ry="5.2"></ellipse>
                    <ellipse id="Oval-Copy-146" transform="translate(39.600000, 74.190231) rotate(90.000000) translate(-39.600000, -74.190231) " cx="39.6" cy="74.1902314" rx="5.21336761" ry="5.2"></ellipse>
                    <ellipse id="Oval-Copy-145" transform="translate(39.600000, 39.701799) rotate(90.000000) translate(-39.600000, -39.701799) " cx="39.6" cy="39.7017995" rx="5.21336761" ry="5.2"></ellipse>
                    <ellipse id="Oval-Copy-144" transform="translate(39.600000, 5.213368) rotate(90.000000) translate(-39.600000, -5.213368) " cx="39.6" cy="5.21336761" rx="5.21336761" ry="5.2"></ellipse>
                    <ellipse id="Oval-Copy-142" transform="translate(74.000000, 384.586118) rotate(90.000000) translate(-74.000000, -384.586118) " cx="74" cy="384.586118" rx="5.21336761" ry="5.2"></ellipse>
                    <ellipse id="Oval-Copy-141" transform="translate(74.000000, 350.097686) rotate(90.000000) translate(-74.000000, -350.097686) " cx="74" cy="350.097686" rx="5.21336761" ry="5.2"></ellipse>
                    <ellipse id="Oval-Copy-140" transform="translate(74.000000, 315.609254) rotate(90.000000) translate(-74.000000, -315.609254) " cx="74" cy="315.609254" rx="5.21336761" ry="5.2"></ellipse>
                    <ellipse id="Oval-Copy-139" transform="translate(74.000000, 281.120823) rotate(90.000000) translate(-74.000000, -281.120823) " cx="74" cy="281.120823" rx="5.21336761" ry="5.2"></ellipse>
                    <ellipse id="Oval-Copy-138" transform="translate(74.000000, 246.632391) rotate(90.000000) translate(-74.000000, -246.632391) " cx="74" cy="246.632391" rx="5.21336761" ry="5.2"></ellipse>
                    <ellipse id="Oval-Copy-137" transform="translate(74.000000, 212.143959) rotate(90.000000) translate(-74.000000, -212.143959) " cx="74" cy="212.143959" rx="5.21336761" ry="5.2"></ellipse>
                    <ellipse id="Oval-Copy-136" transform="translate(74.000000, 177.655527) rotate(90.000000) translate(-74.000000, -177.655527) " cx="74" cy="177.655527" rx="5.21336761" ry="5.2"></ellipse>
                    <ellipse id="Oval-Copy-135" transform="translate(74.000000, 143.167095) rotate(90.000000) translate(-74.000000, -143.167095) " cx="74" cy="143.167095" rx="5.21336761" ry="5.2"></ellipse>
                    <ellipse id="Oval-Copy-134" transform="translate(74.000000, 108.678663) rotate(90.000000) translate(-74.000000, -108.678663) " cx="74" cy="108.678663" rx="5.21336761" ry="5.2"></ellipse>
                    <ellipse id="Oval-Copy-133" transform="translate(74.000000, 74.190231) rotate(90.000000) translate(-74.000000, -74.190231) " cx="74" cy="74.1902314" rx="5.21336761" ry="5.2"></ellipse>
                    <ellipse id="Oval-Copy-132" transform="translate(74.000000, 39.701799) rotate(90.000000) translate(-74.000000, -39.701799) " cx="74" cy="39.7017995" rx="5.21336761" ry="5.2"></ellipse>
                    <ellipse id="Oval-Copy-131" transform="translate(74.000000, 5.213368) rotate(90.000000) translate(-74.000000, -5.213368) " cx="74" cy="5.21336761" rx="5.21336761" ry="5.2"></ellipse>
                    <ellipse id="Oval-Copy-129" transform="translate(108.400000, 384.586118) rotate(90.000000) translate(-108.400000, -384.586118) " cx="108.4" cy="384.586118" rx="5.21336761" ry="5.2"></ellipse>
                    <ellipse id="Oval-Copy-128" transform="translate(108.400000, 350.097686) rotate(90.000000) translate(-108.400000, -350.097686) " cx="108.4" cy="350.097686" rx="5.21336761" ry="5.2"></ellipse>
                    <ellipse id="Oval-Copy-127" transform="translate(108.400000, 315.609254) rotate(90.000000) translate(-108.400000, -315.609254) " cx="108.4" cy="315.609254" rx="5.21336761" ry="5.2"></ellipse>
                    <ellipse id="Oval-Copy-126" transform="translate(108.400000, 281.120823) rotate(90.000000) translate(-108.400000, -281.120823) " cx="108.4" cy="281.120823" rx="5.21336761" ry="5.2"></ellipse>
                    <ellipse id="Oval-Copy-125" transform="translate(108.400000, 246.632391) rotate(90.000000) translate(-108.400000, -246.632391) " cx="108.4" cy="246.632391" rx="5.21336761" ry="5.2"></ellipse>
                    <ellipse id="Oval-Copy-124" transform="translate(108.400000, 212.143959) rotate(90.000000) translate(-108.400000, -212.143959) " cx="108.4" cy="212.143959" rx="5.21336761" ry="5.2"></ellipse>
                    <ellipse id="Oval-Copy-123" transform="translate(108.400000, 177.655527) rotate(90.000000) translate(-108.400000, -177.655527) " cx="108.4" cy="177.655527" rx="5.21336761" ry="5.2"></ellipse>
                    <ellipse id="Oval-Copy-122" transform="translate(108.400000, 143.167095) rotate(90.000000) translate(-108.400000, -143.167095) " cx="108.4" cy="143.167095" rx="5.21336761" ry="5.2"></ellipse>
                    <ellipse id="Oval-Copy-121" transform="translate(108.400000, 108.678663) rotate(90.000000) translate(-108.400000, -108.678663) " cx="108.4" cy="108.678663" rx="5.21336761" ry="5.2"></ellipse>
                    <ellipse id="Oval-Copy-120" transform="translate(108.400000, 74.190231) rotate(90.000000) translate(-108.400000, -74.190231) " cx="108.4" cy="74.1902314" rx="5.21336761" ry="5.2"></ellipse>
                    <ellipse id="Oval-Copy-119" transform="translate(108.400000, 39.701799) rotate(90.000000) translate(-108.400000, -39.701799) " cx="108.4" cy="39.7017995" rx="5.21336761" ry="5.2"></ellipse>
                    <ellipse id="Oval-Copy-118" transform="translate(108.400000, 5.213368) rotate(90.000000) translate(-108.400000, -5.213368) " cx="108.4" cy="5.21336761" rx="5.21336761" ry="5.2"></ellipse>
                    <ellipse id="Oval-Copy-116" transform="translate(142.800000, 384.586118) rotate(90.000000) translate(-142.800000, -384.586118) " cx="142.8" cy="384.586118" rx="5.21336761" ry="5.2"></ellipse>
                    <ellipse id="Oval-Copy-115" transform="translate(142.800000, 350.097686) rotate(90.000000) translate(-142.800000, -350.097686) " cx="142.8" cy="350.097686" rx="5.21336761" ry="5.2"></ellipse>
                    <ellipse id="Oval-Copy-114" transform="translate(142.800000, 315.609254) rotate(90.000000) translate(-142.800000, -315.609254) " cx="142.8" cy="315.609254" rx="5.21336761" ry="5.2"></ellipse>
                    <ellipse id="Oval-Copy-113" transform="translate(142.800000, 281.120823) rotate(90.000000) translate(-142.800000, -281.120823) " cx="142.8" cy="281.120823" rx="5.21336761" ry="5.2"></ellipse>
                    <ellipse id="Oval-Copy-112" transform="translate(142.800000, 246.632391) rotate(90.000000) translate(-142.800000, -246.632391) " cx="142.8" cy="246.632391" rx="5.21336761" ry="5.2"></ellipse>
                    <ellipse id="Oval-Copy-111" transform="translate(142.800000, 212.143959) rotate(90.000000) translate(-142.800000, -212.143959) " cx="142.8" cy="212.143959" rx="5.21336761" ry="5.2"></ellipse>
                    <ellipse id="Oval-Copy-110" transform="translate(142.800000, 177.655527) rotate(90.000000) translate(-142.800000, -177.655527) " cx="142.8" cy="177.655527" rx="5.21336761" ry="5.2"></ellipse>
                    <ellipse id="Oval-Copy-109" transform="translate(142.800000, 143.167095) rotate(90.000000) translate(-142.800000, -143.167095) " cx="142.8" cy="143.167095" rx="5.21336761" ry="5.2"></ellipse>
                    <ellipse id="Oval-Copy-108" transform="translate(142.800000, 108.678663) rotate(90.000000) translate(-142.800000, -108.678663) " cx="142.8" cy="108.678663" rx="5.21336761" ry="5.2"></ellipse>
                    <ellipse id="Oval-Copy-107" transform="translate(142.800000, 74.190231) rotate(90.000000) translate(-142.800000, -74.190231) " cx="142.8" cy="74.1902314" rx="5.21336761" ry="5.2"></ellipse>
                    <ellipse id="Oval-Copy-106" transform="translate(142.800000, 39.701799) rotate(90.000000) translate(-142.800000, -39.701799) " cx="142.8" cy="39.7017995" rx="5.21336761" ry="5.2"></ellipse>
                    <ellipse id="Oval-Copy-105" transform="translate(142.800000, 5.213368) rotate(90.000000) translate(-142.800000, -5.213368) " cx="142.8" cy="5.21336761" rx="5.21336761" ry="5.2"></ellipse>
                    <ellipse id="Oval-Copy-103" transform="translate(177.200000, 384.586118) rotate(90.000000) translate(-177.200000, -384.586118) " cx="177.2" cy="384.586118" rx="5.21336761" ry="5.2"></ellipse>
                    <ellipse id="Oval-Copy-102" transform="translate(177.200000, 350.097686) rotate(90.000000) translate(-177.200000, -350.097686) " cx="177.2" cy="350.097686" rx="5.21336761" ry="5.2"></ellipse>
                    <ellipse id="Oval-Copy-101" transform="translate(177.200000, 315.609254) rotate(90.000000) translate(-177.200000, -315.609254) " cx="177.2" cy="315.609254" rx="5.21336761" ry="5.2"></ellipse>
                    <ellipse id="Oval-Copy-100" transform="translate(177.200000, 281.120823) rotate(90.000000) translate(-177.200000, -281.120823) " cx="177.2" cy="281.120823" rx="5.21336761" ry="5.2"></ellipse>
                    <ellipse id="Oval-Copy-99" transform="translate(177.200000, 246.632391) rotate(90.000000) translate(-177.200000, -246.632391) " cx="177.2" cy="246.632391" rx="5.21336761" ry="5.2"></ellipse>
                    <ellipse id="Oval-Copy-98" transform="translate(177.200000, 212.143959) rotate(90.000000) translate(-177.200000, -212.143959) " cx="177.2" cy="212.143959" rx="5.21336761" ry="5.2"></ellipse>
                    <ellipse id="Oval-Copy-97" transform="translate(177.200000, 177.655527) rotate(90.000000) translate(-177.200000, -177.655527) " cx="177.2" cy="177.655527" rx="5.21336761" ry="5.2"></ellipse>
                    <ellipse id="Oval-Copy-96" transform="translate(177.200000, 143.167095) rotate(90.000000) translate(-177.200000, -143.167095) " cx="177.2" cy="143.167095" rx="5.21336761" ry="5.2"></ellipse>
                    <ellipse id="Oval-Copy-95" transform="translate(177.200000, 108.678663) rotate(90.000000) translate(-177.200000, -108.678663) " cx="177.2" cy="108.678663" rx="5.21336761" ry="5.2"></ellipse>
                    <ellipse id="Oval-Copy-94" transform="translate(177.200000, 74.190231) rotate(90.000000) translate(-177.200000, -74.190231) " cx="177.2" cy="74.1902314" rx="5.21336761" ry="5.2"></ellipse>
                    <ellipse id="Oval-Copy-93" transform="translate(177.200000, 39.701799) rotate(90.000000) translate(-177.200000, -39.701799) " cx="177.2" cy="39.7017995" rx="5.21336761" ry="5.2"></ellipse>
                    <ellipse id="Oval-Copy-92" transform="translate(177.200000, 5.213368) rotate(90.000000) translate(-177.200000, -5.213368) " cx="177.2" cy="5.21336761" rx="5.21336761" ry="5.2"></ellipse>
                    <ellipse id="Oval-Copy-90" transform="translate(211.600000, 384.586118) rotate(90.000000) translate(-211.600000, -384.586118) " cx="211.6" cy="384.586118" rx="5.21336761" ry="5.2"></ellipse>
                    <ellipse id="Oval-Copy-89" transform="translate(211.600000, 350.097686) rotate(90.000000) translate(-211.600000, -350.097686) " cx="211.6" cy="350.097686" rx="5.21336761" ry="5.2"></ellipse>
                    <ellipse id="Oval-Copy-88" transform="translate(211.600000, 315.609254) rotate(90.000000) translate(-211.600000, -315.609254) " cx="211.6" cy="315.609254" rx="5.21336761" ry="5.2"></ellipse>
                    <ellipse id="Oval-Copy-87" transform="translate(211.600000, 281.120823) rotate(90.000000) translate(-211.600000, -281.120823) " cx="211.6" cy="281.120823" rx="5.21336761" ry="5.2"></ellipse>
                    <ellipse id="Oval-Copy-86" transform="translate(211.600000, 246.632391) rotate(90.000000) translate(-211.600000, -246.632391) " cx="211.6" cy="246.632391" rx="5.21336761" ry="5.2"></ellipse>
                    <ellipse id="Oval-Copy-85" transform="translate(211.600000, 212.143959) rotate(90.000000) translate(-211.600000, -212.143959) " cx="211.6" cy="212.143959" rx="5.21336761" ry="5.2"></ellipse>
                    <ellipse id="Oval-Copy-84" transform="translate(211.600000, 177.655527) rotate(90.000000) translate(-211.600000, -177.655527) " cx="211.6" cy="177.655527" rx="5.21336761" ry="5.2"></ellipse>
                    <ellipse id="Oval-Copy-83" transform="translate(211.600000, 143.167095) rotate(90.000000) translate(-211.600000, -143.167095) " cx="211.6" cy="143.167095" rx="5.21336761" ry="5.2"></ellipse>
                    <ellipse id="Oval-Copy-82" transform="translate(211.600000, 108.678663) rotate(90.000000) translate(-211.600000, -108.678663) " cx="211.6" cy="108.678663" rx="5.21336761" ry="5.2"></ellipse>
                    <ellipse id="Oval-Copy-81" transform="translate(211.600000, 74.190231) rotate(90.000000) translate(-211.600000, -74.190231) " cx="211.6" cy="74.1902314" rx="5.21336761" ry="5.2"></ellipse>
                    <ellipse id="Oval-Copy-80" transform="translate(211.600000, 39.701799) rotate(90.000000) translate(-211.600000, -39.701799) " cx="211.6" cy="39.7017995" rx="5.21336761" ry="5.2"></ellipse>
                    <ellipse id="Oval-Copy-79" transform="translate(211.600000, 5.213368) rotate(90.000000) translate(-211.600000, -5.213368) " cx="211.6" cy="5.21336761" rx="5.21336761" ry="5.2"></ellipse>
                    <ellipse id="Oval-Copy-77" transform="translate(246.000000, 384.586118) rotate(90.000000) translate(-246.000000, -384.586118) " cx="246" cy="384.586118" rx="5.21336761" ry="5.2"></ellipse>
                    <ellipse id="Oval-Copy-167" transform="translate(252.200000, 350.097686) rotate(90.000000) translate(-252.200000, -350.097686) " cx="252.2" cy="350.097686" rx="5.21336761" ry="5.2"></ellipse>
                    <ellipse id="Oval-Copy-166" transform="translate(252.200000, 315.609254) rotate(90.000000) translate(-252.200000, -315.609254) " cx="252.2" cy="315.609254" rx="5.21336761" ry="5.2"></ellipse>
                    <ellipse id="Oval-Copy-165" transform="translate(252.200000, 281.120823) rotate(90.000000) translate(-252.200000, -281.120823) " cx="252.2" cy="281.120823" rx="5.21336761" ry="5.2"></ellipse>
                    <ellipse id="Oval-Copy-164" transform="translate(252.200000, 246.632391) rotate(90.000000) translate(-252.200000, -246.632391) " cx="252.2" cy="246.632391" rx="5.21336761" ry="5.2"></ellipse>
                    <ellipse id="Oval-Copy-163" transform="translate(252.200000, 212.143959) rotate(90.000000) translate(-252.200000, -212.143959) " cx="252.2" cy="212.143959" rx="5.21336761" ry="5.2"></ellipse>
                    <ellipse id="Oval-Copy-162" transform="translate(252.200000, 177.655527) rotate(90.000000) translate(-252.200000, -177.655527) " cx="252.2" cy="177.655527" rx="5.21336761" ry="5.2"></ellipse>
                    <ellipse id="Oval-Copy-161" transform="translate(252.200000, 143.167095) rotate(90.000000) translate(-252.200000, -143.167095) " cx="252.2" cy="143.167095" rx="5.21336761" ry="5.2"></ellipse>
                    <ellipse id="Oval-Copy-160" transform="translate(252.200000, 108.678663) rotate(90.000000) translate(-252.200000, -108.678663) " cx="252.2" cy="108.678663" rx="5.21336761" ry="5.2"></ellipse>
                    <ellipse id="Oval-Copy-159" transform="translate(252.200000, 74.190231) rotate(90.000000) translate(-252.200000, -74.190231) " cx="252.2" cy="74.1902314" rx="5.21336761" ry="5.2"></ellipse>
                    <ellipse id="Oval-Copy-158" transform="translate(252.200000, 39.701799) rotate(90.000000) translate(-252.200000, -39.701799) " cx="252.2" cy="39.7017995" rx="5.21336761" ry="5.2"></ellipse>
                    <ellipse id="Oval-Copy-157" transform="translate(252.200000, 5.213368) rotate(90.000000) translate(-252.200000, -5.213368) " cx="252.2" cy="5.21336761" rx="5.21336761" ry="5.2"></ellipse>
                    <ellipse id="Oval-Copy-155" transform="translate(286.600000, 384.586118) rotate(90.000000) translate(-286.600000, -384.586118) " cx="286.6" cy="384.586118" rx="5.21336761" ry="5.2"></ellipse>
                    <ellipse id="Oval-Copy-154" transform="translate(286.600000, 350.097686) rotate(90.000000) translate(-286.600000, -350.097686) " cx="286.6" cy="350.097686" rx="5.21336761" ry="5.2"></ellipse>
                    <ellipse id="Oval-Copy-153" transform="translate(286.600000, 315.609254) rotate(90.000000) translate(-286.600000, -315.609254) " cx="286.6" cy="315.609254" rx="5.21336761" ry="5.2"></ellipse>
                    <ellipse id="Oval-Copy-152" transform="translate(286.600000, 281.120823) rotate(90.000000) translate(-286.600000, -281.120823) " cx="286.6" cy="281.120823" rx="5.21336761" ry="5.2"></ellipse>
                    <ellipse id="Oval-Copy-151" transform="translate(286.600000, 246.632391) rotate(90.000000) translate(-286.600000, -246.632391) " cx="286.6" cy="246.632391" rx="5.21336761" ry="5.2"></ellipse>
                    <ellipse id="Oval-Copy-150" transform="translate(286.600000, 212.143959) rotate(90.000000) translate(-286.600000, -212.143959) " cx="286.6" cy="212.143959" rx="5.21336761" ry="5.2"></ellipse>
                    <ellipse id="Oval-Copy-149" transform="translate(286.600000, 177.655527) rotate(90.000000) translate(-286.600000, -177.655527) " cx="286.6" cy="177.655527" rx="5.21336761" ry="5.2"></ellipse>
                    <ellipse id="Oval-Copy-148" transform="translate(286.600000, 143.167095) rotate(90.000000) translate(-286.600000, -143.167095) " cx="286.6" cy="143.167095" rx="5.21336761" ry="5.2"></ellipse>
                    <ellipse id="Oval-Copy-147" transform="translate(286.600000, 108.678663) rotate(90.000000) translate(-286.600000, -108.678663) " cx="286.6" cy="108.678663" rx="5.21336761" ry="5.2"></ellipse>
                    <ellipse id="Oval-Copy-146" transform="translate(286.600000, 74.190231) rotate(90.000000) translate(-286.600000, -74.190231) " cx="286.6" cy="74.1902314" rx="5.21336761" ry="5.2"></ellipse>
                    <ellipse id="Oval-Copy-145" transform="translate(286.600000, 39.701799) rotate(90.000000) translate(-286.600000, -39.701799) " cx="286.6" cy="39.7017995" rx="5.21336761" ry="5.2"></ellipse>
                    <ellipse id="Oval-Copy-144" transform="translate(286.600000, 5.213368) rotate(90.000000) translate(-286.600000, -5.213368) " cx="286.6" cy="5.21336761" rx="5.21336761" ry="5.2"></ellipse>
                    <ellipse id="Oval-Copy-142" transform="translate(321.000000, 384.586118) rotate(90.000000) translate(-321.000000, -384.586118) " cx="321" cy="384.586118" rx="5.21336761" ry="5.2"></ellipse>
                    <ellipse id="Oval-Copy-141" transform="translate(321.000000, 350.097686) rotate(90.000000) translate(-321.000000, -350.097686) " cx="321" cy="350.097686" rx="5.21336761" ry="5.2"></ellipse>
                    <ellipse id="Oval-Copy-140" transform="translate(321.000000, 315.609254) rotate(90.000000) translate(-321.000000, -315.609254) " cx="321" cy="315.609254" rx="5.21336761" ry="5.2"></ellipse>
                    <ellipse id="Oval-Copy-139" transform="translate(321.000000, 281.120823) rotate(90.000000) translate(-321.000000, -281.120823) " cx="321" cy="281.120823" rx="5.21336761" ry="5.2"></ellipse>
                    <ellipse id="Oval-Copy-138" transform="translate(321.000000, 246.632391) rotate(90.000000) translate(-321.000000, -246.632391) " cx="321" cy="246.632391" rx="5.21336761" ry="5.2"></ellipse>
                    <ellipse id="Oval-Copy-137" transform="translate(321.000000, 212.143959) rotate(90.000000) translate(-321.000000, -212.143959) " cx="321" cy="212.143959" rx="5.21336761" ry="5.2"></ellipse>
                    <ellipse id="Oval-Copy-136" transform="translate(321.000000, 177.655527) rotate(90.000000) translate(-321.000000, -177.655527) " cx="321" cy="177.655527" rx="5.21336761" ry="5.2"></ellipse>
                    <ellipse id="Oval-Copy-135" transform="translate(321.000000, 143.167095) rotate(90.000000) translate(-321.000000, -143.167095) " cx="321" cy="143.167095" rx="5.21336761" ry="5.2"></ellipse>
                    <ellipse id="Oval-Copy-134" transform="translate(321.000000, 108.678663) rotate(90.000000) translate(-321.000000, -108.678663) " cx="321" cy="108.678663" rx="5.21336761" ry="5.2"></ellipse>
                    <ellipse id="Oval-Copy-133" transform="translate(321.000000, 74.190231) rotate(90.000000) translate(-321.000000, -74.190231) " cx="321" cy="74.1902314" rx="5.21336761" ry="5.2"></ellipse>
                    <ellipse id="Oval-Copy-132" transform="translate(321.000000, 39.701799) rotate(90.000000) translate(-321.000000, -39.701799) " cx="321" cy="39.7017995" rx="5.21336761" ry="5.2"></ellipse>
                    <ellipse id="Oval-Copy-131" transform="translate(321.000000, 5.213368) rotate(90.000000) translate(-321.000000, -5.213368) " cx="321" cy="5.21336761" rx="5.21336761" ry="5.2"></ellipse>
                </g>
            </g>
        </g>
    </g>
</svg>