<?xml version="1.0" encoding="UTF-8"?>
<svg width="218px" height="257px" viewBox="0 0 218 257" version="1.1" xmlns="http://www.w3.org/2000/svg" xmlns:xlink="http://www.w3.org/1999/xlink">
    <title>3F0F46E9-3DD7-4603-B9FD-0892275C644F@3x</title>
    <g id="LP" stroke="none" stroke-width="1" fill="none" fill-rule="evenodd">
        <g id="01-1-1-LP" transform="translate(-15.000000, -2591.000000)">
            <g id="Features" transform="translate(0.000000, 2591.000000)">
                <g id="Shape-2" transform="translate(15.000000, 0.000000)">
                    <g id="Group-61" fill="#F5F5FC">
                        <circle id="Oval-Copy-65" transform="translate(211.600000, 5.200000) scale(1, -1) translate(-211.600000, -5.200000) " cx="211.6" cy="5.2" r="5.2"></circle>
                        <circle id="Oval-Copy-64" transform="translate(177.200000, 5.200000) scale(1, -1) translate(-177.200000, -5.200000) " cx="177.2" cy="5.2" r="5.2"></circle>
                        <circle id="Oval-Copy-63" transform="translate(142.800000, 5.200000) scale(1, -1) translate(-142.800000, -5.200000) " cx="142.8" cy="5.2" r="5.2"></circle>
                        <circle id="Oval-Copy-62" transform="translate(108.400000, 5.200000) scale(1, -1) translate(-108.400000, -5.200000) " cx="108.4" cy="5.2" r="5.2"></circle>
                        <circle id="Oval-Copy-61" transform="translate(74.000000, 5.200000) scale(1, -1) translate(-74.000000, -5.200000) " cx="74" cy="5.2" r="5.2"></circle>
                        <circle id="Oval-Copy-60" transform="translate(39.600000, 5.200000) scale(1, -1) translate(-39.600000, -5.200000) " cx="39.6" cy="5.2" r="5.2"></circle>
                        <circle id="Oval-Copy-59" transform="translate(5.200000, 5.200000) scale(1, -1) translate(-5.200000, -5.200000) " cx="5.2" cy="5.2" r="5.2"></circle>
                        <circle id="Oval-Copy-52" transform="translate(211.600000, 39.600000) scale(1, -1) translate(-211.600000, -39.600000) " cx="211.6" cy="39.6" r="5.2"></circle>
                        <circle id="Oval-Copy-51" transform="translate(177.200000, 39.600000) scale(1, -1) translate(-177.200000, -39.600000) " cx="177.2" cy="39.6" r="5.2"></circle>
                        <circle id="Oval-Copy-50" transform="translate(142.800000, 39.600000) scale(1, -1) translate(-142.800000, -39.600000) " cx="142.8" cy="39.6" r="5.2"></circle>
                        <circle id="Oval-Copy-49" transform="translate(108.400000, 39.600000) scale(1, -1) translate(-108.400000, -39.600000) " cx="108.4" cy="39.6" r="5.2"></circle>
                        <circle id="Oval-Copy-48" transform="translate(74.000000, 39.600000) scale(1, -1) translate(-74.000000, -39.600000) " cx="74" cy="39.6" r="5.2"></circle>
                        <circle id="Oval-Copy-47" transform="translate(39.600000, 39.600000) scale(1, -1) translate(-39.600000, -39.600000) " cx="39.6" cy="39.6" r="5.2"></circle>
                        <circle id="Oval-Copy-46" transform="translate(5.200000, 39.600000) scale(1, -1) translate(-5.200000, -39.600000) " cx="5.2" cy="39.6" r="5.2"></circle>
                        <circle id="Oval-Copy-39" transform="translate(211.600000, 74.000000) scale(1, -1) translate(-211.600000, -74.000000) " cx="211.6" cy="74" r="5.2"></circle>
                        <circle id="Oval-Copy-38" transform="translate(177.200000, 74.000000) scale(1, -1) translate(-177.200000, -74.000000) " cx="177.2" cy="74" r="5.2"></circle>
                        <circle id="Oval-Copy-37" transform="translate(142.800000, 74.000000) scale(1, -1) translate(-142.800000, -74.000000) " cx="142.8" cy="74" r="5.2"></circle>
                        <circle id="Oval-Copy-36" transform="translate(108.400000, 74.000000) scale(1, -1) translate(-108.400000, -74.000000) " cx="108.4" cy="74" r="5.2"></circle>
                        <circle id="Oval-Copy-35" transform="translate(74.000000, 74.000000) scale(1, -1) translate(-74.000000, -74.000000) " cx="74" cy="74" r="5.2"></circle>
                        <circle id="Oval-Copy-34" transform="translate(39.600000, 74.000000) scale(1, -1) translate(-39.600000, -74.000000) " cx="39.6" cy="74" r="5.2"></circle>
                        <circle id="Oval-Copy-33" transform="translate(5.200000, 74.000000) scale(1, -1) translate(-5.200000, -74.000000) " cx="5.2" cy="74" r="5.2"></circle>
                    </g>
                    <g id="Group-53" transform="translate(0.600000, 112.200000)" fill="#F0E6F9">
                        <circle id="Oval-Copy-150" transform="translate(211.600000, 5.200000) scale(1, -1) translate(-211.600000, -5.200000) " cx="211.6" cy="5.2" r="5.2"></circle>
                        <circle id="Oval-Copy-149" transform="translate(177.200000, 5.200000) scale(1, -1) translate(-177.200000, -5.200000) " cx="177.2" cy="5.2" r="5.2"></circle>
                        <circle id="Oval-Copy-148" transform="translate(142.800000, 5.200000) scale(1, -1) translate(-142.800000, -5.200000) " cx="142.8" cy="5.2" r="5.2"></circle>
                        <circle id="Oval-Copy-147" transform="translate(108.400000, 5.200000) scale(1, -1) translate(-108.400000, -5.200000) " cx="108.4" cy="5.2" r="5.2"></circle>
                        <circle id="Oval-Copy-146" transform="translate(74.000000, 5.200000) scale(1, -1) translate(-74.000000, -5.200000) " cx="74" cy="5.2" r="5.2"></circle>
                        <circle id="Oval-Copy-145" transform="translate(39.600000, 5.200000) scale(1, -1) translate(-39.600000, -5.200000) " cx="39.6" cy="5.2" r="5.2"></circle>
                        <circle id="Oval-Copy-144" transform="translate(5.200000, 5.200000) scale(1, -1) translate(-5.200000, -5.200000) " cx="5.2" cy="5.2" r="5.2"></circle>
                        <circle id="Oval-Copy-137" transform="translate(211.600000, 39.600000) scale(1, -1) translate(-211.600000, -39.600000) " cx="211.6" cy="39.6" r="5.2"></circle>
                        <circle id="Oval-Copy-136" transform="translate(177.200000, 39.600000) scale(1, -1) translate(-177.200000, -39.600000) " cx="177.2" cy="39.6" r="5.2"></circle>
                        <circle id="Oval-Copy-135" transform="translate(142.800000, 39.600000) scale(1, -1) translate(-142.800000, -39.600000) " cx="142.8" cy="39.6" r="5.2"></circle>
                        <circle id="Oval-Copy-134" transform="translate(108.400000, 39.600000) scale(1, -1) translate(-108.400000, -39.600000) " cx="108.4" cy="39.6" r="5.2"></circle>
                        <circle id="Oval-Copy-133" transform="translate(74.000000, 39.600000) scale(1, -1) translate(-74.000000, -39.600000) " cx="74" cy="39.6" r="5.2"></circle>
                        <circle id="Oval-Copy-132" transform="translate(39.600000, 39.600000) scale(1, -1) translate(-39.600000, -39.600000) " cx="39.6" cy="39.6" r="5.2"></circle>
                        <circle id="Oval-Copy-131" transform="translate(5.200000, 39.600000) scale(1, -1) translate(-5.200000, -39.600000) " cx="5.2" cy="39.6" r="5.2"></circle>
                        <circle id="Oval-Copy-163" transform="translate(211.600000, 69.800000) scale(1, -1) translate(-211.600000, -69.800000) " cx="211.6" cy="69.8" r="5.2"></circle>
                        <circle id="Oval-Copy-162" transform="translate(177.200000, 69.800000) scale(1, -1) translate(-177.200000, -69.800000) " cx="177.2" cy="69.8" r="5.2"></circle>
                        <circle id="Oval-Copy-161" transform="translate(142.800000, 69.800000) scale(1, -1) translate(-142.800000, -69.800000) " cx="142.8" cy="69.8" r="5.2"></circle>
                        <circle id="Oval-Copy-160" transform="translate(108.400000, 69.800000) scale(1, -1) translate(-108.400000, -69.800000) " cx="108.4" cy="69.8" r="5.2"></circle>
                        <circle id="Oval-Copy-159" transform="translate(74.000000, 69.800000) scale(1, -1) translate(-74.000000, -69.800000) " cx="74" cy="69.8" r="5.2"></circle>
                        <circle id="Oval-Copy-158" transform="translate(39.600000, 69.800000) scale(1, -1) translate(-39.600000, -69.800000) " cx="39.6" cy="69.8" r="5.2"></circle>
                        <circle id="Oval-Copy-157" transform="translate(5.200000, 69.800000) scale(1, -1) translate(-5.200000, -69.800000) " cx="5.2" cy="69.8" r="5.2"></circle>
                        <circle id="Oval-Copy-150" transform="translate(211.600000, 104.200000) scale(1, -1) translate(-211.600000, -104.200000) " cx="211.6" cy="104.2" r="5.2"></circle>
                        <circle id="Oval-Copy-149" transform="translate(177.200000, 104.200000) scale(1, -1) translate(-177.200000, -104.200000) " cx="177.2" cy="104.2" r="5.2"></circle>
                        <circle id="Oval-Copy-148" transform="translate(142.800000, 104.200000) scale(1, -1) translate(-142.800000, -104.200000) " cx="142.8" cy="104.2" r="5.2"></circle>
                        <circle id="Oval-Copy-147" transform="translate(108.400000, 104.200000) scale(1, -1) translate(-108.400000, -104.200000) " cx="108.4" cy="104.2" r="5.2"></circle>
                        <circle id="Oval-Copy-146" transform="translate(74.000000, 104.200000) scale(1, -1) translate(-74.000000, -104.200000) " cx="74" cy="104.2" r="5.2"></circle>
                        <circle id="Oval-Copy-145" transform="translate(39.600000, 104.200000) scale(1, -1) translate(-39.600000, -104.200000) " cx="39.6" cy="104.2" r="5.2"></circle>
                        <circle id="Oval-Copy-144" transform="translate(5.200000, 104.200000) scale(1, -1) translate(-5.200000, -104.200000) " cx="5.2" cy="104.2" r="5.2"></circle>
                        <circle id="Oval-Copy-137" transform="translate(211.600000, 138.600000) scale(1, -1) translate(-211.600000, -138.600000) " cx="211.6" cy="138.6" r="5.2"></circle>
                        <circle id="Oval-Copy-136" transform="translate(177.200000, 138.600000) scale(1, -1) translate(-177.200000, -138.600000) " cx="177.2" cy="138.6" r="5.2"></circle>
                        <circle id="Oval-Copy-135" transform="translate(142.800000, 138.600000) scale(1, -1) translate(-142.800000, -138.600000) " cx="142.8" cy="138.6" r="5.2"></circle>
                        <circle id="Oval-Copy-134" transform="translate(108.400000, 138.600000) scale(1, -1) translate(-108.400000, -138.600000) " cx="108.4" cy="138.6" r="5.2"></circle>
                        <circle id="Oval-Copy-133" transform="translate(74.000000, 138.600000) scale(1, -1) translate(-74.000000, -138.600000) " cx="74" cy="138.6" r="5.2"></circle>
                        <circle id="Oval-Copy-132" transform="translate(39.600000, 138.600000) scale(1, -1) translate(-39.600000, -138.600000) " cx="39.6" cy="138.6" r="5.2"></circle>
                        <circle id="Oval-Copy-131" transform="translate(5.200000, 138.600000) scale(1, -1) translate(-5.200000, -138.600000) " cx="5.2" cy="138.6" r="5.2"></circle>
                    </g>
                </g>
            </g>
        </g>
    </g>
</svg>