<?xml version="1.0" encoding="UTF-8"?>
<svg width="251px" height="80px" viewBox="0 0 251 80" version="1.1" xmlns="http://www.w3.org/2000/svg" xmlns:xlink="http://www.w3.org/1999/xlink">
    <title>FD7F1DC5-E729-4D96-82FE-0C9D76987B95@3x</title>
    <g id="LP" stroke="none" stroke-width="1" fill="none" fill-rule="evenodd">
        <g id="02-1-1-LP" transform="translate(-22.000000, -749.000000)" fill="#F5F5FC">
            <g id="Shape---3" transform="translate(22.000000, 749.000000)">
                <circle id="Oval-Copy-65" transform="translate(245.600000, 5.200000) scale(1, -1) translate(-245.600000, -5.200000) " cx="245.6" cy="5.2" r="5.2"></circle>
                <circle id="Oval-Copy-64" transform="translate(211.200000, 5.200000) scale(1, -1) translate(-211.200000, -5.200000) " cx="211.2" cy="5.2" r="5.2"></circle>
                <circle id="Oval-Copy-63" transform="translate(176.800000, 5.200000) scale(1, -1) translate(-176.800000, -5.200000) " cx="176.8" cy="5.2" r="5.2"></circle>
                <circle id="Oval-Copy-62" transform="translate(142.400000, 5.200000) scale(1, -1) translate(-142.400000, -5.200000) " cx="142.4" cy="5.2" r="5.2"></circle>
                <circle id="Oval-Copy-61" transform="translate(108.000000, 5.200000) scale(1, -1) translate(-108.000000, -5.200000) " cx="108" cy="5.2" r="5.2"></circle>
                <circle id="Oval-Copy-60" transform="translate(73.600000, 5.200000) scale(1, -1) translate(-73.600000, -5.200000) " cx="73.6" cy="5.2" r="5.2"></circle>
                <circle id="Oval-Copy-59" transform="translate(39.200000, 5.200000) scale(1, -1) translate(-39.200000, -5.200000) " cx="39.2" cy="5.2" r="5.2"></circle>
                <circle id="Oval-Copy-52" transform="translate(245.600000, 39.600000) scale(1, -1) translate(-245.600000, -39.600000) " cx="245.6" cy="39.6" r="5.2"></circle>
                <circle id="Oval-Copy-51" transform="translate(211.200000, 39.600000) scale(1, -1) translate(-211.200000, -39.600000) " cx="211.2" cy="39.6" r="5.2"></circle>
                <circle id="Oval-Copy-50" transform="translate(176.800000, 39.600000) scale(1, -1) translate(-176.800000, -39.600000) " cx="176.8" cy="39.6" r="5.2"></circle>
                <circle id="Oval-Copy-49" transform="translate(142.400000, 39.600000) scale(1, -1) translate(-142.400000, -39.600000) " cx="142.4" cy="39.6" r="5.2"></circle>
                <circle id="Oval-Copy-48" transform="translate(108.000000, 39.600000) scale(1, -1) translate(-108.000000, -39.600000) " cx="108" cy="39.6" r="5.2"></circle>
                <circle id="Oval-Copy-47" transform="translate(73.600000, 39.600000) scale(1, -1) translate(-73.600000, -39.600000) " cx="73.6" cy="39.6" r="5.2"></circle>
                <circle id="Oval-Copy-46" transform="translate(39.200000, 39.600000) scale(1, -1) translate(-39.200000, -39.600000) " cx="39.2" cy="39.6" r="5.2"></circle>
                <circle id="Oval-Copy-39" transform="translate(245.600000, 74.000000) scale(1, -1) translate(-245.600000, -74.000000) " cx="245.6" cy="74" r="5.2"></circle>
                <circle id="Oval-Copy-38" transform="translate(211.200000, 74.000000) scale(1, -1) translate(-211.200000, -74.000000) " cx="211.2" cy="74" r="5.2"></circle>
                <circle id="Oval-Copy-37" transform="translate(176.800000, 74.000000) scale(1, -1) translate(-176.800000, -74.000000) " cx="176.8" cy="74" r="5.2"></circle>
                <circle id="Oval-Copy-36" transform="translate(142.400000, 74.000000) scale(1, -1) translate(-142.400000, -74.000000) " cx="142.4" cy="74" r="5.2"></circle>
                <circle id="Oval-Copy-35" transform="translate(108.000000, 74.000000) scale(1, -1) translate(-108.000000, -74.000000) " cx="108" cy="74" r="5.2"></circle>
                <circle id="Oval-Copy-34" transform="translate(73.600000, 74.000000) scale(1, -1) translate(-73.600000, -74.000000) " cx="73.6" cy="74" r="5.2"></circle>
                <circle id="Oval-Copy-33" transform="translate(39.200000, 74.000000) scale(1, -1) translate(-39.200000, -74.000000) " cx="39.2" cy="74" r="5.2"></circle>
                <circle id="Oval-Copy-59" transform="translate(5.200000, 5.200000) scale(1, -1) translate(-5.200000, -5.200000) " cx="5.2" cy="5.2" r="5.2"></circle>
                <circle id="Oval-Copy-46" transform="translate(5.200000, 39.600000) scale(1, -1) translate(-5.200000, -39.600000) " cx="5.2" cy="39.6" r="5.2"></circle>
                <circle id="Oval-Copy-33" transform="translate(5.200000, 74.000000) scale(1, -1) translate(-5.200000, -74.000000) " cx="5.2" cy="74" r="5.2"></circle>
            </g>
        </g>
    </g>
</svg>