<?xml version="1.0" encoding="UTF-8"?>
<svg width="218px" height="868px" viewBox="0 0 218 868" version="1.1" xmlns="http://www.w3.org/2000/svg" xmlns:xlink="http://www.w3.org/1999/xlink">
    <title>985238DD-0B71-41A3-8DF4-458D9FDDBC78@3x</title>
    <g id="LP" stroke="none" stroke-width="1" fill="none" fill-rule="evenodd">
        <g id="02-1-1-LP" transform="translate(-19.000000, -2622.000000)" fill="#F5F5FC">
            <g id="Shape-7" transform="translate(19.000000, 2622.000000)">
                <g id="Shape---24">
                    <circle id="Oval-Copy-169" cx="212" cy="418" r="5.2"></circle>
                    <circle id="Oval-Copy-168" cx="177.6" cy="418" r="5.2"></circle>
                    <circle id="Oval-Copy-167" cx="143.2" cy="418" r="5.2"></circle>
                    <circle id="Oval-Copy-166" cx="108.8" cy="418" r="5.2"></circle>
                    <circle id="Oval-Copy-165" cx="74.4" cy="418" r="5.2"></circle>
                    <circle id="Oval-Copy-164" cx="40" cy="418" r="5.2"></circle>
                    <circle id="Oval-Copy-163" cx="5.6" cy="418" r="5.2"></circle>
                    <circle id="Oval-Copy-156" cx="212" cy="383.6" r="5.2"></circle>
                    <circle id="Oval-Copy-155" cx="177.6" cy="383.6" r="5.2"></circle>
                    <circle id="Oval-Copy-154" cx="143.2" cy="383.6" r="5.2"></circle>
                    <circle id="Oval-Copy-153" cx="108.8" cy="383.6" r="5.2"></circle>
                    <circle id="Oval-Copy-152" cx="74.4" cy="383.6" r="5.2"></circle>
                    <circle id="Oval-Copy-151" cx="40" cy="383.6" r="5.2"></circle>
                    <circle id="Oval-Copy-150" cx="5.6" cy="383.6" r="5.2"></circle>
                    <circle id="Oval-Copy-143" cx="212" cy="349.2" r="5.2"></circle>
                    <circle id="Oval-Copy-142" cx="177.6" cy="349.2" r="5.2"></circle>
                    <circle id="Oval-Copy-141" cx="143.2" cy="349.2" r="5.2"></circle>
                    <circle id="Oval-Copy-140" cx="108.8" cy="349.2" r="5.2"></circle>
                    <circle id="Oval-Copy-139" cx="74.4" cy="349.2" r="5.2"></circle>
                    <circle id="Oval-Copy-138" cx="40" cy="349.2" r="5.2"></circle>
                    <circle id="Oval-Copy-137" cx="5.6" cy="349.2" r="5.2"></circle>
                    <circle id="Oval-Copy-130" cx="212" cy="314.8" r="5.2"></circle>
                    <circle id="Oval-Copy-129" cx="177.6" cy="314.8" r="5.2"></circle>
                    <circle id="Oval-Copy-128" cx="143.2" cy="314.8" r="5.2"></circle>
                    <circle id="Oval-Copy-127" cx="108.8" cy="314.8" r="5.2"></circle>
                    <circle id="Oval-Copy-126" cx="74.4" cy="314.8" r="5.2"></circle>
                    <circle id="Oval-Copy-125" cx="40" cy="314.8" r="5.2"></circle>
                    <circle id="Oval-Copy-124" cx="5.6" cy="314.8" r="5.2"></circle>
                    <circle id="Oval-Copy-117" cx="212" cy="280.4" r="5.2"></circle>
                    <circle id="Oval-Copy-116" cx="177.6" cy="280.4" r="5.2"></circle>
                    <circle id="Oval-Copy-115" cx="143.2" cy="280.4" r="5.2"></circle>
                    <circle id="Oval-Copy-114" cx="108.8" cy="280.4" r="5.2"></circle>
                    <circle id="Oval-Copy-113" cx="74.4" cy="280.4" r="5.2"></circle>
                    <circle id="Oval-Copy-112" cx="40" cy="280.4" r="5.2"></circle>
                    <circle id="Oval-Copy-111" cx="5.6" cy="280.4" r="5.2"></circle>
                    <circle id="Oval-Copy-104" cx="212" cy="246" r="5.2"></circle>
                    <circle id="Oval-Copy-103" cx="177.6" cy="246" r="5.2"></circle>
                    <circle id="Oval-Copy-102" cx="143.2" cy="246" r="5.2"></circle>
                    <circle id="Oval-Copy-101" cx="108.8" cy="246" r="5.2"></circle>
                    <circle id="Oval-Copy-100" cx="74.4" cy="246" r="5.2"></circle>
                    <circle id="Oval-Copy-99" cx="40" cy="246" r="5.2"></circle>
                    <circle id="Oval-Copy-98" cx="5.6" cy="246" r="5.2"></circle>
                    <circle id="Oval-Copy-91" cx="212" cy="211.6" r="5.2"></circle>
                    <circle id="Oval-Copy-90" cx="177.6" cy="211.6" r="5.2"></circle>
                    <circle id="Oval-Copy-89" cx="143.2" cy="211.6" r="5.2"></circle>
                    <circle id="Oval-Copy-88" cx="108.8" cy="211.6" r="5.2"></circle>
                    <circle id="Oval-Copy-87" cx="74.4" cy="211.6" r="5.2"></circle>
                    <circle id="Oval-Copy-86" cx="40" cy="211.6" r="5.2"></circle>
                    <circle id="Oval-Copy-85" cx="5.6" cy="211.6" r="5.2"></circle>
                    <circle id="Oval-Copy-78" cx="212" cy="177.2" r="5.2"></circle>
                    <circle id="Oval-Copy-77" cx="177.6" cy="177.2" r="5.2"></circle>
                    <circle id="Oval-Copy-76" cx="143.2" cy="177.2" r="5.2"></circle>
                    <circle id="Oval-Copy-75" cx="108.8" cy="177.2" r="5.2"></circle>
                    <circle id="Oval-Copy-74" cx="74.4" cy="177.2" r="5.2"></circle>
                    <circle id="Oval-Copy-73" cx="40" cy="177.2" r="5.2"></circle>
                    <circle id="Oval-Copy-72" cx="5.6" cy="177.2" r="5.2"></circle>
                    <circle id="Oval-Copy-65" cx="212" cy="142.8" r="5.2"></circle>
                    <circle id="Oval-Copy-64" cx="177.6" cy="142.8" r="5.2"></circle>
                    <circle id="Oval-Copy-63" cx="143.2" cy="142.8" r="5.2"></circle>
                    <circle id="Oval-Copy-62" cx="108.8" cy="142.8" r="5.2"></circle>
                    <circle id="Oval-Copy-61" cx="74.4" cy="142.8" r="5.2"></circle>
                    <circle id="Oval-Copy-60" cx="40" cy="142.8" r="5.2"></circle>
                    <circle id="Oval-Copy-59" cx="5.6" cy="142.8" r="5.2"></circle>
                    <circle id="Oval-Copy-52" cx="212" cy="108.4" r="5.2"></circle>
                    <circle id="Oval-Copy-51" cx="177.6" cy="108.4" r="5.2"></circle>
                    <circle id="Oval-Copy-50" cx="143.2" cy="108.4" r="5.2"></circle>
                    <circle id="Oval-Copy-49" cx="108.8" cy="108.4" r="5.2"></circle>
                    <circle id="Oval-Copy-48" cx="74.4" cy="108.4" r="5.2"></circle>
                    <circle id="Oval-Copy-47" cx="40" cy="108.4" r="5.2"></circle>
                    <circle id="Oval-Copy-46" cx="5.6" cy="108.4" r="5.2"></circle>
                    <circle id="Oval-Copy-39" cx="212" cy="74" r="5.2"></circle>
                    <circle id="Oval-Copy-38" cx="177.6" cy="74" r="5.2"></circle>
                    <circle id="Oval-Copy-37" cx="143.2" cy="74" r="5.2"></circle>
                    <circle id="Oval-Copy-36" cx="108.8" cy="74" r="5.2"></circle>
                    <circle id="Oval-Copy-35" cx="74.4" cy="74" r="5.2"></circle>
                    <circle id="Oval-Copy-34" cx="40" cy="74" r="5.2"></circle>
                    <circle id="Oval-Copy-33" cx="5.6" cy="74" r="5.2"></circle>
                    <circle id="Oval-Copy-26" cx="212" cy="39.6" r="5.2"></circle>
                    <circle id="Oval-Copy-25" cx="177.6" cy="39.6" r="5.2"></circle>
                    <circle id="Oval-Copy-24" cx="143.2" cy="39.6" r="5.2"></circle>
                    <circle id="Oval-Copy-23" cx="108.8" cy="39.6" r="5.2"></circle>
                    <circle id="Oval-Copy-22" cx="74.4" cy="39.6" r="5.2"></circle>
                    <circle id="Oval-Copy-21" cx="40" cy="39.6" r="5.2"></circle>
                    <circle id="Oval-Copy-20" cx="5.6" cy="39.6" r="5.2"></circle>
                    <circle id="Oval-Copy-13" cx="212" cy="5.2" r="5.2"></circle>
                    <circle id="Oval-Copy-12" cx="177.6" cy="5.2" r="5.2"></circle>
                    <circle id="Oval-Copy-11" cx="143.2" cy="5.2" r="5.2"></circle>
                    <circle id="Oval-Copy-10" cx="108.8" cy="5.2" r="5.2"></circle>
                    <circle id="Oval-Copy-9" cx="74.4" cy="5.2" r="5.2"></circle>
                    <circle id="Oval-Copy-8" cx="40" cy="5.2" r="5.2"></circle>
                    <circle id="Oval-Copy-7" cx="5.6" cy="5.2" r="5.2"></circle>
                </g>
                <g id="Shape---24" transform="translate(0.000000, 444.000000)">
                    <circle id="Oval-Copy-169" cx="212" cy="418" r="5.2"></circle>
                    <circle id="Oval-Copy-168" cx="177.6" cy="418" r="5.2"></circle>
                    <circle id="Oval-Copy-167" cx="143.2" cy="418" r="5.2"></circle>
                    <circle id="Oval-Copy-166" cx="108.8" cy="418" r="5.2"></circle>
                    <circle id="Oval-Copy-165" cx="74.4" cy="418" r="5.2"></circle>
                    <circle id="Oval-Copy-164" cx="40" cy="418" r="5.2"></circle>
                    <circle id="Oval-Copy-163" cx="5.6" cy="418" r="5.2"></circle>
                    <circle id="Oval-Copy-156" cx="212" cy="383.6" r="5.2"></circle>
                    <circle id="Oval-Copy-155" cx="177.6" cy="383.6" r="5.2"></circle>
                    <circle id="Oval-Copy-154" cx="143.2" cy="383.6" r="5.2"></circle>
                    <circle id="Oval-Copy-153" cx="108.8" cy="383.6" r="5.2"></circle>
                    <circle id="Oval-Copy-152" cx="74.4" cy="383.6" r="5.2"></circle>
                    <circle id="Oval-Copy-151" cx="40" cy="383.6" r="5.2"></circle>
                    <circle id="Oval-Copy-150" cx="5.6" cy="383.6" r="5.2"></circle>
                    <circle id="Oval-Copy-143" cx="212" cy="349.2" r="5.2"></circle>
                    <circle id="Oval-Copy-142" cx="177.6" cy="349.2" r="5.2"></circle>
                    <circle id="Oval-Copy-141" cx="143.2" cy="349.2" r="5.2"></circle>
                    <circle id="Oval-Copy-140" cx="108.8" cy="349.2" r="5.2"></circle>
                    <circle id="Oval-Copy-139" cx="74.4" cy="349.2" r="5.2"></circle>
                    <circle id="Oval-Copy-138" cx="40" cy="349.2" r="5.2"></circle>
                    <circle id="Oval-Copy-137" cx="5.6" cy="349.2" r="5.2"></circle>
                    <circle id="Oval-Copy-130" cx="212" cy="314.8" r="5.2"></circle>
                    <circle id="Oval-Copy-129" cx="177.6" cy="314.8" r="5.2"></circle>
                    <circle id="Oval-Copy-128" cx="143.2" cy="314.8" r="5.2"></circle>
                    <circle id="Oval-Copy-127" cx="108.8" cy="314.8" r="5.2"></circle>
                    <circle id="Oval-Copy-126" cx="74.4" cy="314.8" r="5.2"></circle>
                    <circle id="Oval-Copy-125" cx="40" cy="314.8" r="5.2"></circle>
                    <circle id="Oval-Copy-124" cx="5.6" cy="314.8" r="5.2"></circle>
                    <circle id="Oval-Copy-117" cx="212" cy="280.4" r="5.2"></circle>
                    <circle id="Oval-Copy-116" cx="177.6" cy="280.4" r="5.2"></circle>
                    <circle id="Oval-Copy-115" cx="143.2" cy="280.4" r="5.2"></circle>
                    <circle id="Oval-Copy-114" cx="108.8" cy="280.4" r="5.2"></circle>
                    <circle id="Oval-Copy-113" cx="74.4" cy="280.4" r="5.2"></circle>
                    <circle id="Oval-Copy-112" cx="40" cy="280.4" r="5.2"></circle>
                    <circle id="Oval-Copy-111" cx="5.6" cy="280.4" r="5.2"></circle>
                    <circle id="Oval-Copy-104" cx="212" cy="246" r="5.2"></circle>
                    <circle id="Oval-Copy-103" cx="177.6" cy="246" r="5.2"></circle>
                    <circle id="Oval-Copy-102" cx="143.2" cy="246" r="5.2"></circle>
                    <circle id="Oval-Copy-101" cx="108.8" cy="246" r="5.2"></circle>
                    <circle id="Oval-Copy-100" cx="74.4" cy="246" r="5.2"></circle>
                    <circle id="Oval-Copy-99" cx="40" cy="246" r="5.2"></circle>
                    <circle id="Oval-Copy-98" cx="5.6" cy="246" r="5.2"></circle>
                    <circle id="Oval-Copy-91" cx="212" cy="211.6" r="5.2"></circle>
                    <circle id="Oval-Copy-90" cx="177.6" cy="211.6" r="5.2"></circle>
                    <circle id="Oval-Copy-89" cx="143.2" cy="211.6" r="5.2"></circle>
                    <circle id="Oval-Copy-88" cx="108.8" cy="211.6" r="5.2"></circle>
                    <circle id="Oval-Copy-87" cx="74.4" cy="211.6" r="5.2"></circle>
                    <circle id="Oval-Copy-86" cx="40" cy="211.6" r="5.2"></circle>
                    <circle id="Oval-Copy-85" cx="5.6" cy="211.6" r="5.2"></circle>
                    <circle id="Oval-Copy-78" cx="212" cy="177.2" r="5.2"></circle>
                    <circle id="Oval-Copy-77" cx="177.6" cy="177.2" r="5.2"></circle>
                    <circle id="Oval-Copy-76" cx="143.2" cy="177.2" r="5.2"></circle>
                    <circle id="Oval-Copy-75" cx="108.8" cy="177.2" r="5.2"></circle>
                    <circle id="Oval-Copy-74" cx="74.4" cy="177.2" r="5.2"></circle>
                    <circle id="Oval-Copy-73" cx="40" cy="177.2" r="5.2"></circle>
                    <circle id="Oval-Copy-72" cx="5.6" cy="177.2" r="5.2"></circle>
                    <circle id="Oval-Copy-65" cx="212" cy="142.8" r="5.2"></circle>
                    <circle id="Oval-Copy-64" cx="177.6" cy="142.8" r="5.2"></circle>
                    <circle id="Oval-Copy-63" cx="143.2" cy="142.8" r="5.2"></circle>
                    <circle id="Oval-Copy-62" cx="108.8" cy="142.8" r="5.2"></circle>
                    <circle id="Oval-Copy-61" cx="74.4" cy="142.8" r="5.2"></circle>
                    <circle id="Oval-Copy-60" cx="40" cy="142.8" r="5.2"></circle>
                    <circle id="Oval-Copy-59" cx="5.6" cy="142.8" r="5.2"></circle>
                    <circle id="Oval-Copy-52" cx="212" cy="108.4" r="5.2"></circle>
                    <circle id="Oval-Copy-51" cx="177.6" cy="108.4" r="5.2"></circle>
                    <circle id="Oval-Copy-50" cx="143.2" cy="108.4" r="5.2"></circle>
                    <circle id="Oval-Copy-49" cx="108.8" cy="108.4" r="5.2"></circle>
                    <circle id="Oval-Copy-48" cx="74.4" cy="108.4" r="5.2"></circle>
                    <circle id="Oval-Copy-47" cx="40" cy="108.4" r="5.2"></circle>
                    <circle id="Oval-Copy-46" cx="5.6" cy="108.4" r="5.2"></circle>
                    <circle id="Oval-Copy-39" cx="212" cy="74" r="5.2"></circle>
                    <circle id="Oval-Copy-38" cx="177.6" cy="74" r="5.2"></circle>
                    <circle id="Oval-Copy-37" cx="143.2" cy="74" r="5.2"></circle>
                    <circle id="Oval-Copy-36" cx="108.8" cy="74" r="5.2"></circle>
                    <circle id="Oval-Copy-35" cx="74.4" cy="74" r="5.2"></circle>
                    <circle id="Oval-Copy-34" cx="40" cy="74" r="5.2"></circle>
                    <circle id="Oval-Copy-33" cx="5.6" cy="74" r="5.2"></circle>
                    <circle id="Oval-Copy-26" cx="212" cy="39.6" r="5.2"></circle>
                    <circle id="Oval-Copy-25" cx="177.6" cy="39.6" r="5.2"></circle>
                    <circle id="Oval-Copy-24" cx="143.2" cy="39.6" r="5.2"></circle>
                    <circle id="Oval-Copy-23" cx="108.8" cy="39.6" r="5.2"></circle>
                    <circle id="Oval-Copy-22" cx="74.4" cy="39.6" r="5.2"></circle>
                    <circle id="Oval-Copy-21" cx="40" cy="39.6" r="5.2"></circle>
                    <circle id="Oval-Copy-20" cx="5.6" cy="39.6" r="5.2"></circle>
                    <circle id="Oval-Copy-13" cx="212" cy="5.2" r="5.2"></circle>
                    <circle id="Oval-Copy-12" cx="177.6" cy="5.2" r="5.2"></circle>
                    <circle id="Oval-Copy-11" cx="143.2" cy="5.2" r="5.2"></circle>
                    <circle id="Oval-Copy-10" cx="108.8" cy="5.2" r="5.2"></circle>
                    <circle id="Oval-Copy-9" cx="74.4" cy="5.2" r="5.2"></circle>
                    <circle id="Oval-Copy-8" cx="40" cy="5.2" r="5.2"></circle>
                    <circle id="Oval-Copy-7" cx="5.6" cy="5.2" r="5.2"></circle>
                </g>
            </g>
        </g>
    </g>
</svg>