<?xml version="1.0" encoding="UTF-8"?>
<svg width="424px" height="424px" viewBox="0 0 424 424" version="1.1" xmlns="http://www.w3.org/2000/svg" xmlns:xlink="http://www.w3.org/1999/xlink">
    <title>CBBE04DB-8DD2-43C2-819F-5479C6094794@3x</title>
    <g id="LP" stroke="none" stroke-width="1" fill="none" fill-rule="evenodd">
        <g id="01-1-1-LP" transform="translate(-314.000000, -5400.000000)" fill="#F5F5FC">
            <g id="Reviews" transform="translate(314.000000, 4942.000000)">
                <g id="Shape--10" transform="translate(0.000000, 458.000000)">
                    <circle id="Oval-Copy-169" cx="418" cy="418" r="5.2"></circle>
                    <circle id="Oval-Copy-168" cx="383.6" cy="418" r="5.2"></circle>
                    <circle id="Oval-Copy-167" cx="349.2" cy="418" r="5.2"></circle>
                    <circle id="Oval-Copy-166" cx="314.8" cy="418" r="5.2"></circle>
                    <circle id="Oval-Copy-165" cx="280.4" cy="418" r="5.2"></circle>
                    <circle id="Oval-Copy-164" cx="246" cy="418" r="5.2"></circle>
                    <circle id="Oval-Copy-163" cx="211.6" cy="418" r="5.2"></circle>
                    <circle id="Oval-Copy-162" cx="177.2" cy="418" r="5.2"></circle>
                    <circle id="Oval-Copy-161" cx="142.8" cy="418" r="5.2"></circle>
                    <circle id="Oval-Copy-160" cx="108.4" cy="418" r="5.2"></circle>
                    <circle id="Oval-Copy-159" cx="74" cy="418" r="5.2"></circle>
                    <circle id="Oval-Copy-158" cx="39.6" cy="418" r="5.2"></circle>
                    <circle id="Oval-Copy-157" cx="5.2" cy="418" r="5.2"></circle>
                    <circle id="Oval-Copy-156" cx="418" cy="383.6" r="5.2"></circle>
                    <circle id="Oval-Copy-155" cx="383.6" cy="383.6" r="5.2"></circle>
                    <circle id="Oval-Copy-154" cx="349.2" cy="383.6" r="5.2"></circle>
                    <circle id="Oval-Copy-153" cx="314.8" cy="383.6" r="5.2"></circle>
                    <circle id="Oval-Copy-152" cx="280.4" cy="383.6" r="5.2"></circle>
                    <circle id="Oval-Copy-151" cx="246" cy="383.6" r="5.2"></circle>
                    <circle id="Oval-Copy-150" cx="211.6" cy="383.6" r="5.2"></circle>
                    <circle id="Oval-Copy-149" cx="177.2" cy="383.6" r="5.2"></circle>
                    <circle id="Oval-Copy-148" cx="142.8" cy="383.6" r="5.2"></circle>
                    <circle id="Oval-Copy-147" cx="108.4" cy="383.6" r="5.2"></circle>
                    <circle id="Oval-Copy-146" cx="74" cy="383.6" r="5.2"></circle>
                    <circle id="Oval-Copy-145" cx="39.6" cy="383.6" r="5.2"></circle>
                    <circle id="Oval-Copy-144" cx="5.2" cy="383.6" r="5.2"></circle>
                    <circle id="Oval-Copy-143" cx="418" cy="349.2" r="5.2"></circle>
                    <circle id="Oval-Copy-142" cx="383.6" cy="349.2" r="5.2"></circle>
                    <circle id="Oval-Copy-141" cx="349.2" cy="349.2" r="5.2"></circle>
                    <circle id="Oval-Copy-140" cx="314.8" cy="349.2" r="5.2"></circle>
                    <circle id="Oval-Copy-139" cx="280.4" cy="349.2" r="5.2"></circle>
                    <circle id="Oval-Copy-138" cx="246" cy="349.2" r="5.2"></circle>
                    <circle id="Oval-Copy-137" cx="211.6" cy="349.2" r="5.2"></circle>
                    <circle id="Oval-Copy-136" cx="177.2" cy="349.2" r="5.2"></circle>
                    <circle id="Oval-Copy-135" cx="142.8" cy="349.2" r="5.2"></circle>
                    <circle id="Oval-Copy-134" cx="108.4" cy="349.2" r="5.2"></circle>
                    <circle id="Oval-Copy-133" cx="74" cy="349.2" r="5.2"></circle>
                    <circle id="Oval-Copy-132" cx="39.6" cy="349.2" r="5.2"></circle>
                    <circle id="Oval-Copy-131" cx="5.2" cy="349.2" r="5.2"></circle>
                    <circle id="Oval-Copy-130" cx="418" cy="314.8" r="5.2"></circle>
                    <circle id="Oval-Copy-129" cx="383.6" cy="314.8" r="5.2"></circle>
                    <circle id="Oval-Copy-128" cx="349.2" cy="314.8" r="5.2"></circle>
                    <circle id="Oval-Copy-127" cx="314.8" cy="314.8" r="5.2"></circle>
                    <circle id="Oval-Copy-126" cx="280.4" cy="314.8" r="5.2"></circle>
                    <circle id="Oval-Copy-125" cx="246" cy="314.8" r="5.2"></circle>
                    <circle id="Oval-Copy-124" cx="211.6" cy="314.8" r="5.2"></circle>
                    <circle id="Oval-Copy-123" cx="177.2" cy="314.8" r="5.2"></circle>
                    <circle id="Oval-Copy-122" cx="142.8" cy="314.8" r="5.2"></circle>
                    <circle id="Oval-Copy-121" cx="108.4" cy="314.8" r="5.2"></circle>
                    <circle id="Oval-Copy-120" cx="74" cy="314.8" r="5.2"></circle>
                    <circle id="Oval-Copy-119" cx="39.6" cy="314.8" r="5.2"></circle>
                    <circle id="Oval-Copy-118" cx="5.2" cy="314.8" r="5.2"></circle>
                    <circle id="Oval-Copy-117" cx="418" cy="280.4" r="5.2"></circle>
                    <circle id="Oval-Copy-116" cx="383.6" cy="280.4" r="5.2"></circle>
                    <circle id="Oval-Copy-115" cx="349.2" cy="280.4" r="5.2"></circle>
                    <circle id="Oval-Copy-114" cx="314.8" cy="280.4" r="5.2"></circle>
                    <circle id="Oval-Copy-113" cx="280.4" cy="280.4" r="5.2"></circle>
                    <circle id="Oval-Copy-112" cx="246" cy="280.4" r="5.2"></circle>
                    <circle id="Oval-Copy-111" cx="211.6" cy="280.4" r="5.2"></circle>
                    <circle id="Oval-Copy-110" cx="177.2" cy="280.4" r="5.2"></circle>
                    <circle id="Oval-Copy-109" cx="142.8" cy="280.4" r="5.2"></circle>
                    <circle id="Oval-Copy-108" cx="108.4" cy="280.4" r="5.2"></circle>
                    <circle id="Oval-Copy-107" cx="74" cy="280.4" r="5.2"></circle>
                    <circle id="Oval-Copy-106" cx="39.6" cy="280.4" r="5.2"></circle>
                    <circle id="Oval-Copy-105" cx="5.2" cy="280.4" r="5.2"></circle>
                    <circle id="Oval-Copy-104" cx="418" cy="246" r="5.2"></circle>
                    <circle id="Oval-Copy-103" cx="383.6" cy="246" r="5.2"></circle>
                    <circle id="Oval-Copy-102" cx="349.2" cy="246" r="5.2"></circle>
                    <circle id="Oval-Copy-101" cx="314.8" cy="246" r="5.2"></circle>
                    <circle id="Oval-Copy-100" cx="280.4" cy="246" r="5.2"></circle>
                    <circle id="Oval-Copy-99" cx="246" cy="246" r="5.2"></circle>
                    <circle id="Oval-Copy-98" cx="211.6" cy="246" r="5.2"></circle>
                    <circle id="Oval-Copy-97" cx="177.2" cy="246" r="5.2"></circle>
                    <circle id="Oval-Copy-96" cx="142.8" cy="246" r="5.2"></circle>
                    <circle id="Oval-Copy-95" cx="108.4" cy="246" r="5.2"></circle>
                    <circle id="Oval-Copy-94" cx="74" cy="246" r="5.2"></circle>
                    <circle id="Oval-Copy-93" cx="39.6" cy="246" r="5.2"></circle>
                    <circle id="Oval-Copy-92" cx="5.2" cy="246" r="5.2"></circle>
                    <circle id="Oval-Copy-91" cx="418" cy="211.6" r="5.2"></circle>
                    <circle id="Oval-Copy-90" cx="383.6" cy="211.6" r="5.2"></circle>
                    <circle id="Oval-Copy-89" cx="349.2" cy="211.6" r="5.2"></circle>
                    <circle id="Oval-Copy-88" cx="314.8" cy="211.6" r="5.2"></circle>
                    <circle id="Oval-Copy-87" cx="280.4" cy="211.6" r="5.2"></circle>
                    <circle id="Oval-Copy-86" cx="246" cy="211.6" r="5.2"></circle>
                    <circle id="Oval-Copy-85" cx="211.6" cy="211.6" r="5.2"></circle>
                    <circle id="Oval-Copy-84" cx="177.2" cy="211.6" r="5.2"></circle>
                    <circle id="Oval-Copy-83" cx="142.8" cy="211.6" r="5.2"></circle>
                    <circle id="Oval-Copy-82" cx="108.4" cy="211.6" r="5.2"></circle>
                    <circle id="Oval-Copy-81" cx="74" cy="211.6" r="5.2"></circle>
                    <circle id="Oval-Copy-80" cx="39.6" cy="211.6" r="5.2"></circle>
                    <circle id="Oval-Copy-79" cx="5.2" cy="211.6" r="5.2"></circle>
                    <circle id="Oval-Copy-78" cx="418" cy="177.2" r="5.2"></circle>
                    <circle id="Oval-Copy-77" cx="383.6" cy="177.2" r="5.2"></circle>
                    <circle id="Oval-Copy-76" cx="349.2" cy="177.2" r="5.2"></circle>
                    <circle id="Oval-Copy-75" cx="314.8" cy="177.2" r="5.2"></circle>
                    <circle id="Oval-Copy-74" cx="280.4" cy="177.2" r="5.2"></circle>
                    <circle id="Oval-Copy-73" cx="246" cy="177.2" r="5.2"></circle>
                    <circle id="Oval-Copy-72" cx="211.6" cy="177.2" r="5.2"></circle>
                    <circle id="Oval-Copy-71" cx="177.2" cy="177.2" r="5.2"></circle>
                    <circle id="Oval-Copy-70" cx="142.8" cy="177.2" r="5.2"></circle>
                    <circle id="Oval-Copy-69" cx="108.4" cy="177.2" r="5.2"></circle>
                    <circle id="Oval-Copy-68" cx="74" cy="177.2" r="5.2"></circle>
                    <circle id="Oval-Copy-67" cx="39.6" cy="177.2" r="5.2"></circle>
                    <circle id="Oval-Copy-66" cx="5.2" cy="177.2" r="5.2"></circle>
                    <circle id="Oval-Copy-65" cx="418" cy="142.8" r="5.2"></circle>
                    <circle id="Oval-Copy-64" cx="383.6" cy="142.8" r="5.2"></circle>
                    <circle id="Oval-Copy-63" cx="349.2" cy="142.8" r="5.2"></circle>
                    <circle id="Oval-Copy-62" cx="314.8" cy="142.8" r="5.2"></circle>
                    <circle id="Oval-Copy-61" cx="280.4" cy="142.8" r="5.2"></circle>
                    <circle id="Oval-Copy-60" cx="246" cy="142.8" r="5.2"></circle>
                    <circle id="Oval-Copy-59" cx="211.6" cy="142.8" r="5.2"></circle>
                    <circle id="Oval-Copy-58" cx="177.2" cy="142.8" r="5.2"></circle>
                    <circle id="Oval-Copy-57" cx="142.8" cy="142.8" r="5.2"></circle>
                    <circle id="Oval-Copy-56" cx="108.4" cy="142.8" r="5.2"></circle>
                    <circle id="Oval-Copy-55" cx="74" cy="142.8" r="5.2"></circle>
                    <circle id="Oval-Copy-54" cx="39.6" cy="142.8" r="5.2"></circle>
                    <circle id="Oval-Copy-53" cx="5.2" cy="142.8" r="5.2"></circle>
                    <circle id="Oval-Copy-52" cx="418" cy="108.4" r="5.2"></circle>
                    <circle id="Oval-Copy-51" cx="383.6" cy="108.4" r="5.2"></circle>
                    <circle id="Oval-Copy-50" cx="349.2" cy="108.4" r="5.2"></circle>
                    <circle id="Oval-Copy-49" cx="314.8" cy="108.4" r="5.2"></circle>
                    <circle id="Oval-Copy-48" cx="280.4" cy="108.4" r="5.2"></circle>
                    <circle id="Oval-Copy-47" cx="246" cy="108.4" r="5.2"></circle>
                    <circle id="Oval-Copy-46" cx="211.6" cy="108.4" r="5.2"></circle>
                    <circle id="Oval-Copy-45" cx="177.2" cy="108.4" r="5.2"></circle>
                    <circle id="Oval-Copy-44" cx="142.8" cy="108.4" r="5.2"></circle>
                    <circle id="Oval-Copy-43" cx="108.4" cy="108.4" r="5.2"></circle>
                    <circle id="Oval-Copy-42" cx="74" cy="108.4" r="5.2"></circle>
                    <circle id="Oval-Copy-41" cx="39.6" cy="108.4" r="5.2"></circle>
                    <circle id="Oval-Copy-40" cx="5.2" cy="108.4" r="5.2"></circle>
                    <circle id="Oval-Copy-39" cx="418" cy="74" r="5.2"></circle>
                    <circle id="Oval-Copy-38" cx="383.6" cy="74" r="5.2"></circle>
                    <circle id="Oval-Copy-37" cx="349.2" cy="74" r="5.2"></circle>
                    <circle id="Oval-Copy-36" cx="314.8" cy="74" r="5.2"></circle>
                    <circle id="Oval-Copy-35" cx="280.4" cy="74" r="5.2"></circle>
                    <circle id="Oval-Copy-34" cx="246" cy="74" r="5.2"></circle>
                    <circle id="Oval-Copy-33" cx="211.6" cy="74" r="5.2"></circle>
                    <circle id="Oval-Copy-32" cx="177.2" cy="74" r="5.2"></circle>
                    <circle id="Oval-Copy-31" cx="142.8" cy="74" r="5.2"></circle>
                    <circle id="Oval-Copy-30" cx="108.4" cy="74" r="5.2"></circle>
                    <circle id="Oval-Copy-29" cx="74" cy="74" r="5.2"></circle>
                    <circle id="Oval-Copy-28" cx="39.6" cy="74" r="5.2"></circle>
                    <circle id="Oval-Copy-27" cx="5.2" cy="74" r="5.2"></circle>
                    <circle id="Oval-Copy-26" cx="418" cy="39.6" r="5.2"></circle>
                    <circle id="Oval-Copy-25" cx="383.6" cy="39.6" r="5.2"></circle>
                    <circle id="Oval-Copy-24" cx="349.2" cy="39.6" r="5.2"></circle>
                    <circle id="Oval-Copy-23" cx="314.8" cy="39.6" r="5.2"></circle>
                    <circle id="Oval-Copy-22" cx="280.4" cy="39.6" r="5.2"></circle>
                    <circle id="Oval-Copy-21" cx="246" cy="39.6" r="5.2"></circle>
                    <circle id="Oval-Copy-20" cx="211.6" cy="39.6" r="5.2"></circle>
                    <circle id="Oval-Copy-19" cx="177.2" cy="39.6" r="5.2"></circle>
                    <circle id="Oval-Copy-18" cx="142.8" cy="39.6" r="5.2"></circle>
                    <circle id="Oval-Copy-17" cx="108.4" cy="39.6" r="5.2"></circle>
                    <circle id="Oval-Copy-16" cx="74" cy="39.6" r="5.2"></circle>
                    <circle id="Oval-Copy-15" cx="39.6" cy="39.6" r="5.2"></circle>
                    <circle id="Oval-Copy-14" cx="5.2" cy="39.6" r="5.2"></circle>
                    <circle id="Oval-Copy-13" cx="418" cy="5.2" r="5.2"></circle>
                    <circle id="Oval-Copy-12" cx="383.6" cy="5.2" r="5.2"></circle>
                    <circle id="Oval-Copy-11" cx="349.2" cy="5.2" r="5.2"></circle>
                    <circle id="Oval-Copy-10" cx="314.8" cy="5.2" r="5.2"></circle>
                    <circle id="Oval-Copy-9" cx="280.4" cy="5.2" r="5.2"></circle>
                    <circle id="Oval-Copy-8" cx="246" cy="5.2" r="5.2"></circle>
                    <circle id="Oval-Copy-7" cx="211.6" cy="5.2" r="5.2"></circle>
                    <circle id="Oval-Copy-6" cx="177.2" cy="5.2" r="5.2"></circle>
                    <circle id="Oval-Copy-5" cx="142.8" cy="5.2" r="5.2"></circle>
                    <circle id="Oval-Copy-4" cx="108.4" cy="5.2" r="5.2"></circle>
                    <circle id="Oval-Copy-3" cx="74" cy="5.2" r="5.2"></circle>
                    <circle id="Oval-Copy-2" cx="39.6" cy="5.2" r="5.2"></circle>
                    <circle id="Oval-Copy" cx="5.2" cy="5.2" r="5.2"></circle>
                </g>
            </g>
        </g>
    </g>
</svg>