<?xml version="1.0" encoding="UTF-8"?>
<svg width="529px" height="223px" viewBox="0 0 529 223" version="1.1" xmlns="http://www.w3.org/2000/svg" xmlns:xlink="http://www.w3.org/1999/xlink">
    <title>2790AA65-C1C1-40CE-B15F-06933F951B00@3x</title>
    <g id="LP" stroke="none" stroke-width="1" fill="none" fill-rule="evenodd">
        <g id="01-1-1-LP" transform="translate(-1379.000000, -4687.000000)">
            <g id="Features" transform="translate(0.000000, 2591.000000)">
                <g id="Shape-9" transform="translate(1379.000000, 2096.000000)">
                    <circle id="Oval-Copy-130" fill="#F5F5FC" cx="418" cy="217.8" r="5.2"></circle>
                    <circle id="Oval-Copy-129" fill="#F5F5FC" cx="383.6" cy="217.8" r="5.2"></circle>
                    <circle id="Oval-Copy-128" fill="#F5F5FC" cx="349.2" cy="217.8" r="5.2"></circle>
                    <circle id="Oval-Copy-127" fill="#F5F5FC" cx="314.8" cy="217.8" r="5.2"></circle>
                    <circle id="Oval-Copy-126" fill="#F5F5FC" cx="280.4" cy="217.8" r="5.2"></circle>
                    <circle id="Oval-Copy-125" fill="#F5F5FC" cx="246" cy="217.8" r="5.2"></circle>
                    <circle id="Oval-Copy-124" fill="#F5F5FC" cx="211.6" cy="217.8" r="5.2"></circle>
                    <circle id="Oval-Copy-123" fill="#F5F5FC" cx="177.2" cy="217.8" r="5.2"></circle>
                    <circle id="Oval-Copy-122" fill="#F5F5FC" cx="142.8" cy="217.8" r="5.2"></circle>
                    <circle id="Oval-Copy-121" fill="#F5F5FC" cx="108.4" cy="217.8" r="5.2"></circle>
                    <circle id="Oval-Copy-120" fill="#F5F5FC" cx="74" cy="217.8" r="5.2"></circle>
                    <circle id="Oval-Copy-119" fill="#F5F5FC" cx="39.6" cy="217.8" r="5.2"></circle>
                    <circle id="Oval-Copy-118" fill="#F5F5FC" cx="5.2" cy="217.8" r="5.2"></circle>
                    <circle id="Oval-Copy-117" fill="#F5F5FC" cx="418" cy="183.4" r="5.2"></circle>
                    <circle id="Oval-Copy-116" fill="#F5F5FC" cx="383.6" cy="183.4" r="5.2"></circle>
                    <circle id="Oval-Copy-115" fill="#F5F5FC" cx="349.2" cy="183.4" r="5.2"></circle>
                    <circle id="Oval-Copy-114" fill="#F5F5FC" cx="314.8" cy="183.4" r="5.2"></circle>
                    <circle id="Oval-Copy-113" fill="#F5F5FC" cx="280.4" cy="183.4" r="5.2"></circle>
                    <circle id="Oval-Copy-112" fill="#F5F5FC" cx="246" cy="183.4" r="5.2"></circle>
                    <circle id="Oval-Copy-111" fill="#F5F5FC" cx="211.6" cy="183.4" r="5.2"></circle>
                    <circle id="Oval-Copy-110" fill="#F5F5FC" cx="177.2" cy="183.4" r="5.2"></circle>
                    <circle id="Oval-Copy-109" fill="#F5F5FC" cx="142.8" cy="183.4" r="5.2"></circle>
                    <circle id="Oval-Copy-108" fill="#F5F5FC" cx="108.4" cy="183.4" r="5.2"></circle>
                    <circle id="Oval-Copy-107" fill="#F5F5FC" cx="74" cy="183.4" r="5.2"></circle>
                    <circle id="Oval-Copy-106" fill="#F5F5FC" cx="39.6" cy="183.4" r="5.2"></circle>
                    <circle id="Oval-Copy-105" fill="#F5F5FC" cx="5.2" cy="183.4" r="5.2"></circle>
                    <circle id="Oval-Copy-104" fill="#F5F5FC" cx="418" cy="149" r="5.2"></circle>
                    <circle id="Oval-Copy-103" fill="#F5F5FC" cx="383.6" cy="149" r="5.2"></circle>
                    <circle id="Oval-Copy-102" fill="#F5F5FC" cx="349.2" cy="149" r="5.2"></circle>
                    <circle id="Oval-Copy-101" fill="#F5F5FC" cx="314.8" cy="149" r="5.2"></circle>
                    <circle id="Oval-Copy-100" fill="#F5F5FC" cx="280.4" cy="149" r="5.2"></circle>
                    <circle id="Oval-Copy-99" fill="#F5F5FC" cx="246" cy="149" r="5.2"></circle>
                    <circle id="Oval-Copy-98" fill="#F5F5FC" cx="211.6" cy="149" r="5.2"></circle>
                    <circle id="Oval-Copy-97" fill="#F5F5FC" cx="177.2" cy="149" r="5.2"></circle>
                    <circle id="Oval-Copy-96" fill="#F5F5FC" cx="142.8" cy="149" r="5.2"></circle>
                    <circle id="Oval-Copy-95" fill="#F5F5FC" cx="108.4" cy="149" r="5.2"></circle>
                    <circle id="Oval-Copy-94" fill="#F5F5FC" cx="74" cy="149" r="5.2"></circle>
                    <circle id="Oval-Copy-93" fill="#F5F5FC" cx="39.6" cy="149" r="5.2"></circle>
                    <circle id="Oval-Copy-92" fill="#F5F5FC" cx="5.2" cy="149" r="5.2"></circle>
                    <circle id="Oval-Copy-91" fill="#F5F5FC" cx="418" cy="114.6" r="5.2"></circle>
                    <circle id="Oval-Copy-90" fill="#F5F5FC" cx="383.6" cy="114.6" r="5.2"></circle>
                    <circle id="Oval-Copy-89" fill="#F5F5FC" cx="349.2" cy="114.6" r="5.2"></circle>
                    <circle id="Oval-Copy-88" fill="#F5F5FC" cx="314.8" cy="114.6" r="5.2"></circle>
                    <circle id="Oval-Copy-87" fill="#F5F5FC" cx="280.4" cy="114.6" r="5.2"></circle>
                    <circle id="Oval-Copy-86" fill="#F5F5FC" cx="246" cy="114.6" r="5.2"></circle>
                    <circle id="Oval-Copy-85" fill="#F5F5FC" cx="211.6" cy="114.6" r="5.2"></circle>
                    <circle id="Oval-Copy-84" fill="#F5F5FC" cx="177.2" cy="114.6" r="5.2"></circle>
                    <circle id="Oval-Copy-83" fill="#F5F5FC" cx="142.8" cy="114.6" r="5.2"></circle>
                    <circle id="Oval-Copy-82" fill="#F5F5FC" cx="108.4" cy="114.6" r="5.2"></circle>
                    <circle id="Oval-Copy-81" fill="#F5F5FC" cx="74" cy="114.6" r="5.2"></circle>
                    <circle id="Oval-Copy-80" fill="#F5F5FC" cx="39.6" cy="114.6" r="5.2"></circle>
                    <circle id="Oval-Copy-79" fill="#F5F5FC" cx="5.2" cy="114.6" r="5.2"></circle>
                    <circle id="Oval-Copy-78" fill="#F5F5FC" cx="418" cy="80.2" r="5.2"></circle>
                    <circle id="Oval-Copy-77" fill="#F5F5FC" cx="383.6" cy="80.2" r="5.2"></circle>
                    <circle id="Oval-Copy-76" fill="#F5F5FC" cx="349.2" cy="80.2" r="5.2"></circle>
                    <circle id="Oval-Copy-75" fill="#F5F5FC" cx="314.8" cy="80.2" r="5.2"></circle>
                    <circle id="Oval-Copy-74" fill="#F5F5FC" cx="280.4" cy="80.2" r="5.2"></circle>
                    <circle id="Oval-Copy-73" fill="#F5F5FC" cx="246" cy="80.2" r="5.2"></circle>
                    <circle id="Oval-Copy-72" fill="#F5F5FC" cx="211.6" cy="80.2" r="5.2"></circle>
                    <circle id="Oval-Copy-71" fill="#F5F5FC" cx="177.2" cy="80.2" r="5.2"></circle>
                    <circle id="Oval-Copy-70" fill="#F5F5FC" cx="142.8" cy="80.2" r="5.2"></circle>
                    <circle id="Oval-Copy-69" fill="#F5F5FC" cx="108.4" cy="80.2" r="5.2"></circle>
                    <circle id="Oval-Copy-68" fill="#F5F5FC" cx="74" cy="80.2" r="5.2"></circle>
                    <circle id="Oval-Copy-67" fill="#F5F5FC" cx="39.6" cy="80.2" r="5.2"></circle>
                    <circle id="Oval-Copy-66" fill="#F5F5FC" cx="5.2" cy="80.2" r="5.2"></circle>
                    <circle id="Oval-Copy-65" fill="#F5F5FC" cx="418" cy="45.8" r="5.2"></circle>
                    <circle id="Oval-Copy-64" fill="#F5F5FC" cx="383.6" cy="45.8" r="5.2"></circle>
                    <circle id="Oval-Copy-63" fill="#F5F5FC" cx="349.2" cy="45.8" r="5.2"></circle>
                    <circle id="Oval-Copy-62" fill="#F5F5FC" cx="314.8" cy="45.8" r="5.2"></circle>
                    <circle id="Oval-Copy-61" fill="#F5F5FC" cx="280.4" cy="45.8" r="5.2"></circle>
                    <circle id="Oval-Copy-60" fill="#F5F5FC" cx="246" cy="45.8" r="5.2"></circle>
                    <circle id="Oval-Copy-59" fill="#F5F5FC" cx="211.6" cy="45.8" r="5.2"></circle>
                    <circle id="Oval-Copy-58" fill="#F5F5FC" cx="177.2" cy="45.8" r="5.2"></circle>
                    <circle id="Oval-Copy-57" fill="#F5F5FC" cx="142.8" cy="45.8" r="5.2"></circle>
                    <circle id="Oval-Copy-56" fill="#F5F5FC" cx="108.4" cy="45.8" r="5.2"></circle>
                    <circle id="Oval-Copy-55" fill="#F5F5FC" cx="74" cy="45.8" r="5.2"></circle>
                    <circle id="Oval-Copy-54" fill="#F5F5FC" cx="39.6" cy="45.8" r="5.2"></circle>
                    <circle id="Oval-Copy-53" fill="#F5F5FC" cx="5.2" cy="45.8" r="5.2"></circle>
                    <circle id="Oval-Copy-52" fill="#F5F5FC" cx="418" cy="11.4" r="5.2"></circle>
                    <circle id="Oval-Copy-51" fill="#F5F5FC" cx="383.6" cy="11.4" r="5.2"></circle>
                    <circle id="Oval-Copy-50" fill="#F5F5FC" cx="349.2" cy="11.4" r="5.2"></circle>
                    <circle id="Oval-Copy-49" fill="#F5F5FC" cx="314.8" cy="11.4" r="5.2"></circle>
                    <circle id="Oval-Copy-48" fill="#F5F5FC" cx="280.4" cy="11.4" r="5.2"></circle>
                    <circle id="Oval-Copy-47" fill="#F5F5FC" cx="246" cy="11.4" r="5.2"></circle>
                    <circle id="Oval-Copy-46" fill="#F5F5FC" cx="211.6" cy="11.4" r="5.2"></circle>
                    <circle id="Oval-Copy-45" fill="#F5F5FC" cx="177.2" cy="11.4" r="5.2"></circle>
                    <circle id="Oval-Copy-44" fill="#F5F5FC" cx="142.8" cy="11.4" r="5.2"></circle>
                    <circle id="Oval-Copy-43" fill="#F5F5FC" cx="108.4" cy="11.4" r="5.2"></circle>
                    <circle id="Oval-Copy-42" fill="#F5F5FC" cx="74" cy="11.4" r="5.2"></circle>
                    <circle id="Oval-Copy-41" fill="#F5F5FC" cx="39.6" cy="11.4" r="5.2"></circle>
                    <circle id="Oval-Copy-40" fill="#F5F5FC" cx="5.2" cy="11.4" r="5.2"></circle>
                    <circle id="Oval-Copy-120" fill="#F5F5FC" cx="523" cy="217.8" r="5.2"></circle>
                    <circle id="Oval-Copy-119" fill="#F5F5FC" cx="488.6" cy="217.8" r="5.2"></circle>
                    <circle id="Oval-Copy-118" fill="#F5F5FC" cx="454.2" cy="217.8" r="5.2"></circle>
                    <circle id="Oval-Copy-107" fill="#F5F5FC" cx="523" cy="183.4" r="5.2"></circle>
                    <circle id="Oval-Copy-106" fill="#F5F5FC" cx="488.6" cy="183.4" r="5.2"></circle>
                    <circle id="Oval-Copy-105" fill="#F5F5FC" cx="454.2" cy="183.4" r="5.2"></circle>
                    <circle id="Oval-Copy-94" fill="#F5F5FC" cx="523" cy="149" r="5.2"></circle>
                    <circle id="Oval-Copy-93" fill="#F5F5FC" cx="488.6" cy="149" r="5.2"></circle>
                    <circle id="Oval-Copy-92" fill="#F5F5FC" cx="454.2" cy="149" r="5.2"></circle>
                    <circle id="Oval-Copy-81" fill="#F5F5FC" cx="523" cy="114.6" r="5.2"></circle>
                    <circle id="Oval-Copy-80" fill="#F5F5FC" cx="488.6" cy="114.6" r="5.2"></circle>
                    <circle id="Oval-Copy-79" fill="#F5F5FC" cx="454.2" cy="114.6" r="5.2"></circle>
                    <circle id="Oval-Copy-169" fill="#F0E6F9" cx="418" cy="74" r="5.2"></circle>
                    <circle id="Oval-Copy-168" fill="#F0E6F9" cx="383.6" cy="74" r="5.2"></circle>
                    <circle id="Oval-Copy-167" fill="#F0E6F9" cx="349.2" cy="74" r="5.2"></circle>
                    <circle id="Oval-Copy-166" fill="#F0E6F9" cx="314.8" cy="74" r="5.2"></circle>
                    <circle id="Oval-Copy-165" fill="#F0E6F9" cx="280.4" cy="74" r="5.2"></circle>
                    <circle id="Oval-Copy-164" fill="#F0E6F9" cx="246" cy="74" r="5.2"></circle>
                    <circle id="Oval-Copy-163" fill="#F0E6F9" cx="211.6" cy="74" r="5.2"></circle>
                    <circle id="Oval-Copy-162" fill="#F0E6F9" cx="177.2" cy="74" r="5.2"></circle>
                    <circle id="Oval-Copy-161" fill="#F0E6F9" cx="142.8" cy="74" r="5.2"></circle>
                    <circle id="Oval-Copy-160" fill="#F0E6F9" cx="108.4" cy="74" r="5.2"></circle>
                    <circle id="Oval-Copy-159" fill="#F0E6F9" cx="74" cy="74" r="5.2"></circle>
                    <circle id="Oval-Copy-158" fill="#F0E6F9" cx="39.6" cy="74" r="5.2"></circle>
                    <circle id="Oval-Copy-157" fill="#F0E6F9" cx="5.2" cy="74" r="5.2"></circle>
                    <circle id="Oval-Copy-156" fill="#F0E6F9" cx="418" cy="39.6" r="5.2"></circle>
                    <circle id="Oval-Copy-155" fill="#F0E6F9" cx="383.6" cy="39.6" r="5.2"></circle>
                    <circle id="Oval-Copy-154" fill="#F0E6F9" cx="349.2" cy="39.6" r="5.2"></circle>
                    <circle id="Oval-Copy-153" fill="#F0E6F9" cx="314.8" cy="39.6" r="5.2"></circle>
                    <circle id="Oval-Copy-152" fill="#F0E6F9" cx="280.4" cy="39.6" r="5.2"></circle>
                    <circle id="Oval-Copy-151" fill="#F0E6F9" cx="246" cy="39.6" r="5.2"></circle>
                    <circle id="Oval-Copy-150" fill="#F0E6F9" cx="211.6" cy="39.6" r="5.2"></circle>
                    <circle id="Oval-Copy-149" fill="#F0E6F9" cx="177.2" cy="39.6" r="5.2"></circle>
                    <circle id="Oval-Copy-148" fill="#F0E6F9" cx="142.8" cy="39.6" r="5.2"></circle>
                    <circle id="Oval-Copy-147" fill="#F0E6F9" cx="108.4" cy="39.6" r="5.2"></circle>
                    <circle id="Oval-Copy-146" fill="#F0E6F9" cx="74" cy="39.6" r="5.2"></circle>
                    <circle id="Oval-Copy-145" fill="#F0E6F9" cx="39.6" cy="39.6" r="5.2"></circle>
                    <circle id="Oval-Copy-144" fill="#F0E6F9" cx="5.2" cy="39.6" r="5.2"></circle>
                    <circle id="Oval-Copy-143" fill="#F0E6F9" cx="418" cy="5.2" r="5.2"></circle>
                    <circle id="Oval-Copy-142" fill="#F0E6F9" cx="383.6" cy="5.2" r="5.2"></circle>
                    <circle id="Oval-Copy-141" fill="#F0E6F9" cx="349.2" cy="5.2" r="5.2"></circle>
                    <circle id="Oval-Copy-140" fill="#F0E6F9" cx="314.8" cy="5.2" r="5.2"></circle>
                    <circle id="Oval-Copy-139" fill="#F0E6F9" cx="280.4" cy="5.2" r="5.2"></circle>
                    <circle id="Oval-Copy-138" fill="#F0E6F9" cx="246" cy="5.2" r="5.2"></circle>
                    <circle id="Oval-Copy-137" fill="#F0E6F9" cx="211.6" cy="5.2" r="5.2"></circle>
                    <circle id="Oval-Copy-136" fill="#F0E6F9" cx="177.2" cy="5.2" r="5.2"></circle>
                    <circle id="Oval-Copy-135" fill="#F0E6F9" cx="142.8" cy="5.2" r="5.2"></circle>
                    <circle id="Oval-Copy-134" fill="#F0E6F9" cx="108.4" cy="5.2" r="5.2"></circle>
                    <circle id="Oval-Copy-133" fill="#F0E6F9" cx="74" cy="5.2" r="5.2"></circle>
                    <circle id="Oval-Copy-132" fill="#F0E6F9" cx="39.6" cy="5.2" r="5.2"></circle>
                    <circle id="Oval-Copy-131" fill="#F0E6F9" cx="5.2" cy="5.2" r="5.2"></circle>
                    <circle id="Oval-Copy-159" fill="#F0E6F9" cx="523" cy="74" r="5.2"></circle>
                    <circle id="Oval-Copy-158" fill="#F0E6F9" cx="488.6" cy="74" r="5.2"></circle>
                    <circle id="Oval-Copy-157" fill="#F0E6F9" cx="454.2" cy="74" r="5.2"></circle>
                    <circle id="Oval-Copy-146" fill="#F0E6F9" cx="523" cy="39.6" r="5.2"></circle>
                    <circle id="Oval-Copy-145" fill="#F0E6F9" cx="488.6" cy="39.6" r="5.2"></circle>
                    <circle id="Oval-Copy-144" fill="#F0E6F9" cx="454.2" cy="39.6" r="5.2"></circle>
                    <circle id="Oval-Copy-133" fill="#F0E6F9" cx="523" cy="5.2" r="5.2"></circle>
                    <circle id="Oval-Copy-132" fill="#F0E6F9" cx="488.6" cy="5.2" r="5.2"></circle>
                    <circle id="Oval-Copy-131" fill="#F0E6F9" cx="454.2" cy="5.2" r="5.2"></circle>
                </g>
            </g>
        </g>
    </g>
</svg>