<?xml version="1.0" encoding="UTF-8"?>
<svg width="26px" height="28px" viewBox="0 0 26 28" version="1.1" xmlns="http://www.w3.org/2000/svg" xmlns:xlink="http://www.w3.org/1999/xlink">
    <title>C1AB0762-9B80-4D02-868A-D01F9F6583AD@1x</title>
    <g id="Main-Page" stroke="none" stroke-width="1" fill="none" fill-rule="evenodd">
        <g id="02-1-2-Pricing" transform="translate(-1181.000000, -1988.000000)">
            <g id="Every-plan-include" transform="translate(373.000000, 1903.000000)">
                <g id="3" transform="translate(808.000000, 85.000000)">
                    <g id="ico-done">
                        <rect id="Rectangle" x="0" y="2" width="26" height="26"></rect>
                        <path d="M11,22.0078125 C11.265625,22.0078125 11.5,21.90625 11.703125,21.703125 L22.6953125,10.7109375 C22.8359375,10.5859375 22.9296875,10.4375 22.9765625,10.265625 C23.0234375,10.09375 23.0234375,9.91796875 22.9765625,9.73828125 C22.9296875,9.55859375 22.84375,9.40625 22.71875,9.28125 C22.59375,9.15625 22.4414062,9.0703125 22.2617188,9.0234375 C22.0820312,8.9765625 21.90625,8.9765625 21.734375,9.0234375 C21.5625,9.0703125 21.4140625,9.1640625 21.2890625,9.3046875 L11,19.59375 L6.7109375,15.3046875 C6.5859375,15.1640625 6.4375,15.0703125 6.265625,15.0234375 C6.09375,14.9765625 5.91796875,14.9765625 5.73828125,15.0234375 C5.55859375,15.0703125 5.40625,15.15625 5.28125,15.28125 C5.15625,15.40625 5.0703125,15.5585938 5.0234375,15.7382812 C4.9765625,15.9179688 4.9765625,16.09375 5.0234375,16.265625 C5.0703125,16.4375 5.1640625,16.5859375 5.3046875,16.7109375 L10.296875,21.703125 C10.5,21.90625 10.734375,22.0078125 11,22.0078125 Z" id="" fill="#7A35BF" fill-rule="nonzero"></path>
                    </g>
                </g>
            </g>
        </g>
    </g>
</svg>