<?xml version="1.0" encoding="UTF-8"?>
<svg width="26px" height="24px" viewBox="0 0 26 24" version="1.1" xmlns="http://www.w3.org/2000/svg" xmlns:xlink="http://www.w3.org/1999/xlink">
    <title>DE22976B-7BC8-48F0-B59B-3E249E724EB0@3x</title>
    <g id="LP" stroke="none" stroke-width="1" fill="none" fill-rule="evenodd">
        <g id="02-1-1-LP" transform="translate(-597.000000, -2523.000000)">
            <g id="Partner's-Commission" transform="translate(375.000000, 853.000000)">
                <g id="03" transform="translate(0.000000, 1483.000000)">
                    <g id="Arrow-down" transform="translate(235.000000, 199.000000) scale(1, -1) translate(-235.000000, -199.000000) translate(222.000000, 187.000000)">
                        <g id="Arrow-" transform="translate(13.000000, 12.000000) scale(1, -1) rotate(90.000000) translate(-13.000000, -12.000000) translate(1.000000, 0.000000)">
                            <rect id="Rectangle" x="0" y="0" width="24" height="24"></rect>
                            <path d="M9.83691406,19.1523438 C10.0732422,19.1523438 10.2845052,19.0664062 10.4707031,18.8945312 L15.913,13.452 L15.9814453,13.3945312 C16.1604818,13.2226562 16.25,13.0078125 16.25,12.75 C16.25,12.4921875 16.1604818,12.2773437 15.9814453,12.1054687 L15.913,12.049 L10.4707031,6.60546875 C10.2845052,6.43359375 10.0732422,6.34765625 9.83691406,6.34765625 C9.60058594,6.34765625 9.38932292,6.43717448 9.203125,6.61621094 C9.01692708,6.7952474 8.92382812,7.00651042 8.92382812,7.25 C8.92382812,7.49348958 9.00976563,7.70833333 9.18164063,7.89453125 L13.114,11.827 L14.1244477,12.75 L13.113,13.674 L9.18164063,17.6054687 C9.00976563,17.7916667 8.92382812,18.0065104 8.92382812,18.25 C8.92382812,18.4934896 9.01692708,18.7047526 9.203125,18.8837891 C9.38932292,19.0628255 9.60058594,19.1523438 9.83691406,19.1523438 Z" id="" fill="#0D0D0D" fill-rule="nonzero"></path>
                        </g>
                    </g>
                </g>
            </g>
        </g>
    </g>
</svg>