<?xml version="1.0" encoding="UTF-8"?>
<svg width="1886px" height="286px" viewBox="0 0 1886 286" version="1.1" xmlns="http://www.w3.org/2000/svg" xmlns:xlink="http://www.w3.org/1999/xlink">
    <title>63ACEB87-3766-45C6-BDC9-4660C1F483BC@3x</title>
    <g id="Main-Page" stroke="none" stroke-width="1" fill="none" fill-rule="evenodd">
        <g id="06-2-1-Blog" transform="translate(-17.000000, -4772.000000)" fill="#A33ABF">
            <g id="Bg---1" transform="translate(0.000000, 4153.000000)">
                <g id="Shape---1" transform="translate(17.000000, 619.000000)">
                    <circle id="Oval-Copy-108" cx="1880.4" cy="280.4" r="5.2"></circle>
                    <circle id="Oval-Copy-107" cx="1846" cy="280.4" r="5.2"></circle>
                    <circle id="Oval-Copy-106" cx="1811.6" cy="280.4" r="5.2"></circle>
                    <circle id="Oval-Copy-105" cx="1777.2" cy="280.4" r="5.2"></circle>
                    <circle id="Oval-Copy-95" cx="1880.4" cy="246" r="5.2"></circle>
                    <circle id="Oval-Copy-94" cx="1846" cy="246" r="5.2"></circle>
                    <circle id="Oval-Copy-93" cx="1811.6" cy="246" r="5.2"></circle>
                    <circle id="Oval-Copy-92" cx="1777.2" cy="246" r="5.2"></circle>
                    <circle id="Oval-Copy-82" cx="1880.4" cy="211.6" r="5.2"></circle>
                    <circle id="Oval-Copy-81" cx="1846" cy="211.6" r="5.2"></circle>
                    <circle id="Oval-Copy-80" cx="1811.6" cy="211.6" r="5.2"></circle>
                    <circle id="Oval-Copy-79" cx="1777.2" cy="211.6" r="5.2"></circle>
                    <circle id="Oval-Copy-69" cx="1880.4" cy="177.2" r="5.2"></circle>
                    <circle id="Oval-Copy-68" cx="1846" cy="177.2" r="5.2"></circle>
                    <circle id="Oval-Copy-67" cx="1811.6" cy="177.2" r="5.2"></circle>
                    <circle id="Oval-Copy-66" cx="1777.2" cy="177.2" r="5.2"></circle>
                    <circle id="Oval-Copy-56" cx="1880.4" cy="142.8" r="5.2"></circle>
                    <circle id="Oval-Copy-55" cx="1846" cy="142.8" r="5.2"></circle>
                    <circle id="Oval-Copy-54" cx="1811.6" cy="142.8" r="5.2"></circle>
                    <circle id="Oval-Copy-53" cx="1777.2" cy="142.8" r="5.2"></circle>
                    <circle id="Oval-Copy-43" cx="1880.4" cy="108.4" r="5.2"></circle>
                    <circle id="Oval-Copy-42" cx="1846" cy="108.4" r="5.2"></circle>
                    <circle id="Oval-Copy-41" cx="1811.6" cy="108.4" r="5.2"></circle>
                    <circle id="Oval-Copy-40" cx="1777.2" cy="108.4" r="5.2"></circle>
                    <circle id="Oval-Copy-30" cx="1880.4" cy="74" r="5.2"></circle>
                    <circle id="Oval-Copy-29" cx="1846" cy="74" r="5.2"></circle>
                    <circle id="Oval-Copy-28" cx="1811.6" cy="74" r="5.2"></circle>
                    <circle id="Oval-Copy-27" cx="1777.2" cy="74" r="5.2"></circle>
                    <circle id="Oval-Copy-17" cx="1880.4" cy="39.6" r="5.2"></circle>
                    <circle id="Oval-Copy-16" cx="1846" cy="39.6" r="5.2"></circle>
                    <circle id="Oval-Copy-15" cx="1811.6" cy="39.6" r="5.2"></circle>
                    <circle id="Oval-Copy-14" cx="1777.2" cy="39.6" r="5.2"></circle>
                    <circle id="Oval-Copy-4" cx="1880.4" cy="5.2" r="5.2"></circle>
                    <circle id="Oval-Copy-3" cx="1846" cy="5.2" r="5.2"></circle>
                    <circle id="Oval-Copy-2" cx="1811.6" cy="5.2" r="5.2"></circle>
                    <circle id="Oval-Copy" cx="1777.2" cy="5.2" r="5.2"></circle>
                    <circle id="Oval-Copy-117" cx="1742" cy="280.4" r="5.2"></circle>
                    <circle id="Oval-Copy-116" cx="1707.6" cy="280.4" r="5.2"></circle>
                    <circle id="Oval-Copy-115" cx="1673.2" cy="280.4" r="5.2"></circle>
                    <circle id="Oval-Copy-114" cx="1638.8" cy="280.4" r="5.2"></circle>
                    <circle id="Oval-Copy-113" cx="1604.4" cy="280.4" r="5.2"></circle>
                    <circle id="Oval-Copy-112" cx="1570" cy="280.4" r="5.2"></circle>
                    <circle id="Oval-Copy-111" cx="1535.6" cy="280.4" r="5.2"></circle>
                    <circle id="Oval-Copy-110" cx="1501.2" cy="280.4" r="5.2"></circle>
                    <circle id="Oval-Copy-109" cx="1466.8" cy="280.4" r="5.2"></circle>
                    <circle id="Oval-Copy-108" cx="1432.4" cy="280.4" r="5.2"></circle>
                    <circle id="Oval-Copy-107" cx="1398" cy="280.4" r="5.2"></circle>
                    <circle id="Oval-Copy-106" cx="1363.6" cy="280.4" r="5.2"></circle>
                    <circle id="Oval-Copy-105" cx="1329.2" cy="280.4" r="5.2"></circle>
                    <circle id="Oval-Copy-104" cx="1742" cy="246" r="5.2"></circle>
                    <circle id="Oval-Copy-103" cx="1707.6" cy="246" r="5.2"></circle>
                    <circle id="Oval-Copy-102" cx="1673.2" cy="246" r="5.2"></circle>
                    <circle id="Oval-Copy-101" cx="1638.8" cy="246" r="5.2"></circle>
                    <circle id="Oval-Copy-100" cx="1604.4" cy="246" r="5.2"></circle>
                    <circle id="Oval-Copy-99" cx="1570" cy="246" r="5.2"></circle>
                    <circle id="Oval-Copy-98" cx="1535.6" cy="246" r="5.2"></circle>
                    <circle id="Oval-Copy-97" cx="1501.2" cy="246" r="5.2"></circle>
                    <circle id="Oval-Copy-96" cx="1466.8" cy="246" r="5.2"></circle>
                    <circle id="Oval-Copy-95" cx="1432.4" cy="246" r="5.2"></circle>
                    <circle id="Oval-Copy-94" cx="1398" cy="246" r="5.2"></circle>
                    <circle id="Oval-Copy-93" cx="1363.6" cy="246" r="5.2"></circle>
                    <circle id="Oval-Copy-92" cx="1329.2" cy="246" r="5.2"></circle>
                    <circle id="Oval-Copy-91" cx="1742" cy="211.6" r="5.2"></circle>
                    <circle id="Oval-Copy-90" cx="1707.6" cy="211.6" r="5.2"></circle>
                    <circle id="Oval-Copy-89" cx="1673.2" cy="211.6" r="5.2"></circle>
                    <circle id="Oval-Copy-88" cx="1638.8" cy="211.6" r="5.2"></circle>
                    <circle id="Oval-Copy-87" cx="1604.4" cy="211.6" r="5.2"></circle>
                    <circle id="Oval-Copy-86" cx="1570" cy="211.6" r="5.2"></circle>
                    <circle id="Oval-Copy-85" cx="1535.6" cy="211.6" r="5.2"></circle>
                    <circle id="Oval-Copy-84" cx="1501.2" cy="211.6" r="5.2"></circle>
                    <circle id="Oval-Copy-83" cx="1466.8" cy="211.6" r="5.2"></circle>
                    <circle id="Oval-Copy-82" cx="1432.4" cy="211.6" r="5.2"></circle>
                    <circle id="Oval-Copy-81" cx="1398" cy="211.6" r="5.2"></circle>
                    <circle id="Oval-Copy-80" cx="1363.6" cy="211.6" r="5.2"></circle>
                    <circle id="Oval-Copy-79" cx="1329.2" cy="211.6" r="5.2"></circle>
                    <circle id="Oval-Copy-78" cx="1742" cy="177.2" r="5.2"></circle>
                    <circle id="Oval-Copy-77" cx="1707.6" cy="177.2" r="5.2"></circle>
                    <circle id="Oval-Copy-76" cx="1673.2" cy="177.2" r="5.2"></circle>
                    <circle id="Oval-Copy-75" cx="1638.8" cy="177.2" r="5.2"></circle>
                    <circle id="Oval-Copy-74" cx="1604.4" cy="177.2" r="5.2"></circle>
                    <circle id="Oval-Copy-73" cx="1570" cy="177.2" r="5.2"></circle>
                    <circle id="Oval-Copy-72" cx="1535.6" cy="177.2" r="5.2"></circle>
                    <circle id="Oval-Copy-71" cx="1501.2" cy="177.2" r="5.2"></circle>
                    <circle id="Oval-Copy-70" cx="1466.8" cy="177.2" r="5.2"></circle>
                    <circle id="Oval-Copy-69" cx="1432.4" cy="177.2" r="5.2"></circle>
                    <circle id="Oval-Copy-68" cx="1398" cy="177.2" r="5.2"></circle>
                    <circle id="Oval-Copy-67" cx="1363.6" cy="177.2" r="5.2"></circle>
                    <circle id="Oval-Copy-66" cx="1329.2" cy="177.2" r="5.2"></circle>
                    <circle id="Oval-Copy-65" cx="1742" cy="142.8" r="5.2"></circle>
                    <circle id="Oval-Copy-64" cx="1707.6" cy="142.8" r="5.2"></circle>
                    <circle id="Oval-Copy-63" cx="1673.2" cy="142.8" r="5.2"></circle>
                    <circle id="Oval-Copy-62" cx="1638.8" cy="142.8" r="5.2"></circle>
                    <circle id="Oval-Copy-61" cx="1604.4" cy="142.8" r="5.2"></circle>
                    <circle id="Oval-Copy-60" cx="1570" cy="142.8" r="5.2"></circle>
                    <circle id="Oval-Copy-59" cx="1535.6" cy="142.8" r="5.2"></circle>
                    <circle id="Oval-Copy-58" cx="1501.2" cy="142.8" r="5.2"></circle>
                    <circle id="Oval-Copy-57" cx="1466.8" cy="142.8" r="5.2"></circle>
                    <circle id="Oval-Copy-56" cx="1432.4" cy="142.8" r="5.2"></circle>
                    <circle id="Oval-Copy-55" cx="1398" cy="142.8" r="5.2"></circle>
                    <circle id="Oval-Copy-54" cx="1363.6" cy="142.8" r="5.2"></circle>
                    <circle id="Oval-Copy-53" cx="1329.2" cy="142.8" r="5.2"></circle>
                    <circle id="Oval-Copy-52" cx="1742" cy="108.4" r="5.2"></circle>
                    <circle id="Oval-Copy-51" cx="1707.6" cy="108.4" r="5.2"></circle>
                    <circle id="Oval-Copy-50" cx="1673.2" cy="108.4" r="5.2"></circle>
                    <circle id="Oval-Copy-49" cx="1638.8" cy="108.4" r="5.2"></circle>
                    <circle id="Oval-Copy-48" cx="1604.4" cy="108.4" r="5.2"></circle>
                    <circle id="Oval-Copy-47" cx="1570" cy="108.4" r="5.2"></circle>
                    <circle id="Oval-Copy-46" cx="1535.6" cy="108.4" r="5.2"></circle>
                    <circle id="Oval-Copy-45" cx="1501.2" cy="108.4" r="5.2"></circle>
                    <circle id="Oval-Copy-44" cx="1466.8" cy="108.4" r="5.2"></circle>
                    <circle id="Oval-Copy-43" cx="1432.4" cy="108.4" r="5.2"></circle>
                    <circle id="Oval-Copy-42" cx="1398" cy="108.4" r="5.2"></circle>
                    <circle id="Oval-Copy-41" cx="1363.6" cy="108.4" r="5.2"></circle>
                    <circle id="Oval-Copy-40" cx="1329.2" cy="108.4" r="5.2"></circle>
                    <circle id="Oval-Copy-39" cx="1742" cy="74" r="5.2"></circle>
                    <circle id="Oval-Copy-38" cx="1707.6" cy="74" r="5.2"></circle>
                    <circle id="Oval-Copy-37" cx="1673.2" cy="74" r="5.2"></circle>
                    <circle id="Oval-Copy-36" cx="1638.8" cy="74" r="5.2"></circle>
                    <circle id="Oval-Copy-35" cx="1604.4" cy="74" r="5.2"></circle>
                    <circle id="Oval-Copy-34" cx="1570" cy="74" r="5.2"></circle>
                    <circle id="Oval-Copy-33" cx="1535.6" cy="74" r="5.2"></circle>
                    <circle id="Oval-Copy-32" cx="1501.2" cy="74" r="5.2"></circle>
                    <circle id="Oval-Copy-31" cx="1466.8" cy="74" r="5.2"></circle>
                    <circle id="Oval-Copy-30" cx="1432.4" cy="74" r="5.2"></circle>
                    <circle id="Oval-Copy-29" cx="1398" cy="74" r="5.2"></circle>
                    <circle id="Oval-Copy-28" cx="1363.6" cy="74" r="5.2"></circle>
                    <circle id="Oval-Copy-27" cx="1329.2" cy="74" r="5.2"></circle>
                    <circle id="Oval-Copy-26" cx="1742" cy="39.6" r="5.2"></circle>
                    <circle id="Oval-Copy-25" cx="1707.6" cy="39.6" r="5.2"></circle>
                    <circle id="Oval-Copy-24" cx="1673.2" cy="39.6" r="5.2"></circle>
                    <circle id="Oval-Copy-23" cx="1638.8" cy="39.6" r="5.2"></circle>
                    <circle id="Oval-Copy-22" cx="1604.4" cy="39.6" r="5.2"></circle>
                    <circle id="Oval-Copy-21" cx="1570" cy="39.6" r="5.2"></circle>
                    <circle id="Oval-Copy-20" cx="1535.6" cy="39.6" r="5.2"></circle>
                    <circle id="Oval-Copy-19" cx="1501.2" cy="39.6" r="5.2"></circle>
                    <circle id="Oval-Copy-18" cx="1466.8" cy="39.6" r="5.2"></circle>
                    <circle id="Oval-Copy-17" cx="1432.4" cy="39.6" r="5.2"></circle>
                    <circle id="Oval-Copy-16" cx="1398" cy="39.6" r="5.2"></circle>
                    <circle id="Oval-Copy-15" cx="1363.6" cy="39.6" r="5.2"></circle>
                    <circle id="Oval-Copy-14" cx="1329.2" cy="39.6" r="5.2"></circle>
                    <circle id="Oval-Copy-13" cx="1742" cy="5.2" r="5.2"></circle>
                    <circle id="Oval-Copy-12" cx="1707.6" cy="5.2" r="5.2"></circle>
                    <circle id="Oval-Copy-11" cx="1673.2" cy="5.2" r="5.2"></circle>
                    <circle id="Oval-Copy-10" cx="1638.8" cy="5.2" r="5.2"></circle>
                    <circle id="Oval-Copy-9" cx="1604.4" cy="5.2" r="5.2"></circle>
                    <circle id="Oval-Copy-8" cx="1570" cy="5.2" r="5.2"></circle>
                    <circle id="Oval-Copy-7" cx="1535.6" cy="5.2" r="5.2"></circle>
                    <circle id="Oval-Copy-6" cx="1501.2" cy="5.2" r="5.2"></circle>
                    <circle id="Oval-Copy-5" cx="1466.8" cy="5.2" r="5.2"></circle>
                    <circle id="Oval-Copy-4" cx="1432.4" cy="5.2" r="5.2"></circle>
                    <circle id="Oval-Copy-3" cx="1398" cy="5.2" r="5.2"></circle>
                    <circle id="Oval-Copy-2" cx="1363.6" cy="5.2" r="5.2"></circle>
                    <circle id="Oval-Copy" cx="1329.2" cy="5.2" r="5.2"></circle>
                    <circle id="Oval-Copy-117" cx="1288" cy="280.4" r="5.2"></circle>
                    <circle id="Oval-Copy-116" cx="1253.6" cy="280.4" r="5.2"></circle>
                    <circle id="Oval-Copy-115" cx="1219.2" cy="280.4" r="5.2"></circle>
                    <circle id="Oval-Copy-114" cx="1184.8" cy="280.4" r="5.2"></circle>
                    <circle id="Oval-Copy-113" cx="1150.4" cy="280.4" r="5.2"></circle>
                    <circle id="Oval-Copy-112" cx="1116" cy="280.4" r="5.2"></circle>
                    <circle id="Oval-Copy-111" cx="1081.6" cy="280.4" r="5.2"></circle>
                    <circle id="Oval-Copy-110" cx="1047.2" cy="280.4" r="5.2"></circle>
                    <circle id="Oval-Copy-109" cx="1012.8" cy="280.4" r="5.2"></circle>
                    <circle id="Oval-Copy-108" cx="978.4" cy="280.4" r="5.2"></circle>
                    <circle id="Oval-Copy-107" cx="944" cy="280.4" r="5.2"></circle>
                    <circle id="Oval-Copy-106" cx="909.6" cy="280.4" r="5.2"></circle>
                    <circle id="Oval-Copy-105" cx="875.2" cy="280.4" r="5.2"></circle>
                    <circle id="Oval-Copy-104" cx="1288" cy="246" r="5.2"></circle>
                    <circle id="Oval-Copy-103" cx="1253.6" cy="246" r="5.2"></circle>
                    <circle id="Oval-Copy-102" cx="1219.2" cy="246" r="5.2"></circle>
                    <circle id="Oval-Copy-101" cx="1184.8" cy="246" r="5.2"></circle>
                    <circle id="Oval-Copy-100" cx="1150.4" cy="246" r="5.2"></circle>
                    <circle id="Oval-Copy-99" cx="1116" cy="246" r="5.2"></circle>
                    <circle id="Oval-Copy-98" cx="1081.6" cy="246" r="5.2"></circle>
                    <circle id="Oval-Copy-97" cx="1047.2" cy="246" r="5.2"></circle>
                    <circle id="Oval-Copy-96" cx="1012.8" cy="246" r="5.2"></circle>
                    <circle id="Oval-Copy-95" cx="978.4" cy="246" r="5.2"></circle>
                    <circle id="Oval-Copy-94" cx="944" cy="246" r="5.2"></circle>
                    <circle id="Oval-Copy-93" cx="909.6" cy="246" r="5.2"></circle>
                    <circle id="Oval-Copy-92" cx="875.2" cy="246" r="5.2"></circle>
                    <circle id="Oval-Copy-91" cx="1288" cy="211.6" r="5.2"></circle>
                    <circle id="Oval-Copy-90" cx="1253.6" cy="211.6" r="5.2"></circle>
                    <circle id="Oval-Copy-89" cx="1219.2" cy="211.6" r="5.2"></circle>
                    <circle id="Oval-Copy-88" cx="1184.8" cy="211.6" r="5.2"></circle>
                    <circle id="Oval-Copy-87" cx="1150.4" cy="211.6" r="5.2"></circle>
                    <circle id="Oval-Copy-86" cx="1116" cy="211.6" r="5.2"></circle>
                    <circle id="Oval-Copy-85" cx="1081.6" cy="211.6" r="5.2"></circle>
                    <circle id="Oval-Copy-84" cx="1047.2" cy="211.6" r="5.2"></circle>
                    <circle id="Oval-Copy-83" cx="1012.8" cy="211.6" r="5.2"></circle>
                    <circle id="Oval-Copy-82" cx="978.4" cy="211.6" r="5.2"></circle>
                    <circle id="Oval-Copy-81" cx="944" cy="211.6" r="5.2"></circle>
                    <circle id="Oval-Copy-80" cx="909.6" cy="211.6" r="5.2"></circle>
                    <circle id="Oval-Copy-79" cx="875.2" cy="211.6" r="5.2"></circle>
                    <circle id="Oval-Copy-78" cx="1288" cy="177.2" r="5.2"></circle>
                    <circle id="Oval-Copy-77" cx="1253.6" cy="177.2" r="5.2"></circle>
                    <circle id="Oval-Copy-76" cx="1219.2" cy="177.2" r="5.2"></circle>
                    <circle id="Oval-Copy-75" cx="1184.8" cy="177.2" r="5.2"></circle>
                    <circle id="Oval-Copy-74" cx="1150.4" cy="177.2" r="5.2"></circle>
                    <circle id="Oval-Copy-73" cx="1116" cy="177.2" r="5.2"></circle>
                    <circle id="Oval-Copy-72" cx="1081.6" cy="177.2" r="5.2"></circle>
                    <circle id="Oval-Copy-71" cx="1047.2" cy="177.2" r="5.2"></circle>
                    <circle id="Oval-Copy-70" cx="1012.8" cy="177.2" r="5.2"></circle>
                    <circle id="Oval-Copy-69" cx="978.4" cy="177.2" r="5.2"></circle>
                    <circle id="Oval-Copy-68" cx="944" cy="177.2" r="5.2"></circle>
                    <circle id="Oval-Copy-67" cx="909.6" cy="177.2" r="5.2"></circle>
                    <circle id="Oval-Copy-66" cx="875.2" cy="177.2" r="5.2"></circle>
                    <circle id="Oval-Copy-65" cx="1288" cy="142.8" r="5.2"></circle>
                    <circle id="Oval-Copy-64" cx="1253.6" cy="142.8" r="5.2"></circle>
                    <circle id="Oval-Copy-63" cx="1219.2" cy="142.8" r="5.2"></circle>
                    <circle id="Oval-Copy-62" cx="1184.8" cy="142.8" r="5.2"></circle>
                    <circle id="Oval-Copy-61" cx="1150.4" cy="142.8" r="5.2"></circle>
                    <circle id="Oval-Copy-60" cx="1116" cy="142.8" r="5.2"></circle>
                    <circle id="Oval-Copy-59" cx="1081.6" cy="142.8" r="5.2"></circle>
                    <circle id="Oval-Copy-58" cx="1047.2" cy="142.8" r="5.2"></circle>
                    <circle id="Oval-Copy-57" cx="1012.8" cy="142.8" r="5.2"></circle>
                    <circle id="Oval-Copy-56" cx="978.4" cy="142.8" r="5.2"></circle>
                    <circle id="Oval-Copy-55" cx="944" cy="142.8" r="5.2"></circle>
                    <circle id="Oval-Copy-54" cx="909.6" cy="142.8" r="5.2"></circle>
                    <circle id="Oval-Copy-53" cx="875.2" cy="142.8" r="5.2"></circle>
                    <circle id="Oval-Copy-52" cx="1288" cy="108.4" r="5.2"></circle>
                    <circle id="Oval-Copy-51" cx="1253.6" cy="108.4" r="5.2"></circle>
                    <circle id="Oval-Copy-50" cx="1219.2" cy="108.4" r="5.2"></circle>
                    <circle id="Oval-Copy-49" cx="1184.8" cy="108.4" r="5.2"></circle>
                    <circle id="Oval-Copy-48" cx="1150.4" cy="108.4" r="5.2"></circle>
                    <circle id="Oval-Copy-47" cx="1116" cy="108.4" r="5.2"></circle>
                    <circle id="Oval-Copy-46" cx="1081.6" cy="108.4" r="5.2"></circle>
                    <circle id="Oval-Copy-45" cx="1047.2" cy="108.4" r="5.2"></circle>
                    <circle id="Oval-Copy-44" cx="1012.8" cy="108.4" r="5.2"></circle>
                    <circle id="Oval-Copy-43" cx="978.4" cy="108.4" r="5.2"></circle>
                    <circle id="Oval-Copy-42" cx="944" cy="108.4" r="5.2"></circle>
                    <circle id="Oval-Copy-41" cx="909.6" cy="108.4" r="5.2"></circle>
                    <circle id="Oval-Copy-40" cx="875.2" cy="108.4" r="5.2"></circle>
                    <circle id="Oval-Copy-39" cx="1288" cy="74" r="5.2"></circle>
                    <circle id="Oval-Copy-38" cx="1253.6" cy="74" r="5.2"></circle>
                    <circle id="Oval-Copy-37" cx="1219.2" cy="74" r="5.2"></circle>
                    <circle id="Oval-Copy-36" cx="1184.8" cy="74" r="5.2"></circle>
                    <circle id="Oval-Copy-35" cx="1150.4" cy="74" r="5.2"></circle>
                    <circle id="Oval-Copy-34" cx="1116" cy="74" r="5.2"></circle>
                    <circle id="Oval-Copy-33" cx="1081.6" cy="74" r="5.2"></circle>
                    <circle id="Oval-Copy-32" cx="1047.2" cy="74" r="5.2"></circle>
                    <circle id="Oval-Copy-31" cx="1012.8" cy="74" r="5.2"></circle>
                    <circle id="Oval-Copy-30" cx="978.4" cy="74" r="5.2"></circle>
                    <circle id="Oval-Copy-29" cx="944" cy="74" r="5.2"></circle>
                    <circle id="Oval-Copy-28" cx="909.6" cy="74" r="5.2"></circle>
                    <circle id="Oval-Copy-27" cx="875.2" cy="74" r="5.2"></circle>
                    <circle id="Oval-Copy-26" cx="1288" cy="39.6" r="5.2"></circle>
                    <circle id="Oval-Copy-25" cx="1253.6" cy="39.6" r="5.2"></circle>
                    <circle id="Oval-Copy-24" cx="1219.2" cy="39.6" r="5.2"></circle>
                    <circle id="Oval-Copy-23" cx="1184.8" cy="39.6" r="5.2"></circle>
                    <circle id="Oval-Copy-22" cx="1150.4" cy="39.6" r="5.2"></circle>
                    <circle id="Oval-Copy-21" cx="1116" cy="39.6" r="5.2"></circle>
                    <circle id="Oval-Copy-20" cx="1081.6" cy="39.6" r="5.2"></circle>
                    <circle id="Oval-Copy-19" cx="1047.2" cy="39.6" r="5.2"></circle>
                    <circle id="Oval-Copy-18" cx="1012.8" cy="39.6" r="5.2"></circle>
                    <circle id="Oval-Copy-17" cx="978.4" cy="39.6" r="5.2"></circle>
                    <circle id="Oval-Copy-16" cx="944" cy="39.6" r="5.2"></circle>
                    <circle id="Oval-Copy-15" cx="909.6" cy="39.6" r="5.2"></circle>
                    <circle id="Oval-Copy-14" cx="875.2" cy="39.6" r="5.2"></circle>
                    <circle id="Oval-Copy-13" cx="1288" cy="5.2" r="5.2"></circle>
                    <circle id="Oval-Copy-12" cx="1253.6" cy="5.2" r="5.2"></circle>
                    <circle id="Oval-Copy-11" cx="1219.2" cy="5.2" r="5.2"></circle>
                    <circle id="Oval-Copy-10" cx="1184.8" cy="5.2" r="5.2"></circle>
                    <circle id="Oval-Copy-9" cx="1150.4" cy="5.2" r="5.2"></circle>
                    <circle id="Oval-Copy-8" cx="1116" cy="5.2" r="5.2"></circle>
                    <circle id="Oval-Copy-7" cx="1081.6" cy="5.2" r="5.2"></circle>
                    <circle id="Oval-Copy-6" cx="1047.2" cy="5.2" r="5.2"></circle>
                    <circle id="Oval-Copy-5" cx="1012.8" cy="5.2" r="5.2"></circle>
                    <circle id="Oval-Copy-4" cx="978.4" cy="5.2" r="5.2"></circle>
                    <circle id="Oval-Copy-3" cx="944" cy="5.2" r="5.2"></circle>
                    <circle id="Oval-Copy-2" cx="909.6" cy="5.2" r="5.2"></circle>
                    <circle id="Oval-Copy" cx="875.2" cy="5.2" r="5.2"></circle>
                    <circle id="Oval-Copy-117" cx="838" cy="280.4" r="5.2"></circle>
                    <circle id="Oval-Copy-116" cx="803.6" cy="280.4" r="5.2"></circle>
                    <circle id="Oval-Copy-115" cx="769.2" cy="280.4" r="5.2"></circle>
                    <circle id="Oval-Copy-114" cx="734.8" cy="280.4" r="5.2"></circle>
                    <circle id="Oval-Copy-113" cx="700.4" cy="280.4" r="5.2"></circle>
                    <circle id="Oval-Copy-112" cx="666" cy="280.4" r="5.2"></circle>
                    <circle id="Oval-Copy-111" cx="631.6" cy="280.4" r="5.2"></circle>
                    <circle id="Oval-Copy-110" cx="597.2" cy="280.4" r="5.2"></circle>
                    <circle id="Oval-Copy-109" cx="562.8" cy="280.4" r="5.2"></circle>
                    <circle id="Oval-Copy-108" cx="528.4" cy="280.4" r="5.2"></circle>
                    <circle id="Oval-Copy-107" cx="494" cy="280.4" r="5.2"></circle>
                    <circle id="Oval-Copy-106" cx="459.6" cy="280.4" r="5.2"></circle>
                    <circle id="Oval-Copy-105" cx="425.2" cy="280.4" r="5.2"></circle>
                    <circle id="Oval-Copy-104" cx="838" cy="246" r="5.2"></circle>
                    <circle id="Oval-Copy-103" cx="803.6" cy="246" r="5.2"></circle>
                    <circle id="Oval-Copy-102" cx="769.2" cy="246" r="5.2"></circle>
                    <circle id="Oval-Copy-101" cx="734.8" cy="246" r="5.2"></circle>
                    <circle id="Oval-Copy-100" cx="700.4" cy="246" r="5.2"></circle>
                    <circle id="Oval-Copy-99" cx="666" cy="246" r="5.2"></circle>
                    <circle id="Oval-Copy-98" cx="631.6" cy="246" r="5.2"></circle>
                    <circle id="Oval-Copy-97" cx="597.2" cy="246" r="5.2"></circle>
                    <circle id="Oval-Copy-96" cx="562.8" cy="246" r="5.2"></circle>
                    <circle id="Oval-Copy-95" cx="528.4" cy="246" r="5.2"></circle>
                    <circle id="Oval-Copy-94" cx="494" cy="246" r="5.2"></circle>
                    <circle id="Oval-Copy-93" cx="459.6" cy="246" r="5.2"></circle>
                    <circle id="Oval-Copy-92" cx="425.2" cy="246" r="5.2"></circle>
                    <circle id="Oval-Copy-91" cx="838" cy="211.6" r="5.2"></circle>
                    <circle id="Oval-Copy-90" cx="803.6" cy="211.6" r="5.2"></circle>
                    <circle id="Oval-Copy-89" cx="769.2" cy="211.6" r="5.2"></circle>
                    <circle id="Oval-Copy-88" cx="734.8" cy="211.6" r="5.2"></circle>
                    <circle id="Oval-Copy-87" cx="700.4" cy="211.6" r="5.2"></circle>
                    <circle id="Oval-Copy-86" cx="666" cy="211.6" r="5.2"></circle>
                    <circle id="Oval-Copy-85" cx="631.6" cy="211.6" r="5.2"></circle>
                    <circle id="Oval-Copy-84" cx="597.2" cy="211.6" r="5.2"></circle>
                    <circle id="Oval-Copy-83" cx="562.8" cy="211.6" r="5.2"></circle>
                    <circle id="Oval-Copy-82" cx="528.4" cy="211.6" r="5.2"></circle>
                    <circle id="Oval-Copy-81" cx="494" cy="211.6" r="5.2"></circle>
                    <circle id="Oval-Copy-80" cx="459.6" cy="211.6" r="5.2"></circle>
                    <circle id="Oval-Copy-79" cx="425.2" cy="211.6" r="5.2"></circle>
                    <circle id="Oval-Copy-78" cx="838" cy="177.2" r="5.2"></circle>
                    <circle id="Oval-Copy-77" cx="803.6" cy="177.2" r="5.2"></circle>
                    <circle id="Oval-Copy-76" cx="769.2" cy="177.2" r="5.2"></circle>
                    <circle id="Oval-Copy-75" cx="734.8" cy="177.2" r="5.2"></circle>
                    <circle id="Oval-Copy-74" cx="700.4" cy="177.2" r="5.2"></circle>
                    <circle id="Oval-Copy-73" cx="666" cy="177.2" r="5.2"></circle>
                    <circle id="Oval-Copy-72" cx="631.6" cy="177.2" r="5.2"></circle>
                    <circle id="Oval-Copy-71" cx="597.2" cy="177.2" r="5.2"></circle>
                    <circle id="Oval-Copy-70" cx="562.8" cy="177.2" r="5.2"></circle>
                    <circle id="Oval-Copy-69" cx="528.4" cy="177.2" r="5.2"></circle>
                    <circle id="Oval-Copy-68" cx="494" cy="177.2" r="5.2"></circle>
                    <circle id="Oval-Copy-67" cx="459.6" cy="177.2" r="5.2"></circle>
                    <circle id="Oval-Copy-66" cx="425.2" cy="177.2" r="5.2"></circle>
                    <circle id="Oval-Copy-65" cx="838" cy="142.8" r="5.2"></circle>
                    <circle id="Oval-Copy-64" cx="803.6" cy="142.8" r="5.2"></circle>
                    <circle id="Oval-Copy-63" cx="769.2" cy="142.8" r="5.2"></circle>
                    <circle id="Oval-Copy-62" cx="734.8" cy="142.8" r="5.2"></circle>
                    <circle id="Oval-Copy-61" cx="700.4" cy="142.8" r="5.2"></circle>
                    <circle id="Oval-Copy-60" cx="666" cy="142.8" r="5.2"></circle>
                    <circle id="Oval-Copy-59" cx="631.6" cy="142.8" r="5.2"></circle>
                    <circle id="Oval-Copy-58" cx="597.2" cy="142.8" r="5.2"></circle>
                    <circle id="Oval-Copy-57" cx="562.8" cy="142.8" r="5.2"></circle>
                    <circle id="Oval-Copy-56" cx="528.4" cy="142.8" r="5.2"></circle>
                    <circle id="Oval-Copy-55" cx="494" cy="142.8" r="5.2"></circle>
                    <circle id="Oval-Copy-54" cx="459.6" cy="142.8" r="5.2"></circle>
                    <circle id="Oval-Copy-53" cx="425.2" cy="142.8" r="5.2"></circle>
                    <circle id="Oval-Copy-52" cx="838" cy="108.4" r="5.2"></circle>
                    <circle id="Oval-Copy-51" cx="803.6" cy="108.4" r="5.2"></circle>
                    <circle id="Oval-Copy-50" cx="769.2" cy="108.4" r="5.2"></circle>
                    <circle id="Oval-Copy-49" cx="734.8" cy="108.4" r="5.2"></circle>
                    <circle id="Oval-Copy-48" cx="700.4" cy="108.4" r="5.2"></circle>
                    <circle id="Oval-Copy-47" cx="666" cy="108.4" r="5.2"></circle>
                    <circle id="Oval-Copy-46" cx="631.6" cy="108.4" r="5.2"></circle>
                    <circle id="Oval-Copy-45" cx="597.2" cy="108.4" r="5.2"></circle>
                    <circle id="Oval-Copy-44" cx="562.8" cy="108.4" r="5.2"></circle>
                    <circle id="Oval-Copy-43" cx="528.4" cy="108.4" r="5.2"></circle>
                    <circle id="Oval-Copy-42" cx="494" cy="108.4" r="5.2"></circle>
                    <circle id="Oval-Copy-41" cx="459.6" cy="108.4" r="5.2"></circle>
                    <circle id="Oval-Copy-40" cx="425.2" cy="108.4" r="5.2"></circle>
                    <circle id="Oval-Copy-39" cx="838" cy="74" r="5.2"></circle>
                    <circle id="Oval-Copy-38" cx="803.6" cy="74" r="5.2"></circle>
                    <circle id="Oval-Copy-37" cx="769.2" cy="74" r="5.2"></circle>
                    <circle id="Oval-Copy-36" cx="734.8" cy="74" r="5.2"></circle>
                    <circle id="Oval-Copy-35" cx="700.4" cy="74" r="5.2"></circle>
                    <circle id="Oval-Copy-34" cx="666" cy="74" r="5.2"></circle>
                    <circle id="Oval-Copy-33" cx="631.6" cy="74" r="5.2"></circle>
                    <circle id="Oval-Copy-32" cx="597.2" cy="74" r="5.2"></circle>
                    <circle id="Oval-Copy-31" cx="562.8" cy="74" r="5.2"></circle>
                    <circle id="Oval-Copy-30" cx="528.4" cy="74" r="5.2"></circle>
                    <circle id="Oval-Copy-29" cx="494" cy="74" r="5.2"></circle>
                    <circle id="Oval-Copy-28" cx="459.6" cy="74" r="5.2"></circle>
                    <circle id="Oval-Copy-27" cx="425.2" cy="74" r="5.2"></circle>
                    <circle id="Oval-Copy-26" cx="838" cy="39.6" r="5.2"></circle>
                    <circle id="Oval-Copy-25" cx="803.6" cy="39.6" r="5.2"></circle>
                    <circle id="Oval-Copy-24" cx="769.2" cy="39.6" r="5.2"></circle>
                    <circle id="Oval-Copy-23" cx="734.8" cy="39.6" r="5.2"></circle>
                    <circle id="Oval-Copy-22" cx="700.4" cy="39.6" r="5.2"></circle>
                    <circle id="Oval-Copy-21" cx="666" cy="39.6" r="5.2"></circle>
                    <circle id="Oval-Copy-20" cx="631.6" cy="39.6" r="5.2"></circle>
                    <circle id="Oval-Copy-19" cx="597.2" cy="39.6" r="5.2"></circle>
                    <circle id="Oval-Copy-18" cx="562.8" cy="39.6" r="5.2"></circle>
                    <circle id="Oval-Copy-17" cx="528.4" cy="39.6" r="5.2"></circle>
                    <circle id="Oval-Copy-16" cx="494" cy="39.6" r="5.2"></circle>
                    <circle id="Oval-Copy-15" cx="459.6" cy="39.6" r="5.2"></circle>
                    <circle id="Oval-Copy-14" cx="425.2" cy="39.6" r="5.2"></circle>
                    <circle id="Oval-Copy-13" cx="838" cy="5.2" r="5.2"></circle>
                    <circle id="Oval-Copy-12" cx="803.6" cy="5.2" r="5.2"></circle>
                    <circle id="Oval-Copy-11" cx="769.2" cy="5.2" r="5.2"></circle>
                    <circle id="Oval-Copy-10" cx="734.8" cy="5.2" r="5.2"></circle>
                    <circle id="Oval-Copy-9" cx="700.4" cy="5.2" r="5.2"></circle>
                    <circle id="Oval-Copy-8" cx="666" cy="5.2" r="5.2"></circle>
                    <circle id="Oval-Copy-7" cx="631.6" cy="5.2" r="5.2"></circle>
                    <circle id="Oval-Copy-6" cx="597.2" cy="5.2" r="5.2"></circle>
                    <circle id="Oval-Copy-5" cx="562.8" cy="5.2" r="5.2"></circle>
                    <circle id="Oval-Copy-4" cx="528.4" cy="5.2" r="5.2"></circle>
                    <circle id="Oval-Copy-3" cx="494" cy="5.2" r="5.2"></circle>
                    <circle id="Oval-Copy-2" cx="459.6" cy="5.2" r="5.2"></circle>
                    <circle id="Oval-Copy" cx="425.2" cy="5.2" r="5.2"></circle>
                    <circle id="Oval-Copy-117" cx="384" cy="280.4" r="5.2"></circle>
                    <circle id="Oval-Copy-116" cx="349.6" cy="280.4" r="5.2"></circle>
                    <circle id="Oval-Copy-115" cx="315.2" cy="280.4" r="5.2"></circle>
                    <circle id="Oval-Copy-114" cx="280.8" cy="280.4" r="5.2"></circle>
                    <circle id="Oval-Copy-113" cx="246.4" cy="280.4" r="5.2"></circle>
                    <circle id="Oval-Copy-112" cx="212" cy="280.4" r="5.2"></circle>
                    <circle id="Oval-Copy-111" cx="177.6" cy="280.4" r="5.2"></circle>
                    <circle id="Oval-Copy-110" cx="143.2" cy="280.4" r="5.2"></circle>
                    <circle id="Oval-Copy-109" cx="108.8" cy="280.4" r="5.2"></circle>
                    <circle id="Oval-Copy-108" cx="74.4" cy="280.4" r="5.2"></circle>
                    <circle id="Oval-Copy-107" cx="40" cy="280.4" r="5.2"></circle>
                    <circle id="Oval-Copy-106" cx="5.6" cy="280.4" r="5.2"></circle>
                    <circle id="Oval-Copy-104" cx="384" cy="246" r="5.2"></circle>
                    <circle id="Oval-Copy-103" cx="349.6" cy="246" r="5.2"></circle>
                    <circle id="Oval-Copy-102" cx="315.2" cy="246" r="5.2"></circle>
                    <circle id="Oval-Copy-101" cx="280.8" cy="246" r="5.2"></circle>
                    <circle id="Oval-Copy-100" cx="246.4" cy="246" r="5.2"></circle>
                    <circle id="Oval-Copy-99" cx="212" cy="246" r="5.2"></circle>
                    <circle id="Oval-Copy-98" cx="177.6" cy="246" r="5.2"></circle>
                    <circle id="Oval-Copy-97" cx="143.2" cy="246" r="5.2"></circle>
                    <circle id="Oval-Copy-96" cx="108.8" cy="246" r="5.2"></circle>
                    <circle id="Oval-Copy-95" cx="74.4" cy="246" r="5.2"></circle>
                    <circle id="Oval-Copy-94" cx="40" cy="246" r="5.2"></circle>
                    <circle id="Oval-Copy-93" cx="5.6" cy="246" r="5.2"></circle>
                    <circle id="Oval-Copy-91" cx="384" cy="211.6" r="5.2"></circle>
                    <circle id="Oval-Copy-90" cx="349.6" cy="211.6" r="5.2"></circle>
                    <circle id="Oval-Copy-89" cx="315.2" cy="211.6" r="5.2"></circle>
                    <circle id="Oval-Copy-88" cx="280.8" cy="211.6" r="5.2"></circle>
                    <circle id="Oval-Copy-87" cx="246.4" cy="211.6" r="5.2"></circle>
                    <circle id="Oval-Copy-86" cx="212" cy="211.6" r="5.2"></circle>
                    <circle id="Oval-Copy-85" cx="177.6" cy="211.6" r="5.2"></circle>
                    <circle id="Oval-Copy-84" cx="143.2" cy="211.6" r="5.2"></circle>
                    <circle id="Oval-Copy-83" cx="108.8" cy="211.6" r="5.2"></circle>
                    <circle id="Oval-Copy-82" cx="74.4" cy="211.6" r="5.2"></circle>
                    <circle id="Oval-Copy-81" cx="40" cy="211.6" r="5.2"></circle>
                    <circle id="Oval-Copy-80" cx="5.6" cy="211.6" r="5.2"></circle>
                    <circle id="Oval-Copy-78" cx="384" cy="177.2" r="5.2"></circle>
                    <circle id="Oval-Copy-77" cx="349.6" cy="177.2" r="5.2"></circle>
                    <circle id="Oval-Copy-76" cx="315.2" cy="177.2" r="5.2"></circle>
                    <circle id="Oval-Copy-75" cx="280.8" cy="177.2" r="5.2"></circle>
                    <circle id="Oval-Copy-74" cx="246.4" cy="177.2" r="5.2"></circle>
                    <circle id="Oval-Copy-73" cx="212" cy="177.2" r="5.2"></circle>
                    <circle id="Oval-Copy-72" cx="177.6" cy="177.2" r="5.2"></circle>
                    <circle id="Oval-Copy-71" cx="143.2" cy="177.2" r="5.2"></circle>
                    <circle id="Oval-Copy-70" cx="108.8" cy="177.2" r="5.2"></circle>
                    <circle id="Oval-Copy-69" cx="74.4" cy="177.2" r="5.2"></circle>
                    <circle id="Oval-Copy-68" cx="40" cy="177.2" r="5.2"></circle>
                    <circle id="Oval-Copy-67" cx="5.6" cy="177.2" r="5.2"></circle>
                    <circle id="Oval-Copy-65" cx="384" cy="142.8" r="5.2"></circle>
                    <circle id="Oval-Copy-64" cx="349.6" cy="142.8" r="5.2"></circle>
                    <circle id="Oval-Copy-63" cx="315.2" cy="142.8" r="5.2"></circle>
                    <circle id="Oval-Copy-62" cx="280.8" cy="142.8" r="5.2"></circle>
                    <circle id="Oval-Copy-61" cx="246.4" cy="142.8" r="5.2"></circle>
                    <circle id="Oval-Copy-60" cx="212" cy="142.8" r="5.2"></circle>
                    <circle id="Oval-Copy-59" cx="177.6" cy="142.8" r="5.2"></circle>
                    <circle id="Oval-Copy-58" cx="143.2" cy="142.8" r="5.2"></circle>
                    <circle id="Oval-Copy-57" cx="108.8" cy="142.8" r="5.2"></circle>
                    <circle id="Oval-Copy-56" cx="74.4" cy="142.8" r="5.2"></circle>
                    <circle id="Oval-Copy-55" cx="40" cy="142.8" r="5.2"></circle>
                    <circle id="Oval-Copy-54" cx="5.6" cy="142.8" r="5.2"></circle>
                    <circle id="Oval-Copy-52" cx="384" cy="108.4" r="5.2"></circle>
                    <circle id="Oval-Copy-51" cx="349.6" cy="108.4" r="5.2"></circle>
                    <circle id="Oval-Copy-50" cx="315.2" cy="108.4" r="5.2"></circle>
                    <circle id="Oval-Copy-49" cx="280.8" cy="108.4" r="5.2"></circle>
                    <circle id="Oval-Copy-48" cx="246.4" cy="108.4" r="5.2"></circle>
                    <circle id="Oval-Copy-47" cx="212" cy="108.4" r="5.2"></circle>
                    <circle id="Oval-Copy-46" cx="177.6" cy="108.4" r="5.2"></circle>
                    <circle id="Oval-Copy-45" cx="143.2" cy="108.4" r="5.2"></circle>
                    <circle id="Oval-Copy-44" cx="108.8" cy="108.4" r="5.2"></circle>
                    <circle id="Oval-Copy-43" cx="74.4" cy="108.4" r="5.2"></circle>
                    <circle id="Oval-Copy-42" cx="40" cy="108.4" r="5.2"></circle>
                    <circle id="Oval-Copy-41" cx="5.6" cy="108.4" r="5.2"></circle>
                    <circle id="Oval-Copy-39" cx="384" cy="74" r="5.2"></circle>
                    <circle id="Oval-Copy-38" cx="349.6" cy="74" r="5.2"></circle>
                    <circle id="Oval-Copy-37" cx="315.2" cy="74" r="5.2"></circle>
                    <circle id="Oval-Copy-36" cx="280.8" cy="74" r="5.2"></circle>
                    <circle id="Oval-Copy-35" cx="246.4" cy="74" r="5.2"></circle>
                    <circle id="Oval-Copy-34" cx="212" cy="74" r="5.2"></circle>
                    <circle id="Oval-Copy-33" cx="177.6" cy="74" r="5.2"></circle>
                    <circle id="Oval-Copy-32" cx="143.2" cy="74" r="5.2"></circle>
                    <circle id="Oval-Copy-31" cx="108.8" cy="74" r="5.2"></circle>
                    <circle id="Oval-Copy-30" cx="74.4" cy="74" r="5.2"></circle>
                    <circle id="Oval-Copy-29" cx="40" cy="74" r="5.2"></circle>
                    <circle id="Oval-Copy-28" cx="5.6" cy="74" r="5.2"></circle>
                    <circle id="Oval-Copy-26" cx="384" cy="39.6" r="5.2"></circle>
                    <circle id="Oval-Copy-25" cx="349.6" cy="39.6" r="5.2"></circle>
                    <circle id="Oval-Copy-24" cx="315.2" cy="39.6" r="5.2"></circle>
                    <circle id="Oval-Copy-23" cx="280.8" cy="39.6" r="5.2"></circle>
                    <circle id="Oval-Copy-22" cx="246.4" cy="39.6" r="5.2"></circle>
                    <circle id="Oval-Copy-21" cx="212" cy="39.6" r="5.2"></circle>
                    <circle id="Oval-Copy-20" cx="177.6" cy="39.6" r="5.2"></circle>
                    <circle id="Oval-Copy-19" cx="143.2" cy="39.6" r="5.2"></circle>
                    <circle id="Oval-Copy-18" cx="108.8" cy="39.6" r="5.2"></circle>
                    <circle id="Oval-Copy-17" cx="74.4" cy="39.6" r="5.2"></circle>
                    <circle id="Oval-Copy-16" cx="40" cy="39.6" r="5.2"></circle>
                    <circle id="Oval-Copy-15" cx="5.6" cy="39.6" r="5.2"></circle>
                    <circle id="Oval-Copy-13" cx="384" cy="5.2" r="5.2"></circle>
                    <circle id="Oval-Copy-12" cx="349.6" cy="5.2" r="5.2"></circle>
                    <circle id="Oval-Copy-11" cx="315.2" cy="5.2" r="5.2"></circle>
                    <circle id="Oval-Copy-10" cx="280.8" cy="5.2" r="5.2"></circle>
                    <circle id="Oval-Copy-9" cx="246.4" cy="5.2" r="5.2"></circle>
                    <circle id="Oval-Copy-8" cx="212" cy="5.2" r="5.2"></circle>
                    <circle id="Oval-Copy-7" cx="177.6" cy="5.2" r="5.2"></circle>
                    <circle id="Oval-Copy-6" cx="143.2" cy="5.2" r="5.2"></circle>
                    <circle id="Oval-Copy-5" cx="108.8" cy="5.2" r="5.2"></circle>
                    <circle id="Oval-Copy-4" cx="74.4" cy="5.2" r="5.2"></circle>
                    <circle id="Oval-Copy-3" cx="40" cy="5.2" r="5.2"></circle>
                    <circle id="Oval-Copy-2" cx="5.6" cy="5.2" r="5.2"></circle>
                </g>
            </g>
        </g>
    </g>
</svg>