<?xml version="1.0" encoding="utf-8"?>
<!-- Generator: Adobe Illustrator 24.1.1, SVG Export Plug-In . SVG Version: 6.00 Build 0)  -->
<svg version="1.1" id="Layer_1" xmlns="http://www.w3.org/2000/svg" xmlns:xlink="http://www.w3.org/1999/xlink" x="0px" y="0px"
	 viewBox="0 0 26 28" style="enable-background:new 0 0 26 28;" xml:space="preserve">
<style type="text/css">
	.st0{fill:none;}
	.st1{fill:#32A852;}
</style>
<g id="Main-Page">
	<g id="_x30_2-1-2-Pricing" transform="translate(-1181.000000, -1988.000000)">
		<g id="Every-plan-include" transform="translate(373.000000, 1903.000000)">
			<g id="_x33_" transform="translate(808.000000, 85.000000)">
				<g id="ico-done">
					<rect id="Rectangle" y="2" class="st0" width="26" height="26"/>
					<path id="_xE83F_" class="st1" d="M11,22c0.3,0,0.5-0.1,0.7-0.3l11-11c0.1-0.1,0.2-0.3,0.3-0.4s0-0.3,0-0.5s-0.1-0.3-0.3-0.5
						S22.4,9.1,22.3,9s-0.4,0-0.5,0s-0.3,0.1-0.4,0.3L11,19.6l-4.3-4.3c-0.1-0.1-0.3-0.2-0.4-0.3s-0.3,0-0.5,0s-0.3,0.1-0.5,0.3
						S5.1,15.6,5,15.7s0,0.4,0,0.5s0.1,0.3,0.3,0.4l5,5C10.5,21.9,10.7,22,11,22z"/>
				</g>
			</g>
		</g>
	</g>
</g>
</svg>
