<?xml version="1.0" encoding="UTF-8"?>
<svg width="114px" height="424px" viewBox="0 0 114 424" version="1.1" xmlns="http://www.w3.org/2000/svg" xmlns:xlink="http://www.w3.org/1999/xlink">
    <title>9DE95915-AAB9-42F2-8BB6-05324879FBD7@3x</title>
    <g id="LP" stroke="none" stroke-width="1" fill="none" fill-rule="evenodd">
        <g id="01-1-1-LP" transform="translate(-1791.000000, -2085.000000)" fill="#F5F5FC">
            <g id="Shape-1" transform="translate(1791.000000, 2085.000000)">
                <circle id="Oval-Copy-160" cx="108.4" cy="418" r="5.2"></circle>
                <circle id="Oval-Copy-159" cx="74" cy="418" r="5.2"></circle>
                <circle id="Oval-Copy-158" cx="39.6" cy="418" r="5.2"></circle>
                <circle id="Oval-Copy-157" cx="5.2" cy="418" r="5.2"></circle>
                <circle id="Oval-Copy-147" cx="108.4" cy="383.6" r="5.2"></circle>
                <circle id="Oval-Copy-146" cx="74" cy="383.6" r="5.2"></circle>
                <circle id="Oval-Copy-145" cx="39.6" cy="383.6" r="5.2"></circle>
                <circle id="Oval-Copy-144" cx="5.2" cy="383.6" r="5.2"></circle>
                <circle id="Oval-Copy-134" cx="108.4" cy="349.2" r="5.2"></circle>
                <circle id="Oval-Copy-133" cx="74" cy="349.2" r="5.2"></circle>
                <circle id="Oval-Copy-132" cx="39.6" cy="349.2" r="5.2"></circle>
                <circle id="Oval-Copy-131" cx="5.2" cy="349.2" r="5.2"></circle>
                <circle id="Oval-Copy-121" cx="108.4" cy="314.8" r="5.2"></circle>
                <circle id="Oval-Copy-120" cx="74" cy="314.8" r="5.2"></circle>
                <circle id="Oval-Copy-119" cx="39.6" cy="314.8" r="5.2"></circle>
                <circle id="Oval-Copy-118" cx="5.2" cy="314.8" r="5.2"></circle>
                <circle id="Oval-Copy-108" cx="108.4" cy="280.4" r="5.2"></circle>
                <circle id="Oval-Copy-107" cx="74" cy="280.4" r="5.2"></circle>
                <circle id="Oval-Copy-106" cx="39.6" cy="280.4" r="5.2"></circle>
                <circle id="Oval-Copy-105" cx="5.2" cy="280.4" r="5.2"></circle>
                <circle id="Oval-Copy-95" cx="108.4" cy="246" r="5.2"></circle>
                <circle id="Oval-Copy-94" cx="74" cy="246" r="5.2"></circle>
                <circle id="Oval-Copy-93" cx="39.6" cy="246" r="5.2"></circle>
                <circle id="Oval-Copy-92" cx="5.2" cy="246" r="5.2"></circle>
                <circle id="Oval-Copy-82" cx="108.4" cy="211.6" r="5.2"></circle>
                <circle id="Oval-Copy-81" cx="74" cy="211.6" r="5.2"></circle>
                <circle id="Oval-Copy-80" cx="39.6" cy="211.6" r="5.2"></circle>
                <circle id="Oval-Copy-79" cx="5.2" cy="211.6" r="5.2"></circle>
                <circle id="Oval-Copy-69" cx="108.4" cy="177.2" r="5.2"></circle>
                <circle id="Oval-Copy-68" cx="74" cy="177.2" r="5.2"></circle>
                <circle id="Oval-Copy-67" cx="39.6" cy="177.2" r="5.2"></circle>
                <circle id="Oval-Copy-66" cx="5.2" cy="177.2" r="5.2"></circle>
                <circle id="Oval-Copy-56" cx="108.4" cy="142.8" r="5.2"></circle>
                <circle id="Oval-Copy-55" cx="74" cy="142.8" r="5.2"></circle>
                <circle id="Oval-Copy-54" cx="39.6" cy="142.8" r="5.2"></circle>
                <circle id="Oval-Copy-53" cx="5.2" cy="142.8" r="5.2"></circle>
                <circle id="Oval-Copy-43" cx="108.4" cy="108.4" r="5.2"></circle>
                <circle id="Oval-Copy-42" cx="74" cy="108.4" r="5.2"></circle>
                <circle id="Oval-Copy-41" cx="39.6" cy="108.4" r="5.2"></circle>
                <circle id="Oval-Copy-40" cx="5.2" cy="108.4" r="5.2"></circle>
                <circle id="Oval-Copy-30" cx="108.4" cy="74" r="5.2"></circle>
                <circle id="Oval-Copy-29" cx="74" cy="74" r="5.2"></circle>
                <circle id="Oval-Copy-28" cx="39.6" cy="74" r="5.2"></circle>
                <circle id="Oval-Copy-27" cx="5.2" cy="74" r="5.2"></circle>
                <circle id="Oval-Copy-17" cx="108.4" cy="39.6" r="5.2"></circle>
                <circle id="Oval-Copy-16" cx="74" cy="39.6" r="5.2"></circle>
                <circle id="Oval-Copy-15" cx="39.6" cy="39.6" r="5.2"></circle>
                <circle id="Oval-Copy-14" cx="5.2" cy="39.6" r="5.2"></circle>
                <circle id="Oval-Copy-4" cx="108.4" cy="5.2" r="5.2"></circle>
                <circle id="Oval-Copy-3" cx="74" cy="5.2" r="5.2"></circle>
                <circle id="Oval-Copy-2" cx="39.6" cy="5.2" r="5.2"></circle>
                <circle id="Oval-Copy" cx="5.2" cy="5.2" r="5.2"></circle>
            </g>
        </g>
    </g>
</svg>