<?xml version="1.0" encoding="UTF-8"?>
<svg width="328px" height="327px" viewBox="0 0 328 327" version="1.1" xmlns="http://www.w3.org/2000/svg" xmlns:xlink="http://www.w3.org/1999/xlink">
    <title>CBAC4565-8F7F-4788-B9C2-0F1D32FE7613@3x</title>
    <g id="LP" stroke="none" stroke-width="1" fill="none" fill-rule="evenodd">
        <g id="01-1-1-LP" transform="translate(-1722.000000, -5798.000000)">
            <g id="FAQ" transform="translate(-153.700000, 5798.300000)">
                <g id="Shape---11" transform="translate(1876.000000, 0.000000)">
                    <circle id="Oval-Copy-169" fill="#F5F5FC" transform="translate(5.200000, 5.200000) rotate(90.000000) translate(-5.200000, -5.200000) " cx="5.2" cy="5.2" r="5.2"></circle>
                    <circle id="Oval-Copy-156" fill="#F5F5FC" transform="translate(39.600000, 5.200000) rotate(90.000000) translate(-39.600000, -5.200000) " cx="39.6" cy="5.2" r="5.2"></circle>
                    <circle id="Oval-Copy-143" fill="#F5F5FC" transform="translate(74.000000, 5.200000) rotate(90.000000) translate(-74.000000, -5.200000) " cx="74" cy="5.2" r="5.2"></circle>
                    <circle id="Oval-Copy-130" fill="#F5F5FC" transform="translate(108.400000, 5.200000) rotate(90.000000) translate(-108.400000, -5.200000) " cx="108.4" cy="5.2" r="5.2"></circle>
                    <circle id="Oval-Copy-117" fill="#F5F5FC" transform="translate(142.800000, 5.200000) rotate(90.000000) translate(-142.800000, -5.200000) " cx="142.8" cy="5.2" r="5.2"></circle>
                    <circle id="Oval-Copy-104" fill="#F5F5FC" transform="translate(177.200000, 5.200000) rotate(90.000000) translate(-177.200000, -5.200000) " cx="177.2" cy="5.2" r="5.2"></circle>
                    <circle id="Oval-Copy-91" fill="#F5F5FC" transform="translate(211.600000, 5.200000) rotate(90.000000) translate(-211.600000, -5.200000) " cx="211.6" cy="5.2" r="5.2"></circle>
                    <circle id="Oval-Copy-159" fill="#F5F5FC" transform="translate(5.200000, 110.200000) rotate(90.000000) translate(-5.200000, -110.200000) " cx="5.2" cy="110.2" r="5.2"></circle>
                    <circle id="Oval-Copy-158" fill="#F5F5FC" transform="translate(5.200000, 75.800000) rotate(90.000000) translate(-5.200000, -75.800000) " cx="5.2" cy="75.8" r="5.2"></circle>
                    <circle id="Oval-Copy-157" fill="#F5F5FC" transform="translate(5.200000, 41.400000) rotate(90.000000) translate(-5.200000, -41.400000) " cx="5.2" cy="41.4" r="5.2"></circle>
                    <circle id="Oval-Copy-146" fill="#F5F5FC" transform="translate(39.600000, 110.200000) rotate(90.000000) translate(-39.600000, -110.200000) " cx="39.6" cy="110.2" r="5.2"></circle>
                    <circle id="Oval-Copy-145" fill="#F5F5FC" transform="translate(39.600000, 75.800000) rotate(90.000000) translate(-39.600000, -75.800000) " cx="39.6" cy="75.8" r="5.2"></circle>
                    <circle id="Oval-Copy-144" fill="#F5F5FC" transform="translate(39.600000, 41.400000) rotate(90.000000) translate(-39.600000, -41.400000) " cx="39.6" cy="41.4" r="5.2"></circle>
                    <circle id="Oval-Copy-133" fill="#F5F5FC" transform="translate(74.000000, 110.200000) rotate(90.000000) translate(-74.000000, -110.200000) " cx="74" cy="110.2" r="5.2"></circle>
                    <circle id="Oval-Copy-132" fill="#F5F5FC" transform="translate(74.000000, 75.800000) rotate(90.000000) translate(-74.000000, -75.800000) " cx="74" cy="75.8" r="5.2"></circle>
                    <circle id="Oval-Copy-131" fill="#F5F5FC" transform="translate(74.000000, 41.400000) rotate(90.000000) translate(-74.000000, -41.400000) " cx="74" cy="41.4" r="5.2"></circle>
                    <circle id="Oval-Copy-120" fill="#F5F5FC" transform="translate(108.400000, 110.200000) rotate(90.000000) translate(-108.400000, -110.200000) " cx="108.4" cy="110.2" r="5.2"></circle>
                    <circle id="Oval-Copy-119" fill="#F5F5FC" transform="translate(108.400000, 75.800000) rotate(90.000000) translate(-108.400000, -75.800000) " cx="108.4" cy="75.8" r="5.2"></circle>
                    <circle id="Oval-Copy-118" fill="#F5F5FC" transform="translate(108.400000, 41.400000) rotate(90.000000) translate(-108.400000, -41.400000) " cx="108.4" cy="41.4" r="5.2"></circle>
                    <circle id="Oval-Copy-107" fill="#F5F5FC" transform="translate(142.800000, 110.200000) rotate(90.000000) translate(-142.800000, -110.200000) " cx="142.8" cy="110.2" r="5.2"></circle>
                    <circle id="Oval-Copy-106" fill="#F5F5FC" transform="translate(142.800000, 75.800000) rotate(90.000000) translate(-142.800000, -75.800000) " cx="142.8" cy="75.8" r="5.2"></circle>
                    <circle id="Oval-Copy-105" fill="#F5F5FC" transform="translate(142.800000, 41.400000) rotate(90.000000) translate(-142.800000, -41.400000) " cx="142.8" cy="41.4" r="5.2"></circle>
                    <circle id="Oval-Copy-94" fill="#F5F5FC" transform="translate(177.200000, 110.200000) rotate(90.000000) translate(-177.200000, -110.200000) " cx="177.2" cy="110.2" r="5.2"></circle>
                    <circle id="Oval-Copy-93" fill="#F5F5FC" transform="translate(177.200000, 75.800000) rotate(90.000000) translate(-177.200000, -75.800000) " cx="177.2" cy="75.8" r="5.2"></circle>
                    <circle id="Oval-Copy-92" fill="#F5F5FC" transform="translate(177.200000, 41.400000) rotate(90.000000) translate(-177.200000, -41.400000) " cx="177.2" cy="41.4" r="5.2"></circle>
                    <circle id="Oval-Copy-81" fill="#F5F5FC" transform="translate(211.600000, 110.200000) rotate(90.000000) translate(-211.600000, -110.200000) " cx="211.6" cy="110.2" r="5.2"></circle>
                    <circle id="Oval-Copy-80" fill="#F5F5FC" transform="translate(211.600000, 75.800000) rotate(90.000000) translate(-211.600000, -75.800000) " cx="211.6" cy="75.8" r="5.2"></circle>
                    <circle id="Oval-Copy-79" fill="#F5F5FC" transform="translate(211.600000, 41.400000) rotate(90.000000) translate(-211.600000, -41.400000) " cx="211.6" cy="41.4" r="5.2"></circle>
                    <circle id="Oval-Copy-169" fill="#F5F5FC" transform="translate(252.200000, 5.200000) rotate(90.000000) translate(-252.200000, -5.200000) " cx="252.2" cy="5.2" r="5.2"></circle>
                    <circle id="Oval-Copy-156" fill="#F5F5FC" transform="translate(286.600000, 5.200000) rotate(90.000000) translate(-286.600000, -5.200000) " cx="286.6" cy="5.2" r="5.2"></circle>
                    <circle id="Oval-Copy-143" fill="#F5F5FC" transform="translate(321.000000, 5.200000) rotate(90.000000) translate(-321.000000, -5.200000) " cx="321" cy="5.2" r="5.2"></circle>
                    <circle id="Oval-Copy-159" fill="#F5F5FC" transform="translate(252.200000, 110.200000) rotate(90.000000) translate(-252.200000, -110.200000) " cx="252.2" cy="110.2" r="5.2"></circle>
                    <circle id="Oval-Copy-158" fill="#F5F5FC" transform="translate(252.200000, 75.800000) rotate(90.000000) translate(-252.200000, -75.800000) " cx="252.2" cy="75.8" r="5.2"></circle>
                    <circle id="Oval-Copy-157" fill="#F5F5FC" transform="translate(252.200000, 41.400000) rotate(90.000000) translate(-252.200000, -41.400000) " cx="252.2" cy="41.4" r="5.2"></circle>
                    <circle id="Oval-Copy-146" fill="#F5F5FC" transform="translate(286.600000, 110.200000) rotate(90.000000) translate(-286.600000, -110.200000) " cx="286.6" cy="110.2" r="5.2"></circle>
                    <circle id="Oval-Copy-145" fill="#F5F5FC" transform="translate(286.600000, 75.800000) rotate(90.000000) translate(-286.600000, -75.800000) " cx="286.6" cy="75.8" r="5.2"></circle>
                    <circle id="Oval-Copy-144" fill="#F5F5FC" transform="translate(286.600000, 41.400000) rotate(90.000000) translate(-286.600000, -41.400000) " cx="286.6" cy="41.4" r="5.2"></circle>
                    <circle id="Oval-Copy-133" fill="#F5F5FC" transform="translate(321.000000, 110.200000) rotate(90.000000) translate(-321.000000, -110.200000) " cx="321" cy="110.2" r="5.2"></circle>
                    <circle id="Oval-Copy-132" fill="#F5F5FC" transform="translate(321.000000, 75.800000) rotate(90.000000) translate(-321.000000, -75.800000) " cx="321" cy="75.8" r="5.2"></circle>
                    <circle id="Oval-Copy-131" fill="#F5F5FC" transform="translate(321.000000, 41.400000) rotate(90.000000) translate(-321.000000, -41.400000) " cx="321" cy="41.4" r="5.2"></circle>
                    <circle id="Oval-Copy-169" fill="#F0E6F9" transform="translate(5.200000, 215.200000) rotate(90.000000) translate(-5.200000, -215.200000) " cx="5.2" cy="215.2" r="5.2"></circle>
                    <circle id="Oval-Copy-168" fill="#F0E6F9" transform="translate(5.200000, 180.800000) rotate(90.000000) translate(-5.200000, -180.800000) " cx="5.2" cy="180.8" r="5.2"></circle>
                    <circle id="Oval-Copy-167" fill="#F0E6F9" transform="translate(5.200000, 146.400000) rotate(90.000000) translate(-5.200000, -146.400000) " cx="5.2" cy="146.4" r="5.2"></circle>
                    <circle id="Oval-Copy-156" fill="#F0E6F9" transform="translate(39.600000, 215.200000) rotate(90.000000) translate(-39.600000, -215.200000) " cx="39.6" cy="215.2" r="5.2"></circle>
                    <circle id="Oval-Copy-155" fill="#F0E6F9" transform="translate(39.600000, 180.800000) rotate(90.000000) translate(-39.600000, -180.800000) " cx="39.6" cy="180.8" r="5.2"></circle>
                    <circle id="Oval-Copy-154" fill="#F0E6F9" transform="translate(39.600000, 146.400000) rotate(90.000000) translate(-39.600000, -146.400000) " cx="39.6" cy="146.4" r="5.2"></circle>
                    <circle id="Oval-Copy-143" fill="#F0E6F9" transform="translate(74.000000, 215.200000) rotate(90.000000) translate(-74.000000, -215.200000) " cx="74" cy="215.2" r="5.2"></circle>
                    <circle id="Oval-Copy-142" fill="#F0E6F9" transform="translate(74.000000, 180.800000) rotate(90.000000) translate(-74.000000, -180.800000) " cx="74" cy="180.8" r="5.2"></circle>
                    <circle id="Oval-Copy-141" fill="#F0E6F9" transform="translate(74.000000, 146.400000) rotate(90.000000) translate(-74.000000, -146.400000) " cx="74" cy="146.4" r="5.2"></circle>
                    <circle id="Oval-Copy-130" fill="#F0E6F9" transform="translate(108.400000, 215.200000) rotate(90.000000) translate(-108.400000, -215.200000) " cx="108.4" cy="215.2" r="5.2"></circle>
                    <circle id="Oval-Copy-129" fill="#F0E6F9" transform="translate(108.400000, 180.800000) rotate(90.000000) translate(-108.400000, -180.800000) " cx="108.4" cy="180.8" r="5.2"></circle>
                    <circle id="Oval-Copy-128" fill="#F0E6F9" transform="translate(108.400000, 146.400000) rotate(90.000000) translate(-108.400000, -146.400000) " cx="108.4" cy="146.4" r="5.2"></circle>
                    <circle id="Oval-Copy-117" fill="#F0E6F9" transform="translate(142.800000, 215.200000) rotate(90.000000) translate(-142.800000, -215.200000) " cx="142.8" cy="215.2" r="5.2"></circle>
                    <circle id="Oval-Copy-116" fill="#F0E6F9" transform="translate(142.800000, 180.800000) rotate(90.000000) translate(-142.800000, -180.800000) " cx="142.8" cy="180.8" r="5.2"></circle>
                    <circle id="Oval-Copy-115" fill="#F0E6F9" transform="translate(142.800000, 146.400000) rotate(90.000000) translate(-142.800000, -146.400000) " cx="142.8" cy="146.4" r="5.2"></circle>
                    <circle id="Oval-Copy-104" fill="#F0E6F9" transform="translate(177.200000, 215.200000) rotate(90.000000) translate(-177.200000, -215.200000) " cx="177.2" cy="215.2" r="5.2"></circle>
                    <circle id="Oval-Copy-103" fill="#F0E6F9" transform="translate(177.200000, 180.800000) rotate(90.000000) translate(-177.200000, -180.800000) " cx="177.2" cy="180.8" r="5.2"></circle>
                    <circle id="Oval-Copy-102" fill="#F0E6F9" transform="translate(177.200000, 146.400000) rotate(90.000000) translate(-177.200000, -146.400000) " cx="177.2" cy="146.4" r="5.2"></circle>
                    <circle id="Oval-Copy-91" fill="#F0E6F9" transform="translate(211.600000, 215.200000) rotate(90.000000) translate(-211.600000, -215.200000) " cx="211.6" cy="215.2" r="5.2"></circle>
                    <circle id="Oval-Copy-90" fill="#F0E6F9" transform="translate(211.600000, 180.800000) rotate(90.000000) translate(-211.600000, -180.800000) " cx="211.6" cy="180.8" r="5.2"></circle>
                    <circle id="Oval-Copy-89" fill="#F0E6F9" transform="translate(211.600000, 146.400000) rotate(90.000000) translate(-211.600000, -146.400000) " cx="211.6" cy="146.4" r="5.2"></circle>
                    <circle id="Oval-Copy-77" fill="#F0E6F9" transform="translate(246.000000, 180.800000) rotate(90.000000) translate(-246.000000, -180.800000) " cx="246" cy="180.8" r="5.2"></circle>
                    <circle id="Oval-Copy-159" fill="#F0E6F9" transform="translate(5.200000, 320.200000) rotate(90.000000) translate(-5.200000, -320.200000) " cx="5.2" cy="320.2" r="5.2"></circle>
                    <circle id="Oval-Copy-158" fill="#F0E6F9" transform="translate(5.200000, 285.800000) rotate(90.000000) translate(-5.200000, -285.800000) " cx="5.2" cy="285.8" r="5.2"></circle>
                    <circle id="Oval-Copy-157" fill="#F0E6F9" transform="translate(5.200000, 251.400000) rotate(90.000000) translate(-5.200000, -251.400000) " cx="5.2" cy="251.4" r="5.2"></circle>
                    <circle id="Oval-Copy-146" fill="#F0E6F9" transform="translate(39.600000, 320.200000) rotate(90.000000) translate(-39.600000, -320.200000) " cx="39.6" cy="320.2" r="5.2"></circle>
                    <circle id="Oval-Copy-145" fill="#F0E6F9" transform="translate(39.600000, 285.800000) rotate(90.000000) translate(-39.600000, -285.800000) " cx="39.6" cy="285.8" r="5.2"></circle>
                    <circle id="Oval-Copy-144" fill="#F0E6F9" transform="translate(39.600000, 251.400000) rotate(90.000000) translate(-39.600000, -251.400000) " cx="39.6" cy="251.4" r="5.2"></circle>
                    <circle id="Oval-Copy-133" fill="#F0E6F9" transform="translate(74.000000, 320.200000) rotate(90.000000) translate(-74.000000, -320.200000) " cx="74" cy="320.2" r="5.2"></circle>
                    <circle id="Oval-Copy-132" fill="#F0E6F9" transform="translate(74.000000, 285.800000) rotate(90.000000) translate(-74.000000, -285.800000) " cx="74" cy="285.8" r="5.2"></circle>
                    <circle id="Oval-Copy-131" fill="#F0E6F9" transform="translate(74.000000, 251.400000) rotate(90.000000) translate(-74.000000, -251.400000) " cx="74" cy="251.4" r="5.2"></circle>
                    <circle id="Oval-Copy-120" fill="#F0E6F9" transform="translate(108.400000, 320.200000) rotate(90.000000) translate(-108.400000, -320.200000) " cx="108.4" cy="320.2" r="5.2"></circle>
                    <circle id="Oval-Copy-119" fill="#F0E6F9" transform="translate(108.400000, 285.800000) rotate(90.000000) translate(-108.400000, -285.800000) " cx="108.4" cy="285.8" r="5.2"></circle>
                    <circle id="Oval-Copy-118" fill="#F0E6F9" transform="translate(108.400000, 251.400000) rotate(90.000000) translate(-108.400000, -251.400000) " cx="108.4" cy="251.4" r="5.2"></circle>
                    <circle id="Oval-Copy-107" fill="#F0E6F9" transform="translate(142.800000, 320.200000) rotate(90.000000) translate(-142.800000, -320.200000) " cx="142.8" cy="320.2" r="5.2"></circle>
                    <circle id="Oval-Copy-106" fill="#F0E6F9" transform="translate(142.800000, 285.800000) rotate(90.000000) translate(-142.800000, -285.800000) " cx="142.8" cy="285.8" r="5.2"></circle>
                    <circle id="Oval-Copy-105" fill="#F0E6F9" transform="translate(142.800000, 251.400000) rotate(90.000000) translate(-142.800000, -251.400000) " cx="142.8" cy="251.4" r="5.2"></circle>
                    <circle id="Oval-Copy-94" fill="#F0E6F9" transform="translate(177.200000, 320.200000) rotate(90.000000) translate(-177.200000, -320.200000) " cx="177.2" cy="320.2" r="5.2"></circle>
                    <circle id="Oval-Copy-93" fill="#F0E6F9" transform="translate(177.200000, 285.800000) rotate(90.000000) translate(-177.200000, -285.800000) " cx="177.2" cy="285.8" r="5.2"></circle>
                    <circle id="Oval-Copy-92" fill="#F0E6F9" transform="translate(177.200000, 251.400000) rotate(90.000000) translate(-177.200000, -251.400000) " cx="177.2" cy="251.4" r="5.2"></circle>
                    <circle id="Oval-Copy-81" fill="#F0E6F9" transform="translate(211.600000, 320.200000) rotate(90.000000) translate(-211.600000, -320.200000) " cx="211.6" cy="320.2" r="5.2"></circle>
                    <circle id="Oval-Copy-80" fill="#F0E6F9" transform="translate(211.600000, 285.800000) rotate(90.000000) translate(-211.600000, -285.800000) " cx="211.6" cy="285.8" r="5.2"></circle>
                    <circle id="Oval-Copy-79" fill="#F0E6F9" transform="translate(211.600000, 251.400000) rotate(90.000000) translate(-211.600000, -251.400000) " cx="211.6" cy="251.4" r="5.2"></circle>
                    <circle id="Oval-Copy-169" fill="#F0E6F9" transform="translate(252.200000, 215.200000) rotate(90.000000) translate(-252.200000, -215.200000) " cx="252.2" cy="215.2" r="5.2"></circle>
                    <circle id="Oval-Copy-167" fill="#F0E6F9" transform="translate(252.200000, 146.400000) rotate(90.000000) translate(-252.200000, -146.400000) " cx="252.2" cy="146.4" r="5.2"></circle>
                    <circle id="Oval-Copy-156" fill="#F0E6F9" transform="translate(286.600000, 215.200000) rotate(90.000000) translate(-286.600000, -215.200000) " cx="286.6" cy="215.2" r="5.2"></circle>
                    <circle id="Oval-Copy-155" fill="#F0E6F9" transform="translate(286.600000, 180.800000) rotate(90.000000) translate(-286.600000, -180.800000) " cx="286.6" cy="180.8" r="5.2"></circle>
                    <circle id="Oval-Copy-154" fill="#F0E6F9" transform="translate(286.600000, 146.400000) rotate(90.000000) translate(-286.600000, -146.400000) " cx="286.6" cy="146.4" r="5.2"></circle>
                    <circle id="Oval-Copy-143" fill="#F0E6F9" transform="translate(321.000000, 215.200000) rotate(90.000000) translate(-321.000000, -215.200000) " cx="321" cy="215.2" r="5.2"></circle>
                    <circle id="Oval-Copy-142" fill="#F0E6F9" transform="translate(321.000000, 180.800000) rotate(90.000000) translate(-321.000000, -180.800000) " cx="321" cy="180.8" r="5.2"></circle>
                    <circle id="Oval-Copy-141" fill="#F0E6F9" transform="translate(321.000000, 146.400000) rotate(90.000000) translate(-321.000000, -146.400000) " cx="321" cy="146.4" r="5.2"></circle>
                    <circle id="Oval-Copy-159" fill="#F0E6F9" transform="translate(252.200000, 320.200000) rotate(90.000000) translate(-252.200000, -320.200000) " cx="252.2" cy="320.2" r="5.2"></circle>
                    <circle id="Oval-Copy-158" fill="#F0E6F9" transform="translate(252.200000, 285.800000) rotate(90.000000) translate(-252.200000, -285.800000) " cx="252.2" cy="285.8" r="5.2"></circle>
                    <circle id="Oval-Copy-157" fill="#F0E6F9" transform="translate(252.200000, 251.400000) rotate(90.000000) translate(-252.200000, -251.400000) " cx="252.2" cy="251.4" r="5.2"></circle>
                    <circle id="Oval-Copy-146" fill="#F0E6F9" transform="translate(286.600000, 320.200000) rotate(90.000000) translate(-286.600000, -320.200000) " cx="286.6" cy="320.2" r="5.2"></circle>
                    <circle id="Oval-Copy-145" fill="#F0E6F9" transform="translate(286.600000, 285.800000) rotate(90.000000) translate(-286.600000, -285.800000) " cx="286.6" cy="285.8" r="5.2"></circle>
                    <circle id="Oval-Copy-144" fill="#F0E6F9" transform="translate(286.600000, 251.400000) rotate(90.000000) translate(-286.600000, -251.400000) " cx="286.6" cy="251.4" r="5.2"></circle>
                    <circle id="Oval-Copy-133" fill="#F0E6F9" transform="translate(321.000000, 320.200000) rotate(90.000000) translate(-321.000000, -320.200000) " cx="321" cy="320.2" r="5.2"></circle>
                    <circle id="Oval-Copy-132" fill="#F0E6F9" transform="translate(321.000000, 285.800000) rotate(90.000000) translate(-321.000000, -285.800000) " cx="321" cy="285.8" r="5.2"></circle>
                    <circle id="Oval-Copy-131" fill="#F0E6F9" transform="translate(321.000000, 251.400000) rotate(90.000000) translate(-321.000000, -251.400000) " cx="321" cy="251.4" r="5.2"></circle>
                </g>
            </g>
        </g>
    </g>
</svg>