<?xml version="1.0" encoding="UTF-8"?>
<svg width="495px" height="669px" viewBox="0 0 495 669" version="1.1" xmlns="http://www.w3.org/2000/svg" xmlns:xlink="http://www.w3.org/1999/xlink">
    <title>A0DFAB0B-9A6C-4518-9920-463D38F02AD9@3x</title>
    <g id="LP" stroke="none" stroke-width="1" fill="none" fill-rule="evenodd" opacity="0.92922247" stroke-linejoin="round">
        <g id="01-1-1-LP" transform="translate(-1111.000000, -162.000000)" fill="#9349C4" fill-rule="nonzero" stroke="#B786D8" stroke-width="1.5">
            <g id="Hero" transform="translate(-0.712252, 0.000000)">
                <g id="Germany" transform="translate(1069.712252, 163.660000)">
                    <g id="German-map" transform="translate(42.030000, 0.000000)">
                        <path d="M153.376774,631.107695 L153.867912,632.866744 L150.929554,632.976159 L153.376774,631.107695 Z M174.893684,480.031487 L182.226877,479.753742 L185.715648,473.651779 L191.253648,474.451346 L191.956483,468.98062 L190.20363,467.381485 L188.645538,469.586608 L189.466923,467.549815 L185.26685,466.750247 L186.316868,464.284212 L196.419061,462.575662 L199.645327,466.245257 L199.950171,463.063819 L204.378878,462.34 L203.074823,469.552942 L204.599043,470.975331 L207.672887,467.650813 L209.087025,470.907999 L212.457246,467.347819 L216.360943,477.30454 L213.075402,481.891534 L215.64964,482.716351 L218.681145,479.68641 L219.333173,487.715753 L224.253017,487.640005 L226.751045,482.581687 L229.867228,485.645294 L228.368412,490.737277 L232.018072,495.004444 L229.071247,496.38475 L231.764036,504.515091 L229.232136,506.282556 L230.002714,511.096795 L236.666944,515.246131 L234.583843,519.151388 L236.80243,519.908873 L236.793963,524.117124 L242.069458,525.127104 L247.946174,534.191676 L246.108642,535.109075 L247.751413,538.92175 L245.752991,548.003156 L249.97,552.817395 L245.439679,554.92152 L246.913092,552.354487 L245.295725,551.984161 L242.738422,555.569591 L237.759302,551.563336 L237.00566,554.618526 L240.646853,559.18027 L240.011761,566.098635 L235.913302,567.02445 L232.449935,571.342116 L228.9781,569.759813 L225.260696,571.249534 L221.67031,577.763907 L226.76798,585.523921 L230.603935,599.133405 L227.453879,618.743854 L230.671678,623.263516 L226.666366,625.047814 L229.604724,627.210855 L230.299091,633.792559 L227.377668,636.8225 L224.701815,633.09399 L221.323127,635.854602 L215.268585,633.758893 L209.891475,639.010791 L203.718383,639.743026 L201.626814,644.085941 L201.626814,644.085941 L174.114638,633.615813 L163.622922,636.115514 L158.999454,628.986737 L156.92482,630.526957 L158.110325,634.028221 L154.579215,632.521668 L154.367517,626.857362 L152.79249,627.547515 L150.650114,624.054667 L149.286783,627.337103 L148.668627,624.155665 L145.933499,623.423429 L146.424636,625.544388 L141.445517,626.478619 L137.228507,634.12922 L140.996719,636.889832 L147.948857,634.221801 L149.202104,636.199679 L146.382297,640.391097 L143.342324,637.361156 L139.955168,639.869274 L141.589471,641.77982 L135.97526,642.671969 L126.38114,638.329054 L120.148772,643.336873 L112.222827,644.431018 L109.479231,640.988669 L105.719487,640.93817 L98.7334776,645.34 L95.5834224,643.050711 L98.3693583,642.688802 L98.7165418,639.936606 L93.2124131,640.803505 L88.97,632.260756 L90.9345506,629.373896 L91.4002845,617.792789 L94.9483306,610.369435 L92.0946516,605.386866 L92.4926424,598.468501 L98.7673492,583.907953 L101.553285,581.862743 L100.89279,576.450932 L106.650955,556.529072 L113.81479,547.111007 L120.15724,543.441412 L127.871488,530.134923 L127.871488,530.134923 L134.696608,519.142971 L136.407122,508.193102 L141.682618,503.252616 L139.62492,500.81183 L142.707232,491.764091 L139.218462,490.510032 L138.126104,479.501247 L138.126104,479.501247 L140.979783,479.526497 L145.603251,485.224469 L148.567013,483.027762 L147.449251,477.346623 L152.690875,476.227228 L153.207417,483.448587 L159.744628,484.365985 L160.244233,487.067682 L163.851555,486.1587 L162.66605,489.112892 L159.905518,489.003478 L158.601463,493.767218 L161.209573,495.004444 L166.603619,490.047124 L166.688298,486.066119 L176.121528,484.997223 L173.233977,481.033051 L174.893684,480.031487 Z" id="DE-BW"></path>
                        <polygon id="DE-BY" points="225.142952 401.340314 228.721524 397.34 230.565542 399.112291 233.840988 398.15019 235.365038 401.787606 240.636064 403.230757 244.113595 411.653359 247.178536 410.995079 249.283579 414.902559 252.121176 414.168324 255.085076 416.717047 255.506084 425.392833 261.374942 427.536461 262.166438 423.620542 268.338423 424.202866 268.279482 421.611946 261.332842 417.797301 261.198119 415.687431 267.572187 411.779951 273.129499 411.788391 275.756592 415.53552 282.753753 413.948898 285.035619 416.98711 284.404107 420.751119 290.05404 422.18583 291.830696 414.472145 289.860376 404.4798 292.175923 404.749864 295.131403 400.943658 299.695135 401.745409 299.130983 407.391421 300.343488 409.459094 302.490631 408.589827 304.595673 413.25686 318.404752 409.501291 320.846601 412.033135 326.134468 409.180591 326.134468 409.180591 329.334132 412.12597 329.022586 415.299214 335.649259 418.042046 335.649259 418.042046 337.754302 421.595067 335.152469 423.797771 341.812823 430.583114 340.945546 435.545528 344.995648 438.296799 344.246253 439.807466 356.5397 446.246789 355.891347 450.010798 359.621482 451.285159 355.605061 462.442152 351.900187 466.096447 358.232154 470.746601 358.568961 476.401053 360.311936 476.274461 361.886508 483.026045 364.799887 484.216012 365.507181 491.575239 370.879249 494.849757 372.108594 498.790995 380.890831 499.035739 385.446143 502.327137 393.495825 516.058172 399.432045 517.577278 405.023037 522.894151 405.553508 528.371374 410.487728 532.084745 412.449627 529.40943 417.678552 531.443344 419.943578 537.072478 423.50531 536.591427 428.97 545.933932 426.536571 550.51657 428.835277 551.883766 428.069042 558.719745 423.160083 566.787889 411.211862 560.694584 407.456466 563.251746 407.456466 573.58167 401.840213 582.03803 385.041975 587.532132 370.92977 598.11524 371.157115 602.419375 377.177536 611.230193 380.596125 612.808375 384.107336 620.311074 378.979453 630.354055 384.83147 630.354055 388.241639 633.265676 386.414462 648.777441 384.073655 651.013903 373.026393 643.696874 372.159115 641.65452 374.516763 639.190191 371.005552 636.109781 372.276997 634.33749 362.720105 634.396566 361.162373 637.58669 356.952289 638.202772 353.803145 632.641155 343.892605 633.915516 343.715782 628.834949 338.949966 632.236059 341.080269 639.69656 330.6982 638.177454 321.899122 641.612322 310.742397 640.608024 307.298548 646.912316 299.796177 647.047348 297.152243 650.296548 299.164664 652.499252 294.643033 652.136354 290.929738 656.2717 288.53841 656.43205 290.096141 653.82425 287.54483 653.368519 282.711652 656.330776 275.251382 656.187305 273.028457 649.655147 269.475146 649.536994 272.068558 647.089545 270.468726 645.190662 264.608288 647.00515 255.017714 642.675697 253.611546 645.452286 251.001293 645.351012 247.35536 643.722192 248.719427 641.367577 246.429141 641.435093 248.441562 653.419155 246.311259 657.503864 240.636064 663.529653 232.350617 666.34 235.626063 657.444788 232.721105 656.60084 228.174213 659.588416 227.896348 651.807215 222.903187 649.461039 221.278094 644.439548 216.066009 645.86582 212.908446 644.287638 212.15063 640.540508 208.66468 645.443846 201.364393 644.304517 201.364393 644.304517 203.444175 639.941305 209.582479 639.21551 214.929286 633.940835 220.949708 636.042265 224.309355 633.274116 226.970129 637.012805 229.875088 633.974592 229.184634 627.374919 226.262835 625.205972 230.245575 623.416802 227.045911 618.884801 230.178214 599.220812 226.372297 585.574172 221.303355 577.784532 224.873507 571.252374 228.569961 569.758586 232.022231 571.345208 235.46608 567.015755 239.541442 566.087412 240.172955 559.150159 236.552282 554.567521 237.293257 551.503989 242.244317 555.521182 244.787208 551.917524 246.395461 552.297301 244.930351 554.871342 249.435142 552.761472 245.241897 547.92565 247.229057 538.81945 245.587124 534.996366 247.422721 534.076462 241.570703 524.987142 236.324938 523.974404 236.333358 519.754664 234.127273 518.995111 236.198635 515.079192 229.563541 510.918528 228.797306 506.091145 231.314937 504.310415 228.637323 496.166316 231.567542 494.782241 227.938449 490.494985 229.428819 485.397539 226.321776 482.325568 223.837826 487.397696 218.954127 487.465212 218.297354 479.422387 215.291354 482.45216 212.731622 481.625091 215.998648 477.025574 212.11695 467.050109 208.765722 470.611569 207.359554 467.34549 204.311452 470.679085 202.795822 469.252813 204.092528 462.020178 199.688779 462.745974 199.377233 465.936097 196.177568 462.256484 186.132306 463.969698 185.088205 466.442466 189.264609 467.244217 188.447853 469.286571 189.997164 467.083866 191.731719 468.678928 191.032845 474.17303 185.526054 473.36284 182.048524 479.481463 174.765077 479.768406 174.765077 479.768406 172.828438 476.2829 177.164825 466.2146 174.992422 464.729251 176.449111 462.788171 174.074623 462.028618 173.838858 457.43754 171.169664 457.648527 170.201345 446.499974 171.876959 445.200294 170.773917 441.292814 167.97 440.651414 169.106723 437.005558 175.632354 434.102377 177.366909 437.013998 181.097045 432.211933 189.079365 433.688842 192.497954 437.613201 196.699619 436.760813 196.051266 424.46449 204.858763 425.148088 204.311452 421.983283 209.270932 418.734083 210.096109 409.020241 217.6069 410.81785 223.879927 405.509417"></polygon>
                        <polygon id="DE-BE" points="410.784484 216.894765 410.843736 216.928905 410.843736 216.928905 413.315403 219.028478 412.528194 223.722646 420.476466 229.312973 417.996334 234.493627 425.97 237.037013 420.002448 246.34 419.790832 242.934595 410.936847 241.253229 410.217355 239.119516 407.711829 239.998606 407.6949 243.028478 401.092502 239.418236 391.942255 241.714111 389.97 239.79377 394.13459 231.105292 391.442843 230.431038 392.069224 224.234737 396.809407 224.115249 397.029487 220.522077 399.348791 220.573286 400.389939 217.569018 404.52067 220.89761 410.505152 218.431038 409.887235 216.792347 409.887235 216.792347 410.657515 216.34 410.657515 216.34 410.97917 216.433883 410.97917 216.433883"></polygon>
                        <path d="M290.97,177.351252 L297.744318,178.347676 L299.264739,175.70171 L305.24506,177.091679 L306.258673,169.589193 L312.509291,166.449202 L315.938684,168.827222 L320.618201,168.199224 L319.452545,165.670484 L322.881938,166.072403 L331.641249,161.433589 L332.933607,155.028007 L339.58967,157.933546 L342.867021,156.217017 L344.370548,159.340262 L351.592546,161.450336 L354.405324,166.005416 L366.061881,165.628618 L367.269771,168.056877 L371.138396,168.308077 L371.856373,171.506681 L382.389508,170.342791 L381.249193,172.645451 L384.594118,173.373929 L392.38205,165.98867 L396.740589,169.028181 L400.474066,163.317584 L406.167196,166.172883 L407.822765,161.701535 L410.38214,162.22068 L412.400921,159.784047 L413.938235,152.73372 L418.009583,151.69543 L422.731334,145.323341 L428.044359,144.963288 L425.991791,142.350816 L426.980064,138.34 L431.515986,143.19652 L433.619234,150.606899 L451.053389,150.045887 L450.301626,156.233764 L443.400606,164.916886 L452.210598,165.151339 L455.226099,160.571138 L460.302614,158.82949 L460.302614,158.82949 L462.194693,164.87502 L458.393642,170.518631 L457.701006,181.261587 L445.900853,191.636119 L446.779318,198.401753 L444.743644,202.487928 L457.050604,210.191374 L472.474426,225.849464 L470.633027,229.223908 L472.221022,232.97515 L466.882657,241.323341 L470.016412,251.873711 L476.545774,255.139302 L474.822631,265.572447 L478.97,269.968434 L475.53216,284.161195 L469.931945,290.583524 L478.902426,304.952124 L477.441133,311.634025 L477.441133,311.634025 L475.650415,310.285922 L474.704376,314.104152 L471.249642,314.355351 L468.690268,311.767998 L459.044044,315.058709 L456.079224,318.34942 L445.546088,314.933109 L442.876906,320.60184 L439.945873,320.693947 L441.483187,323.314793 L438.045347,329.435683 L435.916758,327.442835 L425.91577,330.34 L413.524342,329.753868 L405.778644,322.611435 L404.646776,325.014575 L401.698849,324.034898 L398.666455,328.472752 L395.84523,327.509821 L393.725088,324.796869 L395.456678,316.591025 L392.027285,312.747676 L392.973325,310.620855 L387.153493,306.099267 L387.153493,306.099267 L394.316363,300.053737 L391.790775,286.036816 L386.553771,286.782041 L386.764941,284.295168 L382.862528,284.337034 L382.04319,281.247283 L376.341613,281.247283 L375.944615,278.417104 L372.447647,278.86089 L366.602475,274.607248 L363.434932,277.194601 L359.53252,276.893162 L356.272062,272.773493 L353.873177,274.247196 L342.208172,261.034113 L346.46535,255.909647 L343.677912,253.833066 L347.005944,245.627222 L345.181439,239.657052 L348.272961,234.147414 L343.508977,230.278945 L340.425902,232.506245 L340.670858,229.282521 L338.187505,229.48348 L339.572777,221.13529 L342.791,220.783611 L341.135431,212.962939 L344.302974,205.343227 L343.00217,200.369481 L340.882028,198.904152 L337.165444,201.139826 L337.064083,197.564422 L329.293044,199.180471 L321.386858,196.182826 L321.919005,192.389717 L316.428597,189.140872 L313.869223,190.170789 L312.940077,187.449464 L310.211767,187.139651 L310.955083,184.778378 L308.826495,184.979337 L308.826495,184.979337 L300.970988,181.177854 L294.813285,183.220942 L290.97,177.351252 Z M409.64727,218.924736 L403.675396,221.344623 L399.553367,218.079032 L398.514413,221.026437 L396.199995,220.976197 L395.988826,224.501361 L391.258628,224.62696 L390.62512,230.705983 L393.311196,231.359102 L389.15538,239.891505 L391.12348,241.775499 L400.246003,239.523079 L406.834492,243.064989 L406.851386,240.092464 L409.351633,239.230013 L410.069609,241.323341 L418.896495,242.972883 L419.107665,246.313833 L425.062645,237.186925 L417.105778,234.700052 L419.580684,229.60908 L411.649157,224.124562 L412.434708,219.519241 L409.968248,217.459407 L409.968248,217.459407 L410.111843,216.973755 L410.111843,216.973755 L409.790865,216.890022 L409.790865,216.890022 L409.022208,217.325434 L409.64727,218.924736 Z" id="DE-BB"></path>
                        <path d="M142.012373,167.112018 L142.622542,167.026939 L142.622542,167.026939 L147.859831,168.464783 L146.817458,170.319518 L149.181864,172.063649 L160.317458,172.769809 L162.156441,175.730578 L166.537797,173.867336 L168.622542,176.190008 L166.724237,177.117375 L168.97,178.827474 L168.503898,183.430279 L166.020847,186.34 L162.292034,183.974788 L159.910678,185.761459 L157.207288,182.783674 L154.300508,184.034344 L148.944576,172.514571 L143.080169,169.757993 L143.080169,169.757993 L143.080169,169.757993 L143.080169,169.757993 L141.97,167.001415 L141.97,167.001415 L142.012373,167.112018 Z M143.656441,132.71435 L151.198814,132.34 L148.902203,135.538992 L149.715763,142.745231 L146.546271,143.596026 L145.554746,140.201352 L145.554746,140.201352 L146.758136,138.635888 L143.656441,132.71435 Z" id="DE-HB"></path>
                        <polygon id="DE-HH" points="207.97 136.81245 210.235983 130.022215 213.838982 134.123415 217.728485 128.161877 221.730852 128.711522 222.842139 125.557403 226.523275 125.84491 227.391468 121.997392 232.262028 120.34 233.590363 121.676061 230.87292 125.836454 235.179155 129.827725 233.911594 134.182608 231.254925 135.324179 231.871342 139.915832 234.597466 140.076498 240.97 146.579225 239.988942 147.974479 239.988942 147.974479 236.142849 151.34 232.58326 151.34 225.802676 145.268532 222.086811 149.538854 218.240718 149.750256 217.580892 145.936563 215.262818 148.304266 212.241507 145.302357 210.426985 137.116869"></polygon>
                        <polygon id="DE-HE" points="193.542839 304.34 202.98051 305.256271 206.420092 310.372115 203.175363 309.752784 204.081854 312.577951 201.862222 311.746521 200.794766 315.589767 203.878529 319.602693 203.946304 324.116174 200.388116 325.583904 199.871331 328.969014 197.871968 328.536331 199.490097 330.453712 208.809162 334.738126 210.893244 331.157883 209.088734 332.642581 207.089371 328.816303 212.308047 326.949825 212.147081 325.006992 215.900123 328.163036 215.12071 324.447049 217.87407 324.184046 219.288874 327.83216 219.288874 327.83216 221.677943 335.66288 226.168038 336.171919 226.879676 340.651464 235.97 344.172319 233.911334 350.441986 232.13224 346.989003 229.633036 348.176761 232.606665 350.145046 230.802155 355.014855 234.284096 357.101915 234.233265 359.45198 225.312378 359.002328 224.244922 361.70872 226.608576 364.856279 220.508824 365.068379 222.533603 365.967682 221.660999 367.995355 223.838272 366.81608 226.456082 370.175739 224.660044 374.281989 220.635902 375.427327 216.510098 390.825764 221.017137 391.750518 220.678262 388.535087 226.100263 388.212696 227.642145 392.335913 225.193772 393.345508 225.447929 401.37136 225.447929 401.37136 224.177147 405.562449 217.865598 410.898877 210.308684 409.091788 209.47844 418.856857 204.488504 422.123192 205.039176 425.304687 196.177593 424.617484 196.829927 436.978653 192.602461 437.835536 189.162879 433.890482 181.131539 432.405784 177.378497 437.233173 175.633291 434.306197 169.067586 437.224689 167.923882 440.889771 170.745018 441.534554 171.854833 445.46264 170.16893 446.769174 171.143196 457.976521 173.828781 457.764421 174.065993 462.37971 176.455063 463.143269 174.989428 465.094586 177.175172 466.587768 172.812156 476.709164 174.760687 480.213051 174.760687 480.213051 173.100199 481.256582 175.989109 485.252539 166.55991 486.33849 166.475191 490.342932 161.078606 495.34 158.469267 494.092854 159.773937 489.290917 162.535769 489.401209 163.721831 486.414846 160.112812 487.331116 159.612971 484.607756 153.072682 483.683002 152.555897 476.412225 147.311805 477.540595 148.430093 483.267286 145.464936 485.481607 140.839291 479.737948 137.984268 479.712496 137.984268 479.712496 134.570102 470.685534 141.051088 464.840067 138.052043 464.305575 135.68839 459.766642 132.587683 446.921886 125.123959 442.001174 109.010448 447.312149 102.97 440.117728 106.451942 437.911892 107.197467 434.280745 111.40799 436.325386 111.54354 432.838468 108.942673 430.793827 110.340533 427.849883 114.551056 424.94836 116.965541 426.789385 117.168866 422.148644 120.955795 423.039463 121.642017 419.781612 118.439648 413.435589 113.246387 410.33045 115.771006 406.733239 114.932291 400.658705 117.541629 397.884441 120.760942 399.920598 122.506149 398.444384 121.904646 387.016454 121.904646 387.016454 124.217468 382.876268 122.404486 378.159171 129.580166 370.370871 134.553158 372.0507 140.017519 367.104536 139.924328 363.083126 144.185683 358.493289 142.304926 353.292605 154.072363 350.730441 152.767694 348.371893 156.613926 342.212518 154.157082 336.630055 147.337221 338.920731 145.261611 336.316147 148.658834 331.251207 152.65756 327.74732 165.839801 326.652886 166.33117 323.344131 163.306709 318.644002 170.185874 315.504927 174.116825 317.473212 174.354037 321.850949 180.860439 320.595319 189.264541 309.167389 187.392256 307.131232"></polygon>
                        <path d="M426.74491,82.5366527 L430.233236,88.6370711 L437.905876,92.9801674 L449.10877,104.193556 L446.869868,105.540837 L448.354084,109.699833 L438.987593,109.072218 L433.78026,111.808619 L433.15974,109.055481 L432.245732,111.867197 L427.684074,111.206109 L433.637708,105.917406 L432.078024,98.6789121 L435.029684,98.6872803 L434.719425,103.616151 L436.052703,101.147531 L439.113374,102.913222 L439.490717,99.088954 L435.373486,91.8755649 L432.136721,91.9425105 L433.000418,96.2102929 L432.765626,94.5031799 L429.453394,97.6245188 L429.260529,93.3065272 L424.573091,95.9006695 L426.837149,87.8504603 L423.449448,83.2646862 L426.74491,82.5366527 Z M367.678155,58.6956485 L369.028205,59.9006695 L366.160398,59.8086192 L367.678155,58.6956485 Z M358.44583,53.8337238 L360.164837,56.4111297 L379.040372,57.1642678 L379.560266,58.8128033 L372.960957,60.5199163 L364.131131,58.9717992 L358.697392,64.5282845 L367.829092,60.2688703 L366.193939,63.9676151 L367.476906,61.4153138 L369.355235,63.9927197 L372.088875,61.6663598 L373.438925,66.4111297 L379.434485,60.0847699 L385.128172,58.0178243 L384.918537,61.5659414 L388.490717,64.2186611 L389.128007,72.0764017 L393.119457,73.1893724 L391.241128,74.7123849 L393.530342,73.5241004 L398.980852,76.3860251 L400.93465,81.0220084 L403.316103,81.214477 L400.448297,83.1893724 L405.789796,81.8923013 L403.911467,84.5952301 L405.420839,83.549205 L408.515051,89.8337238 L410.259214,89.9006695 L409.722549,86.4111297 L421.504035,82.3441841 L420.833203,84.1433473 L426.367567,88.7542259 L423.248198,95.1224268 L432.354742,104.73749 L427.558293,108.837908 L427.172565,111.892301 L442.425607,121.147531 L451.213505,120.386025 L448.437938,124.511548 L451.917879,125.934142 L458.97,157.85046 L458.97,157.85046 L453.930375,159.591046 L450.936787,164.168452 L442.190816,163.909038 L449.041687,155.239582 L449.787988,149.055481 L432.480523,149.616151 L430.392558,142.210293 L425.889599,137.356736 L424.908507,141.365105 L426.946159,143.975983 L421.671743,144.335816 L416.984305,150.704017 L412.942542,151.741674 L411.416399,158.787699 L409.412289,161.222845 L406.871513,160.704017 L405.227974,165.172636 L399.576215,162.319079 L395.869868,168.026192 L391.543002,164.988536 L383.811664,172.369289 L380.491046,171.641255 L381.623075,169.34 L371.166481,170.50318 L370.453722,167.306527 L366.613209,167.055481 L365.414097,164.628703 L353.842246,165.005272 L351.049908,160.452971 L343.880391,158.344184 L342.38779,155.222845 L339.134255,156.938326 L332.52656,154.034561 L331.243594,160.436234 L322.547935,165.072218 L319.143463,164.670544 L320.300648,167.197741 L315.655136,167.825356 L312.250664,165.448787 L306.045469,168.586862 L305.039221,176.08477 L299.102358,174.695649 L297.592986,177.34 L290.867895,176.344184 L290.867895,176.344184 L286.415248,175.063849 L287.102851,171.189372 L281.375623,168.218661 L275.925113,157.565941 L272.218767,156.235397 L267.799661,160.143347 L260.546291,154.260502 L254.97,154.82954 L254.97,154.82954 L256.999267,146.82954 L267.271381,141.515732 L267.128829,136.034561 L271.841424,136.335816 L274.063555,129.398577 L272.50387,124.821172 L268.62143,124.578494 L263.715972,120.093138 L264.428731,109.197741 L270.239813,104.494812 L271.883351,106.896485 L274.776314,106.034561 L270.927415,104.678912 L271.480852,101.632887 L271.480852,101.632887 L278.709066,97.1558996 L286.24754,96.3441841 L290.507323,99.1810042 L290.398313,103.557573 L294.574242,101.406946 L301.198708,107.055481 L302.473288,100.678912 L300.444022,101.43205 L300.393709,97.8420921 L299.672565,101.147531 L297.36658,100.804435 L297.249184,97.507364 L302.833861,95.6663598 L302.81709,100.653808 L304.393545,94.8211715 L307.294893,94.6119665 L310.045304,89.4822594 L308.913275,88.3358159 L304.997294,93.3065272 L304.770888,91.005272 L312.913111,83.8588285 L321.843561,84.5282845 L336.694104,81.0136402 L339.939254,76.1182427 L347.964081,70.8044351 L358.44583,53.8337238 Z M391.350138,42.8044351 L387.023272,56.0178243 L388.876445,43.9006695 L391.350138,42.8044351 Z M406.594794,35.34 L403.592821,39.9006695 L405.915577,44.9969038 L417.353262,44.3776569 L419.709559,46.3023431 L414.16681,56.963431 L416.238004,60.9466946 L419.390914,61.2646862 L424.413768,66.6956485 L421.445337,73.298159 L420.992525,70.7876987 L417.990552,70.6705439 L421.101536,68.0094561 L416.078681,68.9299582 L420.078517,65.7416736 L416.380556,67.716569 L414.720247,65.591046 L410.359839,66.6035983 L402.351782,73.2061088 L402.636886,75.3232636 L403.022614,73.7416736 L405.856879,74.6538075 L404.481674,77.632887 L399.064706,74.9717992 L400.725015,75.4487866 L401.379076,72.4278661 L397.882364,74.6872803 L394.234716,73.1893724 L393.907685,70.7793305 L391.039878,72.1182427 L393.429717,70.4446025 L389.664673,67.5241004 L390.360661,64.0010879 L397.463094,62.7876987 L394.84685,58.6203347 L391.568159,59.2814226 L393.07753,56.2437657 L390.025245,56.9969038 L392.599563,52.92159 L395.677004,53.6161506 L394.167632,57.0303766 L397.991375,54.0512971 L395.727317,53.5408368 L395.878254,51.2395816 L392.624719,51.4989958 L391.241128,47.9759833 L396.582627,47.172636 L399.777465,50.9048536 L399.400122,47.3567364 L402.469178,44.8546444 L401.613867,47.7667782 L403.576051,46.7458577 L405.54662,52.7876987 L407.601042,54.8462762 L410.39338,53.9425105 L410.846192,46.2353975 L407.324324,47.4989958 L403.274176,41.7249372 L396.532315,46.8044351 L398.72929,38.8713808 L392.138366,46.8546444 L396.674867,37.7500418 L406.594794,35.34 Z" id="DE-MV"></path>
                        <path d="M51.4460696,132.910131 L46.3469201,134.257586 L47.8158804,136.817751 L42.97,134.164949 L48.086034,130.981586 L51.4460696,132.910131 Z M83.079369,120.589338 L85.0633096,122.189441 L80.8506018,121.439919 L83.079369,120.589338 Z M92.6107262,118.458675 L95.4388968,119.696649 L86.5322699,121.667302 L87.3005192,118.913441 L92.6107262,118.458675 Z M100.402969,116.386962 L105.46835,117.313338 L97.5072604,118.879754 L100.402969,116.386962 Z M109.706384,115.182674 L113.733362,117.01016 L107.055502,115.974304 L109.706384,115.182674 Z M152.390655,106.34 L156.805978,111.384535 L163.424742,112.538294 L170.212351,110.971877 L169.359679,107.982211 L169.359679,107.982211 L180.385323,107.510602 L186.016337,109.893913 L196.324386,124.320104 L198.721999,131.26792 L208.41376,136.70827 L208.41376,136.70827 L210.802931,137.003026 L212.55893,145.163551 L215.49685,148.144796 L217.759387,145.786749 L218.392559,149.576467 L222.140941,149.365927 L225.754245,145.113021 L232.347682,151.159726 L235.809025,151.159726 L239.548964,147.807932 L239.548964,147.807932 L254.981489,154.03149 L254.981489,154.03149 L260.595619,153.458822 L267.898209,159.379203 L272.347301,155.446318 L276.078798,156.785352 L281.566293,167.506041 L287.332384,170.495708 L286.640116,174.394906 L291.122977,175.68341 L291.122977,175.68341 L294.964224,181.586948 L301.118661,179.532079 L308.97,183.355482 L308.97,183.355482 L306.690579,186.631483 L304.174773,186.041971 L303.79487,191.836028 L293.621898,197.394281 L277.066547,194.455144 L273.55455,199.642846 L264.251135,200.586065 L265.92271,211.980482 L267.552074,211.761521 L272.440166,221.193707 L275.487837,219.964154 L273.402589,224.916052 L277.218508,231.274356 L273.816261,231.425944 L273.216858,234.322973 L280.789601,241.851878 L275.859298,244.774172 L281.346793,254.619016 L277.471777,257.271818 L279.979141,259.486698 L279.16868,262.863757 L273.706511,265.567089 L274.91376,269.601033 L260.629388,270.198966 L253.200164,274.148694 L257.986948,278.224746 L255.943911,279.900643 L257.91941,284.027224 L254.035952,287.665353 L253.867105,290.92451 L260.646273,305.578085 L260.646273,305.578085 L257.303122,307.464522 L258.265544,312.728019 L255.538681,310.917376 L250.870089,313.123833 L246.235266,309.83099 L242.849904,310.235227 L239.017099,318.294693 L235.505102,320.29061 L233.816642,318.959999 L231.224856,323.650827 L226.623802,324.804585 L225.44188,323.162374 L219.067943,328.493244 L219.067943,328.493244 L217.658079,324.871958 L214.914332,325.133027 L215.691023,328.821686 L211.942642,325.688853 L212.103046,327.608976 L206.911031,329.461727 L208.894971,333.268288 L210.701624,331.794509 L208.616376,335.34 L199.329845,331.087095 L197.717366,329.183814 L199.709749,329.613316 L200.224729,326.253099 L203.770495,324.804585 L203.702957,320.324297 L200.638402,316.340883 L201.702132,312.5259 L203.905572,313.351217 L203.010688,310.546826 L206.235647,311.161602 L202.816515,306.08338 L193.411793,305.173848 L193.411793,305.173848 L189.308835,304.879092 L189.317277,296.828048 L193.150081,292.415132 L193.901446,286.64634 L186.607298,287.261117 L187.485298,282.603975 L183.855109,280.515419 L183.905762,276.961506 L180.351554,278.031049 L178.570229,276.287779 L179.591747,268.523069 L176.358346,266.325032 L177.430518,263.284837 L169.756467,262.804806 L168.355045,257.583417 L171.478696,258.535057 L171.056581,254.997988 L173.260022,254.349525 L167.282873,250.130306 L175.7505,239.232763 L174.205559,235.771487 L176.48498,232.88288 L174.475713,231.046973 L171.943023,230.802746 L165.712605,239.451724 L161.331051,240.53811 L153.32775,239.999128 L153.049155,230.465883 L150.322291,228.082571 L145.240027,230.954335 L142.310548,229.808998 L137.743264,235.737801 L131.614154,234.499826 L132.331749,239.333822 L139.19534,242.963529 L139.119359,255.848569 L143.121009,258.476106 L137.17763,264.910204 L130.693943,262.771119 L125.65389,268.194626 L117.034301,268.53149 L114.273669,271.43694 L109.115423,267.234565 L115.734187,264.497546 L116.721936,260.370965 L110.01875,256.724415 L113.032651,251.2588 L111.690325,248.218604 L114.915284,247.595406 L111.952036,242.719303 L99.913316,239.594891 L98.5878748,235.04723 L94.2485324,233.118685 L91.9353421,236.874716 L93.9952634,237.784248 L92.914649,241.776084 L77.4736816,251.511447 L64.9115387,253.465257 L64.9115387,253.465257 L62.8938289,249.237617 L65.4434036,241.919251 L60.985869,233.67451 L58.3518713,236.529431 L48.423726,234.137698 L45.2072096,232.007034 L44.2532297,226.179291 L48.9218218,225.269759 L45.9839012,219.644134 L48.1198032,217.749275 L64.4472121,218.229306 L66.2032106,199.929181 L73.1934353,185.98302 L71.1503986,174.218052 L73.7168579,170.630453 L72.762878,164.870082 L74.6961648,158.014904 L78.0899695,157.854894 L62.252214,155.943192 L63.2737324,138.71261 L66.8279408,141.811756 L63.7042897,138.476805 L67.1149791,140.742214 L69.2339964,138.022039 L66.3214028,134.678666 L74.6708379,126.467611 L80.9434671,124.943302 L89.7656709,126.400238 L99.3730088,122.012588 L99.3898934,123.789544 L104.9196,122.812639 L106.439214,120.673554 L105.105331,123.13266 L116.764148,123.0316 L117.684358,128.985668 L121.610028,129.499385 L124.573275,138.61155 L118.579242,141.35699 L118.731204,143.967685 L126.143543,150.435469 L129.697752,150.317567 L132.171346,145.677268 L132.010942,139.942162 L127.553407,140.0348 L130.440674,131.832167 L133.463018,131.731108 L140.275954,137.07882 L143.205432,136.54826 L145.240027,139.714779 L145.240027,139.714779 L146.227776,143.074996 L149.385196,142.232836 L148.574735,135.099746 L150.862599,131.933226 L143.348951,132.303776 L143.348951,132.303776 L141.255261,124.277996 L144.784142,113.338345 L148.228601,107.359013 L152.390655,106.34 Z M141.668934,166.259645 L141.668934,166.259645 L142.774875,168.988242 L148.616947,171.716839 L153.952481,183.119678 L156.84819,181.881703 L159.541283,184.829262 L161.91357,183.060727 L165.628182,185.40193 L168.101776,182.521745 L168.566103,177.965662 L166.328893,176.272921 L168.219968,175.354968 L166.143162,173.055872 L161.778493,174.900202 L159.946514,171.969487 L148.853331,171.270494 L146.497929,169.544067 L147.536332,167.70816 L142.318991,166.28491 L141.668934,166.259645 Z" id="DE-NI"></path>
                        <polygon id="DE-NW" points="65.2836784 253.892577 77.8178963 251.92569 93.2329626 242.125166 94.3111749 238.106612 92.2558328 237.190992 94.5638809 233.409821 98.8851536 235.351274 100.207648 239.929374 112.219607 243.074698 115.176267 247.974959 111.958478 248.602329 113.297819 251.662873 110.290618 257.16507 116.978904 260.836027 115.99335 264.990229 109.3893 267.745566 114.527655 271.984547 117.282151 269.05965 125.882579 268.712054 130.911428 263.252246 137.380702 265.405649 143.302446 258.928486 139.309691 256.283362 139.385503 243.31208 132.53717 239.658079 131.82117 234.791729 137.936655 236.037989 142.493787 230.077982 145.425176 231.222507 150.496144 228.34 153.216945 230.739263 153.494921 240.336316 161.480431 240.878905 165.852245 239.77677 172.068813 231.078382 174.595873 231.324243 176.600674 233.172438 174.32632 236.088857 175.867826 239.564821 167.419022 250.535304 173.382884 254.782763 171.175918 255.427088 171.597095 258.99631 168.480388 258.0383 169.870271 263.286158 177.527263 263.769402 176.457474 266.838424 179.683687 269.042694 178.66444 276.859375 180.441805 278.622791 183.996536 277.54609 183.945995 281.12379 187.568115 283.226324 186.692067 287.914637 193.97 287.295746 193.220306 293.10315 189.387598 297.545602 189.387598 305.650533 193.481435 305.947262 193.481435 305.947262 187.36595 308.736511 189.227551 310.771222 180.871405 322.191036 174.402132 323.445775 174.166273 319.071147 170.257753 317.104259 163.417844 320.241105 166.425045 324.937896 165.93648 328.244301 152.829462 329.337958 148.853554 332.839356 145.475718 337.9007 147.539483 340.503434 154.320428 338.214384 156.763252 343.792883 152.938968 349.947883 154.236192 352.304757 142.535904 354.865101 144.405929 360.062092 140.168891 364.648669 140.26155 368.667223 134.828371 373.609874 129.883757 371.931238 122.749024 379.714007 124.55166 384.427754 122.252036 388.564999 122.252036 388.564999 117.737022 387.547643 113.845349 380.900921 113.862196 374.898525 106.323134 371.761679 107.510852 367.870294 104.427839 366.632512 101.370096 368.709612 102.818944 374.966348 97.343647 377.018015 97.9248708 380.375288 93.6709864 383.94451 81.9959689 385.741838 79.8900855 392.481817 73.3113059 393.838291 72.6879644 391.701845 69.7649983 395.7967 68.071868 394.787823 66.681985 397.017527 64.8625017 395.304978 61.7457943 398.823333 58.1152514 399.179407 58.1489455 401.426067 55.5376501 401.960178 56.5063565 406.928264 54.2235789 408.27626 51.1574127 404.969855 48.1670583 406.563712 51.0816009 416.109897 45.8505866 418.170041 44.1153387 415.270578 42.4643261 417.491804 40.5269134 413.829325 32.4908624 418.153085 30.3597084 413.719111 29.9216847 419.34 29.9216847 419.34 26.5438478 414.47365 28.4307193 409.709035 27.0576833 405.24115 20.3778212 404.681604 17.817067 400.713918 22.6774459 393.566996 17.7581023 393.575474 14.7424773 385.631624 10.3285457 385.682492 9.62096892 381.045047 6.7990852 379.103594 9.55358066 377.509737 9.23348638 374.881569 12.1901466 374.822223 13.3104766 368.42984 9.25875698 367.319227 9.55358066 363.088724 2.71367144 363.860218 0.97 357.603483 3.55602479 356.026582 5.99884951 358.646272 8.77019204 353.864701 17.5727846 348.226857 15.7111837 346.878861 17.0926432 345.047621 12.6197469 346.955163 12.0469466 340.918854 20.32728 330.584219 19.6618209 317.587503 13.0830412 309.465616 14.4392301 305.090988 9.92421613 303.531043 10.5475576 299.800739 5.78826117 297.901676 7.70040328 294.052681 5.26600209 290.48346 11.6510405 286.939672 17.1179138 289.016772 14.5908537 283.70109 29.8121788 290.229121 29.2646491 286.100353 33.4258747 287.931593 44.9492685 282.353094 47.5100227 283.963907 52.7747311 276.291352 45.084045 271.662384 45.446257 268.940959 47.7458816 268.525539 49.0431058 264.718934 54.1056494 264.540897 61.0382175 255.308396"></polygon>
                        <polygon id="DE-RP" points="29.7898782 417.869957 30.2290847 412.268001 32.3659929 416.68704 40.4237419 412.377843 42.3663858 416.027986 44.0218562 413.814242 45.7617894 416.703939 51.0069279 414.650733 48.0845158 405.136702 51.0829444 403.548214 54.1573895 406.843482 56.4463308 405.500027 55.4750088 400.548675 58.0933549 400.016362 58.0595698 397.77727 61.6999155 397.422395 64.8250383 393.915891 66.6494343 395.622671 68.0430701 393.400477 69.740772 394.405957 72.6716303 390.324893 73.2966549 392.454144 79.8931978 391.102239 82.0047672 384.384961 93.7113082 382.593687 97.9766785 379.036487 97.3938853 375.690522 102.883966 373.645766 101.431206 367.410104 104.497205 365.34 107.588543 366.573613 106.397617 370.451891 113.957036 373.578171 113.940143 379.56035 117.842324 386.184685 122.369529 387.198613 122.369529 387.198613 122.969214 398.579963 121.229281 400.05016 118.019696 398.022302 115.418242 400.785258 116.254423 406.835033 113.737433 410.417581 118.915001 413.510063 122.107694 419.830219 121.423545 423.074791 117.648059 422.187603 117.445349 426.809429 115.038159 424.975907 110.840359 427.865604 109.446724 430.797548 112.039731 432.833855 111.90459 436.306561 107.70679 434.270254 106.963518 437.8866 103.492098 440.083445 109.514294 447.248542 125.579114 441.959213 133.020285 446.859869 136.111622 459.65227 138.468134 464.172702 141.458116 464.705014 134.996714 470.526655 138.400564 479.516823 138.400564 479.516823 139.481687 490.568646 142.97 491.827608 139.895555 500.90227 141.948 503.352597 136.677523 508.312399 134.971375 519.305076 128.172121 530.34 128.172121 530.34 112.081962 522.811579 108.450063 524.814088 104.564775 522.177874 98.0695875 523.918451 90.239888 519.617704 88.3985995 513.762265 85.2565842 514.117141 85.6451129 512.537102 81.3459576 514.632554 81.3459576 514.632554 77.4268847 508.050467 82.5960067 503.45399 83.4237419 497.209879 77.4775624 495.604492 75.3575467 491.945899 78.2546199 488.51544 76.2444058 479.466127 73.3726714 481.012368 63.3469397 474.852751 58.642363 475.275221 40.7024691 484.899095 28.4215812 482.195285 28.4215812 482.195285 27.2222098 480.480055 31.1497289 472.45312 35.803628 467.941137 36.4286525 460.733794 31.1581752 460.649299 27.4671518 457.320234 25.3471361 458.35951 20.5749892 453.264519 19.992196 449.073613 17.5258829 448.769435 13.97 439.897558 15.6339167 430.763751 18.3029405 429.572384 17.5258829 425.161794 23.09198 422.500231 24.7390041 418.055844 27.4671518 419.416198"></polygon>
                        <polygon id="DE-SL" points="28.6496117 482.602779 41.0015534 485.277221 59.0452427 475.757881 63.7770388 475.34 73.8607767 481.432711 76.7491262 479.903265 78.7709709 488.854286 75.8571359 492.247483 77.9894175 495.866336 83.97 497.454286 83.1374757 503.630573 77.9384466 508.177123 81.8801942 514.687716 81.8801942 514.687716 78.133835 518.206278 70.726068 517.754966 67.5233981 514.896657 65.2297087 518.34 64.0743689 512.021633 58.2297087 509.363907 53.4894175 510.216385 53.3534951 515.06381 48.1119903 514.161186 44.3741262 504.750496 38.7928155 499.292964 40.6192718 497.763518 37.3146602 494.779845 37.9857767 492.924451 31.3000971 488.737279 27.97 489.196948"></polygon>
                        <polygon id="DE-SN" points="346.064955 353.642399 341.398783 349.153016 341.617379 340.943618 338.792453 333.765678 341.432413 333.038584 338.868121 321.574172 341.970495 319.09698 343.366142 312.849044 353.656944 311.242674 354.590178 308.8923 356.91906 310.135124 364.410158 307.421203 363.518961 308.773936 367.932908 304.090098 372.220742 305.586559 376.147052 302.34 381.410158 306.372835 383.411147 303.692733 387.354273 305.66265 387.354273 305.66265 393.147052 310.228124 392.213818 312.367133 395.62727 316.247786 393.895321 324.533276 396.005608 327.27256 398.813719 328.253291 401.840425 323.772363 404.774649 324.761549 405.901256 322.335085 413.61095 329.546842 425.944777 330.147118 435.899278 327.213378 438.017972 329.234023 441.439832 323.053724 439.909664 320.40744 442.83548 320.305985 445.492255 314.582234 455.976429 318.031703 458.927468 314.700598 468.528853 311.386402 471.084738 313.998867 474.515005 313.74523 475.456647 309.889941 477.239041 311.242674 477.239041 311.242674 477.558526 316.053331 489.085232 320.940079 490.51451 331.90567 493.97 337.857696 490.506103 354.724585 480.770198 376.579678 471.303333 373.400755 472.934392 367.144365 468.411147 368.251915 470.176726 362.477436 464.804322 359.408423 464.964065 357.328596 464.476429 359.306968 460.054075 359.695879 454.320148 356.593048 452.033304 362.384436 455.539238 362.604255 454.765747 365.174448 459.389881 366.755454 458.843393 370.002013 452.394827 370.264105 442.230138 377.323681 432.754866 378.913142 432.645569 383.047432 430.409169 384.493166 412.72816 386.361628 412.635678 391.97547 409.524896 395.019119 404.446756 391.07083 401.806795 397.0144 397.754372 395.966032 394.971484 403.456791 386.219258 402.915698 385.622324 408.098356 381.670791 411.936736 374.810257 407.159898 374.322621 409.560999 373.5155 408.047629 370.312235 409.467998 368.765252 412.435556 366.966044 410.786913 358.373561 412.469375 348.637656 425.548612 348.957141 431.34 346.443294 431.001817 346.645074 427.29871 343.744481 425.193519 344.568417 423.096783 341.667824 422.944601 340.793442 418.759583 336.320643 419.106221 336.320643 419.106221 329.703927 416.358482 330.015005 413.17956 326.820148 410.228911 326.820148 410.228911 325.306795 408.115265 328.207389 407.675627 329.081771 404.877161 323.97 400.573779 330.998684 392.423563 333.941316 399.457774 335.210851 397.310311 339.658427 397.268038 338.935381 392.804019 341.121335 394.182116 341.625786 392.043107 345.039238 392.761746 347.897794 389.929461 344.938348 387.300087 345.148536 383.647707 343.013027 383.571616 346.401256 379.775509 344.333007 376.571223 349.50363 376.351404 350.949723 373.747393 354.522918 374.668942 356.801355 370.281015 365.957141 368.167369 363.468516 361.615069 358.079298 359.856516 357.86911 355.942045 348.957141 352.517939"></polygon>
                        <polygon id="DE-ST" points="308.653408 184.541383 310.777892 184.34 310.036009 186.706252 312.759058 187.016717 313.686413 189.752172 316.240852 188.720083 321.720673 191.975777 321.189552 195.768492 329.080493 198.780848 336.836547 197.161392 336.937713 200.735943 340.64713 198.503947 342.763184 199.972365 344.06148 204.948207 340.900045 212.592374 342.552422 220.429534 339.348834 220.781955 337.957803 229.147746 340.436368 228.946362 340.200314 232.168492 343.269013 229.936496 348.023812 233.813121 344.938251 239.334375 346.759238 245.308741 343.437623 253.540277 346.219686 255.621236 341.970717 260.756505 353.613229 273.997446 355.999058 272.529027 359.253229 276.64899 363.148117 276.951065 366.309552 274.366648 372.143453 278.629258 375.642108 278.184537 376.038341 281.020682 381.728924 281.020682 382.546682 284.116948 386.44157 284.074993 386.222377 286.567109 391.457713 285.820314 393.97 299.866787 386.820942 305.925062 386.820942 305.925062 382.86704 303.969968 380.860583 306.629903 375.583094 302.627414 371.646054 305.849544 367.346502 304.364343 362.920493 309.012937 363.814126 307.670383 356.302556 310.363882 353.967309 309.13041 353.031525 311.463098 342.712601 313.057381 341.313139 319.258303 338.202287 321.716856 340.773587 333.095002 338.126413 333.816625 340.959058 340.940553 340.739865 349.088179 345.418789 353.543781 345.418789 353.543781 343.631525 357.957427 345.840314 359.45941 341.793677 366.34 340.124439 363.235343 331.171256 363.956966 324.376278 356.522573 317.294664 357.613398 312.455561 351.748114 302.591883 352.478128 301.790987 344.808787 296.226861 342.417363 302.111345 335.981494 297.845516 328.698137 293.689283 326.189239 276.061121 325.543135 273.574126 315.289378 270.353677 311.798737 270.792063 309.776515 272.688924 310.682739 272.242108 308.392006 260.397265 306.34461 260.397265 306.34461 253.627578 291.744334 253.804619 288.505422 257.674215 284.872135 255.70148 280.760562 257.741659 279.090761 252.97 275.029534 260.388834 271.094172 274.653229 270.498414 273.447668 266.479142 278.902197 263.785643 279.711525 260.420867 277.207668 258.205652 281.077265 255.562499 275.605874 245.745071 280.520852 242.841798 272.9587 235.331886 273.557265 232.445394 276.954753 232.294357 273.14417 225.959179 275.218072 221.025293 272.174664 222.250373 267.293408 212.852494 265.666323 213.070659 263.997085 201.717686 273.287489 200.786289 276.794574 195.609064 293.326771 198.53751 303.485516 192.999474 303.856457 187.226491 306.377175 187.805468"></polygon>
                        <path d="M141.852964,56.0241216 L143.833984,58.0933784 L142.198589,59.5038514 L139.947813,55.8805405 L141.852964,56.0241216 Z M281.51065,48.8366216 L289.443159,51.3197297 L293.97,60.7285135 L287.38627,58.8788514 L283.609688,60.6862838 L281.805695,56.5055405 L278.341018,56.9278378 L279.672938,58.2791892 L277.55704,57.0122973 L278.661353,50.8467568 L281.51065,48.8366216 Z M142.316607,48.5916892 L141.549489,52.2065541 L140.563194,47.7724324 L142.316607,48.5916892 Z M153.798093,46.3450676 L153.654785,51.6237838 L149.111084,52.5781757 L147.559988,48.7690541 L153.798093,46.3450676 Z M145.747565,44.4109459 L146.818159,46.2943919 L143.286043,44.5714189 L145.747565,44.4109459 Z M136.491566,38.7859459 L137.283974,41.0747973 L135.243945,41.4548649 L131.492652,36.2183784 L135.260805,31.8687162 L134.105912,34.1744595 L136.491566,38.7859459 Z M144.14589,27.9329054 L147.441969,28.9126351 L146.388235,35.0781757 L137.359843,33.0342568 L138.88565,28.7859459 L144.14589,27.9329054 Z M139.450451,0.399121622 L140.942538,0.905878378 L137.208105,1.02412162 L139.576899,3.79439189 L134.88989,8.19472973 L135.825606,14.5967568 L138.8435,16.5562162 L148.175368,15.6693919 L150.02151,13.4312162 L166.763235,14.242027 L182.24891,19.09 L182.999168,22.8568919 L185.410112,23.6761486 L188.073951,23.7943919 L191.606067,19.9092568 L193.064435,24.875473 L202.564901,16.6829054 L202.168697,20.965 L212.309832,24.1491216 L215.546903,28.2116216 L218.37091,27.2487838 L218.36248,24.1068919 L221.119048,25.7622973 L225.443573,34.4447297 L223.344535,34.3687162 L225.325554,35.9565541 L224.912491,46.9531757 L221.540542,51.3788514 L214.501599,54.0815541 L216.246583,56.5055405 L230.21488,53.1102703 L234.219069,55.8214189 L230.619514,69.1237838 L233.384512,67.6288514 L235.643717,59.6643243 L240.878668,57.6626351 L255.673093,64.2842568 L261.236808,69.7234459 L265.864808,69.0055405 L273.443262,62.6035135 L278.509615,63.8788514 L283.196624,61.117027 L283.904733,63.4987838 L280.220879,65.2808784 L282.14289,79.5798649 L270.180902,89.9177027 L266.901682,87.9582432 L263.791059,93.2622973 L265.578192,97.8315541 L270.164042,98.4312162 L271.951175,101.649122 L271.951175,101.649122 L271.394803,104.723446 L275.264115,106.091689 L272.355809,106.961622 L270.703554,104.537635 L264.861653,109.284257 L264.145114,120.280878 L269.076589,124.807905 L272.979619,125.052838 L274.547576,129.67277 L272.313659,136.674459 L267.576072,136.370405 L267.719379,141.9025 L257.392787,147.265676 L255.352758,155.34 L255.352758,155.34 L239.942952,149.098446 L239.942952,149.098446 L240.895528,147.704865 L234.708002,141.209932 L232.052592,141.057905 L231.454071,136.463311 L234.042042,135.323108 L235.272803,130.973446 L231.091587,126.986959 L233.721707,122.831554 L232.431936,121.497095 L227.702778,123.1525 L226.859791,126.995405 L223.285525,126.708243 L222.214932,129.858581 L218.320331,129.309595 L214.543748,135.263986 L211.053782,131.159257 L208.853585,137.949797 L208.853585,137.949797 L199.176092,132.493716 L196.782009,125.525811 L186.489135,111.057905 L180.866411,108.667703 L169.856998,109.140676 L169.856998,109.140676 L164.571469,103.650811 L163.306988,97.4177027 L159.167921,95.4835811 L163.17211,93.5156757 L167.395476,94.5122973 L168.828554,92.5021622 L165.760081,85.7538514 L161.991928,86.8433784 L159.361808,82.054527 L160.997203,71.8095946 L154.025699,71.2606081 L152.314435,73.3214189 L147.062625,69.4362838 L148.504133,65.1626351 L150.324986,66.5308784 L152.938246,64.875473 L148.428264,63.7099324 L149.102654,61.9278378 L162.716897,60.2217568 L172.318521,53.929527 L169.76427,53.6001351 L168.761115,49.8839189 L164.090966,55.4751351 L159.20164,54.4869595 L163.86336,43.1440541 L163.16368,41.59 L159.606274,42.7217568 L161.86548,40.7960811 L153.081554,30.9058784 L148.04892,16.1592568 L138.126961,19.5460811 L134.156492,16.5224324 L130.97,28.5325676 L131.846707,13.5747973 L137.115376,0.34 L139.450451,0.399121622 Z" id="DE-SH"></path>
                        <polygon id="DE-TH" points="261.180178 306.34 273.004907 308.393957 273.450965 310.692032 271.557325 309.782903 271.119684 311.811607 274.334663 315.313435 276.817436 325.600057 294.415662 326.248232 298.564837 328.765171 302.823423 336.071871 296.948931 342.528367 302.503608 344.927456 303.303145 352.621377 313.150072 351.889024 317.980958 357.773106 325.050547 356.678784 331.833986 364.137005 340.771966 363.41307 342.438369 366.527677 346.478134 359.625034 344.273095 358.118238 346.057325 353.690445 346.057325 353.690445 348.95249 352.57087 357.873638 355.980102 358.084042 359.87757 363.478812 361.628484 365.97 368.152323 356.804783 370.256787 354.523999 374.625655 350.947124 373.708109 349.499541 376.300809 344.323592 376.519673 346.393972 379.710041 343.002253 383.489658 345.139962 383.565419 344.929557 387.201933 347.892052 389.819887 345.030551 392.639869 341.613583 391.924351 341.108613 394.054069 338.920407 392.681958 339.644198 397.126587 335.19204 397.168676 333.921197 399.306812 330.975535 392.303155 323.939611 400.417969 329.056647 404.702658 328.181365 407.488968 325.277784 407.926697 326.792695 410.031161 326.792695 410.031161 321.507336 412.876397 319.066645 410.35104 305.264114 414.096986 303.16007 409.441911 301.013945 410.308951 299.802015 408.246576 300.365899 402.615029 295.804331 401.815333 292.850253 405.611786 290.535804 405.342415 292.50519 415.309158 290.729376 423.003079 285.082122 421.572043 285.713335 417.817679 283.432551 414.78725 276.438708 416.369807 273.81286 412.632279 268.258183 412.623861 261.887137 416.521329 262.021796 418.625793 268.965142 422.430664 269.024056 425.014947 262.854998 424.434114 262.063877 428.34 256.197802 426.201864 255.776993 417.548307 252.814498 415.006115 249.978247 415.738468 247.874202 411.841 244.810714 412.497593 241.334833 404.096572 236.066306 402.657119 234.542978 399.029022 231.269085 399.988658 229.425942 398.220908 225.849067 402.210972 225.849067 402.210972 225.596582 394.24768 228.028857 393.245955 226.497113 389.154876 221.110759 389.474755 221.447406 392.665122 216.97 391.747576 221.068678 376.469166 225.066362 375.332755 226.850592 371.258512 224.249993 367.925041 222.087036 369.095123 222.953902 367.083255 220.942436 366.190963 227.002083 365.980516 224.65397 362.857491 225.714408 360.172195 234.576643 360.618341 234.62714 358.286595 231.168091 356.215802 232.960737 351.383952 230.006658 349.431009 232.489431 348.252509 234.256828 351.678577 236.301959 345.457781 227.271401 341.96437 226.564442 337.519742 222.103868 337.014671 219.730506 329.244989 219.730506 329.244989 226.08472 323.924903 227.262985 325.557967 231.849801 324.413139 234.441984 319.724392 236.116803 321.054414 239.617933 319.059382 243.438877 311.003493 246.813764 310.599436 251.425829 313.890818 256.088391 311.685339 258.806817 313.495178 257.847372 308.2256"></polygon>
                    </g>
                </g>
            </g>
        </g>
    </g>
</svg>