<?xml version="1.0" encoding="UTF-8"?>
<svg width="328px" height="390px" viewBox="0 0 328 390" version="1.1" xmlns="http://www.w3.org/2000/svg" xmlns:xlink="http://www.w3.org/1999/xlink">
    <title>0C7B7E17-B393-4556-821D-E868A93982C3@3x</title>
    <g id="LP" stroke="none" stroke-width="1" fill="none" fill-rule="evenodd">
        <g id="01-1-1-LP" transform="translate(154.000000, -6055.000000)" fill="#F0E6F9">
            <g id="FAQ" transform="translate(-153.700000, 5798.300000)">
                <g id="Shape---12" transform="translate(0.000000, 257.200000)">
                    <circle id="Oval-Copy-168" transform="translate(5.200000, 383.600000) rotate(90.000000) translate(-5.200000, -383.600000) " cx="5.2" cy="383.6" r="5.2"></circle>
                    <circle id="Oval-Copy-167" transform="translate(5.200000, 349.200000) rotate(90.000000) translate(-5.200000, -349.200000) " cx="5.2" cy="349.2" r="5.2"></circle>
                    <circle id="Oval-Copy-166" transform="translate(5.200000, 314.800000) rotate(90.000000) translate(-5.200000, -314.800000) " cx="5.2" cy="314.8" r="5.2"></circle>
                    <circle id="Oval-Copy-165" transform="translate(5.200000, 280.400000) rotate(90.000000) translate(-5.200000, -280.400000) " cx="5.2" cy="280.4" r="5.2"></circle>
                    <circle id="Oval-Copy-164" transform="translate(5.200000, 246.000000) rotate(90.000000) translate(-5.200000, -246.000000) " cx="5.2" cy="246" r="5.2"></circle>
                    <circle id="Oval-Copy-163" transform="translate(5.200000, 211.600000) rotate(90.000000) translate(-5.200000, -211.600000) " cx="5.2" cy="211.6" r="5.2"></circle>
                    <circle id="Oval-Copy-162" transform="translate(5.200000, 177.200000) rotate(90.000000) translate(-5.200000, -177.200000) " cx="5.2" cy="177.2" r="5.2"></circle>
                    <circle id="Oval-Copy-161" transform="translate(5.200000, 142.800000) rotate(90.000000) translate(-5.200000, -142.800000) " cx="5.2" cy="142.8" r="5.2"></circle>
                    <circle id="Oval-Copy-160" transform="translate(5.200000, 108.400000) rotate(90.000000) translate(-5.200000, -108.400000) " cx="5.2" cy="108.4" r="5.2"></circle>
                    <circle id="Oval-Copy-159" transform="translate(5.200000, 74.000000) rotate(90.000000) translate(-5.200000, -74.000000) " cx="5.2" cy="74" r="5.2"></circle>
                    <circle id="Oval-Copy-158" transform="translate(5.200000, 39.600000) rotate(90.000000) translate(-5.200000, -39.600000) " cx="5.2" cy="39.6" r="5.2"></circle>
                    <circle id="Oval-Copy-157" transform="translate(5.200000, 5.200000) rotate(90.000000) translate(-5.200000, -5.200000) " cx="5.2" cy="5.2" r="5.2"></circle>
                    <circle id="Oval-Copy-155" transform="translate(39.600000, 383.600000) rotate(90.000000) translate(-39.600000, -383.600000) " cx="39.6" cy="383.6" r="5.2"></circle>
                    <circle id="Oval-Copy-154" transform="translate(39.600000, 349.200000) rotate(90.000000) translate(-39.600000, -349.200000) " cx="39.6" cy="349.2" r="5.2"></circle>
                    <circle id="Oval-Copy-153" transform="translate(39.600000, 314.800000) rotate(90.000000) translate(-39.600000, -314.800000) " cx="39.6" cy="314.8" r="5.2"></circle>
                    <circle id="Oval-Copy-152" transform="translate(39.600000, 280.400000) rotate(90.000000) translate(-39.600000, -280.400000) " cx="39.6" cy="280.4" r="5.2"></circle>
                    <circle id="Oval-Copy-151" transform="translate(39.600000, 246.000000) rotate(90.000000) translate(-39.600000, -246.000000) " cx="39.6" cy="246" r="5.2"></circle>
                    <circle id="Oval-Copy-150" transform="translate(39.600000, 211.600000) rotate(90.000000) translate(-39.600000, -211.600000) " cx="39.6" cy="211.6" r="5.2"></circle>
                    <circle id="Oval-Copy-149" transform="translate(39.600000, 177.200000) rotate(90.000000) translate(-39.600000, -177.200000) " cx="39.6" cy="177.2" r="5.2"></circle>
                    <circle id="Oval-Copy-148" transform="translate(39.600000, 142.800000) rotate(90.000000) translate(-39.600000, -142.800000) " cx="39.6" cy="142.8" r="5.2"></circle>
                    <circle id="Oval-Copy-147" transform="translate(39.600000, 108.400000) rotate(90.000000) translate(-39.600000, -108.400000) " cx="39.6" cy="108.4" r="5.2"></circle>
                    <circle id="Oval-Copy-146" transform="translate(39.600000, 74.000000) rotate(90.000000) translate(-39.600000, -74.000000) " cx="39.6" cy="74" r="5.2"></circle>
                    <circle id="Oval-Copy-145" transform="translate(39.600000, 39.600000) rotate(90.000000) translate(-39.600000, -39.600000) " cx="39.6" cy="39.6" r="5.2"></circle>
                    <circle id="Oval-Copy-144" transform="translate(39.600000, 5.200000) rotate(90.000000) translate(-39.600000, -5.200000) " cx="39.6" cy="5.2" r="5.2"></circle>
                    <circle id="Oval-Copy-142" transform="translate(74.000000, 383.600000) rotate(90.000000) translate(-74.000000, -383.600000) " cx="74" cy="383.6" r="5.2"></circle>
                    <circle id="Oval-Copy-141" transform="translate(74.000000, 349.200000) rotate(90.000000) translate(-74.000000, -349.200000) " cx="74" cy="349.2" r="5.2"></circle>
                    <circle id="Oval-Copy-140" transform="translate(74.000000, 314.800000) rotate(90.000000) translate(-74.000000, -314.800000) " cx="74" cy="314.8" r="5.2"></circle>
                    <circle id="Oval-Copy-139" transform="translate(74.000000, 280.400000) rotate(90.000000) translate(-74.000000, -280.400000) " cx="74" cy="280.4" r="5.2"></circle>
                    <circle id="Oval-Copy-138" transform="translate(74.000000, 246.000000) rotate(90.000000) translate(-74.000000, -246.000000) " cx="74" cy="246" r="5.2"></circle>
                    <circle id="Oval-Copy-137" transform="translate(74.000000, 211.600000) rotate(90.000000) translate(-74.000000, -211.600000) " cx="74" cy="211.6" r="5.2"></circle>
                    <circle id="Oval-Copy-136" transform="translate(74.000000, 177.200000) rotate(90.000000) translate(-74.000000, -177.200000) " cx="74" cy="177.2" r="5.2"></circle>
                    <circle id="Oval-Copy-135" transform="translate(74.000000, 142.800000) rotate(90.000000) translate(-74.000000, -142.800000) " cx="74" cy="142.8" r="5.2"></circle>
                    <circle id="Oval-Copy-134" transform="translate(74.000000, 108.400000) rotate(90.000000) translate(-74.000000, -108.400000) " cx="74" cy="108.4" r="5.2"></circle>
                    <circle id="Oval-Copy-133" transform="translate(74.000000, 74.000000) rotate(90.000000) translate(-74.000000, -74.000000) " cx="74" cy="74" r="5.2"></circle>
                    <circle id="Oval-Copy-132" transform="translate(74.000000, 39.600000) rotate(90.000000) translate(-74.000000, -39.600000) " cx="74" cy="39.6" r="5.2"></circle>
                    <circle id="Oval-Copy-131" transform="translate(74.000000, 5.200000) rotate(90.000000) translate(-74.000000, -5.200000) " cx="74" cy="5.2" r="5.2"></circle>
                    <circle id="Oval-Copy-129" transform="translate(108.400000, 383.600000) rotate(90.000000) translate(-108.400000, -383.600000) " cx="108.4" cy="383.6" r="5.2"></circle>
                    <circle id="Oval-Copy-128" transform="translate(108.400000, 349.200000) rotate(90.000000) translate(-108.400000, -349.200000) " cx="108.4" cy="349.2" r="5.2"></circle>
                    <circle id="Oval-Copy-127" transform="translate(108.400000, 314.800000) rotate(90.000000) translate(-108.400000, -314.800000) " cx="108.4" cy="314.8" r="5.2"></circle>
                    <circle id="Oval-Copy-126" transform="translate(108.400000, 280.400000) rotate(90.000000) translate(-108.400000, -280.400000) " cx="108.4" cy="280.4" r="5.2"></circle>
                    <circle id="Oval-Copy-125" transform="translate(108.400000, 246.000000) rotate(90.000000) translate(-108.400000, -246.000000) " cx="108.4" cy="246" r="5.2"></circle>
                    <circle id="Oval-Copy-124" transform="translate(108.400000, 211.600000) rotate(90.000000) translate(-108.400000, -211.600000) " cx="108.4" cy="211.6" r="5.2"></circle>
                    <circle id="Oval-Copy-123" transform="translate(108.400000, 177.200000) rotate(90.000000) translate(-108.400000, -177.200000) " cx="108.4" cy="177.2" r="5.2"></circle>
                    <circle id="Oval-Copy-122" transform="translate(108.400000, 142.800000) rotate(90.000000) translate(-108.400000, -142.800000) " cx="108.4" cy="142.8" r="5.2"></circle>
                    <circle id="Oval-Copy-121" transform="translate(108.400000, 108.400000) rotate(90.000000) translate(-108.400000, -108.400000) " cx="108.4" cy="108.4" r="5.2"></circle>
                    <circle id="Oval-Copy-120" transform="translate(108.400000, 74.000000) rotate(90.000000) translate(-108.400000, -74.000000) " cx="108.4" cy="74" r="5.2"></circle>
                    <circle id="Oval-Copy-119" transform="translate(108.400000, 39.600000) rotate(90.000000) translate(-108.400000, -39.600000) " cx="108.4" cy="39.6" r="5.2"></circle>
                    <circle id="Oval-Copy-118" transform="translate(108.400000, 5.200000) rotate(90.000000) translate(-108.400000, -5.200000) " cx="108.4" cy="5.2" r="5.2"></circle>
                    <circle id="Oval-Copy-116" transform="translate(142.800000, 383.600000) rotate(90.000000) translate(-142.800000, -383.600000) " cx="142.8" cy="383.6" r="5.2"></circle>
                    <circle id="Oval-Copy-115" transform="translate(142.800000, 349.200000) rotate(90.000000) translate(-142.800000, -349.200000) " cx="142.8" cy="349.2" r="5.2"></circle>
                    <circle id="Oval-Copy-114" transform="translate(142.800000, 314.800000) rotate(90.000000) translate(-142.800000, -314.800000) " cx="142.8" cy="314.8" r="5.2"></circle>
                    <circle id="Oval-Copy-113" transform="translate(142.800000, 280.400000) rotate(90.000000) translate(-142.800000, -280.400000) " cx="142.8" cy="280.4" r="5.2"></circle>
                    <circle id="Oval-Copy-112" transform="translate(142.800000, 246.000000) rotate(90.000000) translate(-142.800000, -246.000000) " cx="142.8" cy="246" r="5.2"></circle>
                    <circle id="Oval-Copy-111" transform="translate(142.800000, 211.600000) rotate(90.000000) translate(-142.800000, -211.600000) " cx="142.8" cy="211.6" r="5.2"></circle>
                    <circle id="Oval-Copy-110" transform="translate(142.800000, 177.200000) rotate(90.000000) translate(-142.800000, -177.200000) " cx="142.8" cy="177.2" r="5.2"></circle>
                    <circle id="Oval-Copy-109" transform="translate(142.800000, 142.800000) rotate(90.000000) translate(-142.800000, -142.800000) " cx="142.8" cy="142.8" r="5.2"></circle>
                    <circle id="Oval-Copy-108" transform="translate(142.800000, 108.400000) rotate(90.000000) translate(-142.800000, -108.400000) " cx="142.8" cy="108.4" r="5.2"></circle>
                    <circle id="Oval-Copy-107" transform="translate(142.800000, 74.000000) rotate(90.000000) translate(-142.800000, -74.000000) " cx="142.8" cy="74" r="5.2"></circle>
                    <circle id="Oval-Copy-106" transform="translate(142.800000, 39.600000) rotate(90.000000) translate(-142.800000, -39.600000) " cx="142.8" cy="39.6" r="5.2"></circle>
                    <circle id="Oval-Copy-105" transform="translate(142.800000, 5.200000) rotate(90.000000) translate(-142.800000, -5.200000) " cx="142.8" cy="5.2" r="5.2"></circle>
                    <circle id="Oval-Copy-103" transform="translate(177.200000, 383.600000) rotate(90.000000) translate(-177.200000, -383.600000) " cx="177.2" cy="383.6" r="5.2"></circle>
                    <circle id="Oval-Copy-102" transform="translate(177.200000, 349.200000) rotate(90.000000) translate(-177.200000, -349.200000) " cx="177.2" cy="349.2" r="5.2"></circle>
                    <circle id="Oval-Copy-101" transform="translate(177.200000, 314.800000) rotate(90.000000) translate(-177.200000, -314.800000) " cx="177.2" cy="314.8" r="5.2"></circle>
                    <circle id="Oval-Copy-100" transform="translate(177.200000, 280.400000) rotate(90.000000) translate(-177.200000, -280.400000) " cx="177.2" cy="280.4" r="5.2"></circle>
                    <circle id="Oval-Copy-99" transform="translate(177.200000, 246.000000) rotate(90.000000) translate(-177.200000, -246.000000) " cx="177.2" cy="246" r="5.2"></circle>
                    <circle id="Oval-Copy-98" transform="translate(177.200000, 211.600000) rotate(90.000000) translate(-177.200000, -211.600000) " cx="177.2" cy="211.6" r="5.2"></circle>
                    <circle id="Oval-Copy-97" transform="translate(177.200000, 177.200000) rotate(90.000000) translate(-177.200000, -177.200000) " cx="177.2" cy="177.2" r="5.2"></circle>
                    <circle id="Oval-Copy-96" transform="translate(177.200000, 142.800000) rotate(90.000000) translate(-177.200000, -142.800000) " cx="177.2" cy="142.8" r="5.2"></circle>
                    <circle id="Oval-Copy-95" transform="translate(177.200000, 108.400000) rotate(90.000000) translate(-177.200000, -108.400000) " cx="177.2" cy="108.4" r="5.2"></circle>
                    <circle id="Oval-Copy-94" transform="translate(177.200000, 74.000000) rotate(90.000000) translate(-177.200000, -74.000000) " cx="177.2" cy="74" r="5.2"></circle>
                    <circle id="Oval-Copy-93" transform="translate(177.200000, 39.600000) rotate(90.000000) translate(-177.200000, -39.600000) " cx="177.2" cy="39.6" r="5.2"></circle>
                    <circle id="Oval-Copy-92" transform="translate(177.200000, 5.200000) rotate(90.000000) translate(-177.200000, -5.200000) " cx="177.2" cy="5.2" r="5.2"></circle>
                    <circle id="Oval-Copy-90" transform="translate(211.600000, 383.600000) rotate(90.000000) translate(-211.600000, -383.600000) " cx="211.6" cy="383.6" r="5.2"></circle>
                    <circle id="Oval-Copy-89" transform="translate(211.600000, 349.200000) rotate(90.000000) translate(-211.600000, -349.200000) " cx="211.6" cy="349.2" r="5.2"></circle>
                    <circle id="Oval-Copy-88" transform="translate(211.600000, 314.800000) rotate(90.000000) translate(-211.600000, -314.800000) " cx="211.6" cy="314.8" r="5.2"></circle>
                    <circle id="Oval-Copy-87" transform="translate(211.600000, 280.400000) rotate(90.000000) translate(-211.600000, -280.400000) " cx="211.6" cy="280.4" r="5.2"></circle>
                    <circle id="Oval-Copy-86" transform="translate(211.600000, 246.000000) rotate(90.000000) translate(-211.600000, -246.000000) " cx="211.6" cy="246" r="5.2"></circle>
                    <circle id="Oval-Copy-85" transform="translate(211.600000, 211.600000) rotate(90.000000) translate(-211.600000, -211.600000) " cx="211.6" cy="211.6" r="5.2"></circle>
                    <circle id="Oval-Copy-84" transform="translate(211.600000, 177.200000) rotate(90.000000) translate(-211.600000, -177.200000) " cx="211.6" cy="177.2" r="5.2"></circle>
                    <circle id="Oval-Copy-83" transform="translate(211.600000, 142.800000) rotate(90.000000) translate(-211.600000, -142.800000) " cx="211.6" cy="142.8" r="5.2"></circle>
                    <circle id="Oval-Copy-82" transform="translate(211.600000, 108.400000) rotate(90.000000) translate(-211.600000, -108.400000) " cx="211.6" cy="108.4" r="5.2"></circle>
                    <circle id="Oval-Copy-81" transform="translate(211.600000, 74.000000) rotate(90.000000) translate(-211.600000, -74.000000) " cx="211.6" cy="74" r="5.2"></circle>
                    <circle id="Oval-Copy-80" transform="translate(211.600000, 39.600000) rotate(90.000000) translate(-211.600000, -39.600000) " cx="211.6" cy="39.6" r="5.2"></circle>
                    <circle id="Oval-Copy-79" transform="translate(211.600000, 5.200000) rotate(90.000000) translate(-211.600000, -5.200000) " cx="211.6" cy="5.2" r="5.2"></circle>
                    <circle id="Oval-Copy-77" transform="translate(246.000000, 383.600000) rotate(90.000000) translate(-246.000000, -383.600000) " cx="246" cy="383.6" r="5.2"></circle>
                    <circle id="Oval-Copy-167" transform="translate(252.200000, 349.200000) rotate(90.000000) translate(-252.200000, -349.200000) " cx="252.2" cy="349.2" r="5.2"></circle>
                    <circle id="Oval-Copy-166" transform="translate(252.200000, 314.800000) rotate(90.000000) translate(-252.200000, -314.800000) " cx="252.2" cy="314.8" r="5.2"></circle>
                    <circle id="Oval-Copy-165" transform="translate(252.200000, 280.400000) rotate(90.000000) translate(-252.200000, -280.400000) " cx="252.2" cy="280.4" r="5.2"></circle>
                    <circle id="Oval-Copy-164" transform="translate(252.200000, 246.000000) rotate(90.000000) translate(-252.200000, -246.000000) " cx="252.2" cy="246" r="5.2"></circle>
                    <circle id="Oval-Copy-163" transform="translate(252.200000, 211.600000) rotate(90.000000) translate(-252.200000, -211.600000) " cx="252.2" cy="211.6" r="5.2"></circle>
                    <circle id="Oval-Copy-162" transform="translate(252.200000, 177.200000) rotate(90.000000) translate(-252.200000, -177.200000) " cx="252.2" cy="177.2" r="5.2"></circle>
                    <circle id="Oval-Copy-161" transform="translate(252.200000, 142.800000) rotate(90.000000) translate(-252.200000, -142.800000) " cx="252.2" cy="142.8" r="5.2"></circle>
                    <circle id="Oval-Copy-160" transform="translate(252.200000, 108.400000) rotate(90.000000) translate(-252.200000, -108.400000) " cx="252.2" cy="108.4" r="5.2"></circle>
                    <circle id="Oval-Copy-159" transform="translate(252.200000, 74.000000) rotate(90.000000) translate(-252.200000, -74.000000) " cx="252.2" cy="74" r="5.2"></circle>
                    <circle id="Oval-Copy-158" transform="translate(252.200000, 39.600000) rotate(90.000000) translate(-252.200000, -39.600000) " cx="252.2" cy="39.6" r="5.2"></circle>
                    <circle id="Oval-Copy-157" transform="translate(252.200000, 5.200000) rotate(90.000000) translate(-252.200000, -5.200000) " cx="252.2" cy="5.2" r="5.2"></circle>
                    <circle id="Oval-Copy-155" transform="translate(286.600000, 383.600000) rotate(90.000000) translate(-286.600000, -383.600000) " cx="286.6" cy="383.6" r="5.2"></circle>
                    <circle id="Oval-Copy-154" transform="translate(286.600000, 349.200000) rotate(90.000000) translate(-286.600000, -349.200000) " cx="286.6" cy="349.2" r="5.2"></circle>
                    <circle id="Oval-Copy-153" transform="translate(286.600000, 314.800000) rotate(90.000000) translate(-286.600000, -314.800000) " cx="286.6" cy="314.8" r="5.2"></circle>
                    <circle id="Oval-Copy-152" transform="translate(286.600000, 280.400000) rotate(90.000000) translate(-286.600000, -280.400000) " cx="286.6" cy="280.4" r="5.2"></circle>
                    <circle id="Oval-Copy-151" transform="translate(286.600000, 246.000000) rotate(90.000000) translate(-286.600000, -246.000000) " cx="286.6" cy="246" r="5.2"></circle>
                    <circle id="Oval-Copy-150" transform="translate(286.600000, 211.600000) rotate(90.000000) translate(-286.600000, -211.600000) " cx="286.6" cy="211.6" r="5.2"></circle>
                    <circle id="Oval-Copy-149" transform="translate(286.600000, 177.200000) rotate(90.000000) translate(-286.600000, -177.200000) " cx="286.6" cy="177.2" r="5.2"></circle>
                    <circle id="Oval-Copy-148" transform="translate(286.600000, 142.800000) rotate(90.000000) translate(-286.600000, -142.800000) " cx="286.6" cy="142.8" r="5.2"></circle>
                    <circle id="Oval-Copy-147" transform="translate(286.600000, 108.400000) rotate(90.000000) translate(-286.600000, -108.400000) " cx="286.6" cy="108.4" r="5.2"></circle>
                    <circle id="Oval-Copy-146" transform="translate(286.600000, 74.000000) rotate(90.000000) translate(-286.600000, -74.000000) " cx="286.6" cy="74" r="5.2"></circle>
                    <circle id="Oval-Copy-145" transform="translate(286.600000, 39.600000) rotate(90.000000) translate(-286.600000, -39.600000) " cx="286.6" cy="39.6" r="5.2"></circle>
                    <circle id="Oval-Copy-144" transform="translate(286.600000, 5.200000) rotate(90.000000) translate(-286.600000, -5.200000) " cx="286.6" cy="5.2" r="5.2"></circle>
                    <circle id="Oval-Copy-142" transform="translate(321.000000, 383.600000) rotate(90.000000) translate(-321.000000, -383.600000) " cx="321" cy="383.6" r="5.2"></circle>
                    <circle id="Oval-Copy-141" transform="translate(321.000000, 349.200000) rotate(90.000000) translate(-321.000000, -349.200000) " cx="321" cy="349.2" r="5.2"></circle>
                    <circle id="Oval-Copy-140" transform="translate(321.000000, 314.800000) rotate(90.000000) translate(-321.000000, -314.800000) " cx="321" cy="314.8" r="5.2"></circle>
                    <circle id="Oval-Copy-139" transform="translate(321.000000, 280.400000) rotate(90.000000) translate(-321.000000, -280.400000) " cx="321" cy="280.4" r="5.2"></circle>
                    <circle id="Oval-Copy-138" transform="translate(321.000000, 246.000000) rotate(90.000000) translate(-321.000000, -246.000000) " cx="321" cy="246" r="5.2"></circle>
                    <circle id="Oval-Copy-137" transform="translate(321.000000, 211.600000) rotate(90.000000) translate(-321.000000, -211.600000) " cx="321" cy="211.6" r="5.2"></circle>
                    <circle id="Oval-Copy-136" transform="translate(321.000000, 177.200000) rotate(90.000000) translate(-321.000000, -177.200000) " cx="321" cy="177.2" r="5.2"></circle>
                    <circle id="Oval-Copy-135" transform="translate(321.000000, 142.800000) rotate(90.000000) translate(-321.000000, -142.800000) " cx="321" cy="142.8" r="5.2"></circle>
                    <circle id="Oval-Copy-134" transform="translate(321.000000, 108.400000) rotate(90.000000) translate(-321.000000, -108.400000) " cx="321" cy="108.4" r="5.2"></circle>
                    <circle id="Oval-Copy-133" transform="translate(321.000000, 74.000000) rotate(90.000000) translate(-321.000000, -74.000000) " cx="321" cy="74" r="5.2"></circle>
                    <circle id="Oval-Copy-132" transform="translate(321.000000, 39.600000) rotate(90.000000) translate(-321.000000, -39.600000) " cx="321" cy="39.6" r="5.2"></circle>
                    <circle id="Oval-Copy-131" transform="translate(321.000000, 5.200000) rotate(90.000000) translate(-321.000000, -5.200000) " cx="321" cy="5.2" r="5.2"></circle>
                </g>
            </g>
        </g>
    </g>
</svg>