<?xml version="1.0" encoding="UTF-8"?>
<svg width="252px" height="321px" viewBox="0 0 252 321" version="1.1" xmlns="http://www.w3.org/2000/svg" xmlns:xlink="http://www.w3.org/1999/xlink">
    <title>56922A3C-D086-488C-B495-D53DF79D07A9@3x</title>
    <g id="Main-Page" stroke="none" stroke-width="1" fill="none" fill-rule="evenodd">
        <g id="02-1-2-Pricing" transform="translate(-1650.000000, -210.000000)" fill="#CCB1E6">
            <g id="Start-for-free">
                <g id="Bg-21">
                    <g id="Shape-22" transform="translate(1650.000000, 210.000000)">
                        <circle id="Oval-Copy-164" cx="246" cy="315" r="5.2"></circle>
                        <circle id="Oval-Copy-163" cx="211.6" cy="315" r="5.2"></circle>
                        <circle id="Oval-Copy-162" cx="177.2" cy="315" r="5.2"></circle>
                        <circle id="Oval-Copy-161" cx="142.8" cy="315" r="5.2"></circle>
                        <circle id="Oval-Copy-160" cx="108.4" cy="315" r="5.2"></circle>
                        <circle id="Oval-Copy-159" cx="74" cy="315" r="5.2"></circle>
                        <circle id="Oval-Copy-158" cx="39.6" cy="315" r="5.2"></circle>
                        <circle id="Oval-Copy-157" cx="5.2" cy="315" r="5.2"></circle>
                        <circle id="Oval-Copy-151" cx="246" cy="280.6" r="5.2"></circle>
                        <circle id="Oval-Copy-150" cx="211.6" cy="280.6" r="5.2"></circle>
                        <circle id="Oval-Copy-149" cx="177.2" cy="280.6" r="5.2"></circle>
                        <circle id="Oval-Copy-148" cx="142.8" cy="280.6" r="5.2"></circle>
                        <circle id="Oval-Copy-147" cx="108.4" cy="280.6" r="5.2"></circle>
                        <circle id="Oval-Copy-146" cx="74" cy="280.6" r="5.2"></circle>
                        <circle id="Oval-Copy-145" cx="39.6" cy="280.6" r="5.2"></circle>
                        <circle id="Oval-Copy-144" cx="5.2" cy="280.6" r="5.2"></circle>
                        <circle id="Oval-Copy-138" cx="246" cy="246.2" r="5.2"></circle>
                        <circle id="Oval-Copy-137" cx="211.6" cy="246.2" r="5.2"></circle>
                        <circle id="Oval-Copy-136" cx="177.2" cy="246.2" r="5.2"></circle>
                        <circle id="Oval-Copy-135" cx="142.8" cy="246.2" r="5.2"></circle>
                        <circle id="Oval-Copy-134" cx="108.4" cy="246.2" r="5.2"></circle>
                        <circle id="Oval-Copy-133" cx="74" cy="246.2" r="5.2"></circle>
                        <circle id="Oval-Copy-132" cx="39.6" cy="246.2" r="5.2"></circle>
                        <circle id="Oval-Copy-131" cx="5.2" cy="246.2" r="5.2"></circle>
                        <circle id="Oval-Copy-125" cx="246" cy="211.8" r="5.2"></circle>
                        <circle id="Oval-Copy-124" cx="211.6" cy="211.8" r="5.2"></circle>
                        <circle id="Oval-Copy-123" cx="177.2" cy="211.8" r="5.2"></circle>
                        <circle id="Oval-Copy-122" cx="142.8" cy="211.8" r="5.2"></circle>
                        <circle id="Oval-Copy-121" cx="108.4" cy="211.8" r="5.2"></circle>
                        <circle id="Oval-Copy-120" cx="74" cy="211.8" r="5.2"></circle>
                        <circle id="Oval-Copy-119" cx="39.6" cy="211.8" r="5.2"></circle>
                        <circle id="Oval-Copy-118" cx="5.2" cy="211.8" r="5.2"></circle>
                        <circle id="Oval-Copy-112" cx="246" cy="177.4" r="5.2"></circle>
                        <circle id="Oval-Copy-111" cx="211.6" cy="177.4" r="5.2"></circle>
                        <circle id="Oval-Copy-110" cx="177.2" cy="177.4" r="5.2"></circle>
                        <circle id="Oval-Copy-109" cx="142.8" cy="177.4" r="5.2"></circle>
                        <circle id="Oval-Copy-108" cx="108.4" cy="177.4" r="5.2"></circle>
                        <circle id="Oval-Copy-107" cx="74" cy="177.4" r="5.2"></circle>
                        <circle id="Oval-Copy-106" cx="39.6" cy="177.4" r="5.2"></circle>
                        <circle id="Oval-Copy-105" cx="5.2" cy="177.4" r="5.2"></circle>
                        <circle id="Oval-Copy-99" cx="246" cy="143" r="5.2"></circle>
                        <circle id="Oval-Copy-98" cx="211.6" cy="143" r="5.2"></circle>
                        <circle id="Oval-Copy-97" cx="177.2" cy="143" r="5.2"></circle>
                        <circle id="Oval-Copy-96" cx="142.8" cy="143" r="5.2"></circle>
                        <circle id="Oval-Copy-95" cx="108.4" cy="143" r="5.2"></circle>
                        <circle id="Oval-Copy-94" cx="74" cy="143" r="5.2"></circle>
                        <circle id="Oval-Copy-93" cx="39.6" cy="143" r="5.2"></circle>
                        <circle id="Oval-Copy-92" cx="5.2" cy="143" r="5.2"></circle>
                        <circle id="Oval-Copy-86" cx="246" cy="108.6" r="5.2"></circle>
                        <circle id="Oval-Copy-85" cx="211.6" cy="108.6" r="5.2"></circle>
                        <circle id="Oval-Copy-84" cx="177.2" cy="108.6" r="5.2"></circle>
                        <circle id="Oval-Copy-83" cx="142.8" cy="108.6" r="5.2"></circle>
                        <circle id="Oval-Copy-82" cx="108.4" cy="108.6" r="5.2"></circle>
                        <circle id="Oval-Copy-81" cx="74" cy="108.6" r="5.2"></circle>
                        <circle id="Oval-Copy-80" cx="39.6" cy="108.6" r="5.2"></circle>
                        <circle id="Oval-Copy-79" cx="5.2" cy="108.6" r="5.2"></circle>
                        <circle id="Oval-Copy-164" cx="246" cy="74" r="5.2"></circle>
                        <circle id="Oval-Copy-163" cx="211.6" cy="74" r="5.2"></circle>
                        <circle id="Oval-Copy-162" cx="177.2" cy="74" r="5.2"></circle>
                        <circle id="Oval-Copy-161" cx="142.8" cy="74" r="5.2"></circle>
                        <circle id="Oval-Copy-160" cx="108.4" cy="74" r="5.2"></circle>
                        <circle id="Oval-Copy-159" cx="74" cy="74" r="5.2"></circle>
                        <circle id="Oval-Copy-158" cx="39.6" cy="74" r="5.2"></circle>
                        <circle id="Oval-Copy-157" cx="5.2" cy="74" r="5.2"></circle>
                        <circle id="Oval-Copy-151" cx="246" cy="39.6" r="5.2"></circle>
                        <circle id="Oval-Copy-150" cx="211.6" cy="39.6" r="5.2"></circle>
                        <circle id="Oval-Copy-149" cx="177.2" cy="39.6" r="5.2"></circle>
                        <circle id="Oval-Copy-148" cx="142.8" cy="39.6" r="5.2"></circle>
                        <circle id="Oval-Copy-147" cx="108.4" cy="39.6" r="5.2"></circle>
                        <circle id="Oval-Copy-146" cx="74" cy="39.6" r="5.2"></circle>
                        <circle id="Oval-Copy-145" cx="39.6" cy="39.6" r="5.2"></circle>
                        <circle id="Oval-Copy-144" cx="5.2" cy="39.6" r="5.2"></circle>
                        <circle id="Oval-Copy-138" cx="246" cy="5.2" r="5.2"></circle>
                        <circle id="Oval-Copy-137" cx="211.6" cy="5.2" r="5.2"></circle>
                        <circle id="Oval-Copy-136" cx="177.2" cy="5.2" r="5.2"></circle>
                        <circle id="Oval-Copy-135" cx="142.8" cy="5.2" r="5.2"></circle>
                        <circle id="Oval-Copy-134" cx="108.4" cy="5.2" r="5.2"></circle>
                        <circle id="Oval-Copy-133" cx="74" cy="5.2" r="5.2"></circle>
                        <circle id="Oval-Copy-132" cx="39.6" cy="5.2" r="5.2"></circle>
                        <circle id="Oval-Copy-131" cx="5.2" cy="5.2" r="5.2"></circle>
                    </g>
                </g>
            </g>
        </g>
    </g>
</svg>