<svg xmlns="http://www.w3.org/2000/svg" width="182.6" height="251.2" viewBox="0 0 182.6 251.2">
  <g id="Shape_-_1" data-name="Shape - 1" transform="translate(182.6) rotate(90)">
    <circle id="Oval_Copy_112" data-name="Oval Copy 112" cx="5.2" cy="5.2" r="5.2" transform="translate(240.8 172.2)" fill="#ccb1e6"/>
    <circle id="Oval_Copy_111" data-name="Oval Copy 111" cx="5.2" cy="5.2" r="5.2" transform="translate(206.4 172.2)" fill="#ccb1e6"/>
    <circle id="Oval_Copy_110" data-name="Oval Copy 110" cx="5.2" cy="5.2" r="5.2" transform="translate(172 172.2)" fill="#ccb1e6"/>
    <circle id="Oval_Copy_109" data-name="Oval Copy 109" cx="5.2" cy="5.2" r="5.2" transform="translate(137.6 172.2)" fill="#ccb1e6"/>
    <circle id="Oval_Copy_108" data-name="Oval Copy 108" cx="5.2" cy="5.2" r="5.2" transform="translate(103.2 172.2)" fill="#ccb1e6"/>
    <circle id="Oval_Copy_107" data-name="Oval Copy 107" cx="5.2" cy="5.2" r="5.2" transform="translate(68.8 172.2)" fill="#ccb1e6"/>
    <circle id="Oval_Copy_106" data-name="Oval Copy 106" cx="5.2" cy="5.2" r="5.2" transform="translate(34.4 172.2)" fill="#ccb1e6"/>
    <circle id="Oval_Copy_105" data-name="Oval Copy 105" cx="5.2" cy="5.2" r="5.2" transform="translate(0 172.2)" fill="#ccb1e6"/>
    <circle id="Oval_Copy_99" data-name="Oval Copy 99" cx="5.2" cy="5.2" r="5.2" transform="translate(240.8 137.8)" fill="#ccb1e6"/>
    <circle id="Oval_Copy_98" data-name="Oval Copy 98" cx="5.2" cy="5.2" r="5.2" transform="translate(206.4 137.8)" fill="#ccb1e6"/>
    <circle id="Oval_Copy_97" data-name="Oval Copy 97" cx="5.2" cy="5.2" r="5.2" transform="translate(172 137.8)" fill="#ccb1e6"/>
    <circle id="Oval_Copy_96" data-name="Oval Copy 96" cx="5.2" cy="5.2" r="5.2" transform="translate(137.6 137.8)" fill="#ccb1e6"/>
    <circle id="Oval_Copy_95" data-name="Oval Copy 95" cx="5.2" cy="5.2" r="5.2" transform="translate(103.2 137.8)" fill="#ccb1e6"/>
    <circle id="Oval_Copy_94" data-name="Oval Copy 94" cx="5.2" cy="5.2" r="5.2" transform="translate(68.8 137.8)" fill="#ccb1e6"/>
    <circle id="Oval_Copy_93" data-name="Oval Copy 93" cx="5.2" cy="5.2" r="5.2" transform="translate(34.4 137.8)" fill="#ccb1e6"/>
    <circle id="Oval_Copy_92" data-name="Oval Copy 92" cx="5.2" cy="5.2" r="5.2" transform="translate(0 137.8)" fill="#ccb1e6"/>
    <circle id="Oval_Copy_86" data-name="Oval Copy 86" cx="5.2" cy="5.2" r="5.2" transform="translate(240.8 103.4)" fill="#ccb1e6"/>
    <circle id="Oval_Copy_85" data-name="Oval Copy 85" cx="5.2" cy="5.2" r="5.2" transform="translate(206.4 103.4)" fill="#ccb1e6"/>
    <circle id="Oval_Copy_84" data-name="Oval Copy 84" cx="5.2" cy="5.2" r="5.2" transform="translate(172 103.4)" fill="#ccb1e6"/>
    <circle id="Oval_Copy_83" data-name="Oval Copy 83" cx="5.2" cy="5.2" r="5.2" transform="translate(137.6 103.4)" fill="#ccb1e6"/>
    <circle id="Oval_Copy_82" data-name="Oval Copy 82" cx="5.2" cy="5.2" r="5.2" transform="translate(103.2 103.4)" fill="#ccb1e6"/>
    <circle id="Oval_Copy_81" data-name="Oval Copy 81" cx="5.2" cy="5.2" r="5.2" transform="translate(68.8 103.4)" fill="#ccb1e6"/>
    <circle id="Oval_Copy_80" data-name="Oval Copy 80" cx="5.2" cy="5.2" r="5.2" transform="translate(34.4 103.4)" fill="#ccb1e6"/>
    <circle id="Oval_Copy_79" data-name="Oval Copy 79" cx="5.2" cy="5.2" r="5.2" transform="translate(0 103.4)" fill="#ccb1e6"/>
    <circle id="Oval_Copy_164" data-name="Oval Copy 164" cx="5.2" cy="5.2" r="5.2" transform="translate(240.8 68.8)" fill="#ccb1e6"/>
    <circle id="Oval_Copy_163" data-name="Oval Copy 163" cx="5.2" cy="5.2" r="5.2" transform="translate(206.4 68.8)" fill="#ccb1e6"/>
    <circle id="Oval_Copy_162" data-name="Oval Copy 162" cx="5.2" cy="5.2" r="5.2" transform="translate(172 68.8)" fill="#ccb1e6"/>
    <circle id="Oval_Copy_161" data-name="Oval Copy 161" cx="5.2" cy="5.2" r="5.2" transform="translate(137.6 68.8)" fill="#ccb1e6"/>
    <circle id="Oval_Copy_160" data-name="Oval Copy 160" cx="5.2" cy="5.2" r="5.2" transform="translate(103.2 68.8)" fill="#ccb1e6"/>
    <circle id="Oval_Copy_159" data-name="Oval Copy 159" cx="5.2" cy="5.2" r="5.2" transform="translate(68.8 68.8)" fill="#ccb1e6"/>
    <circle id="Oval_Copy_158" data-name="Oval Copy 158" cx="5.2" cy="5.2" r="5.2" transform="translate(34.4 68.8)" fill="#ccb1e6"/>
    <circle id="Oval_Copy_157" data-name="Oval Copy 157" cx="5.2" cy="5.2" r="5.2" transform="translate(0 68.8)" fill="#ccb1e6"/>
    <circle id="Oval_Copy_151" data-name="Oval Copy 151" cx="5.2" cy="5.2" r="5.2" transform="translate(240.8 34.4)" fill="#ccb1e6"/>
    <circle id="Oval_Copy_150" data-name="Oval Copy 150" cx="5.2" cy="5.2" r="5.2" transform="translate(206.4 34.4)" fill="#ccb1e6"/>
    <circle id="Oval_Copy_149" data-name="Oval Copy 149" cx="5.2" cy="5.2" r="5.2" transform="translate(172 34.4)" fill="#ccb1e6"/>
    <circle id="Oval_Copy_148" data-name="Oval Copy 148" cx="5.2" cy="5.2" r="5.2" transform="translate(137.6 34.4)" fill="#ccb1e6"/>
    <circle id="Oval_Copy_147" data-name="Oval Copy 147" cx="5.2" cy="5.2" r="5.2" transform="translate(103.2 34.4)" fill="#ccb1e6"/>
    <circle id="Oval_Copy_146" data-name="Oval Copy 146" cx="5.2" cy="5.2" r="5.2" transform="translate(68.8 34.4)" fill="#ccb1e6"/>
    <circle id="Oval_Copy_145" data-name="Oval Copy 145" cx="5.2" cy="5.2" r="5.2" transform="translate(34.4 34.4)" fill="#ccb1e6"/>
    <circle id="Oval_Copy_144" data-name="Oval Copy 144" cx="5.2" cy="5.2" r="5.2" transform="translate(0 34.4)" fill="#ccb1e6"/>
    <circle id="Oval_Copy_138" data-name="Oval Copy 138" cx="5.2" cy="5.2" r="5.2" transform="translate(240.8 0)" fill="#ccb1e6"/>
    <circle id="Oval_Copy_137" data-name="Oval Copy 137" cx="5.2" cy="5.2" r="5.2" transform="translate(206.4 0)" fill="#ccb1e6"/>
    <circle id="Oval_Copy_136" data-name="Oval Copy 136" cx="5.2" cy="5.2" r="5.2" transform="translate(172 0)" fill="#ccb1e6"/>
    <circle id="Oval_Copy_135" data-name="Oval Copy 135" cx="5.2" cy="5.2" r="5.2" transform="translate(137.6 0)" fill="#ccb1e6"/>
    <circle id="Oval_Copy_134" data-name="Oval Copy 134" cx="5.2" cy="5.2" r="5.2" transform="translate(103.2 0)" fill="#ccb1e6"/>
    <circle id="Oval_Copy_133" data-name="Oval Copy 133" cx="5.2" cy="5.2" r="5.2" transform="translate(68.8 0)" fill="#ccb1e6"/>
    <circle id="Oval_Copy_132" data-name="Oval Copy 132" cx="5.2" cy="5.2" r="5.2" transform="translate(34.4 0)" fill="#ccb1e6"/>
    <circle id="Oval_Copy_131" data-name="Oval Copy 131" cx="5.2" cy="5.2" r="5.2" transform="translate(0 0)" fill="#ccb1e6"/>
  </g>
</svg>
