<?xml version="1.0" encoding="UTF-8"?>
<svg width="184px" height="424px" viewBox="0 0 184 424" version="1.1" xmlns="http://www.w3.org/2000/svg" xmlns:xlink="http://www.w3.org/1999/xlink">
    <title>CCFCFCD9-C88D-474B-9DFF-9148DD24A335@3x</title>
    <g id="Main-Page" stroke="none" stroke-width="1" fill="none" fill-rule="evenodd">
        <g id="08-1-1-Scraping-&amp;-Integration-Tutorials" transform="translate(-21.000000, -1676.000000)" fill="#F5F5FC">
            <g id="Shape---4" transform="translate(21.000000, 1676.000000)">
                <circle id="Oval-Copy-169" cx="178" cy="418" r="5.2"></circle>
                <circle id="Oval-Copy-168" cx="143.6" cy="418" r="5.2"></circle>
                <circle id="Oval-Copy-167" cx="109.2" cy="418" r="5.2"></circle>
                <circle id="Oval-Copy-166" cx="74.8" cy="418" r="5.2"></circle>
                <circle id="Oval-Copy-165" cx="40.4" cy="418" r="5.2"></circle>
                <circle id="Oval-Copy-164" cx="6" cy="418" r="5.2"></circle>
                <circle id="Oval-Copy-156" cx="178" cy="383.6" r="5.2"></circle>
                <circle id="Oval-Copy-155" cx="143.6" cy="383.6" r="5.2"></circle>
                <circle id="Oval-Copy-154" cx="109.2" cy="383.6" r="5.2"></circle>
                <circle id="Oval-Copy-153" cx="74.8" cy="383.6" r="5.2"></circle>
                <circle id="Oval-Copy-152" cx="40.4" cy="383.6" r="5.2"></circle>
                <circle id="Oval-Copy-151" cx="6" cy="383.6" r="5.2"></circle>
                <circle id="Oval-Copy-143" cx="178" cy="349.2" r="5.2"></circle>
                <circle id="Oval-Copy-142" cx="143.6" cy="349.2" r="5.2"></circle>
                <circle id="Oval-Copy-141" cx="109.2" cy="349.2" r="5.2"></circle>
                <circle id="Oval-Copy-140" cx="74.8" cy="349.2" r="5.2"></circle>
                <circle id="Oval-Copy-139" cx="40.4" cy="349.2" r="5.2"></circle>
                <circle id="Oval-Copy-138" cx="6" cy="349.2" r="5.2"></circle>
                <circle id="Oval-Copy-130" cx="178" cy="314.8" r="5.2"></circle>
                <circle id="Oval-Copy-129" cx="143.6" cy="314.8" r="5.2"></circle>
                <circle id="Oval-Copy-128" cx="109.2" cy="314.8" r="5.2"></circle>
                <circle id="Oval-Copy-127" cx="74.8" cy="314.8" r="5.2"></circle>
                <circle id="Oval-Copy-126" cx="40.4" cy="314.8" r="5.2"></circle>
                <circle id="Oval-Copy-125" cx="6" cy="314.8" r="5.2"></circle>
                <circle id="Oval-Copy-117" cx="178" cy="280.4" r="5.2"></circle>
                <circle id="Oval-Copy-116" cx="143.6" cy="280.4" r="5.2"></circle>
                <circle id="Oval-Copy-115" cx="109.2" cy="280.4" r="5.2"></circle>
                <circle id="Oval-Copy-114" cx="74.8" cy="280.4" r="5.2"></circle>
                <circle id="Oval-Copy-113" cx="40.4" cy="280.4" r="5.2"></circle>
                <circle id="Oval-Copy-112" cx="6" cy="280.4" r="5.2"></circle>
                <circle id="Oval-Copy-104" cx="178" cy="246" r="5.2"></circle>
                <circle id="Oval-Copy-103" cx="143.6" cy="246" r="5.2"></circle>
                <circle id="Oval-Copy-102" cx="109.2" cy="246" r="5.2"></circle>
                <circle id="Oval-Copy-101" cx="74.8" cy="246" r="5.2"></circle>
                <circle id="Oval-Copy-100" cx="40.4" cy="246" r="5.2"></circle>
                <circle id="Oval-Copy-99" cx="6" cy="246" r="5.2"></circle>
                <circle id="Oval-Copy-91" cx="178" cy="211.6" r="5.2"></circle>
                <circle id="Oval-Copy-90" cx="143.6" cy="211.6" r="5.2"></circle>
                <circle id="Oval-Copy-89" cx="109.2" cy="211.6" r="5.2"></circle>
                <circle id="Oval-Copy-88" cx="74.8" cy="211.6" r="5.2"></circle>
                <circle id="Oval-Copy-87" cx="40.4" cy="211.6" r="5.2"></circle>
                <circle id="Oval-Copy-86" cx="6" cy="211.6" r="5.2"></circle>
                <circle id="Oval-Copy-78" cx="178" cy="177.2" r="5.2"></circle>
                <circle id="Oval-Copy-77" cx="143.6" cy="177.2" r="5.2"></circle>
                <circle id="Oval-Copy-76" cx="109.2" cy="177.2" r="5.2"></circle>
                <circle id="Oval-Copy-75" cx="74.8" cy="177.2" r="5.2"></circle>
                <circle id="Oval-Copy-74" cx="40.4" cy="177.2" r="5.2"></circle>
                <circle id="Oval-Copy-73" cx="6" cy="177.2" r="5.2"></circle>
                <circle id="Oval-Copy-65" cx="178" cy="142.8" r="5.2"></circle>
                <circle id="Oval-Copy-64" cx="143.6" cy="142.8" r="5.2"></circle>
                <circle id="Oval-Copy-63" cx="109.2" cy="142.8" r="5.2"></circle>
                <circle id="Oval-Copy-62" cx="74.8" cy="142.8" r="5.2"></circle>
                <circle id="Oval-Copy-61" cx="40.4" cy="142.8" r="5.2"></circle>
                <circle id="Oval-Copy-60" cx="6" cy="142.8" r="5.2"></circle>
                <circle id="Oval-Copy-52" cx="178" cy="108.4" r="5.2"></circle>
                <circle id="Oval-Copy-51" cx="143.6" cy="108.4" r="5.2"></circle>
                <circle id="Oval-Copy-50" cx="109.2" cy="108.4" r="5.2"></circle>
                <circle id="Oval-Copy-49" cx="74.8" cy="108.4" r="5.2"></circle>
                <circle id="Oval-Copy-48" cx="40.4" cy="108.4" r="5.2"></circle>
                <circle id="Oval-Copy-47" cx="6" cy="108.4" r="5.2"></circle>
                <circle id="Oval-Copy-39" cx="178" cy="74" r="5.2"></circle>
                <circle id="Oval-Copy-38" cx="143.6" cy="74" r="5.2"></circle>
                <circle id="Oval-Copy-37" cx="109.2" cy="74" r="5.2"></circle>
                <circle id="Oval-Copy-36" cx="74.8" cy="74" r="5.2"></circle>
                <circle id="Oval-Copy-35" cx="40.4" cy="74" r="5.2"></circle>
                <circle id="Oval-Copy-34" cx="6" cy="74" r="5.2"></circle>
                <circle id="Oval-Copy-26" cx="178" cy="39.6" r="5.2"></circle>
                <circle id="Oval-Copy-25" cx="143.6" cy="39.6" r="5.2"></circle>
                <circle id="Oval-Copy-24" cx="109.2" cy="39.6" r="5.2"></circle>
                <circle id="Oval-Copy-23" cx="74.8" cy="39.6" r="5.2"></circle>
                <circle id="Oval-Copy-22" cx="40.4" cy="39.6" r="5.2"></circle>
                <circle id="Oval-Copy-21" cx="6" cy="39.6" r="5.2"></circle>
                <circle id="Oval-Copy-13" cx="178" cy="5.2" r="5.2"></circle>
                <circle id="Oval-Copy-12" cx="143.6" cy="5.2" r="5.2"></circle>
                <circle id="Oval-Copy-11" cx="109.2" cy="5.2" r="5.2"></circle>
                <circle id="Oval-Copy-10" cx="74.8" cy="5.2" r="5.2"></circle>
                <circle id="Oval-Copy-9" cx="40.4" cy="5.2" r="5.2"></circle>
                <circle id="Oval-Copy-8" cx="6" cy="5.2" r="5.2"></circle>
            </g>
        </g>
    </g>
</svg>