<svg xmlns="http://www.w3.org/2000/svg" width="148" height="251.2" viewBox="0 0 148 251.2">
  <g id="Shape_-_2" data-name="Shape - 2" transform="translate(148.2) rotate(90)">
    <circle id="Oval_Copy_164" data-name="Oval Copy 164" cx="5.2" cy="5.2" r="5.2" transform="translate(240.8 137.8)" fill="#ccb1e6"/>
    <circle id="Oval_Copy_163" data-name="Oval Copy 163" cx="5.2" cy="5.2" r="5.2" transform="translate(206.4 137.8)" fill="#ccb1e6"/>
    <circle id="Oval_Copy_162" data-name="Oval Copy 162" cx="5.2" cy="5.2" r="5.2" transform="translate(172 137.8)" fill="#ccb1e6"/>
    <circle id="Oval_Copy_161" data-name="Oval Copy 161" cx="5.2" cy="5.2" r="5.2" transform="translate(137.6 137.8)" fill="#ccb1e6"/>
    <circle id="Oval_Copy_160" data-name="Oval Copy 160" cx="5.2" cy="5.2" r="5.2" transform="translate(103.2 137.8)" fill="#ccb1e6"/>
    <circle id="Oval_Copy_159" data-name="Oval Copy 159" cx="5.2" cy="5.2" r="5.2" transform="translate(68.8 137.8)" fill="#ccb1e6"/>
    <circle id="Oval_Copy_158" data-name="Oval Copy 158" cx="5.2" cy="5.2" r="5.2" transform="translate(34.4 137.8)" fill="#ccb1e6"/>
    <circle id="Oval_Copy_157" data-name="Oval Copy 157" cx="5.2" cy="5.2" r="5.2" transform="translate(0 137.8)" fill="#ccb1e6"/>
    <circle id="Oval_Copy_151" data-name="Oval Copy 151" cx="5.2" cy="5.2" r="5.2" transform="translate(240.8 103.4)" fill="#ccb1e6"/>
    <circle id="Oval_Copy_150" data-name="Oval Copy 150" cx="5.2" cy="5.2" r="5.2" transform="translate(206.4 103.4)" fill="#ccb1e6"/>
    <circle id="Oval_Copy_149" data-name="Oval Copy 149" cx="5.2" cy="5.2" r="5.2" transform="translate(172 103.4)" fill="#ccb1e6"/>
    <circle id="Oval_Copy_148" data-name="Oval Copy 148" cx="5.2" cy="5.2" r="5.2" transform="translate(137.6 103.4)" fill="#ccb1e6"/>
    <circle id="Oval_Copy_147" data-name="Oval Copy 147" cx="5.2" cy="5.2" r="5.2" transform="translate(103.2 103.4)" fill="#ccb1e6"/>
    <circle id="Oval_Copy_146" data-name="Oval Copy 146" cx="5.2" cy="5.2" r="5.2" transform="translate(68.8 103.4)" fill="#ccb1e6"/>
    <circle id="Oval_Copy_145" data-name="Oval Copy 145" cx="5.2" cy="5.2" r="5.2" transform="translate(34.4 103.4)" fill="#ccb1e6"/>
    <circle id="Oval_Copy_144" data-name="Oval Copy 144" cx="5.2" cy="5.2" r="5.2" transform="translate(0 103.4)" fill="#ccb1e6"/>
    <circle id="Oval_Copy_138" data-name="Oval Copy 138" cx="5.2" cy="5.2" r="5.2" transform="translate(240.8 69)" fill="#ccb1e6"/>
    <circle id="Oval_Copy_137" data-name="Oval Copy 137" cx="5.2" cy="5.2" r="5.2" transform="translate(206.4 69)" fill="#ccb1e6"/>
    <circle id="Oval_Copy_136" data-name="Oval Copy 136" cx="5.2" cy="5.2" r="5.2" transform="translate(172 69)" fill="#ccb1e6"/>
    <circle id="Oval_Copy_135" data-name="Oval Copy 135" cx="5.2" cy="5.2" r="5.2" transform="translate(137.6 69)" fill="#ccb1e6"/>
    <circle id="Oval_Copy_134" data-name="Oval Copy 134" cx="5.2" cy="5.2" r="5.2" transform="translate(103.2 69)" fill="#ccb1e6"/>
    <circle id="Oval_Copy_133" data-name="Oval Copy 133" cx="5.2" cy="5.2" r="5.2" transform="translate(68.8 69)" fill="#ccb1e6"/>
    <circle id="Oval_Copy_132" data-name="Oval Copy 132" cx="5.2" cy="5.2" r="5.2" transform="translate(34.4 69)" fill="#ccb1e6"/>
    <circle id="Oval_Copy_131" data-name="Oval Copy 131" cx="5.2" cy="5.2" r="5.2" transform="translate(0 69)" fill="#ccb1e6"/>
    <circle id="Oval_Copy_125" data-name="Oval Copy 125" cx="5.2" cy="5.2" r="5.2" transform="translate(240.8 34.6)" fill="#ccb1e6"/>
    <circle id="Oval_Copy_124" data-name="Oval Copy 124" cx="5.2" cy="5.2" r="5.2" transform="translate(206.4 34.6)" fill="#ccb1e6"/>
    <circle id="Oval_Copy_123" data-name="Oval Copy 123" cx="5.2" cy="5.2" r="5.2" transform="translate(172 34.6)" fill="#ccb1e6"/>
    <circle id="Oval_Copy_122" data-name="Oval Copy 122" cx="5.2" cy="5.2" r="5.2" transform="translate(137.6 34.6)" fill="#ccb1e6"/>
    <circle id="Oval_Copy_121" data-name="Oval Copy 121" cx="5.2" cy="5.2" r="5.2" transform="translate(103.2 34.6)" fill="#ccb1e6"/>
    <circle id="Oval_Copy_120" data-name="Oval Copy 120" cx="5.2" cy="5.2" r="5.2" transform="translate(68.8 34.6)" fill="#ccb1e6"/>
    <circle id="Oval_Copy_119" data-name="Oval Copy 119" cx="5.2" cy="5.2" r="5.2" transform="translate(34.4 34.6)" fill="#ccb1e6"/>
    <circle id="Oval_Copy_118" data-name="Oval Copy 118" cx="5.2" cy="5.2" r="5.2" transform="translate(0 34.6)" fill="#ccb1e6"/>
    <circle id="Oval_Copy_112" data-name="Oval Copy 112" cx="5.2" cy="5.2" r="5.2" transform="translate(240.8 0.2)" fill="#ccb1e6"/>
    <circle id="Oval_Copy_111" data-name="Oval Copy 111" cx="5.2" cy="5.2" r="5.2" transform="translate(206.4 0.2)" fill="#ccb1e6"/>
    <circle id="Oval_Copy_110" data-name="Oval Copy 110" cx="5.2" cy="5.2" r="5.2" transform="translate(172 0.2)" fill="#ccb1e6"/>
    <circle id="Oval_Copy_109" data-name="Oval Copy 109" cx="5.2" cy="5.2" r="5.2" transform="translate(137.6 0.2)" fill="#ccb1e6"/>
    <circle id="Oval_Copy_108" data-name="Oval Copy 108" cx="5.2" cy="5.2" r="5.2" transform="translate(103.2 0.2)" fill="#ccb1e6"/>
    <circle id="Oval_Copy_107" data-name="Oval Copy 107" cx="5.2" cy="5.2" r="5.2" transform="translate(68.8 0.2)" fill="#ccb1e6"/>
    <circle id="Oval_Copy_106" data-name="Oval Copy 106" cx="5.2" cy="5.2" r="5.2" transform="translate(34.4 0.2)" fill="#ccb1e6"/>
    <circle id="Oval_Copy_105" data-name="Oval Copy 105" cx="5.2" cy="5.2" r="5.2" transform="translate(0 0.2)" fill="#ccb1e6"/>
  </g>
</svg>
