<?xml version="1.0" encoding="utf-8"?>
<!-- Generator: Adobe Illustrator 24.1.1, SVG Export Plug-In . SVG Version: 6.00 Build 0)  -->
<svg version="1.1" xmlns="http://www.w3.org/2000/svg" xmlns:xlink="http://www.w3.org/1999/xlink" x="0px" y="0px"
	 viewBox="0 0 48 48" style="enable-background:new 0 0 48 48;" xml:space="preserve">
<style type="text/css">
	.st0{display:none;}
	.st1{display:inline;}
	.st2{fill:none;}
	.st3{fill:none;stroke:#5702AF;stroke-width:2.4;}
	.st4{enable-background:new    ;}
	.st5{fill:#5702AF;}
	.st6{fill:none;stroke:#5702AF;stroke-width:1.8;stroke-linecap:round;}
	.st7{fill:#00CCCC;}
	.st8{fill:none;stroke:#FF6813;stroke-width:1.8;stroke-linecap:round;}
</style>
<g id="Layer_1" class="st0">
	<g id="Main-Page" class="st1">
		<g id="_x30_2-1-2-Pricing" transform="translate(-769.000000, -3129.000000)">
			<g id="Additional-Functionality" transform="translate(364.000000, 3007.000000)">
				<g id="JS-Rendering" transform="translate(405.000000, 122.000000)">
					<g id="Ico-2">
						<g id="Group-60">
							<rect id="Rectangle" y="0" class="st2" width="48" height="48"/>
						</g>
						<g id="Group-43" transform="translate(9.000000, 8.000000)">
							<path id="Rectangle_1_" class="st3" d="M4.2,1.2h18.6c1.7,0,3,1.3,3,3v24.6c0,1.7-1.3,3-3,3H4.2c-1.7,0-3-1.3-3-3V4.2
								C1.2,2.5,2.5,1.2,4.2,1.2z"/>
							<g>
								<g class="st4">
									<path class="st5" d="M10.3,21.5h0.8v4.7c0,0.4-0.1,0.8-0.2,1.1c-0.2,0.3-0.4,0.5-0.6,0.7s-0.6,0.2-1,0.2
										c-0.4,0-0.7-0.1-1-0.2c-0.3-0.1-0.5-0.3-0.7-0.6s-0.2-0.5-0.2-0.9h0.8c0,0.2,0,0.3,0.1,0.5s0.2,0.2,0.4,0.3
										c0.2,0.1,0.3,0.1,0.6,0.1c0.2,0,0.4,0,0.6-0.1c0.2-0.1,0.3-0.2,0.4-0.4c0.1-0.2,0.1-0.4,0.1-0.7V21.5z"/>
									<path class="st5" d="M16.3,23.1c0-0.3-0.2-0.6-0.5-0.8c-0.3-0.2-0.6-0.3-1-0.3c-0.3,0-0.5,0-0.8,0.1s-0.4,0.2-0.5,0.4
										c-0.1,0.2-0.2,0.4-0.2,0.6c0,0.2,0,0.3,0.1,0.4c0.1,0.1,0.2,0.2,0.3,0.3c0.1,0.1,0.3,0.1,0.4,0.2c0.1,0.1,0.3,0.1,0.4,0.1
										l0.7,0.2c0.2,0,0.4,0.1,0.6,0.2c0.2,0.1,0.4,0.2,0.6,0.3c0.2,0.1,0.4,0.3,0.5,0.5c0.1,0.2,0.2,0.5,0.2,0.8
										c0,0.4-0.1,0.7-0.3,1c-0.2,0.3-0.5,0.5-0.8,0.7c-0.4,0.2-0.8,0.3-1.3,0.3c-0.5,0-0.9-0.1-1.2-0.2c-0.3-0.2-0.6-0.4-0.8-0.6
										c-0.2-0.3-0.3-0.6-0.3-0.9h0.8c0,0.2,0.1,0.5,0.3,0.6c0.1,0.2,0.3,0.3,0.6,0.4c0.2,0.1,0.5,0.1,0.7,0.1
										c0.3,0,0.6,0,0.8-0.1c0.2-0.1,0.4-0.2,0.6-0.4s0.2-0.4,0.2-0.6c0-0.2-0.1-0.4-0.2-0.5c-0.1-0.1-0.3-0.2-0.5-0.3
										c-0.2-0.1-0.4-0.2-0.6-0.2l-0.8-0.2c-0.5-0.1-0.9-0.4-1.2-0.6s-0.4-0.6-0.4-1.1c0-0.4,0.1-0.7,0.3-1
										c0.2-0.3,0.5-0.5,0.8-0.6c0.3-0.2,0.7-0.2,1.1-0.2c0.4,0,0.8,0.1,1.1,0.2c0.3,0.1,0.6,0.4,0.8,0.6c0.2,0.3,0.3,0.6,0.3,0.9
										H16.3z"/>
								</g>
							</g>
							<path id="Path-11" class="st6" d="M9.8,6H9.5C8.6,6,8.1,6.6,8.1,7.7c0,1,0.2,1.5-0.2,2.3c-0.4,0.8-1.1,0.7-0.9,0.9
								C7.2,11.1,8,11.2,8.1,12c0.1,0.5,0.1,1.3,0,2.2C8.2,15,8.5,15.4,9,15.4s0.7,0,0.5,0h0.3"/>
							<path id="Path-11_1_" class="st6" d="M17,6h0.3c0.9,0,1.4,0.5,1.4,1.6c0,1-0.2,1.5,0.2,2.3s1.1,0.7,0.9,0.9
								c-0.2,0.2-0.9,0.4-1.1,1.1c-0.1,0.5-0.1,1.3,0,2.2c-0.1,0.8-0.4,1.2-0.9,1.2s-0.7,0-0.5,0H17"/>
						</g>
					</g>
				</g>
			</g>
		</g>
	</g>
</g>
<g id="Layer_2">
	<g id="Main-Page_1_">
		<g id="_x30_2-1-2-Pricing_1_" transform="translate(-769.000000, -3129.000000)">
			<g id="Additional-Functionality_1_" transform="translate(364.000000, 3007.000000)">
				<g id="JS-Rendering_1_" transform="translate(405.000000, 122.000000)">
					<g id="Ico-2_1_">
						<g id="Group-60_1_">
							<rect id="Rectangle_3_" x="0.5" y="0" class="st2" width="48" height="48"/>
						</g>
						<g id="Group-43_1_" transform="translate(9.000000, 8.000000)">
							<path id="Rectangle_2_" class="st3" d="M4.7,1.2h18.6c1.7,0,3,1.3,3,3v24.6c0,1.7-1.3,3-3,3H4.7c-1.7,0-3-1.3-3-3V4.2
								C1.7,2.5,3,1.2,4.7,1.2z"/>
							<g>
								<g class="st4">
									<path class="st7" d="M10.8,21.5h0.8v4.7c0,0.4-0.1,0.8-0.2,1.1c-0.2,0.3-0.4,0.5-0.6,0.7s-0.6,0.2-1,0.2
										c-0.4,0-0.7-0.1-1-0.2c-0.3-0.1-0.5-0.3-0.7-0.6s-0.2-0.5-0.2-0.9h0.8c0,0.2,0,0.3,0.1,0.5s0.2,0.2,0.4,0.3
										c0.2,0.1,0.3,0.1,0.6,0.1c0.2,0,0.4,0,0.6-0.1c0.2-0.1,0.3-0.2,0.4-0.4c0.1-0.2,0.1-0.4,0.1-0.7V21.5z"/>
									<path class="st7" d="M16.8,23.1c0-0.3-0.2-0.6-0.5-0.8c-0.3-0.2-0.6-0.3-1-0.3c-0.3,0-0.5,0-0.8,0.1s-0.4,0.2-0.5,0.4
										c-0.1,0.2-0.2,0.4-0.2,0.6c0,0.2,0,0.3,0.1,0.4c0.1,0.1,0.2,0.2,0.3,0.3c0.1,0.1,0.3,0.1,0.4,0.2c0.1,0.1,0.3,0.1,0.4,0.1
										l0.7,0.2c0.2,0,0.4,0.1,0.6,0.2c0.2,0.1,0.4,0.2,0.6,0.3c0.2,0.1,0.4,0.3,0.5,0.5c0.1,0.2,0.2,0.5,0.2,0.8
										c0,0.4-0.1,0.7-0.3,1c-0.2,0.3-0.5,0.5-0.8,0.7c-0.4,0.2-0.8,0.3-1.3,0.3c-0.5,0-0.9-0.1-1.2-0.2c-0.3-0.2-0.6-0.4-0.8-0.6
										c-0.2-0.3-0.3-0.6-0.3-0.9h0.8c0,0.2,0.1,0.5,0.3,0.6c0.1,0.2,0.3,0.3,0.6,0.4c0.2,0.1,0.5,0.1,0.7,0.1
										c0.3,0,0.6,0,0.8-0.1c0.2-0.1,0.4-0.2,0.6-0.4s0.2-0.4,0.2-0.6c0-0.2-0.1-0.4-0.2-0.5c-0.1-0.1-0.3-0.2-0.5-0.3
										c-0.2-0.1-0.4-0.2-0.6-0.2l-0.8-0.2c-0.5-0.1-0.9-0.4-1.2-0.6s-0.4-0.6-0.4-1.1c0-0.4,0.1-0.7,0.3-1
										c0.2-0.3,0.5-0.5,0.8-0.6c0.3-0.2,0.7-0.2,1.1-0.2c0.4,0,0.8,0.1,1.1,0.2c0.3,0.1,0.6,0.4,0.8,0.6c0.2,0.3,0.3,0.6,0.3,0.9
										H16.8z"/>
								</g>
							</g>
							<path id="Path-11_3_" class="st8" d="M10.3,6H10C9.1,6,8.6,6.6,8.6,7.7c0,1,0.2,1.5-0.2,2.3c-0.4,0.8-1.1,0.7-0.9,0.9
								c0.2,0.2,0.9,0.4,1.1,1.1c0.1,0.5,0.1,1.3,0,2.2C8.7,15,9,15.4,9.5,15.4s0.7,0,0.5,0h0.3"/>
							<path id="Path-11_2_" class="st8" d="M17.5,6h0.3c0.9,0,1.4,0.5,1.4,1.6c0,1-0.2,1.5,0.2,2.3s1.1,0.7,0.9,0.9
								c-0.2,0.2-0.9,0.4-1.1,1.1c-0.1,0.5-0.1,1.3,0,2.2c-0.1,0.8-0.4,1.2-0.9,1.2s-0.7,0-0.5,0h-0.3"/>
						</g>
					</g>
				</g>
			</g>
		</g>
	</g>
</g>
</svg>
