<?xml version="1.0" encoding="utf-8"?>
<!-- Generator: Adobe Illustrator 24.1.1, SVG Export Plug-In . SVG Version: 6.00 Build 0)  -->
<svg version="1.1" xmlns="http://www.w3.org/2000/svg" xmlns:xlink="http://www.w3.org/1999/xlink" x="0px" y="0px"
	 viewBox="0 0 48 48" style="enable-background:new 0 0 48 48;" xml:space="preserve">
<style type="text/css">
	.st0{fill:none;}
	.st1{fill:none;stroke:#00CCCC;stroke-width:2.4;stroke-linecap:round;}
	.st2{fill:none;stroke:#FF6813;stroke-width:2.4;}
	.st3{fill:none;stroke:#5702AF;stroke-width:2.4;}
</style>
<g id="Layer_1">
	<g id="Main-Page">
		<g id="_x30_2-1-2-Pricing" transform="translate(-364.000000, -3441.000000)">
			<g id="Additional-Functionality" transform="translate(364.000000, 3007.000000)">
				<g id="JSON-Autoparsing" transform="translate(0.000000, 434.000000)">
					<g id="Ico-4">
						<rect id="Rectangle" y="0" class="st0" width="48" height="48"/>
						<path id="Path-12" class="st1" d="M16.5,18.2v3.2c0,1.6,1,3.1,2.5,3.7l7,2.9l0,0"/>
						<path id="Path-12_1_" class="st1" d="M35.5,18.2v3.2c0,1.6-1,3.1-2.5,3.7L26,28l0,0"/>
						<path id="Rectangle_1_" class="st2" d="M14.2,9.2h4.6c1.1,0,2,0.9,2,2v4.6c0,1.1-0.9,2-2,2h-4.6c-1.1,0-2-0.9-2-2v-4.6
							C12.2,10.1,13.1,9.2,14.2,9.2z"/>
						<path id="Rectangle_2_" class="st2" d="M33.2,9.2h4.6c1.1,0,2,0.9,2,2v4.6c0,1.1-0.9,2-2,2h-4.6c-1.1,0-2-0.9-2-2v-4.6
							C31.2,10.1,32.1,9.2,33.2,9.2z"/>
						<path id="Rectangle_3_" class="st3" d="M14.2,28.2h23.6c1.1,0,2,0.9,2,2v8.6c0,1.1-0.9,2-2,2H14.2c-1.1,0-2-0.9-2-2v-8.6
							C12.2,29.1,13.1,28.2,14.2,28.2z"/>
					</g>
				</g>
			</g>
		</g>
	</g>
</g>
<g id="Layer_2">
</g>
</svg>
