<?xml version="1.0" encoding="UTF-8"?>
<svg width="217px" height="424px" viewBox="0 0 217 424" version="1.1" xmlns="http://www.w3.org/2000/svg" xmlns:xlink="http://www.w3.org/1999/xlink">
    <title>7660C9B8-7750-4426-8284-F0C4F0CAFAC3@3x</title>
    <g id="Main-Page" stroke="none" stroke-width="1" fill="none" fill-rule="evenodd">
        <g id="02-1-2-Pricing" transform="translate(-1685.000000, -1146.000000)" fill="#F5F5FC">
            <g id="Shape---23" transform="translate(1685.000000, 1146.000000)">
                <circle id="Oval-Copy-163" cx="211.6" cy="418" r="5.2"></circle>
                <circle id="Oval-Copy-162" cx="177.2" cy="418" r="5.2"></circle>
                <circle id="Oval-Copy-161" cx="142.8" cy="418" r="5.2"></circle>
                <circle id="Oval-Copy-160" cx="108.4" cy="418" r="5.2"></circle>
                <circle id="Oval-Copy-159" cx="74" cy="418" r="5.2"></circle>
                <circle id="Oval-Copy-158" cx="39.6" cy="418" r="5.2"></circle>
                <circle id="Oval-Copy-157" cx="5.2" cy="418" r="5.2"></circle>
                <circle id="Oval-Copy-150" cx="211.6" cy="383.6" r="5.2"></circle>
                <circle id="Oval-Copy-149" cx="177.2" cy="383.6" r="5.2"></circle>
                <circle id="Oval-Copy-148" cx="142.8" cy="383.6" r="5.2"></circle>
                <circle id="Oval-Copy-147" cx="108.4" cy="383.6" r="5.2"></circle>
                <circle id="Oval-Copy-146" cx="74" cy="383.6" r="5.2"></circle>
                <circle id="Oval-Copy-145" cx="39.6" cy="383.6" r="5.2"></circle>
                <circle id="Oval-Copy-144" cx="5.2" cy="383.6" r="5.2"></circle>
                <circle id="Oval-Copy-137" cx="211.6" cy="349.2" r="5.2"></circle>
                <circle id="Oval-Copy-136" cx="177.2" cy="349.2" r="5.2"></circle>
                <circle id="Oval-Copy-135" cx="142.8" cy="349.2" r="5.2"></circle>
                <circle id="Oval-Copy-134" cx="108.4" cy="349.2" r="5.2"></circle>
                <circle id="Oval-Copy-133" cx="74" cy="349.2" r="5.2"></circle>
                <circle id="Oval-Copy-132" cx="39.6" cy="349.2" r="5.2"></circle>
                <circle id="Oval-Copy-131" cx="5.2" cy="349.2" r="5.2"></circle>
                <circle id="Oval-Copy-124" cx="211.6" cy="314.8" r="5.2"></circle>
                <circle id="Oval-Copy-123" cx="177.2" cy="314.8" r="5.2"></circle>
                <circle id="Oval-Copy-122" cx="142.8" cy="314.8" r="5.2"></circle>
                <circle id="Oval-Copy-121" cx="108.4" cy="314.8" r="5.2"></circle>
                <circle id="Oval-Copy-120" cx="74" cy="314.8" r="5.2"></circle>
                <circle id="Oval-Copy-119" cx="39.6" cy="314.8" r="5.2"></circle>
                <circle id="Oval-Copy-118" cx="5.2" cy="314.8" r="5.2"></circle>
                <circle id="Oval-Copy-111" cx="211.6" cy="280.4" r="5.2"></circle>
                <circle id="Oval-Copy-110" cx="177.2" cy="280.4" r="5.2"></circle>
                <circle id="Oval-Copy-109" cx="142.8" cy="280.4" r="5.2"></circle>
                <circle id="Oval-Copy-108" cx="108.4" cy="280.4" r="5.2"></circle>
                <circle id="Oval-Copy-107" cx="74" cy="280.4" r="5.2"></circle>
                <circle id="Oval-Copy-106" cx="39.6" cy="280.4" r="5.2"></circle>
                <circle id="Oval-Copy-105" cx="5.2" cy="280.4" r="5.2"></circle>
                <circle id="Oval-Copy-98" cx="211.6" cy="246" r="5.2"></circle>
                <circle id="Oval-Copy-97" cx="177.2" cy="246" r="5.2"></circle>
                <circle id="Oval-Copy-96" cx="142.8" cy="246" r="5.2"></circle>
                <circle id="Oval-Copy-95" cx="108.4" cy="246" r="5.2"></circle>
                <circle id="Oval-Copy-94" cx="74" cy="246" r="5.2"></circle>
                <circle id="Oval-Copy-93" cx="39.6" cy="246" r="5.2"></circle>
                <circle id="Oval-Copy-92" cx="5.2" cy="246" r="5.2"></circle>
                <circle id="Oval-Copy-85" cx="211.6" cy="211.6" r="5.2"></circle>
                <circle id="Oval-Copy-84" cx="177.2" cy="211.6" r="5.2"></circle>
                <circle id="Oval-Copy-83" cx="142.8" cy="211.6" r="5.2"></circle>
                <circle id="Oval-Copy-82" cx="108.4" cy="211.6" r="5.2"></circle>
                <circle id="Oval-Copy-81" cx="74" cy="211.6" r="5.2"></circle>
                <circle id="Oval-Copy-80" cx="39.6" cy="211.6" r="5.2"></circle>
                <circle id="Oval-Copy-79" cx="5.2" cy="211.6" r="5.2"></circle>
                <circle id="Oval-Copy-72" cx="211.6" cy="177.2" r="5.2"></circle>
                <circle id="Oval-Copy-71" cx="177.2" cy="177.2" r="5.2"></circle>
                <circle id="Oval-Copy-70" cx="142.8" cy="177.2" r="5.2"></circle>
                <circle id="Oval-Copy-69" cx="108.4" cy="177.2" r="5.2"></circle>
                <circle id="Oval-Copy-68" cx="74" cy="177.2" r="5.2"></circle>
                <circle id="Oval-Copy-67" cx="39.6" cy="177.2" r="5.2"></circle>
                <circle id="Oval-Copy-66" cx="5.2" cy="177.2" r="5.2"></circle>
                <circle id="Oval-Copy-59" cx="211.6" cy="142.8" r="5.2"></circle>
                <circle id="Oval-Copy-58" cx="177.2" cy="142.8" r="5.2"></circle>
                <circle id="Oval-Copy-57" cx="142.8" cy="142.8" r="5.2"></circle>
                <circle id="Oval-Copy-56" cx="108.4" cy="142.8" r="5.2"></circle>
                <circle id="Oval-Copy-55" cx="74" cy="142.8" r="5.2"></circle>
                <circle id="Oval-Copy-54" cx="39.6" cy="142.8" r="5.2"></circle>
                <circle id="Oval-Copy-53" cx="5.2" cy="142.8" r="5.2"></circle>
                <circle id="Oval-Copy-46" cx="211.6" cy="108.4" r="5.2"></circle>
                <circle id="Oval-Copy-45" cx="177.2" cy="108.4" r="5.2"></circle>
                <circle id="Oval-Copy-44" cx="142.8" cy="108.4" r="5.2"></circle>
                <circle id="Oval-Copy-43" cx="108.4" cy="108.4" r="5.2"></circle>
                <circle id="Oval-Copy-42" cx="74" cy="108.4" r="5.2"></circle>
                <circle id="Oval-Copy-41" cx="39.6" cy="108.4" r="5.2"></circle>
                <circle id="Oval-Copy-33" cx="211.6" cy="74" r="5.2"></circle>
                <circle id="Oval-Copy-32" cx="177.2" cy="74" r="5.2"></circle>
                <circle id="Oval-Copy-31" cx="142.8" cy="74" r="5.2"></circle>
                <circle id="Oval-Copy-30" cx="108.4" cy="74" r="5.2"></circle>
                <circle id="Oval-Copy-29" cx="74" cy="74" r="5.2"></circle>
                <circle id="Oval-Copy-28" cx="39.6" cy="74" r="5.2"></circle>
                <circle id="Oval-Copy-27" cx="5.2" cy="74" r="5.2"></circle>
                <circle id="Oval-Copy-20" cx="211.6" cy="39.6" r="5.2"></circle>
                <circle id="Oval-Copy-19" cx="177.2" cy="39.6" r="5.2"></circle>
                <circle id="Oval-Copy-18" cx="142.8" cy="39.6" r="5.2"></circle>
                <circle id="Oval-Copy-17" cx="108.4" cy="39.6" r="5.2"></circle>
                <circle id="Oval-Copy-16" cx="74" cy="39.6" r="5.2"></circle>
                <circle id="Oval-Copy-15" cx="39.6" cy="39.6" r="5.2"></circle>
                <circle id="Oval-Copy-14" cx="5.2" cy="39.6" r="5.2"></circle>
                <circle id="Oval-Copy-7" cx="211.6" cy="5.2" r="5.2"></circle>
                <circle id="Oval-Copy-6" cx="177.2" cy="5.2" r="5.2"></circle>
                <circle id="Oval-Copy-5" cx="142.8" cy="5.2" r="5.2"></circle>
                <circle id="Oval-Copy-4" cx="108.4" cy="5.2" r="5.2"></circle>
                <circle id="Oval-Copy-3" cx="74" cy="5.2" r="5.2"></circle>
                <circle id="Oval-Copy-2" cx="39.6" cy="5.2" r="5.2"></circle>
                <circle id="Oval-Copy" cx="5.2" cy="5.2" r="5.2"></circle>
            </g>
        </g>
    </g>
</svg>