<?xml version="1.0" encoding="utf-8"?>
<!-- Generator: Adobe Illustrator 24.1.1, SVG Export Plug-In . SVG Version: 6.00 Build 0)  -->
<svg version="1.1" xmlns="http://www.w3.org/2000/svg" xmlns:xlink="http://www.w3.org/1999/xlink" x="0px" y="0px"
	 viewBox="0 0 48 48" style="enable-background:new 0 0 48 48;" xml:space="preserve">
<style type="text/css">
	.st0{display:none;}
	.st1{display:inline;}
	.st2{fill:none;}
	.st3{fill:#FF6813;}
	.st4{fill:#5702AF;}
	.st5{fill:#00CCCC;}
</style>
<g id="Layer_1" class="st0">
	<g id="Main-Page" class="st1">
		<g id="_x30_2-1-2-Pricing" transform="translate(-1173.000000, -3129.000000)">
			<g id="Additional-Functionality" transform="translate(364.000000, 3007.000000)">
				<g id="Residential-Proxies" transform="translate(809.000000, 122.000000)">
					<g id="Ico-3">
						<rect id="Rectangle" y="0" class="st2" width="48" height="48"/>
						<path id="_xE8BE_" class="st3" d="M35.4,24.8c1.2,0,2.2-0.4,3-1.2s1.2-1.8,1.2-3l0,0v-5.6c0-0.6-0.1-1.1-0.3-1.6
							s-0.5-1-0.9-1.4S37.5,11.2,37,11s-1.1-0.3-1.6-0.3l0,0H12.6c-1.2,0-2.2,0.4-3,1.2s-1.2,1.8-1.2,3l0,0v5.6
							c0,0.6,0.1,1.1,0.3,1.6s0.5,1,0.9,1.4s0.9,0.7,1.4,0.9s1.1,0.3,1.6,0.3l0,0H35.4z M35.4,22H12.6c-0.4,0-0.7-0.1-1-0.4
							s-0.4-0.6-0.4-1l0,0v-5.6c0-0.4,0.1-0.7,0.4-1s0.6-0.4,1-0.4l0,0h22.7c0.4,0,0.7,0.1,1,0.4s0.4,0.6,0.4,1l0,0v5.6
							c0,0.4-0.1,0.7-0.4,1S35.8,22,35.4,22L35.4,22z M16.9,19.2c0.3,0,0.5-0.1,0.7-0.2s0.4-0.3,0.5-0.5s0.2-0.4,0.2-0.7
							s-0.1-0.5-0.2-0.7s-0.3-0.4-0.5-0.5s-0.5-0.2-0.7-0.2s-0.5,0.1-0.7,0.2c-0.2,0.1-0.4,0.3-0.5,0.5s-0.2,0.4-0.2,0.7
							s0.1,0.5,0.2,0.7s0.3,0.4,0.5,0.5C16.4,19.1,16.7,19.2,16.9,19.2z M35.4,41.8c1.2,0,2.2-0.4,3-1.2s1.2-1.8,1.2-3l0,0v-5.6
							c0-0.6-0.1-1.1-0.3-1.6s-0.5-1-0.9-1.4S37.5,28.2,37,28s-1.1-0.3-1.6-0.3l0,0H12.6c-1.2,0-2.2,0.4-3,1.2s-1.2,1.8-1.2,3l0,0
							v5.6c0,0.6,0.1,1.1,0.3,1.6s0.5,1,0.9,1.4s0.9,0.7,1.4,0.9s1.1,0.3,1.6,0.3l0,0H35.4z M35.4,39H12.6c-0.4,0-0.7-0.1-1-0.4
							s-0.4-0.6-0.4-1l0,0v-5.6c0-0.4,0.1-0.7,0.4-1s0.6-0.4,1-0.4l0,0h22.7c0.4,0,0.7,0.1,1,0.4s0.4,0.6,0.4,1l0,0v5.6
							c0,0.4-0.1,0.7-0.4,1S35.8,39,35.4,39L35.4,39z M16.9,36.2c0.3,0,0.5-0.1,0.7-0.2s0.4-0.3,0.5-0.5s0.2-0.4,0.2-0.7
							s-0.1-0.5-0.2-0.7s-0.3-0.4-0.5-0.5s-0.5-0.2-0.7-0.2s-0.5,0.1-0.7,0.2c-0.2,0.1-0.4,0.3-0.5,0.5s-0.2,0.4-0.2,0.7
							s0.1,0.5,0.2,0.7s0.3,0.4,0.5,0.5C16.4,36.1,16.7,36.2,16.9,36.2z"/>
					</g>
				</g>
			</g>
		</g>
	</g>
</g>
<g id="Layer_2">
	<circle class="st4" cx="16.9" cy="17.8" r="1.4"/>
	<circle class="st4" cx="16.9" cy="34.8" r="1.4"/>
</g>
<g id="Layer_3">
	<path class="st3" d="M9.7,23.6c0.4,0.4,0.9,0.7,1.4,0.9c0.5,0.2,1.1,0.3,1.6,0.3h22.7c1.2,0,2.2-0.4,3-1.2s1.2-1.8,1.2-3v-5.6
		c0-0.6-0.1-1.1-0.3-1.6c-0.2-0.5-0.5-1-0.9-1.4S37.5,11.2,37,11c-0.5-0.2-1.1-0.3-1.6-0.3H12.6c-1.2,0-2.2,0.4-3,1.2
		s-1.2,1.8-1.2,3v5.6c0,0.6,0.1,1.1,0.3,1.6C9,22.7,9.3,23.2,9.7,23.6z M11.3,14.9c0-0.4,0.1-0.7,0.4-1s0.6-0.4,1-0.4h22.7
		c0.4,0,0.7,0.1,1,0.4c0.3,0.3,0.4,0.6,0.4,1v5.6c0,0.4-0.1,0.7-0.4,1c-0.3,0.3-0.6,0.4-1,0.4H12.6c-0.4,0-0.7-0.1-1-0.4
		c-0.3-0.3-0.4-0.6-0.4-1V14.9z"/>
</g>
<g id="Layer_4">
	<path class="st5" d="M38.3,29c-0.4-0.4-0.9-0.7-1.4-0.9c-0.5-0.2-1.1-0.3-1.6-0.3H12.6c-1.2,0-2.2,0.4-3,1.2s-1.2,1.8-1.2,3v5.6
		c0,0.6,0.1,1.1,0.3,1.6c0.2,0.5,0.5,1,0.9,1.4s0.9,0.7,1.4,0.9c0.5,0.2,1.1,0.3,1.6,0.3h22.7c1.2,0,2.2-0.4,3-1.2s1.2-1.8,1.2-3
		v-5.6c0-0.6-0.1-1.1-0.3-1.6C39,29.9,38.7,29.4,38.3,29z M36.8,37.7c0,0.4-0.1,0.7-0.4,1c-0.3,0.3-0.6,0.4-1,0.4H12.6
		c-0.4,0-0.7-0.1-1-0.4c-0.3-0.3-0.4-0.6-0.4-1v-5.6c0-0.4,0.1-0.7,0.4-1s0.6-0.4,1-0.4h22.7c0.4,0,0.7,0.1,1,0.4
		c0.3,0.3,0.4,0.6,0.4,1V37.7z"/>
</g>
</svg>
