<?xml version="1.0" encoding="UTF-8"?>
<svg width="24px" height="24px" viewBox="0 0 24 24" version="1.1" xmlns="http://www.w3.org/2000/svg" xmlns:xlink="http://www.w3.org/1999/xlink">
    <title>CA142CC3-59E5-4F93-AE98-2F9FA812E1B5@3x</title>
    <g id="Main-Page" stroke="none" stroke-width="1" fill="none" fill-rule="evenodd">
        <g id="06-2-1-Blog" transform="translate(-1521.000000, -4339.000000)">
            <g id="Read-also" transform="translate(375.000000, 4325.000000)">
                <g id="Group-5" transform="translate(1037.000000, 14.000000)">
                    <g id="Arrow-white" transform="translate(109.000000, 0.000000)">
                        <rect id="Rectangle" x="0" y="0" width="24" height="24"></rect>
                        <path d="M13.8369141,18.1523438 C14.0732422,18.1523438 14.2845052,18.0664062 14.4707031,17.8945312 L19.913,12.452 L19.9814453,12.3945312 L19.9814453,12.3945312 C20.1604818,12.2226562 20.25,12.0078125 20.25,11.75 C20.25,11.4921875 20.1604818,11.2773438 19.9814453,11.1054688 L19.913,11.049 L14.4707031,5.60546875 C14.2845052,5.43359375 14.0732422,5.34765625 13.8369141,5.34765625 C13.6005859,5.34765625 13.3893229,5.43717448 13.203125,5.61621094 C13.0169271,5.7952474 12.9238281,6.00651042 12.9238281,6.25 C12.9238281,6.49348958 13.0097656,6.70833333 13.1816406,6.89453125 L17.114,10.827 L4.67382812,10.8261719 C4.41601562,10.8404948 4.19759115,10.9335938 4.01855469,11.1054688 C3.83951823,11.2773438 3.75,11.4921875 3.75,11.75 C3.75,12.0078125 3.83951823,12.2226562 4.01855469,12.3945312 C4.19759115,12.5664062 4.41601562,12.6595052 4.67382812,12.6738281 L17.113,12.674 L13.1816406,16.6054688 C13.0097656,16.7916667 12.9238281,17.0065104 12.9238281,17.25 C12.9238281,17.4934896 13.0169271,17.7047526 13.203125,17.8837891 C13.3893229,18.0628255 13.6005859,18.1523438 13.8369141,18.1523438 Z" id="" fill="#FFFFFF" fill-rule="nonzero"></path>
                    </g>
                </g>
            </g>
        </g>
    </g>
</svg>