<svg id="Arrow_" data-name="Arrow " xmlns="http://www.w3.org/2000/svg" width="24" height="24" viewBox="0 0 24 24">
  <rect id="Rectangle" width="24" height="24" fill="none"/>
  <path id="_" data-name="" d="M10.087,12.8a.909.909,0,0,0,.634-.258L16.163,7.1l.068-.057h0a.908.908,0,0,0,0-1.289L16.163,5.7,10.721.258A.909.909,0,0,0,10.087,0a.891.891,0,0,0-.634.269A.851.851,0,0,0,9.174.9a.922.922,0,0,0,.258.645l3.932,3.932H.924a1,1,0,0,0-.655.279.908.908,0,0,0,0,1.289,1,1,0,0,0,.655.279H13.363L9.432,11.258a.922.922,0,0,0-.258.645.851.851,0,0,0,.279.634A.891.891,0,0,0,10.087,12.8Z" transform="translate(3.75 6.348)" fill="#5702af"/>
</svg>
