<?xml version="1.0" encoding="utf-8"?>
<!-- Generator: Adobe Illustrator 24.1.1, SVG Export Plug-In . SVG Version: 6.00 Build 0)  -->
<svg version="1.1" xmlns="http://www.w3.org/2000/svg" xmlns:xlink="http://www.w3.org/1999/xlink" x="0px" y="0px"
	 viewBox="0 0 547.8 575.3" style="enable-background:new 0 0 547.8 575.3;" xml:space="preserve">
<style type="text/css">
	.st0{fill:#00CCCC;}
	.st1{fill:#FF6813;}
	.st2{fill:#6B3EFE;}
</style>
<g id="Layer_1">
</g>
<g id="Layer_2">
	<path class="st0" d="M166,331.8c3.6,3.8,8.4,5.7,12.5,5.7s9-1.9,12.5-5.7c7.2-7.6,7.2-19.8,0-26.8c-44.8-47.8-44.8-125.6,0-174
		c7.2-7.6,7.2-19.8,0-26.8c-7.2-7.6-18.5-7.6-25.1,0c-28.6,30.6-44.2,70.8-44.2,114.1C121.8,261.1,137.3,301.2,166,331.8z"/>
	<path class="st0" d="M354.6,331.8c3.6,3.8,8.4,5.7,12.5,5.7c4.2,0,9-1.9,12.5-5.7c28.6-30.6,44.2-70.8,44.2-114.1
		c0-43.3-15.5-83.5-44.2-114.1c-7.2-7.6-18.5-7.6-25.1,0c-7.2,7.6-7.2,19.8,0,26.8c44.8,47.8,44.8,125.6,0,174
		C347.4,312.1,347.4,324.2,354.6,331.8z"/>
	<path class="st1" d="M64.5,218.4c0-59.3,21.5-115.4,60.9-157.5c7.2-7.6,7.2-19.8,0-26.8c-7.2-7.6-18.5-7.6-25.1,0
		c-46,49.1-71.6,114.7-71.6,184.2c0,69.5,25.7,135.1,71.6,184.2c3.6,3.8,8.4,5.7,12.5,5.7c4.2,0,9-1.9,12.5-5.7
		c7.2-7.6,7.2-19.8,0-26.8C86,333.1,64.5,277.7,64.5,218.4z"/>
	<path class="st1" d="M445.3,33.5c-7.2-7.6-18.5-7.6-25.1,0c-7.2,7.6-7.2,19.8,0,26.8c81.2,86.7,81.2,228.2,0,314.9
		c-7.2,7.6-7.2,19.8,0,26.8c3.6,3.8,8.4,5.7,12.5,5.7s9-1.9,12.5-5.7C540.8,300.6,540.8,135.5,445.3,33.5z"/>
	<path class="st2" d="M312.2,273.8c16.1-12.7,26.3-33.1,26.3-56.1c0-38.9-29.2-70.1-65.7-70.1c-36.4,0-65.7,31.2-65.7,70.1
		c0,22.9,10.1,43.3,26.3,56.1L134.9,539c-3,7.6-0.6,17.2,6,22.3c3,2.5,7.2,3.8,10.7,3.8s7.8-1.3,10.7-3.8l111-89.2l109.8,89.2
		c3,2.5,7.2,3.8,10.7,3.8c3.6,0,7.8-1.3,10.7-3.8c6.6-5.1,9-14,6-22.3L312.2,273.8z M272.8,186.5c16.7,0,29.8,14,29.8,31.9
		s-13.1,31.9-29.8,31.9c-16.7,0-29.8-14-29.8-31.9S256.7,186.5,272.8,186.5z M272.8,288.5c1.8,0,4.2,0,6-0.6l37.6,102L274,424.3
		l-44.2-35.7l37-100.7C268.6,287.9,271,288.5,272.8,288.5z M191.6,489.9l23.9-65l28.1,22.9L191.6,489.9z M303.3,448.5l26.9-21.7
		l23.3,62.5L303.3,448.5z"/>
</g>
</svg>
