<?xml version="1.0" encoding="utf-8"?>
<!-- Generator: Adobe Illustrator 24.1.1, SVG Export Plug-In . SVG Version: 6.00 Build 0)  -->
<svg version="1.1" xmlns="http://www.w3.org/2000/svg" xmlns:xlink="http://www.w3.org/1999/xlink" x="0px" y="0px"
	 viewBox="0 0 547.8 575.3" style="enable-background:new 0 0 547.8 575.3;" xml:space="preserve">
<style type="text/css">
	.st0{display:none;}
	.st1{display:inline;fill:#6B3EFE;filter:url(#Adobe_OpacityMaskFilter);}
	.st2{display:inline;mask:url(#mask0_1_);}
	.st3{fill:#6B3EFE;}
	.st4{fill:#FF6813;}
	.st5{fill:#00CCCC;}
	.st6{display:inline;fill:#00CCCC;}
	.st7{display:inline;fill:#FF6813;}
	.st8{display:inline;fill:#6B3EFE;}
	.st9{display:inline;fill:#FFFFFF;}
	.st10{display:inline;fill-rule:evenodd;clip-rule:evenodd;fill:#00CCCC;}
</style>
<g id="Layer_3" class="st0">
	<defs>
		<filter id="Adobe_OpacityMaskFilter" filterUnits="userSpaceOnUse" x="-137.3" y="-216.4" width="805.1" height="964.3">
			<feColorMatrix  type="matrix" values="1 0 0 0 0  0 1 0 0 0  0 0 1 0 0  0 0 0 1 0"/>
		</filter>
	</defs>
	<mask maskUnits="userSpaceOnUse" x="-137.3" y="-216.4" width="805.1" height="964.3" id="mask0_1_" style="display:inline;">
		<path style="fill:#6B3EFE;filter:url(#Adobe_OpacityMaskFilter);" d="M480.6,225.6c0-113.9-92.4-206.6-206-206.6
			c-113.6,0-206,92.7-206,206.6c0,164.6,177.6,323.2,185.1,329.9c6,5.3,13.4,7.9,20.9,7.9c7.5,0,14.9-2.6,20.9-7.9
			C303.1,548.9,480.6,390.2,480.6,225.6z"/>
	</mask>
	<g class="st2">
		
			<rect x="-227.7" y="53.7" transform="matrix(0.7071 -0.7071 0.7071 0.7071 -14.3436 146.427)" class="st3" width="794.6" height="73.6"/>
		
			<rect x="-36.4" y="404.2" transform="matrix(0.7071 -0.7071 0.7071 0.7071 -206.1103 384.3215)" class="st4" width="794.6" height="73.6"/>
		<circle class="st5" cx="274.6" cy="254.2" r="73.6"/>
		
			<rect x="-124.7" y="227.6" transform="matrix(0.7071 -0.7071 0.7071 0.7071 -107.1162 270.1801)" class="st5" width="794.6" height="73.6"/>
	</g>
</g>
<g id="Layer_2" class="st0">
	<path class="st6" d="M166,331.8c3.6,3.8,8.4,5.7,12.5,5.7s9-1.9,12.5-5.7c7.2-7.6,7.2-19.8,0-26.8c-44.8-47.8-44.8-125.6,0-174
		c7.2-7.6,7.2-19.8,0-26.8c-7.2-7.6-18.5-7.6-25.1,0c-28.6,30.6-44.2,70.8-44.2,114.1C121.8,261.1,137.3,301.2,166,331.8z"/>
	<path class="st6" d="M354.6,331.8c3.6,3.8,8.4,5.7,12.5,5.7c4.2,0,9-1.9,12.5-5.7c28.6-30.6,44.2-70.8,44.2-114.1
		c0-43.3-15.5-83.5-44.2-114.1c-7.2-7.6-18.5-7.6-25.1,0c-7.2,7.6-7.2,19.8,0,26.8c44.8,47.8,44.8,125.6,0,174
		C347.4,312.1,347.4,324.2,354.6,331.8z"/>
	<path class="st7" d="M64.5,218.4c0-59.3,21.5-115.4,60.9-157.5c7.2-7.6,7.2-19.8,0-26.8c-7.2-7.6-18.5-7.6-25.1,0
		c-46,49.1-71.6,114.7-71.6,184.2c0,69.5,25.7,135.1,71.6,184.2c3.6,3.8,8.4,5.7,12.5,5.7c4.2,0,9-1.9,12.5-5.7
		c7.2-7.6,7.2-19.8,0-26.8C86,333.1,64.5,277.7,64.5,218.4z"/>
	<path class="st7" d="M445.3,33.5c-7.2-7.6-18.5-7.6-25.1,0c-7.2,7.6-7.2,19.8,0,26.8c81.2,86.7,81.2,228.2,0,314.9
		c-7.2,7.6-7.2,19.8,0,26.8c3.6,3.8,8.4,5.7,12.5,5.7s9-1.9,12.5-5.7C540.8,300.6,540.8,135.5,445.3,33.5z"/>
	<path class="st8" d="M312.2,273.8c16.1-12.7,26.3-33.1,26.3-56.1c0-38.9-29.2-70.1-65.7-70.1c-36.4,0-65.7,31.2-65.7,70.1
		c0,22.9,10.1,43.3,26.3,56.1L134.9,539c-3,7.6-0.6,17.2,6,22.3c3,2.5,7.2,3.8,10.7,3.8s7.8-1.3,10.7-3.8l111-89.2l109.8,89.2
		c3,2.5,7.2,3.8,10.7,3.8c3.6,0,7.8-1.3,10.7-3.8c6.6-5.1,9-14,6-22.3L312.2,273.8z M272.8,186.5c16.7,0,29.8,14,29.8,31.9
		s-13.1,31.9-29.8,31.9c-16.7,0-29.8-14-29.8-31.9S256.7,186.5,272.8,186.5z M272.8,288.5c1.8,0,4.2,0,6-0.6l37.6,102L274,424.3
		l-44.2-35.7l37-100.7C268.6,287.9,271,288.5,272.8,288.5z M191.6,489.9l23.9-65l28.1,22.9L191.6,489.9z M303.3,448.5l26.9-21.7
		l23.3,62.5L303.3,448.5z"/>
</g>
<g id="Layer_4" class="st0">
	<path class="st8" d="M237.1,35.9h70.3v90.9h-70.3V35.9z"/>
	<path class="st7" d="M81,148.7c-13.7-13.7-13.7-36,0-49.7c13.7-13.7,36-13.7,49.7,0l14.6,14.6c13.7,13.7,13.7,36,0,49.7
		c-13.7,13.7-36,13.7-49.7,0L81,148.7z"/>
	<path class="st7" d="M448.9,163.4c-13.7,13.7-36,13.7-49.7,0s-13.7-36,0-49.7l14.6-14.6c13.7-13.7,36-13.7,49.7,0
		c13.7,13.7,13.7,36,0,49.7L448.9,163.4z"/>
	<path class="st8" d="M272.3,569.9c132,0,239-107,239-239c0-132-107-239-239-239c-132,0-239,107-239,239
		C33.3,462.9,140.3,569.9,272.3,569.9z"/>
	<path class="st9" d="M272.3,512.8c100.3,0,181.6-81.3,181.6-181.6c0-100.3-81.3-181.6-181.6-181.6c-100.3,0-181.6,81.3-181.6,181.6
		C90.6,431.4,172,512.8,272.3,512.8z"/>
	<path class="st8" d="M214.4,37.8c0-15.7,12.7-28.4,28.4-28.4h58.9c15.7,0,28.4,12.7,28.4,28.4c0,15.7-12.7,28.4-28.4,28.4h-58.9
		C227.1,66.2,214.4,53.5,214.4,37.8z"/>
	<path class="st10" d="M203.2,355.3c24.9,0,45.1,20.2,45.1,45.1v21.1c0,13.2,10.7,24,24,24s24-10.7,24-24v-21.1
		c0-24.9,20.2-45.1,45.1-45.1h21.1c13.2,0,24-10.7,24-24s-10.7-24-24-24h-21.1c-24.9,0-45.1-20.2-45.1-45.1v-21.1
		c0-13.2-10.7-24-24-24s-24,10.7-24,24v21.1c0,24.9-20.2,45.1-45.1,45.1h-21.1c-13.2,0-24,10.7-24,24s10.7,24,24,24H203.2z"/>
</g>
<g id="Layer_5" class="st0">
	<path class="st8" d="M345.6,175.1c-32.4,0-59.1,25.5-61.4,57.3l-63.7,16.8c-18.5-13.9-37.1-26.1-55-34.7
		c-53.3-27.2-79.9-17.4-92.6-5.2c-40,40-62,93.2-62,149.4c0,56.7,22,110,62,150c41.7,41.1,96.1,62,150.5,62
		c54.4,0,108.9-20.3,150-61.4c27.8-28.4,4.6-88-40-147.1l16.8-64.3c31.8-2.3,57.3-29,57.3-61.4C406.9,202.3,379.7,175.1,345.6,175.1
		z M291.1,266.6L268,289.2c-4.6-4.6-9.8-8.7-14.5-13.3L291.1,266.6z M97.2,484.9C63.6,451.3,45,407.3,45,359.8
		c0-30.1,7.5-59.1,21.4-84.5c14.5,43.4,52.7,96.7,98.4,141.9c45.7,45.7,99,84,142.4,98.4C240.2,550.9,154.5,541.6,97.2,484.9z
		 M336.9,432.8c15.6,31.3,15.6,48.1,11.6,52.1c-11.6,11.6-80.5-14.5-158.7-92.1c-77.6-77.6-103.6-147.1-92.1-158.7
		c4.1-4.1,21.4-4.1,52.1,11.6c8.7,4.1,17.4,9.3,26.1,15.1l-32.4,8.1c-9.3,2.3-15.1,12.2-12.7,21.4c2.3,8.1,9.3,12.7,16.8,12.7
		c1.2,0,2.9,0,4.6-0.6l59.6-15.6c10.4,8.1,20.8,17.4,31.3,27.2l-44.6,44.6c-6.9,6.9-6.9,18,0,24.3c3.5,3.5,8.1,5.2,12.2,5.2
		c4.6,0,8.7-1.7,12.2-5.2l45.2-45.2c9.8,10.4,18.5,20.8,27.2,31.3l-15.6,60.2c-2.3,9.3,2.9,18.5,12.7,21.4c1.7,0.6,2.9,0.6,4.6,0.6
		c7.5,0,15.1-5.2,16.8-12.7l8.1-32.4C327.6,415.4,332.8,423.5,336.9,432.8z M292.9,313.5l22.6-22.6l-9.8,37.1
		C301.6,323.9,297.5,318.7,292.9,313.5z M345.6,263.1c-14.5,0-26.6-12.2-26.6-26.6c0-14.5,12.2-26.6,26.6-26.6s26.6,12.2,26.6,26.6
		C372.2,251.5,360.6,263.1,345.6,263.1z"/>
	<path class="st7" d="M365.8,42.5c-9.8,0-17.4,7.5-17.4,17.4s7.5,17.4,17.4,17.4c76.4,0,138.4,62,138.4,138.4
		c0,9.8,7.5,17.4,17.4,17.4c9.8,0,17.4-7.5,17.4-17.4C539,120.7,461.4,42.5,365.8,42.5z"/>
	<path class="st6" d="M365.8,113.1c-9.8,0-17.4,7.5-17.4,17.4c0,9.8,7.5,17.4,17.4,17.4c37.6,0,68.3,30.7,68.3,68.3
		c0,9.8,7.5,17.4,17.4,17.4c9.8,0,17.4-7.5,17.4-17.4C468.9,159.5,422.6,113.1,365.8,113.1z"/>
</g>
<g id="Layer_6">
	<path class="st3" d="M399.3,556.1h-82.5c-31.3,0-56.7-25.5-56.7-56.7v-30.9c0-8.5,6.9-15.5,15.5-15.5s15.5,6.9,15.5,15.5v30.9
		c0,14.2,11.6,25.8,25.8,25.8h82.5c14.2,0,25.8-11.6,25.8-25.8v-61.9c0-8.5,6.9-15.5,15.5-15.5s15.5,6.9,15.5,15.5v61.9
		C456,530.7,430.6,556.1,399.3,556.1z"/>
	<path class="st3" d="M538.5,311.6l-30.9,20.6v-25.8c0-128-104.1-232.1-232.1-232.1S43.4,178.5,43.4,306.5v25.8l-30.9-20.6v-5.2
		c0-70.3,27.4-136.3,77-186c49.7-49.7,115.7-77,186-77s136.3,27.4,186,77c49.7,49.7,77,115.7,77,186V311.6z"/>
	<path class="st3" d="M461.5,120.5c-49.7-49.7-115.7-77-186-77v30.9c128,0,232.1,104.1,232.1,232.1v25.8l30.9-20.6v-5.2
		C538.5,236.2,511.2,170.1,461.5,120.5z"/>
	<path class="st5" d="M275.5,27.9c-44.9,0-87.3,10.7-124.9,29.7c-7.9,4-10.8,13.9-6.4,21.5l15.6,26.9c4.1,7.1,13,9.7,20.3,6.1
		c28.8-14.2,61.1-22.4,95.4-22.4s66.6,8.1,95.4,22.4c7.3,3.6,16.2,1,20.3-6.1l15.6-26.9c4.4-7.7,1.5-17.5-6.4-21.5
		C362.8,38.7,320.4,27.9,275.5,27.9L275.5,27.9z"/>
	<path class="st4" d="M105.3,404.5H27.9c-8.5,0-15.5-6.9-15.5-15.5v-77.4h92.8V404.5z"/>
	<path class="st5" d="M136.2,476.7c-34.2,0-61.9-27.7-61.9-61.9V301.3c0-34.2,27.7-61.9,61.9-61.9c8.5,0,15.5,6.9,15.5,15.5v206.3
		C151.7,469.8,144.8,476.7,136.2,476.7z"/>
	<path class="st4" d="M445.7,311.6h92.8V389c0,8.5-6.9,15.5-15.5,15.5h-77.4V311.6z"/>
	<path class="st5" d="M399.3,461.2V254.9c0-8.5,6.9-15.5,15.5-15.5c34.2,0,61.9,27.7,61.9,61.9v113.5c0,34.2-27.7,61.9-61.9,61.9
		C406.2,476.7,399.3,469.8,399.3,461.2z"/>
	<path class="st5" d="M275.5,499.4c-17.1,0-30.9-13.9-30.9-30.9c0-17.1,13.9-30.9,30.9-30.9s30.9,13.9,30.9,30.9
		C306.4,485.5,292.6,499.4,275.5,499.4z"/>
</g>
</svg>
