<?xml version="1.0" encoding="UTF-8"?>
<svg width="1292px" height="183px" viewBox="0 0 1292 183" version="1.1" xmlns="http://www.w3.org/2000/svg" xmlns:xlink="http://www.w3.org/1999/xlink">
    <title>893C0B23-BDA1-496C-B2C1-472A72746505@3x</title>
    <g id="Main-Page" stroke="none" stroke-width="1" fill="none" fill-rule="evenodd">
        <g id="07-2-1-FAQ" transform="translate(-314.000000, -1633.000000)" fill="#F5F5FC">
            <g id="Shape---4" transform="translate(314.000000, 1633.000000)">
                <circle id="Oval-Copy-169" cx="418" cy="177.2" r="5.2"></circle>
                <circle id="Oval-Copy-168" cx="383.6" cy="177.2" r="5.2"></circle>
                <circle id="Oval-Copy-167" cx="349.2" cy="177.2" r="5.2"></circle>
                <circle id="Oval-Copy-166" cx="314.8" cy="177.2" r="5.2"></circle>
                <circle id="Oval-Copy-165" cx="280.4" cy="177.2" r="5.2"></circle>
                <circle id="Oval-Copy-164" cx="246" cy="177.2" r="5.2"></circle>
                <circle id="Oval-Copy-163" cx="211.6" cy="177.2" r="5.2"></circle>
                <circle id="Oval-Copy-162" cx="177.2" cy="177.2" r="5.2"></circle>
                <circle id="Oval-Copy-161" cx="142.8" cy="177.2" r="5.2"></circle>
                <circle id="Oval-Copy-160" cx="108.4" cy="177.2" r="5.2"></circle>
                <circle id="Oval-Copy-159" cx="74" cy="177.2" r="5.2"></circle>
                <circle id="Oval-Copy-158" cx="39.6" cy="177.2" r="5.2"></circle>
                <circle id="Oval-Copy-157" cx="5.2" cy="177.2" r="5.2"></circle>
                <circle id="Oval-Copy-156" cx="418" cy="142.8" r="5.2"></circle>
                <circle id="Oval-Copy-155" cx="383.6" cy="142.8" r="5.2"></circle>
                <circle id="Oval-Copy-154" cx="349.2" cy="142.8" r="5.2"></circle>
                <circle id="Oval-Copy-153" cx="314.8" cy="142.8" r="5.2"></circle>
                <circle id="Oval-Copy-152" cx="280.4" cy="142.8" r="5.2"></circle>
                <circle id="Oval-Copy-151" cx="246" cy="142.8" r="5.2"></circle>
                <circle id="Oval-Copy-150" cx="211.6" cy="142.8" r="5.2"></circle>
                <circle id="Oval-Copy-149" cx="177.2" cy="142.8" r="5.2"></circle>
                <circle id="Oval-Copy-148" cx="142.8" cy="142.8" r="5.2"></circle>
                <circle id="Oval-Copy-147" cx="108.4" cy="142.8" r="5.2"></circle>
                <circle id="Oval-Copy-146" cx="74" cy="142.8" r="5.2"></circle>
                <circle id="Oval-Copy-145" cx="39.6" cy="142.8" r="5.2"></circle>
                <circle id="Oval-Copy-144" cx="5.2" cy="142.8" r="5.2"></circle>
                <circle id="Oval-Copy-143" cx="418" cy="108.4" r="5.2"></circle>
                <circle id="Oval-Copy-142" cx="383.6" cy="108.4" r="5.2"></circle>
                <circle id="Oval-Copy-141" cx="349.2" cy="108.4" r="5.2"></circle>
                <circle id="Oval-Copy-140" cx="314.8" cy="108.4" r="5.2"></circle>
                <circle id="Oval-Copy-139" cx="280.4" cy="108.4" r="5.2"></circle>
                <circle id="Oval-Copy-138" cx="246" cy="108.4" r="5.2"></circle>
                <circle id="Oval-Copy-137" cx="211.6" cy="108.4" r="5.2"></circle>
                <circle id="Oval-Copy-136" cx="177.2" cy="108.4" r="5.2"></circle>
                <circle id="Oval-Copy-135" cx="142.8" cy="108.4" r="5.2"></circle>
                <circle id="Oval-Copy-134" cx="108.4" cy="108.4" r="5.2"></circle>
                <circle id="Oval-Copy-133" cx="74" cy="108.4" r="5.2"></circle>
                <circle id="Oval-Copy-132" cx="39.6" cy="108.4" r="5.2"></circle>
                <circle id="Oval-Copy-131" cx="5.2" cy="108.4" r="5.2"></circle>
                <circle id="Oval-Copy-130" cx="418" cy="74" r="5.2"></circle>
                <circle id="Oval-Copy-129" cx="383.6" cy="74" r="5.2"></circle>
                <circle id="Oval-Copy-128" cx="349.2" cy="74" r="5.2"></circle>
                <circle id="Oval-Copy-127" cx="314.8" cy="74" r="5.2"></circle>
                <circle id="Oval-Copy-126" cx="280.4" cy="74" r="5.2"></circle>
                <circle id="Oval-Copy-125" cx="246" cy="74" r="5.2"></circle>
                <circle id="Oval-Copy-124" cx="211.6" cy="74" r="5.2"></circle>
                <circle id="Oval-Copy-123" cx="177.2" cy="74" r="5.2"></circle>
                <circle id="Oval-Copy-122" cx="142.8" cy="74" r="5.2"></circle>
                <circle id="Oval-Copy-121" cx="108.4" cy="74" r="5.2"></circle>
                <circle id="Oval-Copy-120" cx="74" cy="74" r="5.2"></circle>
                <circle id="Oval-Copy-119" cx="39.6" cy="74" r="5.2"></circle>
                <circle id="Oval-Copy-118" cx="5.2" cy="74" r="5.2"></circle>
                <circle id="Oval-Copy-117" cx="418" cy="39.6" r="5.2"></circle>
                <circle id="Oval-Copy-116" cx="383.6" cy="39.6" r="5.2"></circle>
                <circle id="Oval-Copy-115" cx="349.2" cy="39.6" r="5.2"></circle>
                <circle id="Oval-Copy-114" cx="314.8" cy="39.6" r="5.2"></circle>
                <circle id="Oval-Copy-113" cx="280.4" cy="39.6" r="5.2"></circle>
                <circle id="Oval-Copy-112" cx="246" cy="39.6" r="5.2"></circle>
                <circle id="Oval-Copy-111" cx="211.6" cy="39.6" r="5.2"></circle>
                <circle id="Oval-Copy-110" cx="177.2" cy="39.6" r="5.2"></circle>
                <circle id="Oval-Copy-109" cx="142.8" cy="39.6" r="5.2"></circle>
                <circle id="Oval-Copy-108" cx="108.4" cy="39.6" r="5.2"></circle>
                <circle id="Oval-Copy-107" cx="74" cy="39.6" r="5.2"></circle>
                <circle id="Oval-Copy-106" cx="39.6" cy="39.6" r="5.2"></circle>
                <circle id="Oval-Copy-105" cx="5.2" cy="39.6" r="5.2"></circle>
                <circle id="Oval-Copy-104" cx="418" cy="5.2" r="5.2"></circle>
                <circle id="Oval-Copy-103" cx="383.6" cy="5.2" r="5.2"></circle>
                <circle id="Oval-Copy-102" cx="349.2" cy="5.2" r="5.2"></circle>
                <circle id="Oval-Copy-101" cx="314.8" cy="5.2" r="5.2"></circle>
                <circle id="Oval-Copy-100" cx="280.4" cy="5.2" r="5.2"></circle>
                <circle id="Oval-Copy-99" cx="246" cy="5.2" r="5.2"></circle>
                <circle id="Oval-Copy-98" cx="211.6" cy="5.2" r="5.2"></circle>
                <circle id="Oval-Copy-97" cx="177.2" cy="5.2" r="5.2"></circle>
                <circle id="Oval-Copy-96" cx="142.8" cy="5.2" r="5.2"></circle>
                <circle id="Oval-Copy-95" cx="108.4" cy="5.2" r="5.2"></circle>
                <circle id="Oval-Copy-94" cx="74" cy="5.2" r="5.2"></circle>
                <circle id="Oval-Copy-93" cx="39.6" cy="5.2" r="5.2"></circle>
                <circle id="Oval-Copy-92" cx="5.2" cy="5.2" r="5.2"></circle>
                <circle id="Oval-Copy-159" cx="523" cy="177.2" r="5.2"></circle>
                <circle id="Oval-Copy-158" cx="488.6" cy="177.2" r="5.2"></circle>
                <circle id="Oval-Copy-157" cx="454.2" cy="177.2" r="5.2"></circle>
                <circle id="Oval-Copy-146" cx="523" cy="142.8" r="5.2"></circle>
                <circle id="Oval-Copy-145" cx="488.6" cy="142.8" r="5.2"></circle>
                <circle id="Oval-Copy-144" cx="454.2" cy="142.8" r="5.2"></circle>
                <circle id="Oval-Copy-133" cx="523" cy="108.4" r="5.2"></circle>
                <circle id="Oval-Copy-132" cx="488.6" cy="108.4" r="5.2"></circle>
                <circle id="Oval-Copy-131" cx="454.2" cy="108.4" r="5.2"></circle>
                <circle id="Oval-Copy-120" cx="523" cy="74" r="5.2"></circle>
                <circle id="Oval-Copy-119" cx="488.6" cy="74" r="5.2"></circle>
                <circle id="Oval-Copy-118" cx="454.2" cy="74" r="5.2"></circle>
                <circle id="Oval-Copy-107" cx="523" cy="39.6" r="5.2"></circle>
                <circle id="Oval-Copy-106" cx="488.6" cy="39.6" r="5.2"></circle>
                <circle id="Oval-Copy-105" cx="454.2" cy="39.6" r="5.2"></circle>
                <circle id="Oval-Copy-94" cx="523" cy="5.2" r="5.2"></circle>
                <circle id="Oval-Copy-93" cx="488.6" cy="5.2" r="5.2"></circle>
                <circle id="Oval-Copy-92" cx="454.2" cy="5.2" r="5.2"></circle>
                <circle id="Oval-Copy-169" cx="971" cy="177.2" r="5.2"></circle>
                <circle id="Oval-Copy-168" cx="936.6" cy="177.2" r="5.2"></circle>
                <circle id="Oval-Copy-167" cx="902.2" cy="177.2" r="5.2"></circle>
                <circle id="Oval-Copy-166" cx="867.8" cy="177.2" r="5.2"></circle>
                <circle id="Oval-Copy-165" cx="833.4" cy="177.2" r="5.2"></circle>
                <circle id="Oval-Copy-164" cx="799" cy="177.2" r="5.2"></circle>
                <circle id="Oval-Copy-163" cx="764.6" cy="177.2" r="5.2"></circle>
                <circle id="Oval-Copy-162" cx="730.2" cy="177.2" r="5.2"></circle>
                <circle id="Oval-Copy-161" cx="695.8" cy="177.2" r="5.2"></circle>
                <circle id="Oval-Copy-160" cx="661.4" cy="177.2" r="5.2"></circle>
                <circle id="Oval-Copy-159" cx="627" cy="177.2" r="5.2"></circle>
                <circle id="Oval-Copy-158" cx="592.6" cy="177.2" r="5.2"></circle>
                <circle id="Oval-Copy-157" cx="558.2" cy="177.2" r="5.2"></circle>
                <circle id="Oval-Copy-156" cx="971" cy="142.8" r="5.2"></circle>
                <circle id="Oval-Copy-155" cx="936.6" cy="142.8" r="5.2"></circle>
                <circle id="Oval-Copy-154" cx="902.2" cy="142.8" r="5.2"></circle>
                <circle id="Oval-Copy-153" cx="867.8" cy="142.8" r="5.2"></circle>
                <circle id="Oval-Copy-152" cx="833.4" cy="142.8" r="5.2"></circle>
                <circle id="Oval-Copy-151" cx="799" cy="142.8" r="5.2"></circle>
                <circle id="Oval-Copy-150" cx="764.6" cy="142.8" r="5.2"></circle>
                <circle id="Oval-Copy-149" cx="730.2" cy="142.8" r="5.2"></circle>
                <circle id="Oval-Copy-148" cx="695.8" cy="142.8" r="5.2"></circle>
                <circle id="Oval-Copy-147" cx="661.4" cy="142.8" r="5.2"></circle>
                <circle id="Oval-Copy-146" cx="627" cy="142.8" r="5.2"></circle>
                <circle id="Oval-Copy-145" cx="592.6" cy="142.8" r="5.2"></circle>
                <circle id="Oval-Copy-144" cx="558.2" cy="142.8" r="5.2"></circle>
                <circle id="Oval-Copy-143" cx="971" cy="108.4" r="5.2"></circle>
                <circle id="Oval-Copy-142" cx="936.6" cy="108.4" r="5.2"></circle>
                <circle id="Oval-Copy-141" cx="902.2" cy="108.4" r="5.2"></circle>
                <circle id="Oval-Copy-140" cx="867.8" cy="108.4" r="5.2"></circle>
                <circle id="Oval-Copy-139" cx="833.4" cy="108.4" r="5.2"></circle>
                <circle id="Oval-Copy-138" cx="799" cy="108.4" r="5.2"></circle>
                <circle id="Oval-Copy-137" cx="764.6" cy="108.4" r="5.2"></circle>
                <circle id="Oval-Copy-136" cx="730.2" cy="108.4" r="5.2"></circle>
                <circle id="Oval-Copy-135" cx="695.8" cy="108.4" r="5.2"></circle>
                <circle id="Oval-Copy-134" cx="661.4" cy="108.4" r="5.2"></circle>
                <circle id="Oval-Copy-133" cx="627" cy="108.4" r="5.2"></circle>
                <circle id="Oval-Copy-132" cx="592.6" cy="108.4" r="5.2"></circle>
                <circle id="Oval-Copy-131" cx="558.2" cy="108.4" r="5.2"></circle>
                <circle id="Oval-Copy-130" cx="971" cy="74" r="5.2"></circle>
                <circle id="Oval-Copy-129" cx="936.6" cy="74" r="5.2"></circle>
                <circle id="Oval-Copy-128" cx="902.2" cy="74" r="5.2"></circle>
                <circle id="Oval-Copy-127" cx="867.8" cy="74" r="5.2"></circle>
                <circle id="Oval-Copy-126" cx="833.4" cy="74" r="5.2"></circle>
                <circle id="Oval-Copy-125" cx="799" cy="74" r="5.2"></circle>
                <circle id="Oval-Copy-124" cx="764.6" cy="74" r="5.2"></circle>
                <circle id="Oval-Copy-123" cx="730.2" cy="74" r="5.2"></circle>
                <circle id="Oval-Copy-122" cx="695.8" cy="74" r="5.2"></circle>
                <circle id="Oval-Copy-121" cx="661.4" cy="74" r="5.2"></circle>
                <circle id="Oval-Copy-120" cx="627" cy="74" r="5.2"></circle>
                <circle id="Oval-Copy-119" cx="592.6" cy="74" r="5.2"></circle>
                <circle id="Oval-Copy-118" cx="558.2" cy="74" r="5.2"></circle>
                <circle id="Oval-Copy-117" cx="971" cy="39.6" r="5.2"></circle>
                <circle id="Oval-Copy-116" cx="936.6" cy="39.6" r="5.2"></circle>
                <circle id="Oval-Copy-115" cx="902.2" cy="39.6" r="5.2"></circle>
                <circle id="Oval-Copy-114" cx="867.8" cy="39.6" r="5.2"></circle>
                <circle id="Oval-Copy-113" cx="833.4" cy="39.6" r="5.2"></circle>
                <circle id="Oval-Copy-112" cx="799" cy="39.6" r="5.2"></circle>
                <circle id="Oval-Copy-111" cx="764.6" cy="39.6" r="5.2"></circle>
                <circle id="Oval-Copy-110" cx="730.2" cy="39.6" r="5.2"></circle>
                <circle id="Oval-Copy-109" cx="695.8" cy="39.6" r="5.2"></circle>
                <circle id="Oval-Copy-108" cx="661.4" cy="39.6" r="5.2"></circle>
                <circle id="Oval-Copy-107" cx="627" cy="39.6" r="5.2"></circle>
                <circle id="Oval-Copy-106" cx="592.6" cy="39.6" r="5.2"></circle>
                <circle id="Oval-Copy-105" cx="558.2" cy="39.6" r="5.2"></circle>
                <circle id="Oval-Copy-104" cx="971" cy="5.2" r="5.2"></circle>
                <circle id="Oval-Copy-103" cx="936.6" cy="5.2" r="5.2"></circle>
                <circle id="Oval-Copy-102" cx="902.2" cy="5.2" r="5.2"></circle>
                <circle id="Oval-Copy-101" cx="867.8" cy="5.2" r="5.2"></circle>
                <circle id="Oval-Copy-100" cx="833.4" cy="5.2" r="5.2"></circle>
                <circle id="Oval-Copy-99" cx="799" cy="5.2" r="5.2"></circle>
                <circle id="Oval-Copy-98" cx="764.6" cy="5.2" r="5.2"></circle>
                <circle id="Oval-Copy-97" cx="730.2" cy="5.2" r="5.2"></circle>
                <circle id="Oval-Copy-96" cx="695.8" cy="5.2" r="5.2"></circle>
                <circle id="Oval-Copy-95" cx="661.4" cy="5.2" r="5.2"></circle>
                <circle id="Oval-Copy-94" cx="627" cy="5.2" r="5.2"></circle>
                <circle id="Oval-Copy-93" cx="592.6" cy="5.2" r="5.2"></circle>
                <circle id="Oval-Copy-92" cx="558.2" cy="5.2" r="5.2"></circle>
                <circle id="Oval-Copy-159" cx="1076" cy="177.2" r="5.2"></circle>
                <circle id="Oval-Copy-158" cx="1041.6" cy="177.2" r="5.2"></circle>
                <circle id="Oval-Copy-157" cx="1007.2" cy="177.2" r="5.2"></circle>
                <circle id="Oval-Copy-146" cx="1076" cy="142.8" r="5.2"></circle>
                <circle id="Oval-Copy-145" cx="1041.6" cy="142.8" r="5.2"></circle>
                <circle id="Oval-Copy-144" cx="1007.2" cy="142.8" r="5.2"></circle>
                <circle id="Oval-Copy-133" cx="1076" cy="108.4" r="5.2"></circle>
                <circle id="Oval-Copy-132" cx="1041.6" cy="108.4" r="5.2"></circle>
                <circle id="Oval-Copy-131" cx="1007.2" cy="108.4" r="5.2"></circle>
                <circle id="Oval-Copy-120" cx="1076" cy="74" r="5.2"></circle>
                <circle id="Oval-Copy-119" cx="1041.6" cy="74" r="5.2"></circle>
                <circle id="Oval-Copy-118" cx="1007.2" cy="74" r="5.2"></circle>
                <circle id="Oval-Copy-107" cx="1076" cy="39.6" r="5.2"></circle>
                <circle id="Oval-Copy-106" cx="1041.6" cy="39.6" r="5.2"></circle>
                <circle id="Oval-Copy-105" cx="1007.2" cy="39.6" r="5.2"></circle>
                <circle id="Oval-Copy-94" cx="1076" cy="5.2" r="5.2"></circle>
                <circle id="Oval-Copy-93" cx="1041.6" cy="5.2" r="5.2"></circle>
                <circle id="Oval-Copy-92" cx="1007.2" cy="5.2" r="5.2"></circle>
                <circle id="Oval-Copy-169" cx="1181" cy="177.2" r="5.2"></circle>
                <circle id="Oval-Copy-168" cx="1146.6" cy="177.2" r="5.2"></circle>
                <circle id="Oval-Copy-167" cx="1112.2" cy="177.2" r="5.2"></circle>
                <circle id="Oval-Copy-156" cx="1181" cy="142.8" r="5.2"></circle>
                <circle id="Oval-Copy-155" cx="1146.6" cy="142.8" r="5.2"></circle>
                <circle id="Oval-Copy-154" cx="1112.2" cy="142.8" r="5.2"></circle>
                <circle id="Oval-Copy-143" cx="1181" cy="108.4" r="5.2"></circle>
                <circle id="Oval-Copy-142" cx="1146.6" cy="108.4" r="5.2"></circle>
                <circle id="Oval-Copy-141" cx="1112.2" cy="108.4" r="5.2"></circle>
                <circle id="Oval-Copy-130" cx="1181" cy="74" r="5.2"></circle>
                <circle id="Oval-Copy-129" cx="1146.6" cy="74" r="5.2"></circle>
                <circle id="Oval-Copy-128" cx="1112.2" cy="74" r="5.2"></circle>
                <circle id="Oval-Copy-117" cx="1181" cy="39.6" r="5.2"></circle>
                <circle id="Oval-Copy-116" cx="1146.6" cy="39.6" r="5.2"></circle>
                <circle id="Oval-Copy-115" cx="1112.2" cy="39.6" r="5.2"></circle>
                <circle id="Oval-Copy-104" cx="1181" cy="5.2" r="5.2"></circle>
                <circle id="Oval-Copy-103" cx="1146.6" cy="5.2" r="5.2"></circle>
                <circle id="Oval-Copy-102" cx="1112.2" cy="5.2" r="5.2"></circle>
                <circle id="Oval-Copy-159" cx="1286" cy="177.2" r="5.2"></circle>
                <circle id="Oval-Copy-158" cx="1251.6" cy="177.2" r="5.2"></circle>
                <circle id="Oval-Copy-157" cx="1217.2" cy="177.2" r="5.2"></circle>
                <circle id="Oval-Copy-146" cx="1286" cy="142.8" r="5.2"></circle>
                <circle id="Oval-Copy-145" cx="1251.6" cy="142.8" r="5.2"></circle>
                <circle id="Oval-Copy-144" cx="1217.2" cy="142.8" r="5.2"></circle>
                <circle id="Oval-Copy-133" cx="1286" cy="108.4" r="5.2"></circle>
                <circle id="Oval-Copy-132" cx="1251.6" cy="108.4" r="5.2"></circle>
                <circle id="Oval-Copy-131" cx="1217.2" cy="108.4" r="5.2"></circle>
                <circle id="Oval-Copy-120" cx="1286" cy="74" r="5.2"></circle>
                <circle id="Oval-Copy-119" cx="1251.6" cy="74" r="5.2"></circle>
                <circle id="Oval-Copy-118" cx="1217.2" cy="74" r="5.2"></circle>
                <circle id="Oval-Copy-107" cx="1286" cy="39.6" r="5.2"></circle>
                <circle id="Oval-Copy-106" cx="1251.6" cy="39.6" r="5.2"></circle>
                <circle id="Oval-Copy-105" cx="1217.2" cy="39.6" r="5.2"></circle>
                <circle id="Oval-Copy-94" cx="1286" cy="5.2" r="5.2"></circle>
                <circle id="Oval-Copy-93" cx="1251.6" cy="5.2" r="5.2"></circle>
                <circle id="Oval-Copy-92" cx="1217.2" cy="5.2" r="5.2"></circle>
            </g>
        </g>
    </g>
</svg>