<?xml version="1.0" encoding="utf-8"?>
<!-- Generator: Adobe Illustrator 24.1.1, SVG Export Plug-In . SVG Version: 6.00 Build 0)  -->
<svg version="1.1" xmlns="http://www.w3.org/2000/svg" xmlns:xlink="http://www.w3.org/1999/xlink" x="0px" y="0px"
	 viewBox="0 0 48 48" style="enable-background:new 0 0 48 48;" xml:space="preserve">
<style type="text/css">
	.st0{display:none;}
	.st1{display:inline;}
	.st2{fill:none;}
	.st3{fill:#5702AF;}
	.st4{fill:#00CCCC;}
	.st5{fill:#FF6813;}
</style>
<g id="Layer_1" class="st0">
	<g id="Main-Page" class="st1">
		<g id="_x30_2-1-2-Pricing" transform="translate(-1173.000000, -3441.000000)">
			<g id="Additional-Functionality" transform="translate(364.000000, 3007.000000)">
				<g id="Dedicated-Support" transform="translate(809.000000, 434.000000)">
					<g id="Ico-6">
						<rect id="Rectangle" y="0" class="st2" width="48" height="48"/>
						<path id="_xE8A5_" class="st3" d="M39.6,22.7l0.2,0c0.4,0,0.7-0.2,0.9-0.5s0.3-0.6,0.3-1c-0.4-3.3-1.8-6.2-4.1-8.4
							s-5.1-3.6-8.4-4.1c-0.3,0-0.5,0-0.7,0.1S27.3,9,27.2,9.2s-0.2,0.4-0.3,0.7s0,0.5,0.1,0.7s0.3,0.4,0.5,0.6s0.4,0.2,0.7,0.3
							c2.7,0.3,5,1.4,6.8,3.2s2.9,4.1,3.3,6.8c0,0.4,0.2,0.7,0.5,0.9s0.6,0.3,1,0.3L39.6,22.7z M34.9,41.1c0.6,0.1,1.2,0,1.7-0.2
							s1.1-0.5,1.5-0.9s0.8-0.9,1-1.4s0.3-1.1,0.3-1.7l0,0v-4.2c0-1.1-0.3-2.1-1-2.8s-1.6-1.3-2.6-1.4c-1.3-0.2-2.5-0.5-3.7-0.9
							c-0.8-0.3-1.6-0.3-2.4-0.2s-1.5,0.5-2.1,1.1l0,0l-1,1c-1.3-0.8-2.5-1.8-3.6-2.9s-2-2.3-2.9-3.6l0,0l1-1c0.6-0.6,1-1.3,1.1-2.1
							s0.1-1.6-0.2-2.4c-0.4-1.2-0.7-2.4-0.9-3.7c-0.2-1.1-0.7-2-1.4-2.6s-1.7-1-2.8-1l0,0h-4.3c-0.6,0-1.2,0.1-1.7,0.4
							s-1,0.6-1.4,1S9,12.4,8.8,13s-0.3,1.1-0.2,1.7c0.2,2.3,0.8,4.5,1.5,6.7s1.8,4.2,3.1,6.2c1.1,1.8,2.4,3.5,4,5s3.2,2.8,5,4
							c1.9,1.3,4,2.3,6.1,3S32.6,40.9,34.9,41.1z M35.3,38.3l-0.2,0c-2.1-0.2-4.1-0.7-6-1.4s-3.8-1.6-5.5-2.7
							c-1.6-1-3.1-2.2-4.5-3.6s-2.6-2.8-3.6-4.5c-1.1-1.8-2-3.6-2.7-5.6s-1.2-4-1.4-6.1c0-0.4,0.1-0.7,0.4-1s0.6-0.4,1-0.4l0,0h4.3
							c0.4,0,0.7,0.1,1,0.3s0.4,0.5,0.5,0.9c0.2,1.5,0.6,2.9,1.1,4.3c0.1,0.3,0.1,0.5,0,0.8s-0.2,0.5-0.4,0.7l0,0l-1.8,1.8
							c-0.2,0.2-0.4,0.5-0.4,0.8s0,0.6,0.2,0.9c1.1,1.9,2.4,3.6,3.9,5.1s3.2,2.8,5.1,3.9c0.3,0.2,0.6,0.2,0.9,0.2s0.6-0.2,0.8-0.4
							l0,0l1.8-1.8c0.2-0.2,0.4-0.3,0.7-0.3s0.5,0,0.8,0c1.4,0.5,2.8,0.9,4.3,1.1c0.4,0.1,0.6,0.2,0.9,0.5s0.3,0.6,0.3,1l0,0v4.3
							c0,0.4-0.2,0.7-0.5,1s-0.7,0.4-1.1,0.4L35.3,38.3z M33.4,22.7c0.3,0.1,0.5,0.1,0.7,0.1s0.5-0.2,0.7-0.3s0.3-0.4,0.4-0.6
							s0.1-0.5,0-0.8c-0.4-1.7-1.2-3.2-2.4-4.4s-2.7-2-4.4-2.3c-0.4,0-0.7,0-1,0.2s-0.5,0.5-0.6,0.9s0,0.7,0.2,1s0.5,0.5,0.9,0.6
							c1.2,0.2,2.1,0.8,2.9,1.6s1.3,1.8,1.6,2.9c0,0.2,0.1,0.5,0.3,0.7S33.2,22.6,33.4,22.7z"/>
					</g>
				</g>
			</g>
		</g>
	</g>
</g>
<g id="Layer_2">
	<path id="_xE8A5__1_" class="st3" d="M34.9,41.1c0.6,0.1,1.2,0,1.7-0.2s1.1-0.5,1.5-0.9s0.8-0.9,1-1.4s0.3-1.1,0.3-1.7l0,0v-4.2
		c0-1.1-0.3-2.1-1-2.8s-1.6-1.3-2.6-1.4c-1.3-0.2-2.5-0.5-3.7-0.9c-0.8-0.3-1.6-0.3-2.4-0.2s-1.5,0.5-2.1,1.1l0,0l-1,1
		c-1.3-0.8-2.5-1.8-3.6-2.9s-2-2.3-2.9-3.6l0,0l1-1c0.6-0.6,1-1.3,1.1-2.1s0.1-1.6-0.2-2.4c-0.4-1.2-0.7-2.4-0.9-3.7
		c-0.2-1.1-0.7-2-1.4-2.6s-1.7-1-2.8-1l0,0h-4.3c-0.6,0-1.2,0.1-1.7,0.4s-1,0.6-1.4,1S9,12.4,8.8,13s-0.3,1.1-0.2,1.7
		c0.2,2.3,0.8,4.5,1.5,6.7s1.8,4.2,3.1,6.2c1.1,1.8,2.4,3.5,4,5s3.2,2.8,5,4c1.9,1.3,4,2.3,6.1,3S32.6,40.9,34.9,41.1z M35.3,38.3
		l-0.2,0c-2.1-0.2-4.1-0.7-6-1.4s-3.8-1.6-5.5-2.7c-1.6-1-3.1-2.2-4.5-3.6s-2.6-2.8-3.6-4.5c-1.1-1.8-2-3.6-2.7-5.6s-1.2-4-1.4-6.1
		c0-0.4,0.1-0.7,0.4-1s0.6-0.4,1-0.4l0,0h4.3c0.4,0,0.7,0.1,1,0.3s0.4,0.5,0.5,0.9c0.2,1.5,0.6,2.9,1.1,4.3c0.1,0.3,0.1,0.5,0,0.8
		s-0.2,0.5-0.4,0.7l0,0l-1.8,1.8c-0.2,0.2-0.4,0.5-0.4,0.8s0,0.6,0.2,0.9c1.1,1.9,2.4,3.6,3.9,5.1s3.2,2.8,5.1,3.9
		c0.3,0.2,0.6,0.2,0.9,0.2s0.6-0.2,0.8-0.4l0,0l1.8-1.8c0.2-0.2,0.4-0.3,0.7-0.3s0.5,0,0.8,0c1.4,0.5,2.8,0.9,4.3,1.1
		c0.4,0.1,0.6,0.2,0.9,0.5s0.3,0.6,0.3,1l0,0v4.3c0,0.4-0.2,0.7-0.5,1s-0.7,0.4-1.1,0.4L35.3,38.3z"/>
</g>
<g id="Layer_3">
	<path class="st4" d="M33.4,22.7c0.3,0.1,0.5,0.1,0.7,0.1s0.5-0.2,0.7-0.3s0.3-0.4,0.4-0.6s0.1-0.5,0-0.8c-0.4-1.7-1.2-3.2-2.4-4.4
		s-2.7-2-4.4-2.3c-0.4,0-0.7,0-1,0.2s-0.5,0.5-0.6,0.9s0,0.7,0.2,1s0.5,0.5,0.9,0.6c1.2,0.2,2.1,0.8,2.9,1.6s1.3,1.8,1.6,2.9
		c0,0.2,0.1,0.5,0.3,0.7S33.2,22.6,33.4,22.7z"/>
	<path class="st5" d="M39.6,22.7l0.2,0c0.4,0,0.7-0.2,0.9-0.5s0.3-0.6,0.3-1c-0.4-3.3-1.8-6.2-4.1-8.4s-5.1-3.6-8.4-4.1
		c-0.3,0-0.5,0-0.7,0.1S27.4,9,27.2,9.2S27,9.7,26.9,9.9s0,0.5,0.1,0.7s0.3,0.4,0.5,0.6s0.4,0.2,0.7,0.3c2.7,0.3,5,1.4,6.8,3.2
		s2.9,4.1,3.3,6.8c0,0.4,0.2,0.7,0.5,0.9s0.6,0.3,1,0.3L39.6,22.7z"/>
</g>
</svg>
