<?xml version="1.0" encoding="UTF-8"?>
<svg width="44px" height="44px" viewBox="0 0 44 44" version="1.1" xmlns="http://www.w3.org/2000/svg" xmlns:xlink="http://www.w3.org/1999/xlink">
    <title>D110704A-A60F-4E18-BFCC-5C890B4DD66C@1x</title>
    <g id="Main-Page" stroke="none" stroke-width="1" fill="none" fill-rule="evenodd">
        <g id="03-1-2-Affiliates" transform="translate(-366.000000, -3071.000000)">
            <g id="Group-1" transform="translate(366.000000, 3071.000000)">
                <g id="1">
                    <g id="Ico-31">
                        <rect id="Rectangle" x="0" y="0" width="44" height="44"></rect>
                        <path d="M21.75,22.1777344 C23.7643229,22.1334635 25.4355469,21.4417318 26.7636719,20.1025391 C28.0917969,18.7633464 28.7779948,17.0976562 28.8222656,15.1054688 C28.7779948,13.0911458 28.0917969,11.4199219 26.7636719,10.0917969 C25.4355469,8.76367188 23.7643229,8.06640625 21.75,8 C19.7356771,8.06640625 18.0644531,8.76367188 16.7363281,10.0917969 C15.4082031,11.4199219 14.7220052,13.0911458 14.6777344,15.1054688 C14.7220052,17.0976562 15.4082031,18.7633464 16.7363281,20.1025391 C18.0644531,21.4417318 19.7356771,22.1334635 21.75,22.1777344 Z M21.75,19.3554688 C20.5546875,19.3111979 19.5530599,18.890625 18.7451172,18.09375 C17.9371745,17.296875 17.5221354,16.3007812 17.5,15.1054688 C17.5221354,13.8880208 17.9371745,12.8808594 18.7451172,12.0839844 C19.5530599,11.2871094 20.5546875,10.8776042 21.75,10.8554688 C22.9453125,10.8776042 23.9469401,11.2871094 24.7548828,12.0839844 C25.5628255,12.8808594 25.9778646,13.8880208 26,15.1054688 C25.9778646,16.3007812 25.5628255,17.296875 24.7548828,18.09375 C23.9469401,18.890625 22.9453125,19.3111979 21.75,19.3554688 Z M33.0722656,36.3222656 C33.4707031,36.3222656 33.8082682,36.1894531 34.0849609,35.9238281 C34.3616536,35.6582031 34.5,35.3261719 34.5,34.9277344 L34.5,34.9277344 L34.5,32.1054688 C34.5,31.1536458 34.3229167,30.2460938 33.96875,29.3828125 C33.6145833,28.5195312 33.0999349,27.7558594 32.4248047,27.0917969 C31.7496745,26.4277344 30.9804688,25.9130859 30.1171875,25.5478516 C29.2539062,25.1826172 28.3574219,25 27.4277344,25 L27.4277344,25 L16.0722656,25 C15.1425781,25 14.2460938,25.1826172 13.3828125,25.5478516 C12.5195312,25.9130859 11.7503255,26.4277344 11.0751953,27.0917969 C10.4000651,27.7558594 9.88541667,28.5195312 9.53125,29.3828125 C9.17708333,30.2460938 9,31.1536458 9,32.1054688 L9,32.1054688 L9,34.9277344 C9,35.3261719 9.13834635,35.6582031 9.41503906,35.9238281 C9.69173177,36.1894531 10.0292969,36.3222656 10.4277344,36.3222656 C10.8261719,36.3222656 11.1582031,36.1894531 11.4238281,35.9238281 C11.6894531,35.6582031 11.8222656,35.3261719 11.8222656,34.9277344 L11.8222656,34.9277344 L11.8222656,32.1054688 C11.8665365,30.8880208 12.2871094,29.8808594 13.0839844,29.0839844 C13.8808594,28.2871094 14.8769531,27.8776042 16.0722656,27.8554688 L16.0722656,27.8554688 L27.4277344,27.8554688 C28.6230469,27.8776042 29.6191406,28.2871094 30.4160156,29.0839844 C31.2128906,29.8808594 31.6334635,30.8880208 31.6777344,32.1054688 L31.6777344,32.1054688 L31.6777344,34.9277344 C31.6777344,35.3261719 31.8105469,35.6582031 32.0761719,35.9238281 C32.3417969,36.1894531 32.6738281,36.3222656 33.0722656,36.3222656 Z" id="" fill="#5702AF" fill-rule="nonzero"></path>
                    </g>
                </g>
            </g>
        </g>
    </g>
</svg>